mtllib chest_common_lid.mtl
o lid
v 0.45000 0.26471 0.58676
v 0.45000 -0.00000 0.58676
v 0.45000 0.26471 -0.01324
v 0.45000 -0.00000 0.58676
v 0.45000 -0.00000 -0.01324
v 0.45000 0.26471 -0.01324
v -0.45000 0.26471 -0.01324
v -0.45000 -0.00000 -0.01324
v -0.45000 0.26471 0.58676
v -0.45000 -0.00000 -0.01324
v -0.45000 -0.00000 0.58676
v -0.45000 0.26471 0.58676
v -0.45000 0.26471 -0.01324
v -0.45000 0.26471 0.58676
v 0.45000 0.26471 -0.01324
v -0.45000 0.26471 0.58676
v 0.45000 0.26471 0.58676
v 0.45000 0.26471 -0.01324
v -0.45000 -0.00000 0.58676
v -0.45000 -0.00000 -0.01324
v 0.45000 -0.00000 0.58676
v -0.45000 -0.00000 -0.01324
v 0.45000 -0.00000 -0.01324
v 0.45000 -0.00000 0.58676
v -0.45000 0.26471 0.58676
v -0.45000 -0.00000 0.58676
v 0.45000 0.26471 0.58676
v -0.45000 -0.00000 0.58676
v 0.45000 -0.00000 0.58676
v 0.45000 0.26471 0.58676
v 0.45000 0.26471 -0.01324
v 0.45000 -0.00000 -0.01324
v -0.45000 0.26471 -0.01324
v 0.45000 -0.00000 -0.01324
v -0.45000 -0.00000 -0.01324
v -0.45000 0.26471 -0.01324
vn 1.00000 0.00000 0.00000
vn 1.00000 0.00000 0.00000
vn 1.00000 0.00000 0.00000
vn 1.00000 0.00000 0.00000
vn 1.00000 0.00000 0.00000
vn 1.00000 0.00000 0.00000
vn -1.00000 0.00000 0.00000
vn -1.00000 0.00000 0.00000
vn -1.00000 0.00000 0.00000
vn -1.00000 0.00000 0.00000
vn -1.00000 0.00000 0.00000
vn -1.00000 0.00000 0.00000
vn 0.00000 1.00000 0.00000
vn 0.00000 1.00000 0.00000
vn 0.00000 1.00000 0.00000
vn 0.00000 1.00000 0.00000
vn 0.00000 1.00000 0.00000
vn 0.00000 1.00000 0.00000
vn 0.00000 -1.00000 0.00000
vn 0.00000 -1.00000 0.00000
vn 0.00000 -1.00000 0.00000
vn 0.00000 -1.00000 0.00000
vn 0.00000 -1.00000 0.00000
vn 0.00000 -1.00000 0.00000
vn 0.00000 0.00000 1.00000
vn 0.00000 0.00000 1.00000
vn 0.00000 0.00000 1.00000
vn 0.00000 0.00000 1.00000
vn 0.00000 0.00000 1.00000
vn 0.00000 0.00000 1.00000
vn 0.00000 0.00000 -1.00000
vn 0.00000 0.00000 -1.00000
vn 0.00000 0.00000 -1.00000
vn 0.00000 0.00000 -1.00000
vn 0.00000 0.00000 -1.00000
vn 0.00000 0.00000 -1.00000
usemtl chest_wood
f 1//1 2//2 3//3
f 4//4 5//5 6//6
f 7//7 8//8 9//9
f 10//10 11//11 12//12
f 13//13 14//14 15//15
f 16//16 17//17 18//18
f 19//19 20//20 21//21
f 22//22 23//23 24//24
f 25//25 26//26 27//27
f 28//28 29//29 30//30
f 31//31 32//32 33//33
f 34//34 35//35 36//36
o lid_strap
v 0.45882 0.14118 0.61324
v 0.45882 0.08824 0.61324
v 0.45882 0.14118 0.52500
v 0.45882 0.08824 0.61324
v 0.45882 0.08824 0.52500
v 0.45882 0.14118 0.52500
v -0.45882 0.14118 0.52500
v -0.45882 0.08824 0.52500
v -0.45882 0.14118 0.61324
v -0.45882 0.08824 0.52500
v -0.45882 0.08824 0.61324
v -0.45882 0.14118 0.61324
v -0.45882 0.14118 0.52500
v -0.45882 0.14118 0.61324
v 0.45882 0.14118 0.52500
v -0.45882 0.14118 0.61324
v 0.45882 0.14118 0.61324
v 0.45882 0.14118 0.52500
v -0.45882 0.08824 0.61324
v -0.45882 0.08824 0.52500
v 0.45882 0.08824 0.61324
v -0.45882 0.08824 0.52500
v 0.45882 0.08824 0.52500
v 0.45882 0.08824 0.61324
v -0.45882 0.14118 0.61324
v -0.45882 0.08824 0.61324
v 0.45882 0.14118 0.61324
v -0.45882 0.08824 0.61324
v 0.45882 0.08824 0.61324
v 0.45882 0.14118 0.61324
v 0.45882 0.14118 0.52500
v 0.45882 0.08824 0.52500
v -0.45882 0.14118 0.52500
v 0.45882 0.08824 0.52500
v -0.45882 0.08824 0.52500
v -0.45882 0.14118 0.52500
vn 1.00000 0.00000 0.00000
vn 1.00000 0.00000 0.00000
vn 1.00000 0.00000 0.00000
vn 1.00000 0.00000 0.00000
vn 1.00000 0.00000 0.00000
vn 1.00000 0.00000 0.00000
vn -1.00000 0.00000 0.00000
vn -1.00000 0.00000 0.00000
vn -1.00000 0.00000 0.00000
vn -1.00000 0.00000 0.00000
vn -1.00000 0.00000 0.00000
vn -1.00000 0.00000 0.00000
vn 0.00000 1.00000 0.00000
vn 0.00000 1.00000 0.00000
vn 0.00000 1.00000 0.00000
vn 0.00000 1.00000 0.00000
vn 0.00000 1.00000 0.00000
vn 0.00000 1.00000 0.00000
vn 0.00000 -1.00000 0.00000
vn 0.00000 -1.00000 0.00000
vn 0.00000 -1.00000 0.00000
vn 0.00000 -1.00000 0.00000
vn 0.00000 -1.00000 0.00000
vn 0.00000 -1.00000 0.00000
vn 0.00000 0.00000 1.00000
vn 0.00000 0.00000 1.00000
vn 0.00000 0.00000 1.00000
vn 0.00000 0.00000 1.00000
vn 0.00000 0.00000 1.00000
vn 0.00000 0.00000 1.00000
vn 0.00000 0.00000 -1.00000
vn 0.00000 0.00000 -1.00000
vn 0.00000 0.00000 -1.00000
vn 0.00000 0.00000 -1.00000
vn 0.00000 0.00000 -1.00000
vn 0.00000 0.00000 -1.00000
usemtl chest_iron
f 37//37 38//38 39//39
f 40//40 41//41 42//42
f 43//43 44//44 45//45
f 46//46 47//47 48//48
f 49//49 50//50 51//51
f 52//52 53//53 54//54
f 55//55 56//56 57//57
f 58//58 59//59 60//60
f 61//61 62//62 63//63
f 64//64 65//65 66//66
f 67//67 68//68 69//69
f 70//70 71//71 72//72
