mtllib ice_spike.mtl
o spike_main
v -0.01862 0.00000 0.07236
v 0.05746 0.00000 0.01708
v -0.01862 0.60000 -0.00764
v 0.05746 0.00000 0.01708
v 0.02840 0.00000 -0.07236
v -0.01862 0.60000 -0.00764
v 0.02840 0.00000 -0.07236
v -0.06564 0.00000 -0.07236
v -0.01862 0.60000 -0.00764
v -0.06564 0.00000 -0.07236
v -0.09470 0.00000 0.01708
v -0.01862 0.60000 -0.00764
v -0.09470 0.00000 0.01708
v -0.01862 0.00000 0.07236
v -0.01862 0.60000 -0.00764
v 0.05746 0.00000 0.01708
v -0.01862 0.00000 0.07236
v -0.01862 0.00000 -0.00764
v 0.02840 0.00000 -0.07236
v 0.05746 0.00000 0.01708
v -0.01862 0.00000 -0.00764
v -0.06564 0.00000 -0.07236
v 0.02840 0.00000 -0.07236
v -0.01862 0.00000 -0.00764
v -0.09470 0.00000 0.01708
v -0.06564 0.00000 -0.07236
v -0.01862 0.00000 -0.00764
v -0.01862 0.00000 0.07236
v -0.09470 0.00000 0.01708
v -0.01862 0.00000 -0.00764
vn 0.58440 0.10725 0.80435
vn 0.58440 0.10725 0.80435
vn 0.58440 0.10725 0.80435
vn 0.94557 0.10725 -0.30723
vn 0.94557 0.10725 -0.30723
vn 0.94557 0.10725 -0.30723
vn 0.00000 0.10725 -0.99423
vn 0.00000 0.10725 -0.99423
vn 0.00000 0.10725 -0.99423
vn -0.94557 0.10725 -0.30723
vn -0.94557 0.10725 -0.30723
vn -0.94557 0.10725 -0.30723
vn -0.58440 0.10725 0.80435
vn -0.58440 0.10725 0.80435
vn -0.58440 0.10725 0.80435
vn 0.00000 -1.00000 0.00000
vn 0.00000 -1.00000 0.00000
vn 0.00000 -1.00000 0.00000
vn 0.00000 -1.00000 0.00000
vn 0.00000 -1.00000 0.00000
vn 0.00000 -1.00000 0.00000
vn 0.00000 -1.00000 0.00000
vn 0.00000 -1.00000 0.00000
vn 0.00000 -1.00000 0.00000
vn 0.00000 -1.00000 0.00000
vn 0.00000 -1.00000 0.00000
vn 0.00000 -1.00000 0.00000
vn 0.00000 -1.00000 0.00000
vn 0.00000 -1.00000 0.00000
vn 0.00000 -1.00000 0.00000
usemtl ice
f 1//1 2//2 3//3
f 4//4 5//5 6//6
f 7//7 8//8 9//9
f 10//10 11//11 12//12
f 13//13 14//14 15//15
f 16//16 17//17 18//18
f 19//19 20//20 21//21
f 22//22 23//23 24//24
f 25//25 26//26 27//27
f 28//28 29//29 30//30
o spike_side
v 0.05595 0.13435 0.02111
v 0.09470 0.15011 -0.01696
v -0.02652 0.45967 0.02983
v 0.09470 0.15011 -0.01696
v 0.05595 0.14631 -0.05799
v -0.02652 0.45967 0.02983
v 0.05595 0.14631 -0.05799
v 0.01719 0.13054 -0.01992
v -0.02652 0.45967 0.02983
v 0.01719 0.13054 -0.01992
v 0.05595 0.13435 0.02111
v -0.02652 0.45967 0.02983
v 0.09470 0.15011 -0.01696
v 0.05595 0.13435 0.02111
v 0.05595 0.14033 -0.01844
v 0.05595 0.14631 -0.05799
v 0.09470 0.15011 -0.01696
v 0.05595 0.14033 -0.01844
v 0.01719 0.13054 -0.01992
v 0.05595 0.14631 -0.05799
v 0.05595 0.14033 -0.01844
v 0.05595 0.13435 0.02111
v 0.01719 0.13054 -0.01992
v 0.05595 0.14033 -0.01844
vn 0.66175 0.14807 0.73495
vn 0.66175 0.14807 0.73495
vn 0.66175 0.14807 0.73495
vn 0.66175 0.35865 -0.65837
vn 0.66175 0.35865 -0.65837
vn 0.66175 0.35865 -0.65837
vn -0.70359 0.01393 -0.71047
vn -0.70359 0.01393 -0.71047
vn -0.70359 0.01393 -0.71047
vn -0.70359 -0.19665 0.68286
vn -0.70359 -0.19665 0.68286
vn -0.70359 -0.19665 0.68286
vn 0.24740 -0.95803 -0.14479
vn 0.24740 -0.95803 -0.14479
vn 0.24740 -0.95803 -0.14479
vn 0.24740 -0.95803 -0.14479
vn 0.24740 -0.95803 -0.14479
vn 0.24740 -0.95803 -0.14479
vn 0.24740 -0.95803 -0.14479
vn 0.24740 -0.95803 -0.14479
vn 0.24740 -0.95803 -0.14479
vn 0.24740 -0.95803 -0.14479
vn 0.24740 -0.95803 -0.14479
vn 0.24740 -0.95803 -0.14479
usemtl ice
f 31//31 32//32 33//33
f 34//34 35//35 36//36
f 37//37 38//38 39//39
f 40//40 41//41 42//42
f 43//43 44//44 45//45
f 46//46 47//47 48//48
f 49//49 50//50 51//51
f 52//52 53//53 54//54
