mtllib reed.mtl
o blade_lower
v -0.04669 0.00266 -0.00404
v -0.03975 0.00208 -0.00694
v -0.04452 0.02408 0.00887
v -0.02910 0.02279 0.00243
v -0.04452 0.02408 0.00887
v -0.03975 0.00208 -0.00694
v -0.04452 0.02408 0.00887
v -0.02910 0.02279 0.00243
v -0.02845 0.18486 0.01092
v -0.01612 0.18383 0.00577
v -0.02845 0.18486 0.01092
v -0.02910 0.02279 0.00243
v -0.02845 0.18486 0.01092
v -0.01612 0.18383 0.00577
v -0.01238 0.34564 0.01297
v -0.00313 0.34487 0.00910
v -0.01238 0.34564 0.01297
v -0.01612 0.18383 0.00577
v -0.01238 0.34564 0.01297
v -0.00313 0.34487 0.00910
v -0.01018 0.36783 0.00662
v -0.00602 0.36748 0.00488
v -0.01018 0.36783 0.00662
v -0.00313 0.34487 0.00910
v -0.03975 0.00208 -0.00694
v -0.03686 0.00207 -0.01391
v -0.02910 0.02279 0.00243
v -0.02269 0.02277 -0.01305
v -0.02910 0.02279 0.00243
v -0.03686 0.00207 -0.01391
v -0.02910 0.02279 0.00243
v -0.02269 0.02277 -0.01305
v -0.01612 0.18383 0.00577
v -0.01098 0.18381 -0.00662
v -0.01612 0.18383 0.00577
v -0.02269 0.02277 -0.01305
v -0.01612 0.18383 0.00577
v -0.01098 0.18381 -0.00662
v -0.00313 0.34487 0.00910
v 0.00072 0.34485 -0.00019
v -0.00313 0.34487 0.00910
v -0.01098 0.18381 -0.00662
v -0.00313 0.34487 0.00910
v 0.00072 0.34485 -0.00019
v -0.00602 0.36748 0.00488
v -0.00428 0.36747 0.00070
v -0.00602 0.36748 0.00488
v 0.00072 0.34485 -0.00019
v -0.03686 0.00207 -0.01391
v -0.03972 0.00263 -0.02086
v -0.02269 0.02277 -0.01305
v -0.02904 0.02403 -0.02851
v -0.02269 0.02277 -0.01305
v -0.03972 0.00263 -0.02086
v -0.02269 0.02277 -0.01305
v -0.02904 0.02403 -0.02851
v -0.01098 0.18381 -0.00662
v -0.01607 0.18482 -0.01899
v -0.01098 0.18381 -0.00662
v -0.02904 0.02403 -0.02851
v -0.01098 0.18381 -0.00662
v -0.01607 0.18482 -0.01899
v 0.00072 0.34485 -0.00019
v -0.00309 0.34561 -0.00946
v 0.00072 0.34485 -0.00019
v -0.01607 0.18482 -0.01899
v 0.00072 0.34485 -0.00019
v -0.00309 0.34561 -0.00946
v -0.00428 0.36747 0.00070
v -0.00600 0.36781 -0.00347
v -0.00428 0.36747 0.00070
v -0.00309 0.34561 -0.00946
v -0.03972 0.00263 -0.02086
v -0.04665 0.00344 -0.02373
v -0.02904 0.02403 -0.02851
v -0.04444 0.02582 -0.03489
v -0.02904 0.02403 -0.02851
v -0.04665 0.00344 -0.02373
v -0.02904 0.02403 -0.02851
v -0.04444 0.02582 -0.03489
v -0.01607 0.18482 -0.01899
v -0.02838 0.18625 -0.02409
v -0.01607 0.18482 -0.01899
v -0.04444 0.02582 -0.03489
v -0.01607 0.18482 -0.01899
v -0.02838 0.18625 -0.02409
v -0.00309 0.34561 -0.00946
v -0.01233 0.34668 -0.01329
v -0.00309 0.34561 -0.00946
v -0.02838 0.18625 -0.02409
v -0.00309 0.34561 -0.00946
v -0.01233 0.34668 -0.01329
v -0.00600 0.36781 -0.00347
v -0.01016 0.36830 -0.00519
v -0.00600 0.36781 -0.00347
v -0.01233 0.34668 -0.01329
v -0.04665 0.00344 -0.02373
v -0.05359 0.00402 -0.02084
v -0.04444 0.02582 -0.03489
v -0.05986 0.02710 -0.02845
v -0.04444 0.02582 -0.03489
v -0.05359 0.00402 -0.02084
v -0.04444 0.02582 -0.03489
v -0.05986 0.02710 -0.02845
v -0.02838 0.18625 -0.02409
v -0.04072 0.18728 -0.01894
v -0.02838 0.18625 -0.02409
v -0.05986 0.02710 -0.02845
v -0.02838 0.18625 -0.02409
v -0.04072 0.18728 -0.01894
v -0.01233 0.34668 -0.01329
v -0.02159 0.34745 -0.00943
v -0.01233 0.34668 -0.01329
v -0.04072 0.18728 -0.01894
v -0.01233 0.34668 -0.01329
v -0.02159 0.34745 -0.00943
v -0.01016 0.36830 -0.00519
v -0.01432 0.36864 -0.00345
v -0.01016 0.36830 -0.00519
v -0.02159 0.34745 -0.00943
v -0.05359 0.00402 -0.02084
v -0.05648 0.00403 -0.01387
v -0.05986 0.02710 -0.02845
v -0.06627 0.02713 -0.01297
v -0.05986 0.02710 -0.02845
v -0.05648 0.00403 -0.01387
v -0.05986 0.02710 -0.02845
v -0.06627 0.02713 -0.01297
v -0.04072 0.18728 -0.01894
v -0.04585 0.18730 -0.00655
v -0.04072 0.18728 -0.01894
v -0.06627 0.02713 -0.01297
v -0.04072 0.18728 -0.01894
v -0.04585 0.18730 -0.00655
v -0.02159 0.34745 -0.00943
v -0.02543 0.34747 -0.00014
v -0.02159 0.34745 -0.00943
v -0.04585 0.18730 -0.00655
v -0.02159 0.34745 -0.00943
v -0.02543 0.34747 -0.00014
v -0.01432 0.36864 -0.00345
v -0.01605 0.36865 0.00073
v -0.01432 0.36864 -0.00345
v -0.02543 0.34747 -0.00014
v -0.05648 0.00403 -0.01387
v -0.05362 0.00346 -0.00691
v -0.06627 0.02713 -0.01297
v -0.05992 0.02587 0.00249
v -0.06627 0.02713 -0.01297
v -0.05362 0.00346 -0.00691
v -0.06627 0.02713 -0.01297
v -0.05992 0.02587 0.00249
v -0.04585 0.18730 -0.00655
v -0.04077 0.18629 0.00582
v -0.04585 0.18730 -0.00655
v -0.05992 0.02587 0.00249
v -0.04585 0.18730 -0.00655
v -0.04077 0.18629 0.00582
v -0.02543 0.34747 -0.00014
v -0.02162 0.34671 0.00914
v -0.02543 0.34747 -0.00014
v -0.04077 0.18629 0.00582
v -0.02543 0.34747 -0.00014
v -0.02162 0.34671 0.00914
v -0.01605 0.36865 0.00073
v -0.01434 0.36831 0.00490
v -0.01605 0.36865 0.00073
v -0.02162 0.34671 0.00914
v -0.05362 0.00346 -0.00691
v -0.04669 0.00266 -0.00404
v -0.05992 0.02587 0.00249
v -0.04452 0.02408 0.00887
v -0.05992 0.02587 0.00249
v -0.04669 0.00266 -0.00404
v -0.05992 0.02587 0.00249
v -0.04452 0.02408 0.00887
v -0.04077 0.18629 0.00582
v -0.02845 0.18486 0.01092
v -0.04077 0.18629 0.00582
v -0.04452 0.02408 0.00887
v -0.04077 0.18629 0.00582
v -0.02845 0.18486 0.01092
v -0.02162 0.34671 0.00914
v -0.01238 0.34564 0.01297
v -0.02162 0.34671 0.00914
v -0.02845 0.18486 0.01092
v -0.02162 0.34671 0.00914
v -0.01238 0.34564 0.01297
v -0.01434 0.36831 0.00490
v -0.01018 0.36783 0.00662
v -0.01434 0.36831 0.00490
v -0.01238 0.34564 0.01297
vn 0.29341 -0.51509 0.80535
vn 0.29341 -0.51509 0.80535
vn 0.29341 -0.51509 0.80535
vn 0.29341 -0.51509 0.80535
vn 0.29341 -0.51509 0.80535
vn 0.29341 -0.51509 0.80535
vn 0.38133 -0.04987 0.92309
vn 0.38133 -0.04987 0.92309
vn 0.38133 -0.04987 0.92309
vn 0.38133 -0.04987 0.92309
vn 0.38133 -0.04987 0.92309
vn 0.38133 -0.04987 0.92309
vn 0.38133 -0.04987 0.92309
vn 0.38133 -0.04987 0.92309
vn 0.38133 -0.04987 0.92309
vn 0.38133 -0.04987 0.92309
vn 0.38133 -0.04987 0.92309
vn 0.38133 -0.04987 0.92309
vn 0.39150 0.21685 0.89426
vn 0.39150 0.21685 0.89426
vn 0.39150 0.21685 0.89426
vn 0.39150 0.21685 0.89426
vn 0.39150 0.21685 0.89426
vn 0.39150 0.21685 0.89426
vn 0.77502 -0.54391 0.32173
vn 0.77502 -0.54391 0.32173
vn 0.77502 -0.54391 0.32173
vn 0.77502 -0.54391 0.32173
vn 0.77502 -0.54391 0.32173
vn 0.77502 -0.54391 0.32173
vn 0.92074 -0.08214 0.38142
vn 0.92074 -0.08214 0.38142
vn 0.92074 -0.08214 0.38142
vn 0.92074 -0.08214 0.38142
vn 0.92074 -0.08214 0.38142
vn 0.92074 -0.08214 0.38142
vn 0.92074 -0.08214 0.38142
vn 0.92074 -0.08214 0.38142
vn 0.92074 -0.08214 0.38142
vn 0.92074 -0.08214 0.38142
vn 0.92074 -0.08214 0.38142
vn 0.92074 -0.08214 0.38142
vn 0.90789 0.18595 0.37572
vn 0.90789 0.18595 0.37572
vn 0.90789 0.18595 0.37572
vn 0.90789 0.18595 0.37572
vn 0.90789 0.18595 0.37572
vn 0.90789 0.18595 0.37572
vn 0.77637 -0.51674 -0.36087
vn 0.77637 -0.51674 -0.36087
vn 0.77637 -0.51674 -0.36087
vn 0.77637 -0.51674 -0.36087
vn 0.77637 -0.51674 -0.36087
vn 0.77637 -0.51674 -0.36087
vn 0.92226 -0.05171 -0.38310
vn 0.92226 -0.05171 -0.38310
vn 0.92226 -0.05171 -0.38310
vn 0.92226 -0.05171 -0.38310
vn 0.92226 -0.05171 -0.38310
vn 0.92226 -0.05171 -0.38310
vn 0.92226 -0.05171 -0.38310
vn 0.92226 -0.05171 -0.38310
vn 0.92226 -0.05171 -0.38310
vn 0.92226 -0.05171 -0.38310
vn 0.92226 -0.05171 -0.38310
vn 0.92226 -0.05171 -0.38310
vn 0.90934 0.21508 -0.35615
vn 0.90934 0.21508 -0.35615
vn 0.90934 0.21508 -0.35615
vn 0.90934 0.21508 -0.35615
vn 0.90934 0.21508 -0.35615
vn 0.90934 0.21508 -0.35615
vn 0.29668 -0.44950 -0.84257
vn 0.29668 -0.44950 -0.84257
vn 0.29668 -0.44950 -0.84257
vn 0.29668 -0.44950 -0.84257
vn 0.29668 -0.44950 -0.84257
vn 0.29668 -0.44950 -0.84257
vn 0.38499 0.02359 -0.92262
vn 0.38499 0.02359 -0.92262
vn 0.38499 0.02359 -0.92262
vn 0.38499 0.02359 -0.92262
vn 0.38499 0.02359 -0.92262
vn 0.38499 0.02359 -0.92262
vn 0.38499 0.02359 -0.92262
vn 0.38499 0.02359 -0.92262
vn 0.38499 0.02359 -0.92262
vn 0.38499 0.02359 -0.92262
vn 0.38499 0.02359 -0.92262
vn 0.38499 0.02359 -0.92262
vn 0.39501 0.28717 -0.87264
vn 0.39501 0.28717 -0.87264
vn 0.39501 0.28717 -0.87264
vn 0.39501 0.28717 -0.87264
vn 0.39501 0.28717 -0.87264
vn 0.39501 0.28717 -0.87264
vn -0.38307 -0.38158 -0.84122
vn -0.38307 -0.38158 -0.84122
vn -0.38307 -0.38158 -0.84122
vn -0.38307 -0.38158 -0.84122
vn -0.38307 -0.38158 -0.84122
vn -0.38307 -0.38158 -0.84122
vn -0.37635 0.09967 -0.92110
vn -0.37635 0.09967 -0.92110
vn -0.37635 0.09967 -0.92110
vn -0.37635 0.09967 -0.92110
vn -0.37635 0.09967 -0.92110
vn -0.37635 0.09967 -0.92110
vn -0.37635 0.09967 -0.92110
vn -0.37635 0.09967 -0.92110
vn -0.37635 0.09967 -0.92110
vn -0.37635 0.09967 -0.92110
vn -0.37635 0.09967 -0.92110
vn -0.37635 0.09967 -0.92110
vn -0.33382 0.36000 -0.87119
vn -0.33382 0.36000 -0.87119
vn -0.33382 0.36000 -0.87119
vn -0.33382 0.36000 -0.87119
vn -0.33382 0.36000 -0.87119
vn -0.33382 0.36000 -0.87119
vn -0.86469 -0.35277 -0.35760
vn -0.86469 -0.35277 -0.35760
vn -0.86469 -0.35277 -0.35760
vn -0.86469 -0.35277 -0.35759
vn -0.86469 -0.35277 -0.35759
vn -0.86469 -0.35277 -0.35759
vn -0.91576 0.13194 -0.37943
vn -0.91576 0.13194 -0.37943
vn -0.91576 0.13194 -0.37943
vn -0.91576 0.13194 -0.37943
vn -0.91576 0.13194 -0.37943
vn -0.91576 0.13194 -0.37943
vn -0.91576 0.13194 -0.37943
vn -0.91576 0.13194 -0.37943
vn -0.91576 0.13194 -0.37943
vn -0.91576 0.13194 -0.37943
vn -0.91576 0.13194 -0.37943
vn -0.91576 0.13194 -0.37943
vn -0.85020 0.39090 -0.35265
vn -0.85020 0.39090 -0.35265
vn -0.85020 0.39090 -0.35265
vn -0.85020 0.39090 -0.35265
vn -0.85020 0.39090 -0.35265
vn -0.85020 0.39090 -0.35265
vn -0.86604 -0.37994 0.32500
vn -0.86604 -0.37994 0.32500
vn -0.86604 -0.37994 0.32500
vn -0.86604 -0.37994 0.32500
vn -0.86604 -0.37994 0.32500
vn -0.86604 -0.37994 0.32500
vn -0.91728 0.10151 0.38509
vn -0.91728 0.10151 0.38509
vn -0.91728 0.10151 0.38509
vn -0.91728 0.10151 0.38509
vn -0.91728 0.10151 0.38509
vn -0.91728 0.10151 0.38509
vn -0.91728 0.10151 0.38509
vn -0.91728 0.10151 0.38509
vn -0.91728 0.10151 0.38509
vn -0.91728 0.10151 0.38509
vn -0.91728 0.10151 0.38509
vn -0.91728 0.10151 0.38509
vn -0.85165 0.36177 0.37923
vn -0.85165 0.36177 0.37923
vn -0.85165 0.36177 0.37923
vn -0.85165 0.36177 0.37923
vn -0.85165 0.36177 0.37923
vn -0.85165 0.36177 0.37923
vn -0.38634 -0.44717 0.80671
vn -0.38634 -0.44717 0.80671
vn -0.38634 -0.44717 0.80671
vn -0.38634 -0.44717 0.80671
vn -0.38634 -0.44717 0.80671
vn -0.38634 -0.44717 0.80671
vn -0.38001 0.02621 0.92461
vn -0.38001 0.02621 0.92461
vn -0.38001 0.02621 0.92461
vn -0.38001 0.02621 0.92461
vn -0.38001 0.02621 0.92461
vn -0.38001 0.02621 0.92461
vn -0.38001 0.02621 0.92461
vn -0.38001 0.02621 0.92461
vn -0.38001 0.02621 0.92461
vn -0.38001 0.02621 0.92461
vn -0.38001 0.02621 0.92461
vn -0.38001 0.02621 0.92461
vn -0.33732 0.28967 0.89571
vn -0.33732 0.28967 0.89571
vn -0.33732 0.28967 0.89571
vn -0.33732 0.28967 0.89571
vn -0.33732 0.28967 0.89571
vn -0.33732 0.28967 0.89571
usemtl reed
f 1//1 2//2 3//3
f 4//4 5//5 6//6
f 7//7 8//8 9//9
f 10//10 11//11 12//12
f 13//13 14//14 15//15
f 16//16 17//17 18//18
f 19//19 20//20 21//21
f 22//22 23//23 24//24
f 25//25 26//26 27//27
f 28//28 29//29 30//30
f 31//31 32//32 33//33
f 34//34 35//35 36//36
f 37//37 38//38 39//39
f 40//40 41//41 42//42
f 43//43 44//44 45//45
f 46//46 47//47 48//48
f 49//49 50//50 51//51
f 52//52 53//53 54//54
f 55//55 56//56 57//57
f 58//58 59//59 60//60
f 61//61 62//62 63//63
f 64//64 65//65 66//66
f 67//67 68//68 69//69
f 70//70 71//71 72//72
f 73//73 74//74 75//75
f 76//76 77//77 78//78
f 79//79 80//80 81//81
f 82//82 83//83 84//84
f 85//85 86//86 87//87
f 88//88 89//89 90//90
f 91//91 92//92 93//93
f 94//94 95//95 96//96
f 97//97 98//98 99//99
f 100//100 101//101 102//102
f 103//103 104//104 105//105
f 106//106 107//107 108//108
f 109//109 110//110 111//111
f 112//112 113//113 114//114
f 115//115 116//116 117//117
f 118//118 119//119 120//120
f 121//121 122//122 123//123
f 124//124 125//125 126//126
f 127//127 128//128 129//129
f 130//130 131//131 132//132
f 133//133 134//134 135//135
f 136//136 137//137 138//138
f 139//139 140//140 141//141
f 142//142 143//143 144//144
f 145//145 146//146 147//147
f 148//148 149//149 150//150
f 151//151 152//152 153//153
f 154//154 155//155 156//156
f 157//157 158//158 159//159
f 160//160 161//161 162//162
f 163//163 164//164 165//165
f 166//166 167//167 168//168
f 169//169 170//170 171//171
f 172//172 173//173 174//174
f 175//175 176//176 177//177
f 178//178 179//179 180//180
f 181//181 182//182 183//183
f 184//184 185//185 186//186
f 187//187 188//188 189//189
f 190//190 191//191 192//192
o blade_upper
v -0.01021 0.36767 0.00662
v -0.00609 0.36697 0.00486
v -0.00631 0.38691 0.01514
v 0.00283 0.38535 0.01124
v -0.00631 0.38691 0.01514
v -0.00609 0.36697 0.00486
v -0.00631 0.38691 0.01514
v 0.00283 0.38535 0.01124
v 0.02263 0.53179 0.01968
v 0.02821 0.53083 0.01729
v 0.02263 0.53179 0.01968
v 0.00283 0.38535 0.01124
v 0.02263 0.53179 0.01968
v 0.02821 0.53083 0.01729
v 0.05157 0.67667 0.02422
v 0.05360 0.67632 0.02335
v 0.05157 0.67667 0.02422
v 0.02821 0.53083 0.01729
v 0.05157 0.67667 0.02422
v 0.05360 0.67632 0.02335
v 0.05552 0.69648 0.02407
v 0.05654 0.69630 0.02364
v 0.05552 0.69648 0.02407
v 0.05360 0.67632 0.02335
v -0.00609 0.36697 0.00486
v -0.00437 0.36690 0.00068
v 0.00283 0.38535 0.01124
v 0.00666 0.38520 0.00194
v 0.00283 0.38535 0.01124
v -0.00437 0.36690 0.00068
v 0.00283 0.38535 0.01124
v 0.00666 0.38520 0.00194
v 0.02821 0.53083 0.01729
v 0.03056 0.53074 0.01161
v 0.02821 0.53083 0.01729
v 0.00666 0.38520 0.00194
v 0.02821 0.53083 0.01729
v 0.03056 0.53074 0.01161
v 0.05360 0.67632 0.02335
v 0.05446 0.67629 0.02128
v 0.05360 0.67632 0.02335
v 0.03056 0.53074 0.01161
v 0.05360 0.67632 0.02335
v 0.05446 0.67629 0.02128
v 0.05654 0.69630 0.02364
v 0.05697 0.69629 0.02261
v 0.05654 0.69630 0.02364
v 0.05446 0.67629 0.02128
v -0.00437 0.36690 0.00068
v -0.00604 0.36751 -0.00348
v 0.00666 0.38520 0.00194
v 0.00295 0.38656 -0.00730
v 0.00666 0.38520 0.00194
v -0.00604 0.36751 -0.00348
v 0.00666 0.38520 0.00194
v 0.00295 0.38656 -0.00730
v 0.03056 0.53074 0.01161
v 0.02829 0.53158 0.00596
v 0.03056 0.53074 0.01161
v 0.00295 0.38656 -0.00730
v 0.03056 0.53074 0.01161
v 0.02829 0.53158 0.00596
v 0.05446 0.67629 0.02128
v 0.05363 0.67659 0.01923
v 0.05446 0.67629 0.02128
v 0.02829 0.53158 0.00596
v 0.05446 0.67629 0.02128
v 0.05363 0.67659 0.01923
v 0.05697 0.69629 0.02261
v 0.05655 0.69644 0.02158
v 0.05697 0.69629 0.02261
v 0.05363 0.67659 0.01923
v -0.00604 0.36751 -0.00348
v -0.01013 0.36845 -0.00519
v 0.00295 0.38656 -0.00730
v -0.00614 0.38863 -0.01108
v 0.00295 0.38656 -0.00730
v -0.01013 0.36845 -0.00519
v 0.00295 0.38656 -0.00730
v -0.00614 0.38863 -0.01108
v 0.02829 0.53158 0.00596
v 0.02273 0.53284 0.00365
v 0.02829 0.53158 0.00596
v -0.00614 0.38863 -0.01108
v 0.02829 0.53158 0.00596
v 0.02273 0.53284 0.00365
v 0.05363 0.67659 0.01923
v 0.05161 0.67705 0.01839
v 0.05363 0.67659 0.01923
v 0.02273 0.53284 0.00365
v 0.05363 0.67659 0.01923
v 0.05161 0.67705 0.01839
v 0.05655 0.69644 0.02158
v 0.05554 0.69667 0.02116
v 0.05655 0.69644 0.02158
v 0.05161 0.67705 0.01839
v -0.01013 0.36845 -0.00519
v -0.01424 0.36915 -0.00343
v -0.00614 0.38863 -0.01108
v -0.01528 0.39020 -0.00718
v -0.00614 0.38863 -0.01108
v -0.01424 0.36915 -0.00343
v -0.00614 0.38863 -0.01108
v -0.01528 0.39020 -0.00718
v 0.02273 0.53284 0.00365
v 0.01715 0.53380 0.00604
v 0.02273 0.53284 0.00365
v -0.01528 0.39020 -0.00718
v 0.02273 0.53284 0.00365
v 0.01715 0.53380 0.00604
v 0.05161 0.67705 0.01839
v 0.04958 0.67740 0.01925
v 0.05161 0.67705 0.01839
v 0.01715 0.53380 0.00604
v 0.05161 0.67705 0.01839
v 0.04958 0.67740 0.01925
v 0.05554 0.69667 0.02116
v 0.05453 0.69684 0.02159
v 0.05554 0.69667 0.02116
v 0.04958 0.67740 0.01925
v -0.01424 0.36915 -0.00343
v -0.01597 0.36922 0.00075
v -0.01528 0.39020 -0.00718
v -0.01911 0.39034 0.00211
v -0.01528 0.39020 -0.00718
v -0.01597 0.36922 0.00075
v -0.01528 0.39020 -0.00718
v -0.01911 0.39034 0.00211
v 0.01715 0.53380 0.00604
v 0.01481 0.53389 0.01172
v 0.01715 0.53380 0.00604
v -0.01911 0.39034 0.00211
v 0.01715 0.53380 0.00604
v 0.01481 0.53389 0.01172
v 0.04958 0.67740 0.01925
v 0.04873 0.67743 0.02132
v 0.04958 0.67740 0.01925
v 0.01481 0.53389 0.01172
v 0.04958 0.67740 0.01925
v 0.04873 0.67743 0.02132
v 0.05453 0.69684 0.02159
v 0.05410 0.69686 0.02262
v 0.05453 0.69684 0.02159
v 0.04873 0.67743 0.02132
v -0.01597 0.36922 0.00075
v -0.01430 0.36861 0.00491
v -0.01911 0.39034 0.00211
v -0.01540 0.38898 0.01136
v -0.01911 0.39034 0.00211
v -0.01430 0.36861 0.00491
v -0.01911 0.39034 0.00211
v -0.01540 0.38898 0.01136
v 0.01481 0.53389 0.01172
v 0.01708 0.53306 0.01737
v 0.01481 0.53389 0.01172
v -0.01540 0.38898 0.01136
v 0.01481 0.53389 0.01172
v 0.01708 0.53306 0.01737
v 0.04873 0.67743 0.02132
v 0.04955 0.67713 0.02338
v 0.04873 0.67743 0.02132
v 0.01708 0.53306 0.01737
v 0.04873 0.67743 0.02132
v 0.04955 0.67713 0.02338
v 0.05410 0.69686 0.02262
v 0.05451 0.69671 0.02365
v 0.05410 0.69686 0.02262
v 0.04955 0.67713 0.02338
v -0.01430 0.36861 0.00491
v -0.01021 0.36767 0.00662
v -0.01540 0.38898 0.01136
v -0.00631 0.38691 0.01514
v -0.01540 0.38898 0.01136
v -0.01021 0.36767 0.00662
v -0.01540 0.38898 0.01136
v -0.00631 0.38691 0.01514
v 0.01708 0.53306 0.01737
v 0.02263 0.53179 0.01968
v 0.01708 0.53306 0.01737
v -0.00631 0.38691 0.01514
v 0.01708 0.53306 0.01737
v 0.02263 0.53179 0.01968
v 0.04955 0.67713 0.02338
v 0.05157 0.67667 0.02422
v 0.04955 0.67713 0.02338
v 0.02263 0.53179 0.01968
v 0.04955 0.67713 0.02338
v 0.05157 0.67667 0.02422
v 0.05451 0.69671 0.02365
v 0.05552 0.69648 0.02407
v 0.05451 0.69671 0.02365
v 0.05157 0.67667 0.02422
vn 0.28898 -0.43616 0.85220
vn 0.28898 -0.43616 0.85220
vn 0.28898 -0.43616 0.85220
vn 0.28898 -0.43616 0.85220
vn 0.28898 -0.43616 0.85220
vn 0.28898 -0.43616 0.85220
vn 0.37538 -0.10383 0.92104
vn 0.37538 -0.10383 0.92104
vn 0.37538 -0.10383 0.92104
vn 0.37538 -0.10383 0.92104
vn 0.37538 -0.10383 0.92104
vn 0.37538 -0.10383 0.92104
vn 0.37538 -0.10383 0.92104
vn 0.37538 -0.10383 0.92104
vn 0.37538 -0.10383 0.92104
vn 0.37538 -0.10383 0.92104
vn 0.37538 -0.10383 0.92104
vn 0.37538 -0.10383 0.92104
vn 0.38156 -0.06948 0.92173
vn 0.38156 -0.06948 0.92173
vn 0.38156 -0.06948 0.92173
vn 0.38156 -0.06948 0.92173
vn 0.38156 -0.06948 0.92173
vn 0.38156 -0.06948 0.92173
vn 0.79607 -0.50318 0.33628
vn 0.79607 -0.50318 0.33628
vn 0.79607 -0.50318 0.33628
vn 0.79607 -0.50318 0.33628
vn 0.79607 -0.50318 0.33628
vn 0.79607 -0.50318 0.33628
vn 0.90932 -0.17440 0.37779
vn 0.90932 -0.17440 0.37779
vn 0.90932 -0.17440 0.37779
vn 0.90932 -0.17440 0.37779
vn 0.90932 -0.17440 0.37779
vn 0.90932 -0.17440 0.37779
vn 0.90932 -0.17440 0.37779
vn 0.90932 -0.17440 0.37779
vn 0.90932 -0.17440 0.37779
vn 0.90932 -0.17440 0.37779
vn 0.90932 -0.17440 0.37779
vn 0.90932 -0.17440 0.37779
vn 0.91458 -0.13993 0.37942
vn 0.91458 -0.13993 0.37942
vn 0.91458 -0.13993 0.37942
vn 0.91458 -0.13993 0.37942
vn 0.91458 -0.13993 0.37942
vn 0.91458 -0.13993 0.37942
vn 0.80075 -0.45579 -0.38865
vn 0.80075 -0.45579 -0.38865
vn 0.80075 -0.45579 -0.38865
vn 0.80075 -0.45579 -0.38865
vn 0.80075 -0.45579 -0.38865
vn 0.80075 -0.45579 -0.38865
vn 0.91425 -0.12450 -0.38554
vn 0.91425 -0.12450 -0.38554
vn 0.91425 -0.12450 -0.38554
vn 0.91425 -0.12450 -0.38554
vn 0.91425 -0.12450 -0.38554
vn 0.91425 -0.12450 -0.38554
vn 0.91425 -0.12450 -0.38554
vn 0.91425 -0.12450 -0.38554
vn 0.91425 -0.12450 -0.38554
vn 0.91425 -0.12450 -0.38554
vn 0.91425 -0.12450 -0.38554
vn 0.91425 -0.12450 -0.38554
vn 0.91951 -0.09011 -0.38260
vn 0.91951 -0.09011 -0.38260
vn 0.91951 -0.09011 -0.38260
vn 0.91951 -0.09011 -0.38260
vn 0.91951 -0.09011 -0.38260
vn 0.91951 -0.09011 -0.38260
vn 0.30030 -0.32175 -0.89794
vn 0.30030 -0.32175 -0.89794
vn 0.30030 -0.32175 -0.89794
vn 0.30030 -0.32175 -0.89794
vn 0.30030 -0.32175 -0.89794
vn 0.30030 -0.32175 -0.89794
vn 0.38729 0.01664 -0.92181
vn 0.38729 0.01664 -0.92181
vn 0.38729 0.01664 -0.92181
vn 0.38729 0.01664 -0.92181
vn 0.38729 0.01664 -0.92181
vn 0.38729 0.01664 -0.92181
vn 0.38729 0.01664 -0.92181
vn 0.38729 0.01664 -0.92181
vn 0.38729 0.01664 -0.92181
vn 0.38729 0.01664 -0.92181
vn 0.38729 0.01664 -0.92181
vn 0.38729 0.01664 -0.92181
vn 0.39346 0.05079 -0.91794
vn 0.39346 0.05079 -0.91794
vn 0.39346 0.05079 -0.91794
vn 0.39346 0.05079 -0.91794
vn 0.39346 0.05079 -0.91794
vn 0.39346 0.05079 -0.91794
vn -0.41213 -0.17957 -0.89325
vn -0.41213 -0.17957 -0.89325
vn -0.41213 -0.17957 -0.89325
vn -0.41213 -0.17957 -0.89325
vn -0.41213 -0.17957 -0.89325
vn -0.41213 -0.17957 -0.89325
vn -0.36287 0.16635 -0.91687
vn -0.36287 0.16635 -0.91687
vn -0.36287 0.16635 -0.91687
vn -0.36287 0.16635 -0.91687
vn -0.36287 0.16635 -0.91687
vn -0.36287 0.16635 -0.91687
vn -0.36287 0.16635 -0.91687
vn -0.36287 0.16635 -0.91687
vn -0.36287 0.16635 -0.91687
vn -0.36287 0.16635 -0.91687
vn -0.36287 0.16635 -0.91687
vn -0.36287 0.16635 -0.91687
vn -0.35541 0.20023 -0.91301
vn -0.35541 0.20023 -0.91301
vn -0.35541 0.20023 -0.91301
vn -0.35541 0.20023 -0.91301
vn -0.35541 0.20023 -0.91301
vn -0.35541 0.20023 -0.91301
vn -0.91921 -0.11255 -0.37733
vn -0.91921 -0.11255 -0.37733
vn -0.91921 -0.11255 -0.37733
vn -0.91921 -0.11255 -0.37733
vn -0.91921 -0.11255 -0.37733
vn -0.91921 -0.11255 -0.37733
vn -0.89681 0.23692 -0.37362
vn -0.89681 0.23692 -0.37362
vn -0.89681 0.23692 -0.37362
vn -0.89681 0.23692 -0.37362
vn -0.89681 0.23692 -0.37362
vn -0.89681 0.23692 -0.37362
vn -0.89681 0.23692 -0.37362
vn -0.89681 0.23692 -0.37362
vn -0.89681 0.23692 -0.37362
vn -0.89681 0.23692 -0.37362
vn -0.89681 0.23692 -0.37362
vn -0.89681 0.23692 -0.37362
vn -0.88843 0.27068 -0.37070
vn -0.88843 0.27068 -0.37070
vn -0.88843 0.27068 -0.37070
vn -0.88843 0.27068 -0.37070
vn -0.88843 0.27068 -0.37070
vn -0.88843 0.27068 -0.37070
vn -0.92390 -0.15994 0.34760
vn -0.92390 -0.15994 0.34760
vn -0.92390 -0.15994 0.34760
vn -0.92390 -0.15994 0.34760
vn -0.92390 -0.15994 0.34760
vn -0.92390 -0.15994 0.34760
vn -0.90175 0.18702 0.38971
vn -0.90175 0.18702 0.38971
vn -0.90175 0.18702 0.38971
vn -0.90175 0.18702 0.38971
vn -0.90175 0.18702 0.38971
vn -0.90175 0.18702 0.38971
vn -0.90175 0.18702 0.38971
vn -0.90175 0.18702 0.38971
vn -0.90175 0.18702 0.38971
vn -0.90175 0.18702 0.38971
vn -0.90175 0.18702 0.38971
vn -0.90175 0.18702 0.38971
vn -0.89336 0.22087 0.39131
vn -0.89336 0.22087 0.39131
vn -0.89336 0.22087 0.39131
vn -0.89336 0.22087 0.39131
vn -0.89336 0.22087 0.39131
vn -0.89336 0.22087 0.39131
vn -0.42345 -0.29399 0.85689
vn -0.42345 -0.29399 0.85689
vn -0.42345 -0.29399 0.85689
vn -0.42345 -0.29399 0.85689
vn -0.42345 -0.29399 0.85689
vn -0.42345 -0.29399 0.85689
vn -0.37479 0.04587 0.92597
vn -0.37479 0.04587 0.92597
vn -0.37479 0.04587 0.92597
vn -0.37479 0.04587 0.92597
vn -0.37479 0.04587 0.92597
vn -0.37479 0.04587 0.92597
vn -0.37479 0.04587 0.92597
vn -0.37479 0.04587 0.92597
vn -0.37479 0.04587 0.92597
vn -0.37479 0.04587 0.92597
vn -0.37479 0.04587 0.92597
vn -0.37479 0.04587 0.92597
vn -0.36731 0.07997 0.92665
vn -0.36731 0.07997 0.92665
vn -0.36731 0.07997 0.92665
vn -0.36731 0.07997 0.92665
vn -0.36731 0.07997 0.92665
vn -0.36731 0.07997 0.92665
usemtl reed
f 193//193 194//194 195//195
f 196//196 197//197 198//198
f 199//199 200//200 201//201
f 202//202 203//203 204//204
f 205//205 206//206 207//207
f 208//208 209//209 210//210
f 211//211 212//212 213//213
f 214//214 215//215 216//216
f 217//217 218//218 219//219
f 220//220 221//221 222//222
f 223//223 224//224 225//225
f 226//226 227//227 228//228
f 229//229 230//230 231//231
f 232//232 233//233 234//234
f 235//235 236//236 237//237
f 238//238 239//239 240//240
f 241//241 242//242 243//243
f 244//244 245//245 246//246
f 247//247 248//248 249//249
f 250//250 251//251 252//252
f 253//253 254//254 255//255
f 256//256 257//257 258//258
f 259//259 260//260 261//261
f 262//262 263//263 264//264
f 265//265 266//266 267//267
f 268//268 269//269 270//270
f 271//271 272//272 273//273
f 274//274 275//275 276//276
f 277//277 278//278 279//279
f 280//280 281//281 282//282
f 283//283 284//284 285//285
f 286//286 287//287 288//288
f 289//289 290//290 291//291
f 292//292 293//293 294//294
f 295//295 296//296 297//297
f 298//298 299//299 300//300
f 301//301 302//302 303//303
f 304//304 305//305 306//306
f 307//307 308//308 309//309
f 310//310 311//311 312//312
f 313//313 314//314 315//315
f 316//316 317//317 318//318
f 319//319 320//320 321//321
f 322//322 323//323 324//324
f 325//325 326//326 327//327
f 328//328 329//329 330//330
f 331//331 332//332 333//333
f 334//334 335//335 336//336
f 337//337 338//338 339//339
f 340//340 341//341 342//342
f 343//343 344//344 345//345
f 346//346 347//347 348//348
f 349//349 350//350 351//351
f 352//352 353//353 354//354
f 355//355 356//356 357//357
f 358//358 359//359 360//360
f 361//361 362//362 363//363
f 364//364 365//365 366//366
f 367//367 368//368 369//369
f 370//370 371//371 372//372
f 373//373 374//374 375//375
f 376//376 377//377 378//378
f 379//379 380//380 381//381
f 382//382 383//383 384//384
