mtllib rubble_shard.mtl
o chunk
v -0.03148 0.03323 0.02457
v 0.00201 0.02807 0.01002
v -0.02889 0.03959 0.08539
v 0.04552 0.02812 0.05307
v -0.02889 0.03959 0.08539
v 0.00201 0.02807 0.01002
v -0.02889 0.03959 0.08539
v 0.04552 0.02812 0.05307
v -0.00161 0.16063 0.08597
v 0.05899 0.15129 0.05965
v -0.00161 0.16063 0.08597
v 0.04552 0.02812 0.05307
v -0.00161 0.16063 0.08597
v 0.05899 0.15129 0.05965
v 0.02621 0.28646 0.05789
v 0.05279 0.28237 0.04635
v 0.02621 0.28646 0.05789
v 0.05899 0.15129 0.05965
v 0.02621 0.28646 0.05789
v 0.05279 0.28237 0.04635
v 0.03027 0.30599 0.03991
v 0.04223 0.30414 0.03471
v 0.03027 0.30599 0.03991
v 0.05279 0.28237 0.04635
v 0.00201 0.02807 0.01002
v 0.01640 0.03059 -0.02383
v 0.04552 0.02812 0.05307
v 0.07751 0.03371 -0.02217
v 0.04552 0.02812 0.05307
v 0.01640 0.03059 -0.02383
v 0.04552 0.02812 0.05307
v 0.07751 0.03371 -0.02217
v 0.05899 0.15129 0.05965
v 0.08503 0.15584 -0.00161
v 0.05899 0.15129 0.05965
v 0.07751 0.03371 -0.02217
v 0.05899 0.15129 0.05965
v 0.08503 0.15584 -0.00161
v 0.05279 0.28237 0.04635
v 0.06421 0.28436 0.01948
v 0.05279 0.28237 0.04635
v 0.08503 0.15584 -0.00161
v 0.05279 0.28237 0.04635
v 0.06421 0.28436 0.01948
v 0.04223 0.30414 0.03471
v 0.04737 0.30504 0.02262
v 0.04223 0.30414 0.03471
v 0.06421 0.28436 0.01948
v 0.01640 0.03059 -0.02383
v 0.00327 0.03930 -0.05716
v 0.07751 0.03371 -0.02217
v 0.04832 0.05308 -0.09624
v 0.07751 0.03371 -0.02217
v 0.00327 0.03930 -0.05716
v 0.07751 0.03371 -0.02217
v 0.04832 0.05308 -0.09624
v 0.08503 0.15584 -0.00161
v 0.06126 0.17161 -0.06193
v 0.08503 0.15584 -0.00161
v 0.04832 0.05308 -0.09624
v 0.08503 0.15584 -0.00161
v 0.06126 0.17161 -0.06193
v 0.06421 0.28436 0.01948
v 0.05379 0.29128 -0.00697
v 0.06421 0.28436 0.01948
v 0.06126 0.17161 -0.06193
v 0.06421 0.28436 0.01948
v 0.05379 0.29128 -0.00697
v 0.04737 0.30504 0.02262
v 0.04268 0.30816 0.01072
v 0.04737 0.30504 0.02262
v 0.05379 0.29128 -0.00697
v 0.00327 0.03930 -0.05716
v -0.02970 0.04912 -0.07045
v 0.04832 0.05308 -0.09624
v -0.02494 0.07488 -0.12576
v 0.04832 0.05308 -0.09624
v -0.02970 0.04912 -0.07045
v 0.04832 0.05308 -0.09624
v -0.02494 0.07488 -0.12576
v 0.06126 0.17161 -0.06193
v 0.00161 0.18937 -0.08597
v 0.06126 0.17161 -0.06193
v -0.02494 0.07488 -0.12576
v 0.06126 0.17161 -0.06193
v 0.00161 0.18937 -0.08597
v 0.05379 0.29128 -0.00697
v 0.02762 0.29907 -0.01752
v 0.05379 0.29128 -0.00697
v 0.00161 0.18937 -0.08597
v 0.05379 0.29128 -0.00697
v 0.02762 0.29907 -0.01752
v 0.04268 0.30816 0.01072
v 0.03091 0.31166 0.00597
v 0.04268 0.30816 0.01072
v 0.02762 0.29907 -0.01752
v -0.02970 0.04912 -0.07045
v -0.06319 0.05428 -0.05591
v -0.02494 0.07488 -0.12576
v -0.09936 0.08635 -0.09344
v -0.02494 0.07488 -0.12576
v -0.06319 0.05428 -0.05591
v -0.02494 0.07488 -0.12576
v -0.09936 0.08635 -0.09344
v 0.00161 0.18937 -0.08597
v -0.05899 0.19871 -0.05965
v 0.00161 0.18937 -0.08597
v -0.09936 0.08635 -0.09344
v 0.00161 0.18937 -0.08597
v -0.05899 0.19871 -0.05965
v 0.02762 0.29907 -0.01752
v 0.00105 0.30316 -0.00597
v 0.02762 0.29907 -0.01752
v -0.05899 0.19871 -0.05965
v 0.02762 0.29907 -0.01752
v 0.00105 0.30316 -0.00597
v 0.03091 0.31166 0.00597
v 0.01895 0.31350 0.01117
v 0.03091 0.31166 0.00597
v 0.00105 0.30316 -0.00597
v -0.06319 0.05428 -0.05591
v -0.07758 0.05176 -0.02205
v -0.09936 0.08635 -0.09344
v -0.13134 0.08076 -0.01821
v -0.09936 0.08635 -0.09344
v -0.07758 0.05176 -0.02205
v -0.09936 0.08635 -0.09344
v -0.13134 0.08076 -0.01821
v -0.05899 0.19871 -0.05965
v -0.08503 0.19416 0.00161
v -0.05899 0.19871 -0.05965
v -0.13134 0.08076 -0.01821
v -0.05899 0.19871 -0.05965
v -0.08503 0.19416 0.00161
v 0.00105 0.30316 -0.00597
v -0.01038 0.30117 0.02089
v 0.00105 0.30316 -0.00597
v -0.08503 0.19416 0.00161
v 0.00105 0.30316 -0.00597
v -0.01038 0.30117 0.02089
v 0.01895 0.31350 0.01117
v 0.01381 0.31261 0.02326
v 0.01895 0.31350 0.01117
v -0.01038 0.30117 0.02089
v -0.07758 0.05176 -0.02205
v -0.06444 0.04305 0.01128
v -0.13134 0.08076 -0.01821
v -0.10215 0.06139 0.05586
v -0.13134 0.08076 -0.01821
v -0.06444 0.04305 0.01128
v -0.13134 0.08076 -0.01821
v -0.10215 0.06139 0.05586
v -0.08503 0.19416 0.00161
v -0.06126 0.17839 0.06193
v -0.08503 0.19416 0.00161
v -0.10215 0.06139 0.05586
v -0.08503 0.19416 0.00161
v -0.06126 0.17839 0.06193
v -0.01038 0.30117 0.02089
v 0.00005 0.29425 0.04735
v -0.01038 0.30117 0.02089
v -0.06126 0.17839 0.06193
v -0.01038 0.30117 0.02089
v 0.00005 0.29425 0.04735
v 0.01381 0.31261 0.02326
v 0.01850 0.30949 0.03516
v 0.01381 0.31261 0.02326
v 0.00005 0.29425 0.04735
v -0.06444 0.04305 0.01128
v -0.03148 0.03323 0.02457
v -0.10215 0.06139 0.05586
v -0.02889 0.03959 0.08539
v -0.10215 0.06139 0.05586
v -0.03148 0.03323 0.02457
v -0.10215 0.06139 0.05586
v -0.02889 0.03959 0.08539
v -0.06126 0.17839 0.06193
v -0.00161 0.16063 0.08597
v -0.06126 0.17839 0.06193
v -0.02889 0.03959 0.08539
v -0.06126 0.17839 0.06193
v -0.00161 0.16063 0.08597
v 0.00005 0.29425 0.04735
v 0.02621 0.28646 0.05789
v 0.00005 0.29425 0.04735
v -0.00161 0.16063 0.08597
v 0.00005 0.29425 0.04735
v 0.02621 0.28646 0.05789
v 0.01850 0.30949 0.03516
v 0.03027 0.30599 0.03991
v 0.01850 0.30949 0.03516
v 0.02621 0.28646 0.05789
vn -0.10556 -0.98856 0.10775
vn -0.10556 -0.98856 0.10775
vn -0.10556 -0.98856 0.10775
vn -0.10556 -0.98856 0.10775
vn -0.10556 -0.98856 0.10775
vn -0.10556 -0.98856 0.10775
vn 0.38485 -0.09116 0.91846
vn 0.38485 -0.09116 0.91846
vn 0.38485 -0.09116 0.91846
vn 0.38485 -0.09116 0.91846
vn 0.38485 -0.09116 0.91846
vn 0.38485 -0.09116 0.91846
vn 0.41027 0.11124 0.90515
vn 0.41027 0.11124 0.90515
vn 0.41027 0.11124 0.90515
vn 0.41027 0.11124 0.90515
vn 0.41027 0.11124 0.90515
vn 0.41027 0.11124 0.90515
vn 0.39886 0.57505 0.71430
vn 0.39886 0.57505 0.71430
vn 0.39886 0.57505 0.71430
vn 0.39886 0.57505 0.71430
vn 0.39886 0.57505 0.71430
vn 0.39886 0.57505 0.71430
vn 0.05230 -0.99729 -0.05182
vn 0.05230 -0.99729 -0.05182
vn 0.05230 -0.99729 -0.05182
vn 0.05230 -0.99729 -0.05182
vn 0.05230 -0.99729 -0.05182
vn 0.05230 -0.99729 -0.05182
vn 0.91677 -0.12057 0.38078
vn 0.91677 -0.12057 0.38078
vn 0.91677 -0.12057 0.38078
vn 0.91677 -0.12057 0.38078
vn 0.91677 -0.12057 0.38078
vn 0.91677 -0.12057 0.38078
vn 0.91485 0.08335 0.39511
vn 0.91485 0.08335 0.39511
vn 0.91485 0.08335 0.39511
vn 0.91485 0.08335 0.39511
vn 0.91485 0.08335 0.39511
vn 0.91485 0.08335 0.39511
vn 0.74948 0.55567 0.35988
vn 0.74948 0.55567 0.35988
vn 0.74948 0.55567 0.35988
vn 0.74948 0.55567 0.35988
vn 0.74948 0.55567 0.35988
vn 0.74948 0.55567 0.35988
vn 0.05645 -0.96026 -0.27334
vn 0.05645 -0.96026 -0.27334
vn 0.05645 -0.96026 -0.27334
vn 0.05645 -0.96026 -0.27334
vn 0.05645 -0.96026 -0.27334
vn 0.05645 -0.96026 -0.27334
vn 0.93075 0.00419 -0.36563
vn 0.93075 0.00419 -0.36563
vn 0.93075 0.00419 -0.36563
vn 0.93075 0.00419 -0.36563
vn 0.93075 0.00419 -0.36563
vn 0.93075 0.00419 -0.36563
vn 0.92811 0.20170 -0.31295
vn 0.92811 0.20170 -0.31295
vn 0.92811 0.20170 -0.31295
vn 0.92811 0.20170 -0.31295
vn 0.92811 0.20170 -0.31295
vn 0.92811 0.20170 -0.31295
vn 0.75870 0.63790 -0.13213
vn 0.75870 0.63790 -0.13213
vn 0.75870 0.63790 -0.13213
vn 0.75870 0.63790 -0.13213
vn 0.75870 0.63790 -0.13213
vn 0.75870 0.63790 -0.13213
vn -0.09554 -0.89917 -0.42704
vn -0.09554 -0.89917 -0.42704
vn -0.09554 -0.89917 -0.42704
vn -0.09554 -0.89917 -0.42704
vn -0.09554 -0.89917 -0.42704
vn -0.09554 -0.89917 -0.42704
vn 0.41860 0.21004 -0.88355
vn 0.41860 0.21004 -0.88355
vn 0.41860 0.21004 -0.88355
vn 0.41860 0.21004 -0.88355
vn 0.41860 0.21004 -0.88355
vn 0.41860 0.21004 -0.88355
vn 0.44228 0.39697 -0.80424
vn 0.44228 0.39697 -0.80424
vn 0.44228 0.39697 -0.80424
vn 0.44228 0.39697 -0.80424
vn 0.44228 0.39697 -0.80424
vn 0.44228 0.39697 -0.80424
vn 0.42110 0.77359 -0.47352
vn 0.42110 0.77359 -0.47352
vn 0.42110 0.77359 -0.47352
vn 0.42110 0.77359 -0.47352
vn 0.42110 0.77359 -0.47352
vn 0.42110 0.77359 -0.47352
vn -0.31464 -0.84980 -0.42289
vn -0.31464 -0.84980 -0.42289
vn -0.31464 -0.84980 -0.42289
vn -0.31464 -0.84980 -0.42289
vn -0.31464 -0.84980 -0.42289
vn -0.31464 -0.84980 -0.42289
vn -0.31966 0.37639 -0.86957
vn -0.31966 0.37639 -0.86957
vn -0.31966 0.37639 -0.86957
vn -0.31966 0.37639 -0.86957
vn -0.31966 0.37639 -0.86957
vn -0.31966 0.37639 -0.86957
vn -0.25804 0.55477 -0.79098
vn -0.25804 0.55477 -0.79098
vn -0.25804 0.55477 -0.79098
vn -0.25804 0.55477 -0.79098
vn -0.25804 0.55477 -0.79098
vn -0.25804 0.55477 -0.79098
vn -0.06553 0.88324 -0.46431
vn -0.06553 0.88324 -0.46431
vn -0.06553 0.88324 -0.46431
vn -0.06553 0.88324 -0.46431
vn -0.06553 0.88324 -0.46431
vn -0.06553 0.88324 -0.46431
vn -0.47250 -0.84107 -0.26332
vn -0.47250 -0.84107 -0.26332
vn -0.47250 -0.84107 -0.26332
vn -0.47250 -0.84107 -0.26332
vn -0.47250 -0.84107 -0.26332
vn -0.47250 -0.84107 -0.26332
vn -0.85158 0.40580 -0.33189
vn -0.85158 0.40580 -0.33189
vn -0.85158 0.40580 -0.33189
vn -0.85158 0.40580 -0.33189
vn -0.85158 0.40580 -0.33189
vn -0.85158 0.40580 -0.33189
vn -0.76262 0.58266 -0.28093
vn -0.76262 0.58266 -0.28093
vn -0.76262 0.58266 -0.28093
vn -0.76262 0.58266 -0.28093
vn -0.76262 0.58266 -0.28093
vn -0.76262 0.58266 -0.28093
vn -0.41616 0.90263 -0.10989
vn -0.41616 0.90263 -0.10989
vn -0.41616 0.90263 -0.10989
vn -0.41616 0.90263 -0.10989
vn -0.41616 0.90263 -0.10989
vn -0.41616 0.90263 -0.10989
vn -0.47665 -0.87810 -0.04181
vn -0.47665 -0.87810 -0.04181
vn -0.47665 -0.87810 -0.04181
vn -0.47665 -0.87810 -0.04181
vn -0.47665 -0.87810 -0.04181
vn -0.47665 -0.87810 -0.04181
vn -0.86555 0.28103 0.41453
vn -0.86555 0.28103 0.41453
vn -0.86555 0.28103 0.41453
vn -0.86555 0.28103 0.41453
vn -0.86555 0.28103 0.41453
vn -0.86555 0.28103 0.41453
vn -0.77588 0.46431 0.42712
vn -0.77588 0.46431 0.42712
vn -0.77588 0.46431 0.42712
vn -0.77588 0.46431 0.42712
vn -0.77588 0.46431 0.42712
vn -0.77588 0.46431 0.42712
vn -0.42537 0.82039 0.38213
vn -0.42537 0.82039 0.38213
vn -0.42537 0.82039 0.38213
vn -0.42537 0.82039 0.38213
vn -0.42537 0.82039 0.38213
vn -0.42537 0.82039 0.38213
vn -0.32465 -0.93919 0.11189
vn -0.32465 -0.93919 0.11189
vn -0.32465 -0.93919 0.11189
vn -0.32465 -0.93919 0.11189
vn -0.32465 -0.93919 0.11189
vn -0.32465 -0.93919 0.11189
vn -0.35341 0.07519 0.93244
vn -0.35341 0.07519 0.93244
vn -0.35341 0.07519 0.93244
vn -0.35341 0.07519 0.93244
vn -0.35341 0.07519 0.93244
vn -0.35341 0.07519 0.93244
vn -0.29005 0.26904 0.91841
vn -0.29005 0.26904 0.91841
vn -0.29005 0.26904 0.91841
vn -0.29005 0.26904 0.91841
vn -0.29005 0.26904 0.91841
vn -0.29005 0.26904 0.91841
vn -0.08778 0.68470 0.72352
vn -0.08778 0.68470 0.72352
vn -0.08778 0.68470 0.72352
vn -0.08778 0.68470 0.72352
vn -0.08778 0.68470 0.72352
vn -0.08778 0.68470 0.72352
usemtl rubble_stone
f 1//1 2//2 3//3
f 4//4 5//5 6//6
f 7//7 8//8 9//9
f 10//10 11//11 12//12
f 13//13 14//14 15//15
f 16//16 17//17 18//18
f 19//19 20//20 21//21
f 22//22 23//23 24//24
f 25//25 26//26 27//27
f 28//28 29//29 30//30
f 31//31 32//32 33//33
f 34//34 35//35 36//36
f 37//37 38//38 39//39
f 40//40 41//41 42//42
f 43//43 44//44 45//45
f 46//46 47//47 48//48
f 49//49 50//50 51//51
f 52//52 53//53 54//54
f 55//55 56//56 57//57
f 58//58 59//59 60//60
f 61//61 62//62 63//63
f 64//64 65//65 66//66
f 67//67 68//68 69//69
f 70//70 71//71 72//72
f 73//73 74//74 75//75
f 76//76 77//77 78//78
f 79//79 80//80 81//81
f 82//82 83//83 84//84
f 85//85 86//86 87//87
f 88//88 89//89 90//90
f 91//91 92//92 93//93
f 94//94 95//95 96//96
f 97//97 98//98 99//99
f 100//100 101//101 102//102
f 103//103 104//104 105//105
f 106//106 107//107 108//108
f 109//109 110//110 111//111
f 112//112 113//113 114//114
f 115//115 116//116 117//117
f 118//118 119//119 120//120
f 121//121 122//122 123//123
f 124//124 125//125 126//126
f 127//127 128//128 129//129
f 130//130 131//131 132//132
f 133//133 134//134 135//135
f 136//136 137//137 138//138
f 139//139 140//140 141//141
f 142//142 143//143 144//144
f 145//145 146//146 147//147
f 148//148 149//149 150//150
f 151//151 152//152 153//153
f 154//154 155//155 156//156
f 157//157 158//158 159//159
f 160//160 161//161 162//162
f 163//163 164//164 165//165
f 166//166 167//167 168//168
f 169//169 170//170 171//171
f 172//172 173//173 174//174
f 175//175 176//176 177//177
f 178//178 179//179 180//180
f 181//181 182//182 183//183
f 184//184 185//185 186//186
f 187//187 188//188 189//189
f 190//190 191//191 192//192
