mtllib spike_trap_spikes.mtl
o spike_0
v -0.28000 0.06000 -0.19000
v -0.19440 0.06000 -0.25219
v -0.28000 0.40000 -0.28000
v -0.19440 0.06000 -0.25219
v -0.22710 0.06000 -0.35281
v -0.28000 0.40000 -0.28000
v -0.22710 0.06000 -0.35281
v -0.33290 0.06000 -0.35281
v -0.28000 0.40000 -0.28000
v -0.33290 0.06000 -0.35281
v -0.36560 0.06000 -0.25219
v -0.28000 0.40000 -0.28000
v -0.36560 0.06000 -0.25219
v -0.28000 0.06000 -0.19000
v -0.28000 0.40000 -0.28000
v -0.19440 0.06000 -0.25219
v -0.28000 0.06000 -0.19000
v -0.28000 0.06000 -0.28000
v -0.22710 0.06000 -0.35281
v -0.19440 0.06000 -0.25219
v -0.28000 0.06000 -0.28000
v -0.33290 0.06000 -0.35281
v -0.22710 0.06000 -0.35281
v -0.28000 0.06000 -0.28000
v -0.36560 0.06000 -0.25219
v -0.33290 0.06000 -0.35281
v -0.28000 0.06000 -0.28000
v -0.28000 0.06000 -0.19000
v -0.36560 0.06000 -0.25219
v -0.28000 0.06000 -0.28000
vn 0.57475 0.20940 0.79108
vn 0.57475 0.20940 0.79108
vn 0.57475 0.20940 0.79108
vn 0.92997 0.20940 -0.30217
vn 0.92997 0.20940 -0.30217
vn 0.92997 0.20940 -0.30217
vn 0.00000 0.20940 -0.97783
vn 0.00000 0.20940 -0.97783
vn 0.00000 0.20940 -0.97783
vn -0.92997 0.20940 -0.30217
vn -0.92997 0.20940 -0.30217
vn -0.92997 0.20940 -0.30217
vn -0.57475 0.20940 0.79108
vn -0.57475 0.20940 0.79108
vn -0.57475 0.20940 0.79108
vn 0.00000 -1.00000 0.00000
vn 0.00000 -1.00000 0.00000
vn 0.00000 -1.00000 0.00000
vn 0.00000 -1.00000 0.00000
vn 0.00000 -1.00000 0.00000
vn 0.00000 -1.00000 0.00000
vn 0.00000 -1.00000 0.00000
vn 0.00000 -1.00000 0.00000
vn 0.00000 -1.00000 0.00000
vn 0.00000 -1.00000 0.00000
vn 0.00000 -1.00000 0.00000
vn 0.00000 -1.00000 0.00000
vn 0.00000 -1.00000 0.00000
vn 0.00000 -1.00000 0.00000
vn 0.00000 -1.00000 0.00000
usemtl trap_spike
f 1//1 2//2 3//3
f 4//4 5//5 6//6
f 7//7 8//8 9//9
f 10//10 11//11 12//12
f 13//13 14//14 15//15
f 16//16 17//17 18//18
f 19//19 20//20 21//21
f 22//22 23//23 24//24
f 25//25 26//26 27//27
f 28//28 29//29 30//30
o spike_1
v 0.28000 0.06000 -0.19000
v 0.36560 0.06000 -0.25219
v 0.28000 0.40000 -0.28000
v 0.36560 0.06000 -0.25219
v 0.33290 0.06000 -0.35281
v 0.28000 0.40000 -0.28000
v 0.33290 0.06000 -0.35281
v 0.22710 0.06000 -0.35281
v 0.28000 0.40000 -0.28000
v 0.22710 0.06000 -0.35281
v 0.19440 0.06000 -0.25219
v 0.28000 0.40000 -0.28000
v 0.19440 0.06000 -0.25219
v 0.28000 0.06000 -0.19000
v 0.28000 0.40000 -0.28000
v 0.36560 0.06000 -0.25219
v 0.28000 0.06000 -0.19000
v 0.28000 0.06000 -0.28000
v 0.33290 0.06000 -0.35281
v 0.36560 0.06000 -0.25219
v 0.28000 0.06000 -0.28000
v 0.22710 0.06000 -0.35281
v 0.33290 0.06000 -0.35281
v 0.28000 0.06000 -0.28000
v 0.19440 0.06000 -0.25219
v 0.22710 0.06000 -0.35281
v 0.28000 0.06000 -0.28000
v 0.28000 0.06000 -0.19000
v 0.19440 0.06000 -0.25219
v 0.28000 0.06000 -0.28000
vn 0.57475 0.20940 0.79108
vn 0.57475 0.20940 0.79108
vn 0.57475 0.20940 0.79108
vn 0.92997 0.20940 -0.30217
vn 0.92997 0.20940 -0.30217
vn 0.92997 0.20940 -0.30217
vn 0.00000 0.20940 -0.97783
vn 0.00000 0.20940 -0.97783
vn 0.00000 0.20940 -0.97783
vn -0.92997 0.20940 -0.30217
vn -0.92997 0.20940 -0.30217
vn -0.92997 0.20940 -0.30217
vn -0.57475 0.20940 0.79108
vn -0.57475 0.20940 0.79108
vn -0.57475 0.20940 0.79108
vn 0.00000 -1.00000 0.00000
vn 0.00000 -1.00000 0.00000
vn 0.00000 -1.00000 0.00000
vn 0.00000 -1.00000 0.00000
vn 0.00000 -1.00000 0.00000
vn 0.00000 -1.00000 0.00000
vn 0.00000 -1.00000 0.00000
vn 0.00000 -1.00000 0.00000
vn 0.00000 -1.00000 0.00000
vn 0.00000 -1.00000 0.00000
vn 0.00000 -1.00000 0.00000
vn 0.00000 -1.00000 0.00000
vn 0.00000 -1.00000 0.00000
vn 0.00000 -1.00000 0.00000
vn 0.00000 -1.00000 0.00000
usemtl trap_spike
f 31//31 32//32 33//33
f 34//34 35//35 36//36
f 37//37 38//38 39//39
f 40//40 41//41 42//42
f 43//43 44//44 45//45
f 46//46 47//47 48//48
f 49//49 50//50 51//51
f 52//52 53//53 54//54
f 55//55 56//56 57//57
f 58//58 59//59 60//60
o spike_2
v -0.28000 0.06000 0.37000
v -0.19440 0.06000 0.30781
v -0.28000 0.40000 0.28000
v -0.19440 0.06000 0.30781
v -0.22710 0.06000 0.20719
v -0.28000 0.40000 0.28000
v -0.22710 0.06000 0.20719
v -0.33290 0.06000 0.20719
v -0.28000 0.40000 0.28000
v -0.33290 0.06000 0.20719
v -0.36560 0.06000 0.30781
v -0.28000 0.40000 0.28000
v -0.36560 0.06000 0.30781
v -0.28000 0.06000 0.37000
v -0.28000 0.40000 0.28000
v -0.19440 0.06000 0.30781
v -0.28000 0.06000 0.37000
v -0.28000 0.06000 0.28000
v -0.22710 0.06000 0.20719
v -0.19440 0.06000 0.30781
v -0.28000 0.06000 0.28000
v -0.33290 0.06000 0.20719
v -0.22710 0.06000 0.20719
v -0.28000 0.06000 0.28000
v -0.36560 0.06000 0.30781
v -0.33290 0.06000 0.20719
v -0.28000 0.06000 0.28000
v -0.28000 0.06000 0.37000
v -0.36560 0.06000 0.30781
v -0.28000 0.06000 0.28000
vn 0.57475 0.20940 0.79108
vn 0.57475 0.20940 0.79108
vn 0.57475 0.20940 0.79108
vn 0.92997 0.20940 -0.30217
vn 0.92997 0.20940 -0.30217
vn 0.92997 0.20940 -0.30217
vn 0.00000 0.20940 -0.97783
vn 0.00000 0.20940 -0.97783
vn 0.00000 0.20940 -0.97783
vn -0.92997 0.20940 -0.30217
vn -0.92997 0.20940 -0.30217
vn -0.92997 0.20940 -0.30217
vn -0.57475 0.20940 0.79108
vn -0.57475 0.20940 0.79108
vn -0.57475 0.20940 0.79108
vn 0.00000 -1.00000 0.00000
vn 0.00000 -1.00000 0.00000
vn 0.00000 -1.00000 0.00000
vn 0.00000 -1.00000 0.00000
vn 0.00000 -1.00000 0.00000
vn 0.00000 -1.00000 0.00000
vn 0.00000 -1.00000 0.00000
vn 0.00000 -1.00000 0.00000
vn 0.00000 -1.00000 0.00000
vn 0.00000 -1.00000 0.00000
vn 0.00000 -1.00000 0.00000
vn 0.00000 -1.00000 0.00000
vn 0.00000 -1.00000 0.00000
vn 0.00000 -1.00000 0.00000
vn 0.00000 -1.00000 0.00000
usemtl trap_spike
f 61//61 62//62 63//63
f 64//64 65//65 66//66
f 67//67 68//68 69//69
f 70//70 71//71 72//72
f 73//73 74//74 75//75
f 76//76 77//77 78//78
f 79//79 80//80 81//81
f 82//82 83//83 84//84
f 85//85 86//86 87//87
f 88//88 89//89 90//90
o spike_3
v 0.28000 0.06000 0.37000
v 0.36560 0.06000 0.30781
v 0.28000 0.40000 0.28000
v 0.36560 0.06000 0.30781
v 0.33290 0.06000 0.20719
v 0.28000 0.40000 0.28000
v 0.33290 0.06000 0.20719
v 0.22710 0.06000 0.20719
v 0.28000 0.40000 0.28000
v 0.22710 0.06000 0.20719
v 0.19440 0.06000 0.30781
v 0.28000 0.40000 0.28000
v 0.19440 0.06000 0.30781
v 0.28000 0.06000 0.37000
v 0.28000 0.40000 0.28000
v 0.36560 0.06000 0.30781
v 0.28000 0.06000 0.37000
v 0.28000 0.06000 0.28000
v 0.33290 0.06000 0.20719
v 0.36560 0.06000 0.30781
v 0.28000 0.06000 0.28000
v 0.22710 0.06000 0.20719
v 0.33290 0.06000 0.20719
v 0.28000 0.06000 0.28000
v 0.19440 0.06000 0.30781
v 0.22710 0.06000 0.20719
v 0.28000 0.06000 0.28000
v 0.28000 0.06000 0.37000
v 0.19440 0.06000 0.30781
v 0.28000 0.06000 0.28000
vn 0.57475 0.20940 0.79108
vn 0.57475 0.20940 0.79108
vn 0.57475 0.20940 0.79108
vn 0.92997 0.20940 -0.30217
vn 0.92997 0.20940 -0.30217
vn 0.92997 0.20940 -0.30217
vn 0.00000 0.20940 -0.97783
vn 0.00000 0.20940 -0.97783
vn 0.00000 0.20940 -0.97783
vn -0.92997 0.20940 -0.30217
vn -0.92997 0.20940 -0.30217
vn -0.92997 0.20940 -0.30217
vn -0.57475 0.20940 0.79108
vn -0.57475 0.20940 0.79108
vn -0.57475 0.20940 0.79108
vn 0.00000 -1.00000 0.00000
vn 0.00000 -1.00000 0.00000
vn 0.00000 -1.00000 0.00000
vn 0.00000 -1.00000 0.00000
vn 0.00000 -1.00000 0.00000
vn 0.00000 -1.00000 0.00000
vn 0.00000 -1.00000 0.00000
vn 0.00000 -1.00000 0.00000
vn 0.00000 -1.00000 0.00000
vn 0.00000 -1.00000 0.00000
vn 0.00000 -1.00000 0.00000
vn 0.00000 -1.00000 0.00000
vn 0.00000 -1.00000 0.00000
vn 0.00000 -1.00000 0.00000
vn 0.00000 -1.00000 0.00000
usemtl trap_spike
f 91//91 92//92 93//93
f 94//94 95//95 96//96
f 97//97 98//98 99//99
f 100//100 101//101 102//102
f 103//103 104//104 105//105
f 106//106 107//107 108//108
f 109//109 110//110 111//111
f 112//112 113//113 114//114
f 115//115 116//116 117//117
f 118//118 119//119 120//120
o spike_4
v 0.00000 0.06000 0.09000
v 0.08560 0.06000 0.02781
v 0.00000 0.40000 0.00000
v 0.08560 0.06000 0.02781
v 0.05290 0.06000 -0.07281
v 0.00000 0.40000 0.00000
v 0.05290 0.06000 -0.07281
v -0.05290 0.06000 -0.07281
v 0.00000 0.40000 0.00000
v -0.05290 0.06000 -0.07281
v -0.08560 0.06000 0.02781
v 0.00000 0.40000 0.00000
v -0.08560 0.06000 0.02781
v -0.00000 0.06000 0.09000
v 0.00000 0.40000 0.00000
v 0.08560 0.06000 0.02781
v 0.00000 0.06000 0.09000
v 0.00000 0.06000 0.00000
v 0.05290 0.06000 -0.07281
v 0.08560 0.06000 0.02781
v 0.00000 0.06000 0.00000
v -0.05290 0.06000 -0.07281
v 0.05290 0.06000 -0.07281
v 0.00000 0.06000 0.00000
v -0.08560 0.06000 0.02781
v -0.05290 0.06000 -0.07281
v 0.00000 0.06000 0.00000
v -0.00000 0.06000 0.09000
v -0.08560 0.06000 0.02781
v 0.00000 0.06000 0.00000
vn 0.57475 0.20940 0.79108
vn 0.57475 0.20940 0.79108
vn 0.57475 0.20940 0.79108
vn 0.92997 0.20940 -0.30217
vn 0.92997 0.20940 -0.30217
vn 0.92997 0.20940 -0.30217
vn 0.00000 0.20940 -0.97783
vn 0.00000 0.20940 -0.97783
vn 0.00000 0.20940 -0.97783
vn -0.92997 0.20940 -0.30217
vn -0.92997 0.20940 -0.30217
vn -0.92997 0.20940 -0.30217
vn -0.57475 0.20940 0.79108
vn -0.57475 0.20940 0.79108
vn -0.57475 0.20940 0.79108
vn 0.00000 -1.00000 0.00000
vn 0.00000 -1.00000 0.00000
vn 0.00000 -1.00000 0.00000
vn 0.00000 -1.00000 0.00000
vn 0.00000 -1.00000 0.00000
vn 0.00000 -1.00000 0.00000
vn 0.00000 -1.00000 0.00000
vn 0.00000 -1.00000 0.00000
vn 0.00000 -1.00000 0.00000
vn 0.00000 -1.00000 0.00000
vn 0.00000 -1.00000 0.00000
vn 0.00000 -1.00000 0.00000
vn 0.00000 -1.00000 0.00000
vn 0.00000 -1.00000 0.00000
vn 0.00000 -1.00000 0.00000
usemtl trap_spike
f 121//121 122//122 123//123
f 124//124 125//125 126//126
f 127//127 128//128 129//129
f 130//130 131//131 132//132
f 133//133 134//134 135//135
f 136//136 137//137 138//138
f 139//139 140//140 141//141
f 142//142 143//143 144//144
f 145//145 146//146 147//147
f 148//148 149//149 150//150
