mtllib standing_torch.mtl
o pole
v -0.00000 0.03360 0.01670
v 0.04181 0.03360 -0.00062
v -0.00000 0.09273 0.01079
v 0.03763 0.09273 -0.00480
v -0.00000 0.09273 0.01079
v 0.04181 0.03360 -0.00062
v -0.00000 0.09273 0.01079
v 0.03763 0.09273 -0.00480
v -0.00000 1.09792 -0.01286
v 0.02091 1.09792 -0.02152
v -0.00000 1.09792 -0.01286
v 0.03763 0.09273 -0.00480
v -0.00000 1.09792 -0.01286
v 0.02091 1.09792 -0.02152
v -0.00000 1.21618 -0.01878
v 0.01672 1.21618 -0.02570
v -0.00000 1.21618 -0.01878
v 0.02091 1.09792 -0.02152
v 0.04181 0.03360 -0.00062
v 0.05913 0.03360 -0.04243
v 0.03763 0.09273 -0.00480
v 0.05322 0.09273 -0.04243
v 0.03763 0.09273 -0.00480
v 0.05913 0.03360 -0.04243
v 0.03763 0.09273 -0.00480
v 0.05322 0.09273 -0.04243
v 0.02091 1.09792 -0.02152
v 0.02956 1.09792 -0.04243
v 0.02091 1.09792 -0.02152
v 0.05322 0.09273 -0.04243
v 0.02091 1.09792 -0.02152
v 0.02956 1.09792 -0.04243
v 0.01672 1.21618 -0.02570
v 0.02365 1.21618 -0.04243
v 0.01672 1.21618 -0.02570
v 0.02956 1.09792 -0.04243
v 0.05913 0.03360 -0.04243
v 0.04181 0.03360 -0.08424
v 0.05322 0.09273 -0.04243
v 0.03763 0.09273 -0.08006
v 0.05322 0.09273 -0.04243
v 0.04181 0.03360 -0.08424
v 0.05322 0.09273 -0.04243
v 0.03763 0.09273 -0.08006
v 0.02956 1.09792 -0.04243
v 0.02091 1.09792 -0.06333
v 0.02956 1.09792 -0.04243
v 0.03763 0.09273 -0.08006
v 0.02956 1.09792 -0.04243
v 0.02091 1.09792 -0.06333
v 0.02365 1.21618 -0.04243
v 0.01672 1.21618 -0.05915
v 0.02365 1.21618 -0.04243
v 0.02091 1.09792 -0.06333
v 0.04181 0.03360 -0.08424
v -0.00000 0.03360 -0.10156
v 0.03763 0.09273 -0.08006
v -0.00000 0.09273 -0.09564
v 0.03763 0.09273 -0.08006
v -0.00000 0.03360 -0.10156
v 0.03763 0.09273 -0.08006
v -0.00000 0.09273 -0.09564
v 0.02091 1.09792 -0.06333
v -0.00000 1.09792 -0.07199
v 0.02091 1.09792 -0.06333
v -0.00000 0.09273 -0.09564
v 0.02091 1.09792 -0.06333
v -0.00000 1.09792 -0.07199
v 0.01672 1.21618 -0.05915
v -0.00000 1.21618 -0.06608
v 0.01672 1.21618 -0.05915
v -0.00000 1.09792 -0.07199
v -0.00000 0.03360 -0.10156
v -0.04181 0.03360 -0.08424
v -0.00000 0.09273 -0.09564
v -0.03763 0.09273 -0.08006
v -0.00000 0.09273 -0.09564
v -0.04181 0.03360 -0.08424
v -0.00000 0.09273 -0.09564
v -0.03763 0.09273 -0.08006
v -0.00000 1.09792 -0.07199
v -0.02091 1.09792 -0.06333
v -0.00000 1.09792 -0.07199
v -0.03763 0.09273 -0.08006
v -0.00000 1.09792 -0.07199
v -0.02091 1.09792 -0.06333
v -0.00000 1.21618 -0.06608
v -0.01672 1.21618 -0.05915
v -0.00000 1.21618 -0.06608
v -0.02091 1.09792 -0.06333
v -0.04181 0.03360 -0.08424
v -0.05913 0.03360 -0.04243
v -0.03763 0.09273 -0.08006
v -0.05322 0.09273 -0.04243
v -0.03763 0.09273 -0.08006
v -0.05913 0.03360 -0.04243
v -0.03763 0.09273 -0.08006
v -0.05322 0.09273 -0.04243
v -0.02091 1.09792 -0.06333
v -0.02956 1.09792 -0.04243
v -0.02091 1.09792 -0.06333
v -0.05322 0.09273 -0.04243
v -0.02091 1.09792 -0.06333
v -0.02956 1.09792 -0.04243
v -0.01672 1.21618 -0.05915
v -0.02365 1.21618 -0.04243
v -0.01672 1.21618 -0.05915
v -0.02956 1.09792 -0.04243
v -0.05913 0.03360 -0.04243
v -0.04181 0.03360 -0.00062
v -0.05322 0.09273 -0.04243
v -0.03763 0.09273 -0.00480
v -0.05322 0.09273 -0.04243
v -0.04181 0.03360 -0.00062
v -0.05322 0.09273 -0.04243
v -0.03763 0.09273 -0.00480
v -0.02956 1.09792 -0.04243
v -0.02091 1.09792 -0.02152
v -0.02956 1.09792 -0.04243
v -0.03763 0.09273 -0.00480
v -0.02956 1.09792 -0.04243
v -0.02091 1.09792 -0.02152
v -0.02365 1.21618 -0.04243
v -0.01672 1.21618 -0.02570
v -0.02365 1.21618 -0.04243
v -0.02091 1.09792 -0.02152
v -0.04181 0.03360 -0.00062
v -0.00000 0.03360 0.01670
v -0.03763 0.09273 -0.00480
v -0.00000 0.09273 0.01079
v -0.03763 0.09273 -0.00480
v -0.00000 0.03360 0.01670
v -0.03763 0.09273 -0.00480
v -0.00000 0.09273 0.01079
v -0.02091 1.09792 -0.02152
v -0.00000 1.09792 -0.01286
v -0.02091 1.09792 -0.02152
v -0.00000 0.09273 0.01079
v -0.02091 1.09792 -0.02152
v -0.00000 1.09792 -0.01286
v -0.01672 1.21618 -0.02570
v -0.00000 1.21618 -0.01878
v -0.01672 1.21618 -0.02570
v -0.00000 1.09792 -0.01286
vn 0.38106 0.09200 0.91996
vn 0.38106 0.09200 0.91996
vn 0.38106 0.09200 0.91996
vn 0.38106 0.09200 0.91996
vn 0.38106 0.09200 0.91996
vn 0.38106 0.09200 0.91996
vn 0.38259 0.02173 0.92366
vn 0.38259 0.02173 0.92366
vn 0.38259 0.02173 0.92366
vn 0.38259 0.02173 0.92366
vn 0.38259 0.02173 0.92366
vn 0.38259 0.02173 0.92366
vn 0.38228 0.04614 0.92290
vn 0.38228 0.04614 0.92290
vn 0.38228 0.04614 0.92290
vn 0.38228 0.04614 0.92290
vn 0.38228 0.04614 0.92290
vn 0.38228 0.04614 0.92290
vn 0.91996 0.09200 0.38106
vn 0.91996 0.09200 0.38106
vn 0.91996 0.09200 0.38106
vn 0.91996 0.09200 0.38106
vn 0.91996 0.09200 0.38106
vn 0.91996 0.09200 0.38106
vn 0.92366 0.02173 0.38259
vn 0.92366 0.02173 0.38259
vn 0.92366 0.02173 0.38259
vn 0.92366 0.02173 0.38259
vn 0.92366 0.02173 0.38259
vn 0.92366 0.02173 0.38259
vn 0.92290 0.04614 0.38228
vn 0.92290 0.04614 0.38228
vn 0.92290 0.04614 0.38228
vn 0.92290 0.04614 0.38228
vn 0.92290 0.04614 0.38228
vn 0.92290 0.04614 0.38228
vn 0.91996 0.09200 -0.38106
vn 0.91996 0.09200 -0.38106
vn 0.91996 0.09200 -0.38106
vn 0.91996 0.09200 -0.38106
vn 0.91996 0.09200 -0.38106
vn 0.91996 0.09200 -0.38106
vn 0.92366 0.02173 -0.38259
vn 0.92366 0.02173 -0.38259
vn 0.92366 0.02173 -0.38259
vn 0.92366 0.02173 -0.38259
vn 0.92366 0.02173 -0.38259
vn 0.92366 0.02173 -0.38259
vn 0.92290 0.04614 -0.38228
vn 0.92290 0.04614 -0.38228
vn 0.92290 0.04614 -0.38228
vn 0.92290 0.04614 -0.38228
vn 0.92290 0.04614 -0.38228
vn 0.92290 0.04614 -0.38228
vn 0.38106 0.09200 -0.91996
vn 0.38106 0.09200 -0.91996
vn 0.38106 0.09200 -0.91996
vn 0.38106 0.09200 -0.91996
vn 0.38106 0.09200 -0.91996
vn 0.38106 0.09200 -0.91996
vn 0.38259 0.02173 -0.92366
vn 0.38259 0.02173 -0.92366
vn 0.38259 0.02173 -0.92366
vn 0.38259 0.02173 -0.92366
vn 0.38259 0.02173 -0.92366
vn 0.38259 0.02173 -0.92366
vn 0.38228 0.04614 -0.92290
vn 0.38228 0.04614 -0.92290
vn 0.38228 0.04614 -0.92290
vn 0.38228 0.04614 -0.92290
vn 0.38228 0.04614 -0.92290
vn 0.38228 0.04614 -0.92290
vn -0.38106 0.09200 -0.91996
vn -0.38106 0.09200 -0.91996
vn -0.38106 0.09200 -0.91996
vn -0.38106 0.09200 -0.91996
vn -0.38106 0.09200 -0.91996
vn -0.38106 0.09200 -0.91996
vn -0.38259 0.02173 -0.92366
vn -0.38259 0.02173 -0.92366
vn -0.38259 0.02173 -0.92366
vn -0.38259 0.02173 -0.92366
vn -0.38259 0.02173 -0.92366
vn -0.38259 0.02173 -0.92366
vn -0.38228 0.04614 -0.92290
vn -0.38228 0.04614 -0.92290
vn -0.38228 0.04614 -0.92290
vn -0.38228 0.04614 -0.92290
vn -0.38228 0.04614 -0.92290
vn -0.38228 0.04614 -0.92290
vn -0.91996 0.09200 -0.38106
vn -0.91996 0.09200 -0.38106
vn -0.91996 0.09200 -0.38106
vn -0.91996 0.09200 -0.38106
vn -0.91996 0.09200 -0.38106
vn -0.91996 0.09200 -0.38106
vn -0.92366 0.02173 -0.38259
vn -0.92366 0.02173 -0.38259
vn -0.92366 0.02173 -0.38259
vn -0.92366 0.02173 -0.38259
vn -0.92366 0.02173 -0.38259
vn -0.92366 0.02173 -0.38259
vn -0.92290 0.04614 -0.38228
vn -0.92290 0.04614 -0.38228
vn -0.92290 0.04614 -0.38228
vn -0.92290 0.04614 -0.38228
vn -0.92290 0.04614 -0.38228
vn -0.92290 0.04614 -0.38228
vn -0.91996 0.09200 0.38106
vn -0.91996 0.09200 0.38106
vn -0.91996 0.09200 0.38106
vn -0.91996 0.09200 0.38106
vn -0.91996 0.09200 0.38106
vn -0.91996 0.09200 0.38106
vn -0.92366 0.02173 0.38259
vn -0.92366 0.02173 0.38259
vn -0.92366 0.02173 0.38259
vn -0.92366 0.02173 0.38259
vn -0.92366 0.02173 0.38259
vn -0.92366 0.02173 0.38259
vn -0.92290 0.04614 0.38228
vn -0.92290 0.04614 0.38228
vn -0.92290 0.04614 0.38228
vn -0.92290 0.04614 0.38228
vn -0.92290 0.04614 0.38228
vn -0.92290 0.04614 0.38228
vn -0.38106 0.09200 0.91996
vn -0.38106 0.09200 0.91996
vn -0.38106 0.09200 0.91996
vn -0.38106 0.09200 0.91996
vn -0.38106 0.09200 0.91996
vn -0.38106 0.09200 0.91996
vn -0.38259 0.02173 0.92366
vn -0.38259 0.02173 0.92366
vn -0.38259 0.02173 0.92366
vn -0.38259 0.02173 0.92366
vn -0.38259 0.02173 0.92366
vn -0.38259 0.02173 0.92366
vn -0.38228 0.04614 0.92290
vn -0.38228 0.04614 0.92290
vn -0.38228 0.04614 0.92290
vn -0.38228 0.04614 0.92290
vn -0.38228 0.04614 0.92290
vn -0.38228 0.04614 0.92290
usemtl iron_dark
f 1//1 2//2 3//3
f 4//4 5//5 6//6
f 7//7 8//8 9//9
f 10//10 11//11 12//12
f 13//13 14//14 15//15
f 16//16 17//17 18//18
f 19//19 20//20 21//21
f 22//22 23//23 24//24
f 25//25 26//26 27//27
f 28//28 29//29 30//30
f 31//31 32//32 33//33
f 34//34 35//35 36//36
f 37//37 38//38 39//39
f 40//40 41//41 42//42
f 43//43 44//44 45//45
f 46//46 47//47 48//48
f 49//49 50//50 51//51
f 52//52 53//53 54//54
f 55//55 56//56 57//57
f 58//58 59//59 60//60
f 61//61 62//62 63//63
f 64//64 65//65 66//66
f 67//67 68//68 69//69
f 70//70 71//71 72//72
f 73//73 74//74 75//75
f 76//76 77//77 78//78
f 79//79 80//80 81//81
f 82//82 83//83 84//84
f 85//85 86//86 87//87
f 88//88 89//89 90//90
f 91//91 92//92 93//93
f 94//94 95//95 96//96
f 97//97 98//98 99//99
f 100//100 101//101 102//102
f 103//103 104//104 105//105
f 106//106 107//107 108//108
f 109//109 110//110 111//111
f 112//112 113//113 114//114
f 115//115 116//116 117//117
f 118//118 119//119 120//120
f 121//121 122//122 123//123
f 124//124 125//125 126//126
f 127//127 128//128 129//129
f 130//130 131//131 132//132
f 133//133 134//134 135//135
f 136//136 137//137 138//138
f 139//139 140//140 141//141
f 142//142 143//143 144//144
o foot_0
v -0.00000 0.16444 -0.04981
v 0.00941 0.16768 -0.04765
v -0.00000 0.14240 -0.04605
v 0.02091 0.14960 -0.04125
v -0.00000 0.14240 -0.04605
v 0.00941 0.16768 -0.04765
v -0.00000 0.14240 -0.04605
v 0.02091 0.14960 -0.04125
v -0.00000 0.08488 0.05088
v 0.01672 0.09064 0.05473
v -0.00000 0.08488 0.05088
v 0.02091 0.14960 -0.04125
v -0.00000 0.08488 0.05088
v 0.01672 0.09064 0.05473
v -0.00000 0.02736 0.14782
v 0.01254 0.03168 0.15071
v -0.00000 0.02736 0.14782
v 0.01672 0.09064 0.05473
v -0.00000 0.02736 0.14782
v 0.01254 0.03168 0.15071
v -0.00000 0.02696 0.16601
v 0.00564 0.02891 0.16730
v -0.00000 0.02696 0.16601
v 0.01254 0.03168 0.15071
v 0.00941 0.16768 -0.04765
v 0.01330 0.17551 -0.04243
v 0.02091 0.14960 -0.04125
v 0.02956 0.16700 -0.02966
v 0.02091 0.14960 -0.04125
v 0.01330 0.17551 -0.04243
v 0.02091 0.14960 -0.04125
v 0.02956 0.16700 -0.02966
v 0.01672 0.09064 0.05473
v 0.02365 0.10456 0.06400
v 0.01672 0.09064 0.05473
v 0.02956 0.16700 -0.02966
v 0.01672 0.09064 0.05473
v 0.02365 0.10456 0.06400
v 0.01254 0.03168 0.15071
v 0.01774 0.04212 0.15766
v 0.01254 0.03168 0.15071
v 0.02365 0.10456 0.06400
v 0.01254 0.03168 0.15071
v 0.01774 0.04212 0.15766
v 0.00564 0.02891 0.16730
v 0.00798 0.03360 0.17044
v 0.00564 0.02891 0.16730
v 0.01774 0.04212 0.15766
v 0.01330 0.17551 -0.04243
v 0.00941 0.18334 -0.03721
v 0.02956 0.16700 -0.02966
v 0.02091 0.18439 -0.01806
v 0.02956 0.16700 -0.02966
v 0.00941 0.18334 -0.03721
v 0.02956 0.16700 -0.02966
v 0.02091 0.18439 -0.01806
v 0.02365 0.10456 0.06400
v 0.01672 0.11847 0.07328
v 0.02365 0.10456 0.06400
v 0.02091 0.18439 -0.01806
v 0.02365 0.10456 0.06400
v 0.01672 0.11847 0.07328
v 0.01774 0.04212 0.15766
v 0.01254 0.05255 0.16462
v 0.01774 0.04212 0.15766
v 0.01672 0.11847 0.07328
v 0.01774 0.04212 0.15766
v 0.01254 0.05255 0.16462
v 0.00798 0.03360 0.17044
v 0.00564 0.03830 0.17357
v 0.00798 0.03360 0.17044
v 0.01254 0.05255 0.16462
v 0.00941 0.18334 -0.03721
v -0.00000 0.18658 -0.03505
v 0.02091 0.18439 -0.01806
v -0.00000 0.19160 -0.01326
v 0.02091 0.18439 -0.01806
v -0.00000 0.18658 -0.03505
v 0.02091 0.18439 -0.01806
v -0.00000 0.19160 -0.01326
v 0.01672 0.11847 0.07328
v -0.00000 0.12424 0.07712
v 0.01672 0.11847 0.07328
v -0.00000 0.19160 -0.01326
v 0.01672 0.11847 0.07328
v -0.00000 0.12424 0.07712
v 0.01254 0.05255 0.16462
v -0.00000 0.05688 0.16750
v 0.01254 0.05255 0.16462
v -0.00000 0.12424 0.07712
v 0.01254 0.05255 0.16462
v -0.00000 0.05688 0.16750
v 0.00564 0.03830 0.17357
v -0.00000 0.04024 0.17486
v 0.00564 0.03830 0.17357
v -0.00000 0.05688 0.16750
v -0.00000 0.18658 -0.03505
v -0.00941 0.18334 -0.03721
v -0.00000 0.19160 -0.01326
v -0.02091 0.18439 -0.01806
v -0.00000 0.19160 -0.01326
v -0.00941 0.18334 -0.03721
v -0.00000 0.19160 -0.01326
v -0.02091 0.18439 -0.01806
v -0.00000 0.12424 0.07712
v -0.01672 0.11847 0.07328
v -0.00000 0.12424 0.07712
v -0.02091 0.18439 -0.01806
v -0.00000 0.12424 0.07712
v -0.01672 0.11847 0.07328
v -0.00000 0.05688 0.16750
v -0.01254 0.05255 0.16462
v -0.00000 0.05688 0.16750
v -0.01672 0.11847 0.07328
v -0.00000 0.05688 0.16750
v -0.01254 0.05255 0.16462
v -0.00000 0.04024 0.17486
v -0.00564 0.03830 0.17357
v -0.00000 0.04024 0.17486
v -0.01254 0.05255 0.16462
v -0.00941 0.18334 -0.03721
v -0.01330 0.17551 -0.04243
v -0.02091 0.18439 -0.01806
v -0.02956 0.16700 -0.02966
v -0.02091 0.18439 -0.01806
v -0.01330 0.17551 -0.04243
v -0.02091 0.18439 -0.01806
v -0.02956 0.16700 -0.02966
v -0.01672 0.11847 0.07328
v -0.02365 0.10456 0.06400
v -0.01672 0.11847 0.07328
v -0.02956 0.16700 -0.02966
v -0.01672 0.11847 0.07328
v -0.02365 0.10456 0.06400
v -0.01254 0.05255 0.16462
v -0.01774 0.04212 0.15766
v -0.01254 0.05255 0.16462
v -0.02365 0.10456 0.06400
v -0.01254 0.05255 0.16462
v -0.01774 0.04212 0.15766
v -0.00564 0.03830 0.17357
v -0.00798 0.03360 0.17044
v -0.00564 0.03830 0.17357
v -0.01774 0.04212 0.15766
v -0.01330 0.17551 -0.04243
v -0.00941 0.16768 -0.04765
v -0.02956 0.16700 -0.02966
v -0.02091 0.14960 -0.04125
v -0.02956 0.16700 -0.02966
v -0.00941 0.16768 -0.04765
v -0.02956 0.16700 -0.02966
v -0.02091 0.14960 -0.04125
v -0.02365 0.10456 0.06400
v -0.01672 0.09064 0.05473
v -0.02365 0.10456 0.06400
v -0.02091 0.14960 -0.04125
v -0.02365 0.10456 0.06400
v -0.01672 0.09064 0.05473
v -0.01774 0.04212 0.15766
v -0.01254 0.03168 0.15071
v -0.01774 0.04212 0.15766
v -0.01672 0.09064 0.05473
v -0.01774 0.04212 0.15766
v -0.01254 0.03168 0.15071
v -0.00798 0.03360 0.17044
v -0.00564 0.02891 0.16730
v -0.00798 0.03360 0.17044
v -0.01254 0.03168 0.15071
v -0.00941 0.16768 -0.04765
v -0.00000 0.16444 -0.04981
v -0.02091 0.14960 -0.04125
v -0.00000 0.14240 -0.04605
v -0.02091 0.14960 -0.04125
v -0.00000 0.16444 -0.04981
v -0.02091 0.14960 -0.04125
v -0.00000 0.14240 -0.04605
v -0.01672 0.09064 0.05473
v -0.00000 0.08488 0.05088
v -0.01672 0.09064 0.05473
v -0.00000 0.14240 -0.04605
v -0.01672 0.09064 0.05473
v -0.00000 0.08488 0.05088
v -0.01254 0.03168 0.15071
v -0.00000 0.02736 0.14782
v -0.01254 0.03168 0.15071
v -0.00000 0.08488 0.05088
v -0.01254 0.03168 0.15071
v -0.00000 0.02736 0.14782
v -0.00564 0.02891 0.16730
v -0.00000 0.02696 0.16601
v -0.00564 0.02891 0.16730
v -0.00000 0.02736 0.14782
vn 0.27350 -0.16140 -0.94823
vn 0.27350 -0.16140 -0.94823
vn 0.27350 -0.16140 -0.94823
vn 0.27350 -0.16140 -0.94823
vn 0.27350 -0.16140 -0.94823
vn 0.27350 -0.16140 -0.94823
vn 0.38223 -0.79470 -0.47154
vn 0.38223 -0.79470 -0.47154
vn 0.38223 -0.79470 -0.47154
vn 0.38223 -0.79470 -0.47154
vn 0.38223 -0.79470 -0.47154
vn 0.38223 -0.79470 -0.47154
vn 0.38223 -0.79470 -0.47154
vn 0.38223 -0.79470 -0.47154
vn 0.38223 -0.79470 -0.47154
vn 0.38223 -0.79470 -0.47154
vn 0.38223 -0.79470 -0.47154
vn 0.38223 -0.79470 -0.47154
vn 0.33000 -0.94376 -0.02060
vn 0.33000 -0.94376 -0.02060
vn 0.33000 -0.94376 -0.02060
vn 0.33000 -0.94376 -0.02060
vn 0.33000 -0.94376 -0.02060
vn 0.33000 -0.94376 -0.02060
vn 0.66028 0.16042 -0.73369
vn 0.66028 0.16042 -0.73369
vn 0.66028 0.16042 -0.73369
vn 0.66028 0.16042 -0.73369
vn 0.66028 0.16042 -0.73369
vn 0.66028 0.16042 -0.73369
vn 0.92279 -0.34493 -0.17169
vn 0.92279 -0.34493 -0.17169
vn 0.92279 -0.34493 -0.17169
vn 0.92279 -0.34493 -0.17169
vn 0.92279 -0.34493 -0.17169
vn 0.92279 -0.34493 -0.17169
vn 0.92279 -0.34493 -0.17169
vn 0.92279 -0.34493 -0.17169
vn 0.92279 -0.34493 -0.17169
vn 0.92279 -0.34493 -0.17169
vn 0.92279 -0.34493 -0.17169
vn 0.92279 -0.34493 -0.17169
vn 0.79668 -0.55545 0.23827
vn 0.79668 -0.55545 0.23827
vn 0.79668 -0.55545 0.23827
vn 0.79668 -0.55545 0.23827
vn 0.79668 -0.55545 0.23827
vn 0.79668 -0.55545 0.23827
vn 0.66028 0.61555 -0.43027
vn 0.66028 0.61555 -0.43027
vn 0.66028 0.61555 -0.43027
vn 0.66028 0.61555 -0.43027
vn 0.66028 0.61555 -0.43027
vn 0.66028 0.61555 -0.43027
vn 0.92279 0.29115 0.25236
vn 0.92279 0.29115 0.25236
vn 0.92279 0.29115 0.25236
vn 0.92279 0.29115 0.25236
vn 0.92279 0.29115 0.25236
vn 0.92279 0.29115 0.25236
vn 0.92279 0.29115 0.25236
vn 0.92279 0.29115 0.25236
vn 0.92279 0.29115 0.25236
vn 0.92279 0.29115 0.25236
vn 0.92279 0.29115 0.25236
vn 0.92279 0.29115 0.25236
vn 0.79668 -0.00631 0.60437
vn 0.79668 -0.00631 0.60437
vn 0.79668 -0.00631 0.60437
vn 0.79668 -0.00631 0.60437
vn 0.79668 -0.00631 0.60437
vn 0.79668 -0.00631 0.60437
vn 0.27350 0.93737 -0.21572
vn 0.27350 0.93737 -0.21572
vn 0.27350 0.93737 -0.21572
vn 0.27350 0.93737 -0.21572
vn 0.27350 0.93737 -0.21572
vn 0.27350 0.93737 -0.21572
vn 0.38223 0.74092 0.55221
vn 0.38223 0.74092 0.55221
vn 0.38223 0.74092 0.55221
vn 0.38223 0.74092 0.55221
vn 0.38223 0.74092 0.55221
vn 0.38223 0.74092 0.55221
vn 0.38223 0.74092 0.55221
vn 0.38223 0.74092 0.55221
vn 0.38223 0.74092 0.55221
vn 0.38223 0.74092 0.55221
vn 0.38223 0.74092 0.55221
vn 0.38223 0.74092 0.55221
vn 0.33000 0.38200 0.86324
vn 0.33000 0.38200 0.86324
vn 0.33000 0.38200 0.86324
vn 0.33000 0.38200 0.86324
vn 0.33000 0.38200 0.86324
vn 0.33000 0.38200 0.86324
vn -0.27350 0.93737 -0.21572
vn -0.27350 0.93737 -0.21572
vn -0.27350 0.93737 -0.21572
vn -0.27350 0.93737 -0.21572
vn -0.27350 0.93737 -0.21572
vn -0.27350 0.93737 -0.21572
vn -0.38223 0.74092 0.55221
vn -0.38223 0.74092 0.55221
vn -0.38223 0.74092 0.55221
vn -0.38223 0.74092 0.55221
vn -0.38223 0.74092 0.55221
vn -0.38223 0.74092 0.55221
vn -0.38223 0.74092 0.55221
vn -0.38223 0.74092 0.55221
vn -0.38223 0.74092 0.55221
vn -0.38223 0.74092 0.55221
vn -0.38223 0.74092 0.55221
vn -0.38223 0.74092 0.55221
vn -0.33000 0.38200 0.86324
vn -0.33000 0.38200 0.86324
vn -0.33000 0.38200 0.86324
vn -0.33000 0.38200 0.86324
vn -0.33000 0.38200 0.86324
vn -0.33000 0.38200 0.86324
vn -0.66028 0.61555 -0.43027
vn -0.66028 0.61555 -0.43027
vn -0.66028 0.61555 -0.43027
vn -0.66028 0.61555 -0.43027
vn -0.66028 0.61555 -0.43027
vn -0.66028 0.61555 -0.43027
vn -0.92279 0.29115 0.25236
vn -0.92279 0.29115 0.25236
vn -0.92279 0.29115 0.25236
vn -0.92279 0.29115 0.25236
vn -0.92279 0.29115 0.25236
vn -0.92279 0.29115 0.25236
vn -0.92279 0.29115 0.25236
vn -0.92279 0.29115 0.25236
vn -0.92279 0.29115 0.25236
vn -0.92279 0.29115 0.25236
vn -0.92279 0.29115 0.25236
vn -0.92279 0.29115 0.25236
vn -0.79668 -0.00631 0.60437
vn -0.79668 -0.00631 0.60437
vn -0.79668 -0.00631 0.60437
vn -0.79668 -0.00631 0.60437
vn -0.79668 -0.00631 0.60437
vn -0.79668 -0.00631 0.60437
vn -0.66028 0.16042 -0.73369
vn -0.66028 0.16042 -0.73369
vn -0.66028 0.16042 -0.73369
vn -0.66028 0.16042 -0.73369
vn -0.66028 0.16042 -0.73369
vn -0.66028 0.16042 -0.73369
vn -0.92279 -0.34493 -0.17169
vn -0.92279 -0.34493 -0.17169
vn -0.92279 -0.34493 -0.17169
vn -0.92279 -0.34493 -0.17169
vn -0.92279 -0.34493 -0.17169
vn -0.92279 -0.34493 -0.17169
vn -0.92279 -0.34493 -0.17169
vn -0.92279 -0.34493 -0.17169
vn -0.92279 -0.34493 -0.17169
vn -0.92279 -0.34493 -0.17169
vn -0.92279 -0.34493 -0.17169
vn -0.92279 -0.34493 -0.17169
vn -0.79668 -0.55545 0.23827
vn -0.79668 -0.55545 0.23827
vn -0.79668 -0.55545 0.23827
vn -0.79668 -0.55545 0.23827
vn -0.79668 -0.55545 0.23827
vn -0.79668 -0.55545 0.23827
vn -0.27350 -0.16140 -0.94823
vn -0.27350 -0.16140 -0.94823
vn -0.27350 -0.16140 -0.94823
vn -0.27350 -0.16140 -0.94823
vn -0.27350 -0.16140 -0.94823
vn -0.27350 -0.16140 -0.94823
vn -0.38223 -0.79470 -0.47154
vn -0.38223 -0.79470 -0.47154
vn -0.38223 -0.79470 -0.47154
vn -0.38223 -0.79470 -0.47154
vn -0.38223 -0.79470 -0.47154
vn -0.38223 -0.79470 -0.47154
vn -0.38223 -0.79470 -0.47154
vn -0.38223 -0.79470 -0.47154
vn -0.38223 -0.79470 -0.47154
vn -0.38223 -0.79470 -0.47154
vn -0.38223 -0.79470 -0.47154
vn -0.38223 -0.79470 -0.47154
vn -0.33000 -0.94376 -0.02060
vn -0.33000 -0.94376 -0.02060
vn -0.33000 -0.94376 -0.02060
vn -0.33000 -0.94376 -0.02060
vn -0.33000 -0.94376 -0.02060
vn -0.33000 -0.94376 -0.02060
usemtl iron_dark
f 145//145 146//146 147//147
f 148//148 149//149 150//150
f 151//151 152//152 153//153
f 154//154 155//155 156//156
f 157//157 158//158 159//159
f 160//160 161//161 162//162
f 163//163 164//164 165//165
f 166//166 167//167 168//168
f 169//169 170//170 171//171
f 172//172 173//173 174//174
f 175//175 176//176 177//177
f 178//178 179//179 180//180
f 181//181 182//182 183//183
f 184//184 185//185 186//186
f 187//187 188//188 189//189
f 190//190 191//191 192//192
f 193//193 194//194 195//195
f 196//196 197//197 198//198
f 199//199 200//200 201//201
f 202//202 203//203 204//204
f 205//205 206//206 207//207
f 208//208 209//209 210//210
f 211//211 212//212 213//213
f 214//214 215//215 216//216
f 217//217 218//218 219//219
f 220//220 221//221 222//222
f 223//223 224//224 225//225
f 226//226 227//227 228//228
f 229//229 230//230 231//231
f 232//232 233//233 234//234
f 235//235 236//236 237//237
f 238//238 239//239 240//240
f 241//241 242//242 243//243
f 244//244 245//245 246//246
f 247//247 248//248 249//249
f 250//250 251//251 252//252
f 253//253 254//254 255//255
f 256//256 257//257 258//258
f 259//259 260//260 261//261
f 262//262 263//263 264//264
f 265//265 266//266 267//267
f 268//268 269//269 270//270
f 271//271 272//272 273//273
f 274//274 275//275 276//276
f 277//277 278//278 279//279
f 280//280 281//281 282//282
f 283//283 284//284 285//285
f 286//286 287//287 288//288
f 289//289 290//290 291//291
f 292//292 293//293 294//294
f 295//295 296//296 297//297
f 298//298 299//299 300//300
f 301//301 302//302 303//303
f 304//304 305//305 306//306
f 307//307 308//308 309//309
f 310//310 311//311 312//312
f 313//313 314//314 315//315
f 316//316 317//317 318//318
f 319//319 320//320 321//321
f 322//322 323//323 324//324
f 325//325 326//326 327//327
f 328//328 329//329 330//330
f 331//331 332//332 333//333
f 334//334 335//335 336//336
o foot_1
v 0.00896 0.18105 -0.03429
v 0.00477 0.17265 -0.03034
v 0.03096 0.17930 -0.03074
v 0.02166 0.16063 -0.02196
v 0.03096 0.17930 -0.03074
v 0.00477 0.17265 -0.03034
v 0.03096 0.17930 -0.03074
v 0.02166 0.16063 -0.02196
v 0.10809 0.11440 -0.08118
v 0.10065 0.09946 -0.07416
v 0.10809 0.11440 -0.08118
v 0.02166 0.16063 -0.02196
v 0.10809 0.11440 -0.08118
v 0.10065 0.09946 -0.07416
v 0.18523 0.04950 -0.13163
v 0.17965 0.03830 -0.12636
v 0.18523 0.04950 -0.13163
v 0.10065 0.09946 -0.07416
v 0.18523 0.04950 -0.13163
v 0.17965 0.03830 -0.12636
v 0.18972 0.03692 -0.14398
v 0.18721 0.03188 -0.14161
v 0.18972 0.03692 -0.14398
v 0.17965 0.03830 -0.12636
v 0.00477 0.17265 -0.03034
v -0.00221 0.16593 -0.03347
v 0.02166 0.16063 -0.02196
v 0.00615 0.14569 -0.02891
v 0.02166 0.16063 -0.02196
v -0.00221 0.16593 -0.03347
v 0.02166 0.16063 -0.02196
v 0.00615 0.14569 -0.02891
v 0.10065 0.09946 -0.07416
v 0.08825 0.08751 -0.07972
v 0.10065 0.09946 -0.07416
v 0.00615 0.14569 -0.02891
v 0.10065 0.09946 -0.07416
v 0.08825 0.08751 -0.07972
v 0.17965 0.03830 -0.12636
v 0.17034 0.02934 -0.13053
v 0.17965 0.03830 -0.12636
v 0.08825 0.08751 -0.07972
v 0.17965 0.03830 -0.12636
v 0.17034 0.02934 -0.13053
v 0.18721 0.03188 -0.14161
v 0.18302 0.02785 -0.14349
v 0.18721 0.03188 -0.14161
v 0.17034 0.02934 -0.13053
v -0.00221 0.16593 -0.03347
v -0.00789 0.16482 -0.04185
v 0.00615 0.14569 -0.02891
v -0.00648 0.14324 -0.04752
v 0.00615 0.14569 -0.02891
v -0.00789 0.16482 -0.04185
v 0.00615 0.14569 -0.02891
v -0.00648 0.14324 -0.04752
v 0.08825 0.08751 -0.07972
v 0.07814 0.08555 -0.09461
v 0.08825 0.08751 -0.07972
v -0.00648 0.14324 -0.04752
v 0.08825 0.08751 -0.07972
v 0.07814 0.08555 -0.09461
v 0.17034 0.02934 -0.13053
v 0.16276 0.02786 -0.14170
v 0.17034 0.02934 -0.13053
v 0.07814 0.08555 -0.09461
v 0.17034 0.02934 -0.13053
v 0.16276 0.02786 -0.14170
v 0.18302 0.02785 -0.14349
v 0.17961 0.02719 -0.14851
v 0.18302 0.02785 -0.14349
v 0.16276 0.02786 -0.14170
v -0.00789 0.16482 -0.04185
v -0.00896 0.16998 -0.05056
v -0.00648 0.14324 -0.04752
v -0.00884 0.15470 -0.06689
v -0.00648 0.14324 -0.04752
v -0.00896 0.16998 -0.05056
v -0.00648 0.14324 -0.04752
v -0.00884 0.15470 -0.06689
v 0.07814 0.08555 -0.09461
v 0.07625 0.09472 -0.11010
v 0.07814 0.08555 -0.09461
v -0.00884 0.15470 -0.06689
v 0.07814 0.08555 -0.09461
v 0.07625 0.09472 -0.11010
v 0.16276 0.02786 -0.14170
v 0.16134 0.03474 -0.15332
v 0.16276 0.02786 -0.14170
v 0.07625 0.09472 -0.11010
v 0.16276 0.02786 -0.14170
v 0.16134 0.03474 -0.15332
v 0.17961 0.02719 -0.14851
v 0.17897 0.03028 -0.15374
v 0.17961 0.02719 -0.14851
v 0.16134 0.03474 -0.15332
v -0.00896 0.16998 -0.05056
v -0.00477 0.17838 -0.05451
v -0.00884 0.15470 -0.06689
v 0.00046 0.17336 -0.07567
v -0.00884 0.15470 -0.06689
v -0.00477 0.17838 -0.05451
v -0.00884 0.15470 -0.06689
v 0.00046 0.17336 -0.07567
v 0.07625 0.09472 -0.11010
v 0.08369 0.10965 -0.11713
v 0.07625 0.09472 -0.11010
v 0.00046 0.17336 -0.07567
v 0.07625 0.09472 -0.11010
v 0.08369 0.10965 -0.11713
v 0.16134 0.03474 -0.15332
v 0.16692 0.04594 -0.15858
v 0.16134 0.03474 -0.15332
v 0.08369 0.10965 -0.11713
v 0.16134 0.03474 -0.15332
v 0.16692 0.04594 -0.15858
v 0.17897 0.03028 -0.15374
v 0.18148 0.03532 -0.15611
v 0.17897 0.03028 -0.15374
v 0.16692 0.04594 -0.15858
v -0.00477 0.17838 -0.05451
v 0.00221 0.18510 -0.05138
v 0.00046 0.17336 -0.07567
v 0.01597 0.18830 -0.06872
v 0.00046 0.17336 -0.07567
v 0.00221 0.18510 -0.05138
v 0.00046 0.17336 -0.07567
v 0.01597 0.18830 -0.06872
v 0.08369 0.10965 -0.11713
v 0.09610 0.12160 -0.11157
v 0.08369 0.10965 -0.11713
v 0.01597 0.18830 -0.06872
v 0.08369 0.10965 -0.11713
v 0.09610 0.12160 -0.11157
v 0.16692 0.04594 -0.15858
v 0.17623 0.05490 -0.15441
v 0.16692 0.04594 -0.15858
v 0.09610 0.12160 -0.11157
v 0.16692 0.04594 -0.15858
v 0.17623 0.05490 -0.15441
v 0.18148 0.03532 -0.15611
v 0.18567 0.03935 -0.15423
v 0.18148 0.03532 -0.15611
v 0.17623 0.05490 -0.15441
v 0.00221 0.18510 -0.05138
v 0.00789 0.18620 -0.04301
v 0.01597 0.18830 -0.06872
v 0.02860 0.19076 -0.05011
v 0.01597 0.18830 -0.06872
v 0.00789 0.18620 -0.04301
v 0.01597 0.18830 -0.06872
v 0.02860 0.19076 -0.05011
v 0.09610 0.12160 -0.11157
v 0.10621 0.12357 -0.09668
v 0.09610 0.12160 -0.11157
v 0.02860 0.19076 -0.05011
v 0.09610 0.12160 -0.11157
v 0.10621 0.12357 -0.09668
v 0.17623 0.05490 -0.15441
v 0.18381 0.05637 -0.14325
v 0.17623 0.05490 -0.15441
v 0.10621 0.12357 -0.09668
v 0.17623 0.05490 -0.15441
v 0.18381 0.05637 -0.14325
v 0.18567 0.03935 -0.15423
v 0.18908 0.04002 -0.14921
v 0.18567 0.03935 -0.15423
v 0.18381 0.05637 -0.14325
v 0.00789 0.18620 -0.04301
v 0.00896 0.18105 -0.03429
v 0.02860 0.19076 -0.05011
v 0.03096 0.17930 -0.03074
v 0.02860 0.19076 -0.05011
v 0.00896 0.18105 -0.03429
v 0.02860 0.19076 -0.05011
v 0.03096 0.17930 -0.03074
v 0.10621 0.12357 -0.09668
v 0.10809 0.11440 -0.08118
v 0.10621 0.12357 -0.09668
v 0.03096 0.17930 -0.03074
v 0.10621 0.12357 -0.09668
v 0.10809 0.11440 -0.08118
v 0.18381 0.05637 -0.14325
v 0.18523 0.04950 -0.13163
v 0.18381 0.05637 -0.14325
v 0.10809 0.11440 -0.08118
v 0.18381 0.05637 -0.14325
v 0.18523 0.04950 -0.13163
v 0.18908 0.04002 -0.14921
v 0.18972 0.03692 -0.14398
v 0.18908 0.04002 -0.14921
v 0.18523 0.04950 -0.13163
vn -0.10491 0.46560 0.87875
vn -0.10491 0.46560 0.87875
vn -0.10491 0.46560 0.87875
vn -0.10491 0.46560 0.87875
vn -0.10491 0.46560 0.87875
vn -0.10491 0.46560 0.87875
vn 0.59270 0.08159 0.80128
vn 0.59270 0.08159 0.80128
vn 0.59270 0.08159 0.80128
vn 0.59270 0.08159 0.80128
vn 0.59270 0.08159 0.80128
vn 0.59270 0.08159 0.80128
vn 0.59270 0.08159 0.80128
vn 0.59270 0.08159 0.80128
vn 0.59270 0.08159 0.80128
vn 0.59270 0.08159 0.80128
vn 0.59270 0.08159 0.80128
vn 0.59270 0.08159 0.80128
vn 0.84642 -0.18723 0.49852
vn 0.84642 -0.18723 0.49852
vn 0.84642 -0.18723 0.49852
vn 0.84642 -0.18723 0.49852
vn 0.84642 -0.18723 0.49852
vn 0.84642 -0.18723 0.49852
vn -0.42951 0.02598 0.90269
vn -0.42951 0.02598 0.90269
vn -0.42951 0.02598 0.90269
vn -0.42951 0.02598 0.90269
vn -0.42951 0.02598 0.90269
vn -0.42951 0.02598 0.90269
vn 0.13904 -0.53281 0.83473
vn 0.13904 -0.53281 0.83473
vn 0.13904 -0.53281 0.83473
vn 0.13904 -0.53281 0.83473
vn 0.13904 -0.53281 0.83473
vn 0.13904 -0.53281 0.83473
vn 0.13904 -0.53281 0.83473
vn 0.13904 -0.53281 0.83473
vn 0.13904 -0.53281 0.83473
vn 0.13904 -0.53281 0.83473
vn 0.13904 -0.53281 0.83473
vn 0.13904 -0.53281 0.83473
vn 0.45476 -0.71766 0.52740
vn 0.45476 -0.71766 0.52740
vn 0.45476 -0.71766 0.52740
vn 0.45476 -0.71766 0.52740
vn 0.45476 -0.71766 0.52740
vn 0.45476 -0.71766 0.52740
vn -0.79775 -0.20158 0.56830
vn -0.79775 -0.20158 0.56830
vn -0.79775 -0.20158 0.56830
vn -0.79775 -0.20158 0.56830
vn -0.79775 -0.20158 0.56830
vn -0.79775 -0.20158 0.56830
vn -0.37560 -0.85085 0.36739
vn -0.37560 -0.85085 0.36739
vn -0.37560 -0.85085 0.36739
vn -0.37560 -0.85085 0.36739
vn -0.37560 -0.85085 0.36739
vn -0.37560 -0.85085 0.36739
vn -0.37560 -0.85085 0.36739
vn -0.37560 -0.85085 0.36739
vn -0.37560 -0.85085 0.36739
vn -0.37560 -0.85085 0.36739
vn -0.37560 -0.85085 0.36739
vn -0.37560 -0.85085 0.36739
vn 0.01045 -0.99224 0.12393
vn 0.01045 -0.99224 0.12393
vn 0.01045 -0.99224 0.12393
vn 0.01045 -0.99224 0.12393
vn 0.01045 -0.99224 0.12393
vn 0.01045 -0.99224 0.12393
vn -0.99392 -0.08378 0.07146
vn -0.99392 -0.08378 0.07146
vn -0.99392 -0.08378 0.07146
vn -0.99392 -0.08378 0.07146
vn -0.99392 -0.08378 0.07146
vn -0.99392 -0.08378 0.07146
vn -0.64976 -0.68622 -0.32697
vn -0.64976 -0.68622 -0.32697
vn -0.64976 -0.68622 -0.32697
vn -0.64976 -0.68622 -0.32697
vn -0.64976 -0.68622 -0.32697
vn -0.64976 -0.68622 -0.32697
vn -0.64976 -0.68622 -0.32697
vn -0.64976 -0.68622 -0.32697
vn -0.64976 -0.68622 -0.32697
vn -0.64976 -0.68622 -0.32697
vn -0.64976 -0.68622 -0.32697
vn -0.64976 -0.68622 -0.32697
vn -0.22624 -0.85011 -0.47554
vn -0.22624 -0.85011 -0.47554
vn -0.22624 -0.85011 -0.47554
vn -0.22624 -0.85011 -0.47554
vn -0.22624 -0.85011 -0.47554
vn -0.22624 -0.85011 -0.47554
vn -0.90310 0.31037 -0.29678
vn -0.90310 0.31037 -0.29678
vn -0.90310 0.31037 -0.29678
vn -0.90310 0.31037 -0.29678
vn -0.90310 0.31037 -0.29678
vn -0.90310 0.31037 -0.29678
vn -0.52284 -0.13536 -0.84161
vn -0.52284 -0.13536 -0.84161
vn -0.52284 -0.13536 -0.84161
vn -0.52284 -0.13536 -0.84161
vn -0.52284 -0.13536 -0.84161
vn -0.52284 -0.13536 -0.84161
vn -0.52284 -0.13536 -0.84161
vn -0.52284 -0.13536 -0.84161
vn -0.52284 -0.13536 -0.84161
vn -0.52284 -0.13536 -0.84161
vn -0.52284 -0.13536 -0.84161
vn -0.52284 -0.13536 -0.84161
vn -0.11667 -0.37453 -0.91984
vn -0.11667 -0.37453 -0.91984
vn -0.11667 -0.37453 -0.91984
vn -0.11667 -0.37453 -0.91984
vn -0.11667 -0.37453 -0.91984
vn -0.11667 -0.37453 -0.91984
vn -0.57850 0.74999 -0.32071
vn -0.57850 0.74999 -0.32071
vn -0.57850 0.74999 -0.32071
vn -0.57850 0.74999 -0.32071
vn -0.57850 0.74999 -0.32071
vn -0.57850 0.74999 -0.32071
vn -0.06919 0.47904 -0.87506
vn -0.06919 0.47904 -0.87506
vn -0.06919 0.47904 -0.87506
vn -0.06919 0.47904 -0.87506
vn -0.06919 0.47904 -0.87506
vn -0.06919 0.47904 -0.87506
vn -0.06919 0.47904 -0.87506
vn -0.06919 0.47904 -0.87506
vn -0.06919 0.47904 -0.87506
vn -0.06919 0.47904 -0.87506
vn -0.06919 0.47904 -0.87506
vn -0.06919 0.47904 -0.87506
vn 0.27499 0.15590 -0.94872
vn 0.27499 0.15590 -0.94872
vn 0.27499 0.15590 -0.94872
vn 0.27499 0.15590 -0.94872
vn 0.27499 0.15590 -0.94872
vn 0.27499 0.15590 -0.94872
vn -0.21026 0.97755 0.01368
vn -0.21026 0.97755 0.01368
vn -0.21026 0.97755 0.01368
vn -0.21026 0.97755 0.01368
vn -0.21026 0.97755 0.01368
vn -0.21026 0.97755 0.01368
vn 0.44546 0.79707 -0.40773
vn 0.44546 0.79707 -0.40773
vn 0.44546 0.79707 -0.40773
vn 0.44546 0.79707 -0.40773
vn 0.44546 0.79707 -0.40773
vn 0.44546 0.79707 -0.40773
vn 0.44546 0.79707 -0.40773
vn 0.44546 0.79707 -0.40773
vn 0.44546 0.79707 -0.40773
vn 0.44546 0.79707 -0.40773
vn 0.44546 0.79707 -0.40773
vn 0.44546 0.79707 -0.40773
vn 0.71930 0.43047 -0.54525
vn 0.71930 0.43047 -0.54525
vn 0.71930 0.43047 -0.54525
vn 0.71930 0.43047 -0.54525
vn 0.71930 0.43047 -0.54525
vn 0.71930 0.43047 -0.54525
vn -0.01410 0.85975 0.51051
vn -0.01410 0.85975 0.51051
vn -0.01410 0.85975 0.51051
vn -0.01410 0.85975 0.51051
vn -0.01410 0.85975 0.51051
vn -0.01410 0.85975 0.51051
vn 0.71962 0.63245 0.28664
vn 0.71962 0.63245 0.28664
vn 0.71962 0.63245 0.28664
vn 0.71962 0.63245 0.28664
vn 0.71962 0.63245 0.28664
vn 0.71962 0.63245 0.28664
vn 0.71962 0.63245 0.28664
vn 0.71962 0.63245 0.28664
vn 0.71962 0.63245 0.28664
vn 0.71962 0.63245 0.28664
vn 0.71962 0.63245 0.28664
vn 0.71962 0.63245 0.28664
vn 0.95599 0.28835 0.05422
vn 0.95599 0.28835 0.05422
vn 0.95599 0.28835 0.05422
vn 0.95599 0.28835 0.05422
vn 0.95599 0.28835 0.05422
vn 0.95599 0.28835 0.05422
usemtl iron_dark
f 337//337 338//338 339//339
f 340//340 341//341 342//342
f 343//343 344//344 345//345
f 346//346 347//347 348//348
f 349//349 350//350 351//351
f 352//352 353//353 354//354
f 355//355 356//356 357//357
f 358//358 359//359 360//360
f 361//361 362//362 363//363
f 364//364 365//365 366//366
f 367//367 368//368 369//369
f 370//370 371//371 372//372
f 373//373 374//374 375//375
f 376//376 377//377 378//378
f 379//379 380//380 381//381
f 382//382 383//383 384//384
f 385//385 386//386 387//387
f 388//388 389//389 390//390
f 391//391 392//392 393//393
f 394//394 395//395 396//396
f 397//397 398//398 399//399
f 400//400 401//401 402//402
f 403//403 404//404 405//405
f 406//406 407//407 408//408
f 409//409 410//410 411//411
f 412//412 413//413 414//414
f 415//415 416//416 417//417
f 418//418 419//419 420//420
f 421//421 422//422 423//423
f 424//424 425//425 426//426
f 427//427 428//428 429//429
f 430//430 431//431 432//432
f 433//433 434//434 435//435
f 436//436 437//437 438//438
f 439//439 440//440 441//441
f 442//442 443//443 444//444
f 445//445 446//446 447//447
f 448//448 449//449 450//450
f 451//451 452//452 453//453
f 454//454 455//455 456//456
f 457//457 458//458 459//459
f 460//460 461//461 462//462
f 463//463 464//464 465//465
f 466//466 467//467 468//468
f 469//469 470//470 471//471
f 472//472 473//473 474//474
f 475//475 476//476 477//477
f 478//478 479//479 480//480
f 481//481 482//482 483//483
f 484//484 485//485 486//486
f 487//487 488//488 489//489
f 490//490 491//491 492//492
f 493//493 494//494 495//495
f 496//496 497//497 498//498
f 499//499 500//500 501//501
f 502//502 503//503 504//504
f 505//505 506//506 507//507
f 508//508 509//509 510//510
f 511//511 512//512 513//513
f 514//514 515//515 516//516
f 517//517 518//518 519//519
f 520//520 521//521 522//522
f 523//523 524//524 525//525
f 526//526 527//527 528//528
o foot_2
v -0.00896 0.18105 -0.03429
v -0.00789 0.18620 -0.04301
v -0.03096 0.17930 -0.03074
v -0.02860 0.19076 -0.05011
v -0.03096 0.17930 -0.03074
v -0.00789 0.18620 -0.04301
v -0.03096 0.17930 -0.03074
v -0.02860 0.19076 -0.05011
v -0.10809 0.11440 -0.08118
v -0.10621 0.12357 -0.09668
v -0.10809 0.11440 -0.08118
v -0.02860 0.19076 -0.05011
v -0.10809 0.11440 -0.08118
v -0.10621 0.12357 -0.09668
v -0.18523 0.04950 -0.13163
v -0.18381 0.05637 -0.14325
v -0.18523 0.04950 -0.13163
v -0.10621 0.12357 -0.09668
v -0.18523 0.04950 -0.13163
v -0.18381 0.05637 -0.14325
v -0.18972 0.03692 -0.14398
v -0.18908 0.04002 -0.14921
v -0.18972 0.03692 -0.14398
v -0.18381 0.05637 -0.14325
v -0.00789 0.18620 -0.04301
v -0.00221 0.18510 -0.05138
v -0.02860 0.19076 -0.05011
v -0.01597 0.18830 -0.06872
v -0.02860 0.19076 -0.05011
v -0.00221 0.18510 -0.05138
v -0.02860 0.19076 -0.05011
v -0.01597 0.18830 -0.06872
v -0.10621 0.12357 -0.09668
v -0.09610 0.12160 -0.11157
v -0.10621 0.12357 -0.09668
v -0.01597 0.18830 -0.06872
v -0.10621 0.12357 -0.09668
v -0.09610 0.12160 -0.11157
v -0.18381 0.05637 -0.14325
v -0.17623 0.05490 -0.15441
v -0.18381 0.05637 -0.14325
v -0.09610 0.12160 -0.11157
v -0.18381 0.05637 -0.14325
v -0.17623 0.05490 -0.15441
v -0.18908 0.04002 -0.14921
v -0.18567 0.03935 -0.15423
v -0.18908 0.04002 -0.14921
v -0.17623 0.05490 -0.15441
v -0.00221 0.18510 -0.05138
v 0.00477 0.17838 -0.05451
v -0.01597 0.18830 -0.06872
v -0.00046 0.17336 -0.07567
v -0.01597 0.18830 -0.06872
v 0.00477 0.17838 -0.05451
v -0.01597 0.18830 -0.06872
v -0.00046 0.17336 -0.07567
v -0.09610 0.12160 -0.11157
v -0.08369 0.10965 -0.11713
v -0.09610 0.12160 -0.11157
v -0.00046 0.17336 -0.07567
v -0.09610 0.12160 -0.11157
v -0.08369 0.10965 -0.11713
v -0.17623 0.05490 -0.15441
v -0.16692 0.04594 -0.15858
v -0.17623 0.05490 -0.15441
v -0.08369 0.10965 -0.11713
v -0.17623 0.05490 -0.15441
v -0.16692 0.04594 -0.15858
v -0.18567 0.03935 -0.15423
v -0.18148 0.03532 -0.15611
v -0.18567 0.03935 -0.15423
v -0.16692 0.04594 -0.15858
v 0.00477 0.17838 -0.05451
v 0.00896 0.16998 -0.05056
v -0.00046 0.17336 -0.07567
v 0.00884 0.15470 -0.06689
v -0.00046 0.17336 -0.07567
v 0.00896 0.16998 -0.05056
v -0.00046 0.17336 -0.07567
v 0.00884 0.15470 -0.06689
v -0.08369 0.10965 -0.11713
v -0.07625 0.09472 -0.11010
v -0.08369 0.10965 -0.11713
v 0.00884 0.15470 -0.06689
v -0.08369 0.10965 -0.11713
v -0.07625 0.09472 -0.11010
v -0.16692 0.04594 -0.15858
v -0.16134 0.03474 -0.15332
v -0.16692 0.04594 -0.15858
v -0.07625 0.09472 -0.11010
v -0.16692 0.04594 -0.15858
v -0.16134 0.03474 -0.15332
v -0.18148 0.03532 -0.15611
v -0.17897 0.03028 -0.15374
v -0.18148 0.03532 -0.15611
v -0.16134 0.03474 -0.15332
v 0.00896 0.16998 -0.05056
v 0.00789 0.16482 -0.04185
v 0.00884 0.15470 -0.06689
v 0.00648 0.14324 -0.04752
v 0.00884 0.15470 -0.06689
v 0.00789 0.16482 -0.04185
v 0.00884 0.15470 -0.06689
v 0.00648 0.14324 -0.04752
v -0.07625 0.09472 -0.11010
v -0.07814 0.08555 -0.09461
v -0.07625 0.09472 -0.11010
v 0.00648 0.14324 -0.04752
v -0.07625 0.09472 -0.11010
v -0.07814 0.08555 -0.09461
v -0.16134 0.03474 -0.15332
v -0.16276 0.02786 -0.14170
v -0.16134 0.03474 -0.15332
v -0.07814 0.08555 -0.09461
v -0.16134 0.03474 -0.15332
v -0.16276 0.02786 -0.14170
v -0.17897 0.03028 -0.15374
v -0.17961 0.02719 -0.14851
v -0.17897 0.03028 -0.15374
v -0.16276 0.02786 -0.14170
v 0.00789 0.16482 -0.04185
v 0.00221 0.16593 -0.03347
v 0.00648 0.14324 -0.04752
v -0.00615 0.14569 -0.02891
v 0.00648 0.14324 -0.04752
v 0.00221 0.16593 -0.03347
v 0.00648 0.14324 -0.04752
v -0.00615 0.14569 -0.02891
v -0.07814 0.08555 -0.09461
v -0.08825 0.08751 -0.07972
v -0.07814 0.08555 -0.09461
v -0.00615 0.14569 -0.02891
v -0.07814 0.08555 -0.09461
v -0.08825 0.08751 -0.07972
v -0.16276 0.02786 -0.14170
v -0.17034 0.02934 -0.13053
v -0.16276 0.02786 -0.14170
v -0.08825 0.08751 -0.07972
v -0.16276 0.02786 -0.14170
v -0.17034 0.02934 -0.13053
v -0.17961 0.02719 -0.14851
v -0.18302 0.02785 -0.14349
v -0.17961 0.02719 -0.14851
v -0.17034 0.02934 -0.13053
v 0.00221 0.16593 -0.03347
v -0.00477 0.17265 -0.03034
v -0.00615 0.14569 -0.02891
v -0.02166 0.16063 -0.02196
v -0.00615 0.14569 -0.02891
v -0.00477 0.17265 -0.03034
v -0.00615 0.14569 -0.02891
v -0.02166 0.16063 -0.02196
v -0.08825 0.08751 -0.07972
v -0.10065 0.09946 -0.07416
v -0.08825 0.08751 -0.07972
v -0.02166 0.16063 -0.02196
v -0.08825 0.08751 -0.07972
v -0.10065 0.09946 -0.07416
v -0.17034 0.02934 -0.13053
v -0.17965 0.03830 -0.12636
v -0.17034 0.02934 -0.13053
v -0.10065 0.09946 -0.07416
v -0.17034 0.02934 -0.13053
v -0.17965 0.03830 -0.12636
v -0.18302 0.02785 -0.14349
v -0.18721 0.03188 -0.14161
v -0.18302 0.02785 -0.14349
v -0.17965 0.03830 -0.12636
v -0.00477 0.17265 -0.03034
v -0.00896 0.18105 -0.03429
v -0.02166 0.16063 -0.02196
v -0.03096 0.17930 -0.03074
v -0.02166 0.16063 -0.02196
v -0.00896 0.18105 -0.03429
v -0.02166 0.16063 -0.02196
v -0.03096 0.17930 -0.03074
v -0.10065 0.09946 -0.07416
v -0.10809 0.11440 -0.08118
v -0.10065 0.09946 -0.07416
v -0.03096 0.17930 -0.03074
v -0.10065 0.09946 -0.07416
v -0.10809 0.11440 -0.08118
v -0.17965 0.03830 -0.12636
v -0.18523 0.04950 -0.13163
v -0.17965 0.03830 -0.12636
v -0.10809 0.11440 -0.08118
v -0.17965 0.03830 -0.12636
v -0.18523 0.04950 -0.13163
v -0.18721 0.03188 -0.14161
v -0.18972 0.03692 -0.14398
v -0.18721 0.03188 -0.14161
v -0.18523 0.04950 -0.13163
vn 0.01410 0.85975 0.51051
vn 0.01410 0.85975 0.51051
vn 0.01410 0.85975 0.51051
vn 0.01410 0.85975 0.51051
vn 0.01410 0.85975 0.51051
vn 0.01410 0.85975 0.51051
vn -0.71962 0.63245 0.28664
vn -0.71962 0.63245 0.28664
vn -0.71962 0.63245 0.28664
vn -0.71962 0.63245 0.28664
vn -0.71962 0.63245 0.28664
vn -0.71962 0.63245 0.28664
vn -0.71962 0.63245 0.28664
vn -0.71962 0.63245 0.28664
vn -0.71962 0.63245 0.28664
vn -0.71962 0.63245 0.28664
vn -0.71962 0.63245 0.28664
vn -0.71962 0.63245 0.28664
vn -0.95599 0.28835 0.05422
vn -0.95599 0.28835 0.05422
vn -0.95599 0.28835 0.05422
vn -0.95599 0.28835 0.05422
vn -0.95599 0.28835 0.05422
vn -0.95599 0.28835 0.05422
vn 0.21026 0.97755 0.01368
vn 0.21026 0.97755 0.01368
vn 0.21026 0.97755 0.01368
vn 0.21026 0.97755 0.01368
vn 0.21026 0.97755 0.01368
vn 0.21026 0.97755 0.01368
vn -0.44546 0.79707 -0.40773
vn -0.44546 0.79707 -0.40773
vn -0.44546 0.79707 -0.40773
vn -0.44546 0.79707 -0.40773
vn -0.44546 0.79707 -0.40773
vn -0.44546 0.79707 -0.40773
vn -0.44546 0.79707 -0.40773
vn -0.44546 0.79707 -0.40773
vn -0.44546 0.79707 -0.40773
vn -0.44546 0.79707 -0.40773
vn -0.44546 0.79707 -0.40773
vn -0.44546 0.79707 -0.40773
vn -0.71930 0.43047 -0.54525
vn -0.71930 0.43047 -0.54525
vn -0.71930 0.43047 -0.54525
vn -0.71930 0.43047 -0.54525
vn -0.71930 0.43047 -0.54525
vn -0.71930 0.43047 -0.54525
vn 0.57850 0.74999 -0.32071
vn 0.57850 0.74999 -0.32071
vn 0.57850 0.74999 -0.32071
vn 0.57850 0.74999 -0.32071
vn 0.57850 0.74999 -0.32071
vn 0.57850 0.74999 -0.32071
vn 0.06919 0.47904 -0.87506
vn 0.06919 0.47904 -0.87506
vn 0.06919 0.47904 -0.87506
vn 0.06919 0.47904 -0.87506
vn 0.06919 0.47904 -0.87506
vn 0.06919 0.47904 -0.87506
vn 0.06919 0.47904 -0.87506
vn 0.06919 0.47904 -0.87506
vn 0.06919 0.47904 -0.87506
vn 0.06919 0.47904 -0.87506
vn 0.06919 0.47904 -0.87506
vn 0.06919 0.47904 -0.87506
vn -0.27499 0.15590 -0.94872
vn -0.27499 0.15590 -0.94872
vn -0.27499 0.15590 -0.94872
vn -0.27499 0.15590 -0.94872
vn -0.27499 0.15590 -0.94872
vn -0.27499 0.15590 -0.94872
vn 0.90310 0.31037 -0.29678
vn 0.90310 0.31037 -0.29678
vn 0.90310 0.31037 -0.29678
vn 0.90310 0.31037 -0.29678
vn 0.90310 0.31037 -0.29678
vn 0.90310 0.31037 -0.29678
vn 0.52284 -0.13536 -0.84161
vn 0.52284 -0.13536 -0.84161
vn 0.52284 -0.13536 -0.84161
vn 0.52284 -0.13536 -0.84161
vn 0.52284 -0.13536 -0.84161
vn 0.52284 -0.13536 -0.84161
vn 0.52284 -0.13536 -0.84161
vn 0.52284 -0.13536 -0.84161
vn 0.52284 -0.13536 -0.84161
vn 0.52284 -0.13536 -0.84161
vn 0.52284 -0.13536 -0.84161
vn 0.52284 -0.13536 -0.84161
vn 0.11667 -0.37453 -0.91984
vn 0.11667 -0.37453 -0.91984
vn 0.11667 -0.37453 -0.91984
vn 0.11667 -0.37453 -0.91984
vn 0.11667 -0.37453 -0.91984
vn 0.11667 -0.37453 -0.91984
vn 0.99392 -0.08378 0.07146
vn 0.99392 -0.08378 0.07146
vn 0.99392 -0.08378 0.07146
vn 0.99392 -0.08378 0.07146
vn 0.99392 -0.08378 0.07146
vn 0.99392 -0.08378 0.07146
vn 0.64976 -0.68622 -0.32697
vn 0.64976 -0.68622 -0.32697
vn 0.64976 -0.68622 -0.32697
vn 0.64976 -0.68622 -0.32697
vn 0.64976 -0.68622 -0.32697
vn 0.64976 -0.68622 -0.32697
vn 0.64976 -0.68622 -0.32697
vn 0.64976 -0.68622 -0.32697
vn 0.64976 -0.68622 -0.32697
vn 0.64976 -0.68622 -0.32697
vn 0.64976 -0.68622 -0.32697
vn 0.64976 -0.68622 -0.32697
vn 0.22624 -0.85011 -0.47554
vn 0.22624 -0.85011 -0.47554
vn 0.22624 -0.85011 -0.47554
vn 0.22624 -0.85011 -0.47554
vn 0.22624 -0.85011 -0.47554
vn 0.22624 -0.85011 -0.47554
vn 0.79775 -0.20158 0.56830
vn 0.79775 -0.20158 0.56830
vn 0.79775 -0.20158 0.56830
vn 0.79775 -0.20158 0.56830
vn 0.79775 -0.20158 0.56830
vn 0.79775 -0.20158 0.56830
vn 0.37560 -0.85085 0.36739
vn 0.37560 -0.85085 0.36739
vn 0.37560 -0.85085 0.36739
vn 0.37560 -0.85085 0.36739
vn 0.37560 -0.85085 0.36739
vn 0.37560 -0.85085 0.36739
vn 0.37560 -0.85085 0.36739
vn 0.37560 -0.85085 0.36739
vn 0.37560 -0.85085 0.36739
vn 0.37560 -0.85085 0.36739
vn 0.37560 -0.85085 0.36739
vn 0.37560 -0.85085 0.36739
vn -0.01045 -0.99224 0.12393
vn -0.01045 -0.99224 0.12393
vn -0.01045 -0.99224 0.12393
vn -0.01045 -0.99224 0.12393
vn -0.01045 -0.99224 0.12393
vn -0.01045 -0.99224 0.12393
vn 0.42951 0.02598 0.90269
vn 0.42951 0.02598 0.90269
vn 0.42951 0.02598 0.90269
vn 0.42951 0.02598 0.90269
vn 0.42951 0.02598 0.90269
vn 0.42951 0.02598 0.90269
vn -0.13904 -0.53281 0.83473
vn -0.13904 -0.53281 0.83473
vn -0.13904 -0.53281 0.83473
vn -0.13904 -0.53281 0.83473
vn -0.13904 -0.53281 0.83473
vn -0.13904 -0.53281 0.83473
vn -0.13904 -0.53281 0.83473
vn -0.13904 -0.53281 0.83473
vn -0.13904 -0.53281 0.83473
vn -0.13904 -0.53281 0.83473
vn -0.13904 -0.53281 0.83473
vn -0.13904 -0.53281 0.83473
vn -0.45476 -0.71766 0.52740
vn -0.45476 -0.71766 0.52740
vn -0.45476 -0.71766 0.52740
vn -0.45476 -0.71766 0.52740
vn -0.45476 -0.71766 0.52740
vn -0.45476 -0.71766 0.52740
vn 0.10491 0.46560 0.87875
vn 0.10491 0.46560 0.87875
vn 0.10491 0.46560 0.87875
vn 0.10491 0.46560 0.87875
vn 0.10491 0.46560 0.87875
vn 0.10491 0.46560 0.87875
vn -0.59270 0.08159 0.80128
vn -0.59270 0.08159 0.80128
vn -0.59270 0.08159 0.80128
vn -0.59270 0.08159 0.80128
vn -0.59270 0.08159 0.80128
vn -0.59270 0.08159 0.80128
vn -0.59270 0.08159 0.80128
vn -0.59270 0.08159 0.80128
vn -0.59270 0.08159 0.80128
vn -0.59270 0.08159 0.80128
vn -0.59270 0.08159 0.80128
vn -0.59270 0.08159 0.80128
vn -0.84642 -0.18723 0.49852
vn -0.84642 -0.18723 0.49852
vn -0.84642 -0.18723 0.49852
vn -0.84642 -0.18723 0.49852
vn -0.84642 -0.18723 0.49852
vn -0.84642 -0.18723 0.49852
usemtl iron_dark
f 529//529 530//530 531//531
f 532//532 533//533 534//534
f 535//535 536//536 537//537
f 538//538 539//539 540//540
f 541//541 542//542 543//543
f 544//544 545//545 546//546
f 547//547 548//548 549//549
f 550//550 551//551 552//552
f 553//553 554//554 555//555
f 556//556 557//557 558//558
f 559//559 560//560 561//561
f 562//562 563//563 564//564
f 565//565 566//566 567//567
f 568//568 569//569 570//570
f 571//571 572//572 573//573
f 574//574 575//575 576//576
f 577//577 578//578 579//579
f 580//580 581//581 582//582
f 583//583 584//584 585//585
f 586//586 587//587 588//588
f 589//589 590//590 591//591
f 592//592 593//593 594//594
f 595//595 596//596 597//597
f 598//598 599//599 600//600
f 601//601 602//602 603//603
f 604//604 605//605 606//606
f 607//607 608//608 609//609
f 610//610 611//611 612//612
f 613//613 614//614 615//615
f 616//616 617//617 618//618
f 619//619 620//620 621//621
f 622//622 623//623 624//624
f 625//625 626//626 627//627
f 628//628 629//629 630//630
f 631//631 632//632 633//633
f 634//634 635//635 636//636
f 637//637 638//638 639//639
f 640//640 641//641 642//642
f 643//643 644//644 645//645
f 646//646 647//647 648//648
f 649//649 650//650 651//651
f 652//652 653//653 654//654
f 655//655 656//656 657//657
f 658//658 659//659 660//660
f 661//661 662//662 663//663
f 664//664 665//665 666//666
f 667//667 668//668 669//669
f 670//670 671//671 672//672
f 673//673 674//674 675//675
f 676//676 677//677 678//678
f 679//679 680//680 681//681
f 682//682 683//683 684//684
f 685//685 686//686 687//687
f 688//688 689//689 690//690
f 691//691 692//692 693//693
f 694//694 695//695 696//696
f 697//697 698//698 699//699
f 700//700 701//701 702//702
f 703//703 704//704 705//705
f 706//706 707//707 708//708
f 709//709 710//710 711//711
f 712//712 713//713 714//714
f 715//715 716//716 717//717
f 718//718 719//719 720//720
o bowl
v -0.00000 1.21618 0.07583
v 0.08362 1.21618 0.04119
v -0.00000 1.25165 0.09357
v 0.09616 1.25165 0.05374
v -0.00000 1.25165 0.09357
v 0.08362 1.21618 0.04119
v -0.00000 1.25165 0.09357
v 0.09616 1.25165 0.05374
v -0.00000 1.30487 0.06400
v 0.07526 1.30487 0.03283
v -0.00000 1.30487 0.06400
v 0.09616 1.25165 0.05374
v -0.00000 1.30487 0.06400
v 0.07526 1.30487 0.03283
v -0.00000 1.32261 -0.00695
v 0.02509 1.32261 -0.01734
v -0.00000 1.32261 -0.00695
v 0.07526 1.30487 0.03283
v 0.08362 1.21618 0.04119
v 0.11826 1.21618 -0.04243
v 0.09616 1.25165 0.05374
v 0.13600 1.25165 -0.04243
v 0.09616 1.25165 0.05374
v 0.11826 1.21618 -0.04243
v 0.09616 1.25165 0.05374
v 0.13600 1.25165 -0.04243
v 0.07526 1.30487 0.03283
v 0.10643 1.30487 -0.04243
v 0.07526 1.30487 0.03283
v 0.13600 1.25165 -0.04243
v 0.07526 1.30487 0.03283
v 0.10643 1.30487 -0.04243
v 0.02509 1.32261 -0.01734
v 0.03548 1.32261 -0.04243
v 0.02509 1.32261 -0.01734
v 0.10643 1.30487 -0.04243
v 0.11826 1.21618 -0.04243
v 0.08362 1.21618 -0.12605
v 0.13600 1.25165 -0.04243
v 0.09616 1.25165 -0.13859
v 0.13600 1.25165 -0.04243
v 0.08362 1.21618 -0.12605
v 0.13600 1.25165 -0.04243
v 0.09616 1.25165 -0.13859
v 0.10643 1.30487 -0.04243
v 0.07526 1.30487 -0.11769
v 0.10643 1.30487 -0.04243
v 0.09616 1.25165 -0.13859
v 0.10643 1.30487 -0.04243
v 0.07526 1.30487 -0.11769
v 0.03548 1.32261 -0.04243
v 0.02509 1.32261 -0.06751
v 0.03548 1.32261 -0.04243
v 0.07526 1.30487 -0.11769
v 0.08362 1.21618 -0.12605
v -0.00000 1.21618 -0.16068
v 0.09616 1.25165 -0.13859
v -0.00000 1.25165 -0.17842
v 0.09616 1.25165 -0.13859
v -0.00000 1.21618 -0.16068
v 0.09616 1.25165 -0.13859
v -0.00000 1.25165 -0.17842
v 0.07526 1.30487 -0.11769
v -0.00000 1.30487 -0.14886
v 0.07526 1.30487 -0.11769
v -0.00000 1.25165 -0.17842
v 0.07526 1.30487 -0.11769
v -0.00000 1.30487 -0.14886
v 0.02509 1.32261 -0.06751
v -0.00000 1.32261 -0.07790
v 0.02509 1.32261 -0.06751
v -0.00000 1.30487 -0.14886
v -0.00000 1.21618 -0.16068
v -0.08362 1.21618 -0.12605
v -0.00000 1.25165 -0.17842
v -0.09616 1.25165 -0.13859
v -0.00000 1.25165 -0.17842
v -0.08362 1.21618 -0.12605
v -0.00000 1.25165 -0.17842
v -0.09616 1.25165 -0.13859
v -0.00000 1.30487 -0.14886
v -0.07526 1.30487 -0.11769
v -0.00000 1.30487 -0.14886
v -0.09616 1.25165 -0.13859
v -0.00000 1.30487 -0.14886
v -0.07526 1.30487 -0.11769
v -0.00000 1.32261 -0.07790
v -0.02509 1.32261 -0.06751
v -0.00000 1.32261 -0.07790
v -0.07526 1.30487 -0.11769
v -0.08362 1.21618 -0.12605
v -0.11826 1.21618 -0.04243
v -0.09616 1.25165 -0.13859
v -0.13600 1.25165 -0.04243
v -0.09616 1.25165 -0.13859
v -0.11826 1.21618 -0.04243
v -0.09616 1.25165 -0.13859
v -0.13600 1.25165 -0.04243
v -0.07526 1.30487 -0.11769
v -0.10643 1.30487 -0.04243
v -0.07526 1.30487 -0.11769
v -0.13600 1.25165 -0.04243
v -0.07526 1.30487 -0.11769
v -0.10643 1.30487 -0.04243
v -0.02509 1.32261 -0.06751
v -0.03548 1.32261 -0.04243
v -0.02509 1.32261 -0.06751
v -0.10643 1.30487 -0.04243
v -0.11826 1.21618 -0.04243
v -0.08362 1.21618 0.04119
v -0.13600 1.25165 -0.04243
v -0.09616 1.25165 0.05374
v -0.13600 1.25165 -0.04243
v -0.08362 1.21618 0.04119
v -0.13600 1.25165 -0.04243
v -0.09616 1.25165 0.05374
v -0.10643 1.30487 -0.04243
v -0.07526 1.30487 0.03283
v -0.10643 1.30487 -0.04243
v -0.09616 1.25165 0.05374
v -0.10643 1.30487 -0.04243
v -0.07526 1.30487 0.03283
v -0.03548 1.32261 -0.04243
v -0.02509 1.32261 -0.01734
v -0.03548 1.32261 -0.04243
v -0.07526 1.30487 0.03283
v -0.08362 1.21618 0.04119
v -0.00000 1.21618 0.07583
v -0.09616 1.25165 0.05374
v -0.00000 1.25165 0.09357
v -0.09616 1.25165 0.05374
v -0.00000 1.21618 0.07583
v -0.09616 1.25165 0.05374
v -0.00000 1.25165 0.09357
v -0.07526 1.30487 0.03283
v -0.00000 1.30487 0.06400
v -0.07526 1.30487 0.03283
v -0.00000 1.25165 0.09357
v -0.07526 1.30487 0.03283
v -0.00000 1.30487 0.06400
v -0.02509 1.32261 -0.01734
v -0.00000 1.32261 -0.00695
v -0.02509 1.32261 -0.01734
v -0.00000 1.30487 0.06400
vn 0.34741 -0.41936 0.83872
vn 0.34741 -0.41936 0.83872
vn 0.34741 -0.41936 0.83872
vn 0.34741 -0.41936 0.83872
vn 0.34741 -0.41936 0.83872
vn 0.34741 -0.41936 0.83872
vn 0.34046 0.45663 0.82194
vn 0.34046 0.45663 0.82194
vn 0.34046 0.45663 0.82194
vn 0.34046 0.45663 0.82194
vn 0.34046 0.45663 0.82194
vn 0.34046 0.45663 0.82194
vn 0.09996 0.96528 0.24132
vn 0.09996 0.96528 0.24132
vn 0.09996 0.96528 0.24132
vn 0.09996 0.96528 0.24132
vn 0.09996 0.96528 0.24132
vn 0.09996 0.96528 0.24132
vn 0.83872 -0.41936 0.34741
vn 0.83872 -0.41936 0.34741
vn 0.83872 -0.41936 0.34741
vn 0.83872 -0.41936 0.34741
vn 0.83872 -0.41936 0.34741
vn 0.83872 -0.41936 0.34741
vn 0.82194 0.45663 0.34046
vn 0.82194 0.45663 0.34046
vn 0.82194 0.45663 0.34046
vn 0.82194 0.45663 0.34046
vn 0.82194 0.45663 0.34046
vn 0.82194 0.45663 0.34046
vn 0.24132 0.96528 0.09996
vn 0.24132 0.96528 0.09996
vn 0.24132 0.96528 0.09996
vn 0.24132 0.96528 0.09996
vn 0.24132 0.96528 0.09996
vn 0.24132 0.96528 0.09996
vn 0.83872 -0.41936 -0.34741
vn 0.83872 -0.41936 -0.34741
vn 0.83872 -0.41936 -0.34741
vn 0.83872 -0.41936 -0.34741
vn 0.83872 -0.41936 -0.34741
vn 0.83872 -0.41936 -0.34741
vn 0.82194 0.45663 -0.34046
vn 0.82194 0.45663 -0.34046
vn 0.82194 0.45663 -0.34046
vn 0.82194 0.45663 -0.34046
vn 0.82194 0.45663 -0.34046
vn 0.82194 0.45663 -0.34046
vn 0.24132 0.96528 -0.09996
vn 0.24132 0.96528 -0.09996
vn 0.24132 0.96528 -0.09996
vn 0.24132 0.96528 -0.09996
vn 0.24132 0.96528 -0.09996
vn 0.24132 0.96528 -0.09996
vn 0.34741 -0.41936 -0.83872
vn 0.34741 -0.41936 -0.83872
vn 0.34741 -0.41936 -0.83872
vn 0.34741 -0.41936 -0.83872
vn 0.34741 -0.41936 -0.83872
vn 0.34741 -0.41936 -0.83872
vn 0.34046 0.45663 -0.82194
vn 0.34046 0.45663 -0.82194
vn 0.34046 0.45663 -0.82194
vn 0.34046 0.45663 -0.82194
vn 0.34046 0.45663 -0.82194
vn 0.34046 0.45663 -0.82194
vn 0.09996 0.96528 -0.24132
vn 0.09996 0.96528 -0.24132
vn 0.09996 0.96528 -0.24132
vn 0.09996 0.96528 -0.24132
vn 0.09996 0.96528 -0.24132
vn 0.09996 0.96528 -0.24132
vn -0.34741 -0.41936 -0.83872
vn -0.34741 -0.41936 -0.83872
vn -0.34741 -0.41936 -0.83872
vn -0.34741 -0.41936 -0.83872
vn -0.34741 -0.41936 -0.83872
vn -0.34741 -0.41936 -0.83872
vn -0.34046 0.45663 -0.82194
vn -0.34046 0.45663 -0.82194
vn -0.34046 0.45663 -0.82194
vn -0.34046 0.45663 -0.82194
vn -0.34046 0.45663 -0.82194
vn -0.34046 0.45663 -0.82194
vn -0.09996 0.96528 -0.24132
vn -0.09996 0.96528 -0.24132
vn -0.09996 0.96528 -0.24132
vn -0.09996 0.96528 -0.24132
vn -0.09996 0.96528 -0.24132
vn -0.09996 0.96528 -0.24132
vn -0.83872 -0.41936 -0.34741
vn -0.83872 -0.41936 -0.34741
vn -0.83872 -0.41936 -0.34741
vn -0.83872 -0.41936 -0.34741
vn -0.83872 -0.41936 -0.34741
vn -0.83872 -0.41936 -0.34741
vn -0.82194 0.45663 -0.34046
vn -0.82194 0.45663 -0.34046
vn -0.82194 0.45663 -0.34046
vn -0.82194 0.45663 -0.34046
vn -0.82194 0.45663 -0.34046
vn -0.82194 0.45663 -0.34046
vn -0.24132 0.96528 -0.09996
vn -0.24132 0.96528 -0.09996
vn -0.24132 0.96528 -0.09996
vn -0.24132 0.96528 -0.09996
vn -0.24132 0.96528 -0.09996
vn -0.24132 0.96528 -0.09996
vn -0.83872 -0.41936 0.34741
vn -0.83872 -0.41936 0.34741
vn -0.83872 -0.41936 0.34741
vn -0.83872 -0.41936 0.34741
vn -0.83872 -0.41936 0.34741
vn -0.83872 -0.41936 0.34741
vn -0.82194 0.45663 0.34046
vn -0.82194 0.45663 0.34046
vn -0.82194 0.45663 0.34046
vn -0.82194 0.45663 0.34046
vn -0.82194 0.45663 0.34046
vn -0.82194 0.45663 0.34046
vn -0.24132 0.96528 0.09996
vn -0.24132 0.96528 0.09996
vn -0.24132 0.96528 0.09996
vn -0.24132 0.96528 0.09996
vn -0.24132 0.96528 0.09996
vn -0.24132 0.96528 0.09996
vn -0.34741 -0.41936 0.83872
vn -0.34741 -0.41936 0.83872
vn -0.34741 -0.41936 0.83872
vn -0.34741 -0.41936 0.83872
vn -0.34741 -0.41936 0.83872
vn -0.34741 -0.41936 0.83872
vn -0.34046 0.45663 0.82194
vn -0.34046 0.45663 0.82194
vn -0.34046 0.45663 0.82194
vn -0.34046 0.45663 0.82194
vn -0.34046 0.45663 0.82194
vn -0.34046 0.45663 0.82194
vn -0.09996 0.96528 0.24132
vn -0.09996 0.96528 0.24132
vn -0.09996 0.96528 0.24132
vn -0.09996 0.96528 0.24132
vn -0.09996 0.96528 0.24132
vn -0.09996 0.96528 0.24132
usemtl iron_highlight
f 721//721 722//722 723//723
f 724//724 725//725 726//726
f 727//727 728//728 729//729
f 730//730 731//731 732//732
f 733//733 734//734 735//735
f 736//736 737//737 738//738
f 739//739 740//740 741//741
f 742//742 743//743 744//744
f 745//745 746//746 747//747
f 748//748 749//749 750//750
f 751//751 752//752 753//753
f 754//754 755//755 756//756
f 757//757 758//758 759//759
f 760//760 761//761 762//762
f 763//763 764//764 765//765
f 766//766 767//767 768//768
f 769//769 770//770 771//771
f 772//772 773//773 774//774
f 775//775 776//776 777//777
f 778//778 779//779 780//780
f 781//781 782//782 783//783
f 784//784 785//785 786//786
f 787//787 788//788 789//789
f 790//790 791//791 792//792
f 793//793 794//794 795//795
f 796//796 797//797 798//798
f 799//799 800//800 801//801
f 802//802 803//803 804//804
f 805//805 806//806 807//807
f 808//808 809//809 810//810
f 811//811 812//812 813//813
f 814//814 815//815 816//816
f 817//817 818//818 819//819
f 820//820 821//821 822//822
f 823//823 824//824 825//825
f 826//826 827//827 828//828
f 829//829 830//830 831//831
f 832//832 833//833 834//834
f 835//835 836//836 837//837
f 838//838 839//839 840//840
f 841//841 842//842 843//843
f 844//844 845//845 846//846
f 847//847 848//848 849//849
f 850//850 851//851 852//852
f 853//853 854//854 855//855
f 856//856 857//857 858//858
f 859//859 860//860 861//861
f 862//862 863//863 864//864
o flame_base
v -0.00000 1.21618 0.04627
v 0.07681 1.21618 0.00192
v -0.00000 1.47634 -0.04243
v 0.07681 1.21618 0.00192
v 0.07681 1.21618 -0.08677
v -0.00000 1.47634 -0.04243
v 0.07681 1.21618 -0.08677
v -0.00000 1.21618 -0.13112
v -0.00000 1.47634 -0.04243
v -0.00000 1.21618 -0.13112
v -0.07681 1.21618 -0.08677
v -0.00000 1.47634 -0.04243
v -0.07681 1.21618 -0.08677
v -0.07681 1.21618 0.00192
v -0.00000 1.47634 -0.04243
v -0.07681 1.21618 0.00192
v -0.00000 1.21618 0.04627
v -0.00000 1.47634 -0.04243
v 0.07681 1.21618 0.00192
v -0.00000 1.21618 0.04627
v -0.00000 1.21618 -0.04243
v 0.07681 1.21618 -0.08677
v 0.07681 1.21618 0.00192
v -0.00000 1.21618 -0.04243
v -0.00000 1.21618 -0.13112
v 0.07681 1.21618 -0.08677
v -0.00000 1.21618 -0.04243
v -0.07681 1.21618 -0.08677
v -0.00000 1.21618 -0.13112
v -0.00000 1.21618 -0.04243
v -0.07681 1.21618 0.00192
v -0.07681 1.21618 -0.08677
v -0.00000 1.21618 -0.04243
v -0.00000 1.21618 0.04627
v -0.07681 1.21618 0.00192
v -0.00000 1.21618 -0.04243
vn 0.47954 0.28315 0.83058
vn 0.47954 0.28315 0.83058
vn 0.47954 0.28315 0.83058
vn 0.95907 0.28315 0.00000
vn 0.95907 0.28315 0.00000
vn 0.95907 0.28315 0.00000
vn 0.47954 0.28315 -0.83058
vn 0.47954 0.28315 -0.83058
vn 0.47954 0.28315 -0.83058
vn -0.47954 0.28315 -0.83058
vn -0.47954 0.28315 -0.83058
vn -0.47954 0.28315 -0.83058
vn -0.95907 0.28315 0.00000
vn -0.95907 0.28315 0.00000
vn -0.95907 0.28315 0.00000
vn -0.47954 0.28315 0.83058
vn -0.47954 0.28315 0.83058
vn -0.47954 0.28315 0.83058
vn 0.00000 -1.00000 0.00000
vn 0.00000 -1.00000 0.00000
vn 0.00000 -1.00000 0.00000
vn 0.00000 -1.00000 0.00000
vn 0.00000 -1.00000 0.00000
vn 0.00000 -1.00000 0.00000
vn 0.00000 -1.00000 0.00000
vn 0.00000 -1.00000 0.00000
vn 0.00000 -1.00000 0.00000
vn 0.00000 -1.00000 0.00000
vn 0.00000 -1.00000 0.00000
vn 0.00000 -1.00000 0.00000
vn 0.00000 -1.00000 0.00000
vn 0.00000 -1.00000 0.00000
vn 0.00000 -1.00000 0.00000
vn 0.00000 -1.00000 0.00000
vn 0.00000 -1.00000 0.00000
vn 0.00000 -1.00000 0.00000
usemtl flame
f 865//865 866//866 867//867
f 868//868 869//869 870//870
f 871//871 872//872 873//873
f 874//874 875//875 876//876
f 877//877 878//878 879//879
f 880//880 881//881 882//882
f 883//883 884//884 885//885
f 886//886 887//887 888//888
f 889//889 890//890 891//891
f 892//892 893//893 894//894
f 895//895 896//896 897//897
f 898//898 899//899 900//900
o flame_tip
v 0.00473 1.40203 0.00900
v 0.04564 1.40596 -0.01441
v -0.00473 1.59418 -0.02305
v 0.04564 1.40596 -0.01441
v 0.04564 1.40974 -0.06156
v -0.00473 1.59418 -0.02305
v 0.04564 1.40974 -0.06156
v 0.00473 1.40959 -0.08530
v -0.00473 1.59418 -0.02305
v 0.00473 1.40959 -0.08530
v -0.03619 1.40566 -0.06189
v -0.00473 1.59418 -0.02305
v -0.03619 1.40566 -0.06189
v -0.03619 1.40188 -0.01474
v -0.00473 1.59418 -0.02305
v -0.03619 1.40188 -0.01474
v 0.00473 1.40203 0.00900
v -0.00473 1.59418 -0.02305
v 0.04564 1.40596 -0.01441
v 0.00473 1.40203 0.00900
v 0.00473 1.40581 -0.03815
v 0.04564 1.40974 -0.06156
v 0.04564 1.40596 -0.01441
v 0.00473 1.40581 -0.03815
v 0.00473 1.40959 -0.08530
v 0.04564 1.40974 -0.06156
v 0.00473 1.40581 -0.03815
v -0.03619 1.40566 -0.06189
v 0.00473 1.40959 -0.08530
v 0.00473 1.40581 -0.03815
v -0.03619 1.40188 -0.01474
v -0.03619 1.40566 -0.06189
v 0.00473 1.40581 -0.03815
v 0.00473 1.40203 0.00900
v -0.03619 1.40188 -0.01474
v 0.00473 1.40581 -0.03815
vn 0.47749 0.16737 0.86255
vn 0.47749 0.16737 0.86255
vn 0.47749 0.16737 0.86255
vn 0.96556 0.25935 0.02079
vn 0.96556 0.25935 0.02079
vn 0.96556 0.25935 0.02079
vn 0.47749 0.30265 -0.82487
vn 0.47749 0.30265 -0.82487
vn 0.47749 0.30265 -0.82487
vn -0.49864 0.25396 -0.82877
vn -0.49864 0.25396 -0.82877
vn -0.49864 0.25396 -0.82877
vn -0.98671 0.16197 0.01299
vn -0.98671 0.16197 0.01299
vn -0.98671 0.16197 0.01299
vn -0.49864 0.11868 0.85864
vn -0.49864 0.11868 0.85864
vn -0.49864 0.11868 0.85864
vn 0.04998 -0.99556 -0.07981
vn 0.04998 -0.99556 -0.07981
vn 0.04998 -0.99556 -0.07981
vn 0.04998 -0.99556 -0.07981
vn 0.04998 -0.99556 -0.07981
vn 0.04998 -0.99556 -0.07981
vn 0.04998 -0.99556 -0.07981
vn 0.04998 -0.99556 -0.07981
vn 0.04998 -0.99556 -0.07981
vn 0.04998 -0.99556 -0.07981
vn 0.04998 -0.99556 -0.07981
vn 0.04998 -0.99556 -0.07981
vn 0.04998 -0.99556 -0.07981
vn 0.04998 -0.99556 -0.07981
vn 0.04998 -0.99556 -0.07981
vn 0.04998 -0.99556 -0.07981
vn 0.04998 -0.99556 -0.07981
vn 0.04998 -0.99556 -0.07981
usemtl flame
f 901//901 902//902 903//903
f 904//904 905//905 906//906
f 907//907 908//908 909//909
f 910//910 911//911 912//912
f 913//913 914//914 915//915
f 916//916 917//917 918//918
f 919//919 920//920 921//921
f 922//922 923//923 924//924
f 925//925 926//926 927//927
f 928//928 929//929 930//930
f 931//931 932//932 933//933
f 934//934 935//935 936//936
