mtllib abyss_mage_sleeve_L.mtl
o sleeve_upper_L
v 0.03680 -0.01802 -0.00192
v 0.03272 -0.00182 0.02467
v 0.07522 -0.05426 0.00340
v 0.06616 -0.01827 0.06248
v 0.07522 -0.05426 0.00340
v 0.03272 -0.00182 0.02467
v 0.07522 -0.05426 0.00340
v 0.06616 -0.01827 0.06248
v 0.02096 -0.15554 0.05987
v 0.01257 -0.12225 0.11452
v 0.02096 -0.15554 0.05987
v 0.06616 -0.01827 0.06248
v 0.02096 -0.15554 0.05987
v 0.01257 -0.12225 0.11452
v -0.03331 -0.25682 0.11635
v -0.04101 -0.22623 0.16656
v -0.03331 -0.25682 0.11635
v 0.01257 -0.12225 0.11452
v -0.03331 -0.25682 0.11635
v -0.04101 -0.22623 0.16656
v -0.07811 -0.25232 0.12599
v -0.08157 -0.23856 0.14859
v -0.07811 -0.25232 0.12599
v -0.04101 -0.22623 0.16656
v 0.03272 -0.00182 0.02467
v 0.00948 0.01544 0.03680
v 0.06616 -0.01827 0.06248
v 0.01449 0.02010 0.08944
v 0.06616 -0.01827 0.06248
v 0.00948 0.01544 0.03680
v 0.06616 -0.01827 0.06248
v 0.01449 0.02010 0.08944
v 0.01257 -0.12225 0.11452
v -0.03522 -0.08676 0.13946
v 0.01257 -0.12225 0.11452
v 0.01449 0.02010 0.08944
v 0.01257 -0.12225 0.11452
v -0.03522 -0.08676 0.13946
v -0.04101 -0.22623 0.16656
v -0.08493 -0.19362 0.18948
v -0.04101 -0.22623 0.16656
v -0.03522 -0.08676 0.13946
v -0.04101 -0.22623 0.16656
v -0.08493 -0.19362 0.18948
v -0.08157 -0.23856 0.14859
v -0.10133 -0.22388 0.15890
v -0.08157 -0.23856 0.14859
v -0.08493 -0.19362 0.18948
v 0.00948 0.01544 0.03680
v -0.01932 0.02366 0.02738
v 0.01449 0.02010 0.08944
v -0.04950 0.03836 0.06850
v 0.01449 0.02010 0.08944
v -0.01932 0.02366 0.02738
v 0.01449 0.02010 0.08944
v -0.04950 0.03836 0.06850
v -0.03522 -0.08676 0.13946
v -0.09441 -0.06987 0.12009
v -0.03522 -0.08676 0.13946
v -0.04950 0.03836 0.06850
v -0.03522 -0.08676 0.13946
v -0.09441 -0.06987 0.12009
v -0.08493 -0.19362 0.18948
v -0.13932 -0.17810 0.17168
v -0.08493 -0.19362 0.18948
v -0.09441 -0.06987 0.12009
v -0.08493 -0.19362 0.18948
v -0.13932 -0.17810 0.17168
v -0.10133 -0.22388 0.15890
v -0.12581 -0.21690 0.15089
v -0.10133 -0.22388 0.15890
v -0.13932 -0.17810 0.17168
v -0.01932 0.02366 0.02738
v -0.03680 0.01802 0.00192
v -0.04950 0.03836 0.06850
v -0.08835 0.02582 0.01191
v -0.04950 0.03836 0.06850
v -0.03680 0.01802 0.00192
v -0.04950 0.03836 0.06850
v -0.08835 0.02582 0.01191
v -0.09441 -0.06987 0.12009
v -0.13034 -0.08147 0.06775
v -0.09441 -0.06987 0.12009
v -0.08835 0.02582 0.01191
v -0.09441 -0.06987 0.12009
v -0.13034 -0.08147 0.06775
v -0.13932 -0.17810 0.17168
v -0.17234 -0.18876 0.12358
v -0.13932 -0.17810 0.17168
v -0.13034 -0.08147 0.06775
v -0.13932 -0.17810 0.17168
v -0.17234 -0.18876 0.12358
v -0.12581 -0.21690 0.15089
v -0.14067 -0.22170 0.12925
v -0.12581 -0.21690 0.15089
v -0.17234 -0.18876 0.12358
v -0.03680 0.01802 0.00192
v -0.03272 0.00182 -0.02467
v -0.08835 0.02582 0.01191
v -0.07928 -0.01018 -0.04716
v -0.08835 0.02582 0.01191
v -0.03272 0.00182 -0.02467
v -0.08835 0.02582 0.01191
v -0.07928 -0.01018 -0.04716
v -0.13034 -0.08147 0.06775
v -0.12196 -0.11476 0.01310
v -0.13034 -0.08147 0.06775
v -0.07928 -0.01018 -0.04716
v -0.13034 -0.08147 0.06775
v -0.12196 -0.11476 0.01310
v -0.17234 -0.18876 0.12358
v -0.16464 -0.21935 0.07337
v -0.17234 -0.18876 0.12358
v -0.12196 -0.11476 0.01310
v -0.17234 -0.18876 0.12358
v -0.16464 -0.21935 0.07337
v -0.14067 -0.22170 0.12925
v -0.13720 -0.23546 0.10665
v -0.14067 -0.22170 0.12925
v -0.16464 -0.21935 0.07337
v -0.03272 0.00182 -0.02467
v -0.00948 -0.01544 -0.03680
v -0.07928 -0.01018 -0.04716
v -0.02762 -0.04854 -0.07413
v -0.07928 -0.01018 -0.04716
v -0.00948 -0.01544 -0.03680
v -0.07928 -0.01018 -0.04716
v -0.02762 -0.04854 -0.07413
v -0.12196 -0.11476 0.01310
v -0.07417 -0.15025 -0.01184
v -0.12196 -0.11476 0.01310
v -0.02762 -0.04854 -0.07413
v -0.12196 -0.11476 0.01310
v -0.07417 -0.15025 -0.01184
v -0.16464 -0.21935 0.07337
v -0.12072 -0.25196 0.05045
v -0.16464 -0.21935 0.07337
v -0.07417 -0.15025 -0.01184
v -0.16464 -0.21935 0.07337
v -0.12072 -0.25196 0.05045
v -0.13720 -0.23546 0.10665
v -0.11744 -0.25014 0.09634
v -0.13720 -0.23546 0.10665
v -0.12072 -0.25196 0.05045
v -0.00948 -0.01544 -0.03680
v 0.01932 -0.02366 -0.02738
v -0.02762 -0.04854 -0.07413
v 0.03638 -0.06680 -0.05318
v -0.02762 -0.04854 -0.07413
v 0.01932 -0.02366 -0.02738
v -0.02762 -0.04854 -0.07413
v 0.03638 -0.06680 -0.05318
v -0.07417 -0.15025 -0.01184
v -0.01498 -0.16714 0.00753
v -0.07417 -0.15025 -0.01184
v 0.03638 -0.06680 -0.05318
v -0.07417 -0.15025 -0.01184
v -0.01498 -0.16714 0.00753
v -0.12072 -0.25196 0.05045
v -0.06633 -0.26748 0.06825
v -0.12072 -0.25196 0.05045
v -0.01498 -0.16714 0.00753
v -0.12072 -0.25196 0.05045
v -0.06633 -0.26748 0.06825
v -0.11744 -0.25014 0.09634
v -0.09296 -0.25712 0.10435
v -0.11744 -0.25014 0.09634
v -0.06633 -0.26748 0.06825
v 0.01932 -0.02366 -0.02738
v 0.03680 -0.01802 -0.00192
v 0.03638 -0.06680 -0.05318
v 0.07522 -0.05426 0.00340
v 0.03638 -0.06680 -0.05318
v 0.03680 -0.01802 -0.00192
v 0.03638 -0.06680 -0.05318
v 0.07522 -0.05426 0.00340
v -0.01498 -0.16714 0.00753
v 0.02096 -0.15554 0.05987
v -0.01498 -0.16714 0.00753
v 0.07522 -0.05426 0.00340
v -0.01498 -0.16714 0.00753
v 0.02096 -0.15554 0.05987
v -0.06633 -0.26748 0.06825
v -0.03331 -0.25682 0.11635
v -0.06633 -0.26748 0.06825
v 0.02096 -0.15554 0.05987
v -0.06633 -0.26748 0.06825
v -0.03331 -0.25682 0.11635
v -0.09296 -0.25712 0.10435
v -0.07811 -0.25232 0.12599
v -0.09296 -0.25712 0.10435
v -0.03331 -0.25682 0.11635
vn 0.67545 0.67122 -0.30532
vn 0.67545 0.67122 -0.30532
vn 0.67545 0.67122 -0.30532
vn 0.67545 0.67122 -0.30532
vn 0.67545 0.67122 -0.30532
vn 0.67545 0.67122 -0.30532
vn 0.89758 -0.30165 0.32150
vn 0.89758 -0.30165 0.32150
vn 0.89758 -0.30165 0.32150
vn 0.89758 -0.30165 0.32150
vn 0.89758 -0.30165 0.32150
vn 0.89758 -0.30165 0.32150
vn 0.89758 -0.30165 0.32150
vn 0.89758 -0.30165 0.32150
vn 0.89758 -0.30165 0.32150
vn 0.89758 -0.30165 0.32150
vn 0.89758 -0.30165 0.32150
vn 0.89758 -0.30165 0.32150
vn 0.02715 -0.85181 0.52315
vn 0.02715 -0.85181 0.52315
vn 0.02715 -0.85181 0.52315
vn 0.02715 -0.85181 0.52315
vn 0.02715 -0.85181 0.52315
vn 0.02715 -0.85181 0.52315
vn 0.54846 0.82672 -0.12539
vn 0.54846 0.82672 -0.12539
vn 0.54846 0.82672 -0.12539
vn 0.54846 0.82672 -0.12539
vn 0.54846 0.82672 -0.12539
vn 0.54846 0.82672 -0.12539
vn 0.53749 0.13926 0.83169
vn 0.53749 0.13926 0.83169
vn 0.53749 0.13926 0.83169
vn 0.53749 0.13926 0.83169
vn 0.53749 0.13926 0.83169
vn 0.53749 0.13926 0.83169
vn 0.53749 0.13926 0.83169
vn 0.53749 0.13926 0.83169
vn 0.53749 0.13926 0.83169
vn 0.53749 0.13926 0.83169
vn 0.53749 0.13926 0.83169
vn 0.53749 0.13926 0.83169
vn -0.11882 -0.67308 0.72997
vn -0.11882 -0.67308 0.72997
vn -0.11882 -0.67308 0.72997
vn -0.11882 -0.67308 0.72997
vn -0.11882 -0.67308 0.72997
vn -0.11882 -0.67308 0.72997
vn 0.30658 0.94514 -0.11280
vn 0.30658 0.94514 -0.11280
vn 0.30658 0.94514 -0.11280
vn 0.30658 0.94514 -0.11280
vn 0.30658 0.94514 -0.11280
vn 0.30658 0.94514 -0.11280
vn -0.14833 0.47502 0.86738
vn -0.14833 0.47502 0.86738
vn -0.14833 0.47502 0.86738
vn -0.14833 0.47502 0.86738
vn -0.14833 0.47502 0.86738
vn -0.14833 0.47502 0.86738
vn -0.14833 0.47502 0.86738
vn -0.14833 0.47502 0.86738
vn -0.14833 0.47502 0.86738
vn -0.14833 0.47502 0.86738
vn -0.14833 0.47502 0.86738
vn -0.14833 0.47502 0.86738
vn -0.39684 -0.53697 0.74444
vn -0.39684 -0.53697 0.74444
vn -0.39684 -0.53697 0.74444
vn -0.39684 -0.53697 0.74444
vn -0.39684 -0.53697 0.74444
vn -0.39684 -0.53697 0.74444
vn 0.09151 0.95710 -0.27493
vn 0.09151 0.95710 -0.27493
vn 0.09151 0.95710 -0.27493
vn 0.09151 0.95710 -0.27493
vn 0.09151 0.95710 -0.27493
vn 0.09151 0.95710 -0.27493
vn -0.75815 0.50894 0.40767
vn -0.75815 0.50894 0.40767
vn -0.75815 0.50894 0.40767
vn -0.75815 0.50894 0.40767
vn -0.75815 0.50894 0.40767
vn -0.75815 0.50894 0.40767
vn -0.75815 0.50894 0.40767
vn -0.75815 0.50894 0.40767
vn -0.75815 0.50894 0.40767
vn -0.75815 0.50894 0.40767
vn -0.75815 0.50894 0.40767
vn -0.75815 0.50894 0.40767
vn -0.64404 -0.52322 0.55808
vn -0.64404 -0.52322 0.55808
vn -0.64404 -0.52322 0.55808
vn -0.64404 -0.52322 0.55808
vn -0.64404 -0.52322 0.55808
vn -0.64404 -0.52322 0.55808
vn 0.02923 0.85560 -0.51681
vn 0.02923 0.85560 -0.51681
vn 0.02923 0.85560 -0.51681
vn 0.02923 0.85560 -0.51681
vn 0.02923 0.85560 -0.51681
vn 0.02923 0.85560 -0.51681
vn -0.93473 0.22115 -0.27815
vn -0.93473 0.22115 -0.27815
vn -0.93473 0.22115 -0.27815
vn -0.93473 0.22115 -0.27815
vn -0.93473 0.22115 -0.27815
vn -0.93473 0.22115 -0.27815
vn -0.93473 0.22115 -0.27815
vn -0.93473 0.22115 -0.27815
vn -0.93473 0.22115 -0.27815
vn -0.93473 0.22115 -0.27815
vn -0.93473 0.22115 -0.27815
vn -0.93473 0.22115 -0.27815
vn -0.71562 -0.63988 0.28007
vn -0.71562 -0.63988 0.28007
vn -0.71562 -0.63988 0.28007
vn -0.71562 -0.63988 0.28007
vn -0.71562 -0.63988 0.28007
vn -0.71562 -0.63988 0.28007
vn 0.15623 0.70010 -0.69674
vn 0.15623 0.70010 -0.69674
vn 0.15623 0.70010 -0.69674
vn 0.15623 0.70010 -0.69674
vn 0.15623 0.70010 -0.69674
vn 0.15623 0.70010 -0.69674
vn -0.57465 -0.21977 -0.78834
vn -0.57465 -0.21977 -0.78834
vn -0.57465 -0.21977 -0.78834
vn -0.57465 -0.21977 -0.78834
vn -0.57465 -0.21977 -0.78834
vn -0.57465 -0.21977 -0.78834
vn -0.57465 -0.21977 -0.78834
vn -0.57465 -0.21977 -0.78834
vn -0.57465 -0.21977 -0.78834
vn -0.57465 -0.21977 -0.78834
vn -0.57465 -0.21977 -0.78834
vn -0.57465 -0.21977 -0.78834
vn -0.56965 -0.81862 0.07325
vn -0.56965 -0.81862 0.07325
vn -0.56965 -0.81862 0.07325
vn -0.56965 -0.81862 0.07325
vn -0.56965 -0.81862 0.07325
vn -0.56965 -0.81862 0.07325
vn 0.39811 0.58169 -0.70933
vn 0.39811 0.58169 -0.70933
vn 0.39811 0.58169 -0.70933
vn 0.39811 0.58169 -0.70933
vn 0.39811 0.58169 -0.70933
vn 0.39811 0.58169 -0.70933
vn 0.11118 -0.55552 -0.82404
vn 0.11118 -0.55552 -0.82404
vn 0.11118 -0.55552 -0.82404
vn 0.11118 -0.55552 -0.82404
vn 0.11118 -0.55552 -0.82404
vn 0.11118 -0.55552 -0.82404
vn 0.11118 -0.55552 -0.82404
vn 0.11118 -0.55552 -0.82404
vn 0.11118 -0.55552 -0.82404
vn 0.11118 -0.55552 -0.82404
vn 0.11118 -0.55552 -0.82404
vn 0.11118 -0.55552 -0.82404
vn -0.29164 -0.95472 0.05878
vn -0.29164 -0.95472 0.05878
vn -0.29164 -0.95472 0.05878
vn -0.29164 -0.95472 0.05878
vn -0.29164 -0.95472 0.05878
vn -0.29164 -0.95472 0.05878
vn 0.61318 0.56972 -0.54720
vn 0.61318 0.56972 -0.54720
vn 0.61318 0.56972 -0.54720
vn 0.61318 0.56972 -0.54720
vn 0.61318 0.56972 -0.54720
vn 0.61318 0.56972 -0.54720
vn 0.72099 -0.58944 -0.36433
vn 0.72099 -0.58944 -0.36433
vn 0.72099 -0.58944 -0.36433
vn 0.72099 -0.58944 -0.36433
vn 0.72099 -0.58944 -0.36433
vn 0.72099 -0.58944 -0.36433
vn 0.72099 -0.58944 -0.36433
vn 0.72099 -0.58944 -0.36433
vn 0.72099 -0.58944 -0.36433
vn 0.72099 -0.58944 -0.36433
vn 0.72099 -0.58944 -0.36433
vn 0.72099 -0.58944 -0.36433
vn -0.04444 -0.96847 0.24514
vn -0.04444 -0.96847 0.24514
vn -0.04444 -0.96847 0.24514
vn -0.04444 -0.96847 0.24514
vn -0.04444 -0.96847 0.24514
vn -0.04444 -0.96847 0.24514
usemtl robe_blueviolet
f 1//1 2//2 3//3
f 4//4 5//5 6//6
f 7//7 8//8 9//9
f 10//10 11//11 12//12
f 13//13 14//14 15//15
f 16//16 17//17 18//18
f 19//19 20//20 21//21
f 22//22 23//23 24//24
f 25//25 26//26 27//27
f 28//28 29//29 30//30
f 31//31 32//32 33//33
f 34//34 35//35 36//36
f 37//37 38//38 39//39
f 40//40 41//41 42//42
f 43//43 44//44 45//45
f 46//46 47//47 48//48
f 49//49 50//50 51//51
f 52//52 53//53 54//54
f 55//55 56//56 57//57
f 58//58 59//59 60//60
f 61//61 62//62 63//63
f 64//64 65//65 66//66
f 67//67 68//68 69//69
f 70//70 71//71 72//72
f 73//73 74//74 75//75
f 76//76 77//77 78//78
f 79//79 80//80 81//81
f 82//82 83//83 84//84
f 85//85 86//86 87//87
f 88//88 89//89 90//90
f 91//91 92//92 93//93
f 94//94 95//95 96//96
f 97//97 98//98 99//99
f 100//100 101//101 102//102
f 103//103 104//104 105//105
f 106//106 107//107 108//108
f 109//109 110//110 111//111
f 112//112 113//113 114//114
f 115//115 116//116 117//117
f 118//118 119//119 120//120
f 121//121 122//122 123//123
f 124//124 125//125 126//126
f 127//127 128//128 129//129
f 130//130 131//131 132//132
f 133//133 134//134 135//135
f 136//136 137//137 138//138
f 139//139 140//140 141//141
f 142//142 143//143 144//144
f 145//145 146//146 147//147
f 148//148 149//149 150//150
f 151//151 152//152 153//153
f 154//154 155//155 156//156
f 157//157 158//158 159//159
f 160//160 161//161 162//162
f 163//163 164//164 165//165
f 166//166 167//167 168//168
f 169//169 170//170 171//171
f 172//172 173//173 174//174
f 175//175 176//176 177//177
f 178//178 179//179 180//180
f 181//181 182//182 183//183
f 184//184 185//185 186//186
f 187//187 188//188 189//189
f 190//190 191//191 192//192
o sleeve_lower_L
v -0.13327 -0.26108 0.11950
v -0.11101 -0.26348 0.10499
v -0.15700 -0.29925 0.11941
v -0.10751 -0.30459 0.08717
v -0.15700 -0.29925 0.11941
v -0.11101 -0.26348 0.10499
v -0.15700 -0.29925 0.11941
v -0.10751 -0.30459 0.08717
v -0.11220 -0.35870 0.19320
v -0.06709 -0.36358 0.16380
v -0.11220 -0.35870 0.19320
v -0.10751 -0.30459 0.08717
v -0.11220 -0.35870 0.19320
v -0.06709 -0.36358 0.16380
v -0.06741 -0.41816 0.26699
v -0.02666 -0.42256 0.24044
v -0.06741 -0.41816 0.26699
v -0.06709 -0.36358 0.16380
v -0.06741 -0.41816 0.26699
v -0.02666 -0.42256 0.24044
v -0.03790 -0.40268 0.28501
v -0.01956 -0.40466 0.27306
v -0.03790 -0.40268 0.28501
v -0.02666 -0.42256 0.24044
v -0.11101 -0.26348 0.10499
v -0.08779 -0.25038 0.10374
v -0.10751 -0.30459 0.08717
v -0.05592 -0.27547 0.08439
v -0.10751 -0.30459 0.08717
v -0.08779 -0.25038 0.10374
v -0.10751 -0.30459 0.08717
v -0.05592 -0.27547 0.08439
v -0.06709 -0.36358 0.16380
v -0.02005 -0.33703 0.16127
v -0.06709 -0.36358 0.16380
v -0.05592 -0.27547 0.08439
v -0.06709 -0.36358 0.16380
v -0.02005 -0.33703 0.16127
v -0.02666 -0.42256 0.24044
v 0.01583 -0.39858 0.23815
v -0.02666 -0.42256 0.24044
v -0.02005 -0.33703 0.16127
v -0.02666 -0.42256 0.24044
v 0.01583 -0.39858 0.23815
v -0.01956 -0.40466 0.27306
v -0.00044 -0.39387 0.27203
v -0.01956 -0.40466 0.27306
v 0.01583 -0.39858 0.23815
v -0.08779 -0.25038 0.10374
v -0.07723 -0.22945 0.11648
v -0.05592 -0.27547 0.08439
v -0.03245 -0.22895 0.11270
v -0.05592 -0.27547 0.08439
v -0.07723 -0.22945 0.11648
v -0.05592 -0.27547 0.08439
v -0.03245 -0.22895 0.11270
v -0.02005 -0.33703 0.16127
v 0.00135 -0.29461 0.18708
v -0.02005 -0.33703 0.16127
v -0.03245 -0.22895 0.11270
v -0.02005 -0.33703 0.16127
v 0.00135 -0.29461 0.18708
v 0.01583 -0.39858 0.23815
v 0.03516 -0.36027 0.26147
v 0.01583 -0.39858 0.23815
v 0.00135 -0.29461 0.18708
v 0.01583 -0.39858 0.23815
v 0.03516 -0.36027 0.26147
v -0.00044 -0.39387 0.27203
v 0.00825 -0.37663 0.28253
v -0.00044 -0.39387 0.27203
v 0.03516 -0.36027 0.26147
v -0.07723 -0.22945 0.11648
v -0.08550 -0.21294 0.13575
v -0.03245 -0.22895 0.11270
v -0.05084 -0.19228 0.15552
v -0.03245 -0.22895 0.11270
v -0.08550 -0.21294 0.13575
v -0.03245 -0.22895 0.11270
v -0.05084 -0.19228 0.15552
v 0.00135 -0.29461 0.18708
v -0.01542 -0.26117 0.22612
v 0.00135 -0.29461 0.18708
v -0.05084 -0.19228 0.15552
v 0.00135 -0.29461 0.18708
v -0.01542 -0.26117 0.22612
v 0.03516 -0.36027 0.26147
v 0.02001 -0.33006 0.29673
v 0.03516 -0.36027 0.26147
v -0.01542 -0.26117 0.22612
v 0.03516 -0.36027 0.26147
v 0.02001 -0.33006 0.29673
v 0.00825 -0.37663 0.28253
v 0.00144 -0.36304 0.29840
v 0.00825 -0.37663 0.28253
v 0.02001 -0.33006 0.29673
v -0.08550 -0.21294 0.13575
v -0.10777 -0.21054 0.15025
v -0.05084 -0.19228 0.15552
v -0.10033 -0.18693 0.18776
v -0.05084 -0.19228 0.15552
v -0.10777 -0.21054 0.15025
v -0.05084 -0.19228 0.15552
v -0.10033 -0.18693 0.18776
v -0.01542 -0.26117 0.22612
v -0.06054 -0.25630 0.25552
v -0.01542 -0.26117 0.22612
v -0.10033 -0.18693 0.18776
v -0.01542 -0.26117 0.22612
v -0.06054 -0.25630 0.25552
v 0.02001 -0.33006 0.29673
v -0.02074 -0.32566 0.32328
v 0.02001 -0.33006 0.29673
v -0.06054 -0.25630 0.25552
v 0.02001 -0.33006 0.29673
v -0.02074 -0.32566 0.32328
v 0.00144 -0.36304 0.29840
v -0.01690 -0.36106 0.31034
v 0.00144 -0.36304 0.29840
v -0.02074 -0.32566 0.32328
v -0.10777 -0.21054 0.15025
v -0.13099 -0.22364 0.15151
v -0.10033 -0.18693 0.18776
v -0.15192 -0.21605 0.19054
v -0.10033 -0.18693 0.18776
v -0.13099 -0.22364 0.15151
v -0.10033 -0.18693 0.18776
v -0.15192 -0.21605 0.19054
v -0.06054 -0.25630 0.25552
v -0.10757 -0.28284 0.25806
v -0.06054 -0.25630 0.25552
v -0.15192 -0.21605 0.19054
v -0.06054 -0.25630 0.25552
v -0.10757 -0.28284 0.25806
v -0.02074 -0.32566 0.32328
v -0.06323 -0.34964 0.32557
v -0.02074 -0.32566 0.32328
v -0.10757 -0.28284 0.25806
v -0.02074 -0.32566 0.32328
v -0.06323 -0.34964 0.32557
v -0.01690 -0.36106 0.31034
v -0.03602 -0.37185 0.31137
v -0.01690 -0.36106 0.31034
v -0.06323 -0.34964 0.32557
v -0.13099 -0.22364 0.15151
v -0.14155 -0.24457 0.13876
v -0.15192 -0.21605 0.19054
v -0.17539 -0.26257 0.16223
v -0.15192 -0.21605 0.19054
v -0.14155 -0.24457 0.13876
v -0.15192 -0.21605 0.19054
v -0.17539 -0.26257 0.16223
v -0.10757 -0.28284 0.25806
v -0.12897 -0.32526 0.23224
v -0.10757 -0.28284 0.25806
v -0.17539 -0.26257 0.16223
v -0.10757 -0.28284 0.25806
v -0.12897 -0.32526 0.23224
v -0.06323 -0.34964 0.32557
v -0.08256 -0.38795 0.30225
v -0.06323 -0.34964 0.32557
v -0.12897 -0.32526 0.23224
v -0.06323 -0.34964 0.32557
v -0.08256 -0.38795 0.30225
v -0.03602 -0.37185 0.31137
v -0.04472 -0.38909 0.30088
v -0.03602 -0.37185 0.31137
v -0.08256 -0.38795 0.30225
v -0.14155 -0.24457 0.13876
v -0.13327 -0.26108 0.11950
v -0.17539 -0.26257 0.16223
v -0.15700 -0.29925 0.11941
v -0.17539 -0.26257 0.16223
v -0.13327 -0.26108 0.11950
v -0.17539 -0.26257 0.16223
v -0.15700 -0.29925 0.11941
v -0.12897 -0.32526 0.23224
v -0.11220 -0.35870 0.19320
v -0.12897 -0.32526 0.23224
v -0.15700 -0.29925 0.11941
v -0.12897 -0.32526 0.23224
v -0.11220 -0.35870 0.19320
v -0.08256 -0.38795 0.30225
v -0.06741 -0.41816 0.26699
v -0.08256 -0.38795 0.30225
v -0.11220 -0.35870 0.19320
v -0.08256 -0.38795 0.30225
v -0.06741 -0.41816 0.26699
v -0.04472 -0.38909 0.30088
v -0.03790 -0.40268 0.28501
v -0.04472 -0.38909 0.30088
v -0.06741 -0.41816 0.26699
vn -0.49537 0.30970 -0.81160
vn -0.49537 0.30970 -0.81160
vn -0.49537 0.30970 -0.81160
vn -0.49537 0.30970 -0.81160
vn -0.49537 0.30970 -0.81160
vn -0.49537 0.30970 -0.81160
vn -0.37198 -0.82004 -0.43494
vn -0.37198 -0.82004 -0.43494
vn -0.37198 -0.82004 -0.43494
vn -0.37198 -0.82004 -0.43494
vn -0.37198 -0.82004 -0.43494
vn -0.37198 -0.82004 -0.43494
vn -0.37198 -0.82004 -0.43494
vn -0.37198 -0.82004 -0.43494
vn -0.37198 -0.82004 -0.43494
vn -0.37198 -0.82004 -0.43494
vn -0.37198 -0.82004 -0.43494
vn -0.37198 -0.82004 -0.43494
vn 0.19165 -0.87750 0.43961
vn 0.19165 -0.87750 0.43961
vn 0.19165 -0.87750 0.43961
vn 0.19165 -0.87750 0.43961
vn 0.19165 -0.87750 0.43961
vn 0.19165 -0.87750 0.43961
vn -0.25492 0.36625 -0.89492
vn -0.25492 0.36625 -0.89492
vn -0.25492 0.36625 -0.89492
vn -0.25492 0.36625 -0.89492
vn -0.25492 0.36625 -0.89492
vn -0.25492 0.36625 -0.89492
vn 0.33270 -0.65431 -0.67911
vn 0.33270 -0.65431 -0.67911
vn 0.33270 -0.65431 -0.67911
vn 0.33270 -0.65431 -0.67911
vn 0.33270 -0.65431 -0.67911
vn 0.33270 -0.65431 -0.67911
vn 0.33270 -0.65431 -0.67911
vn 0.33270 -0.65431 -0.67911
vn 0.33270 -0.65431 -0.67911
vn 0.33270 -0.65431 -0.67911
vn 0.33270 -0.65431 -0.67911
vn 0.33270 -0.65431 -0.67911
vn 0.47590 -0.81065 0.34112
vn 0.47590 -0.81065 0.34112
vn 0.47590 -0.81065 0.34112
vn 0.47590 -0.81065 0.34112
vn 0.47590 -0.81065 0.34112
vn 0.47590 -0.81065 0.34112
vn -0.07635 0.54619 -0.83418
vn -0.07635 0.54619 -0.83418
vn -0.07635 0.54619 -0.83418
vn -0.07635 0.54619 -0.83418
vn -0.07635 0.54619 -0.83418
vn -0.07635 0.54619 -0.83418
vn 0.85603 -0.12696 -0.50110
vn 0.85603 -0.12696 -0.50110
vn 0.85603 -0.12696 -0.50110
vn 0.85603 -0.12696 -0.50110
vn 0.85603 -0.12696 -0.50110
vn 0.85603 -0.12696 -0.50110
vn 0.85603 -0.12696 -0.50110
vn 0.85603 -0.12696 -0.50110
vn 0.85603 -0.12696 -0.50110
vn 0.85603 -0.12696 -0.50110
vn 0.85603 -0.12696 -0.50110
vn 0.85603 -0.12696 -0.50110
vn 0.68700 -0.59793 0.41293
vn 0.68700 -0.59793 0.41293
vn 0.68700 -0.59793 0.41293
vn 0.68700 -0.59793 0.41293
vn 0.68700 -0.59793 0.41293
vn 0.68700 -0.59793 0.41293
vn -0.06427 0.74411 -0.66496
vn -0.06427 0.74411 -0.66496
vn -0.06427 0.74411 -0.66496
vn -0.06427 0.74411 -0.66496
vn -0.06427 0.74411 -0.66496
vn -0.06427 0.74411 -0.66496
vn 0.89145 0.45309 -0.00517
vn 0.89145 0.45309 -0.00517
vn 0.89145 0.45309 -0.00517
vn 0.89145 0.45309 -0.00517
vn 0.89145 0.45309 -0.00517
vn 0.89145 0.45309 -0.00517
vn 0.89145 0.45309 -0.00517
vn 0.89145 0.45309 -0.00517
vn 0.89145 0.45309 -0.00517
vn 0.89145 0.45309 -0.00517
vn 0.89145 0.45309 -0.00517
vn 0.89145 0.45309 -0.00517
vn 0.70129 -0.36395 0.61297
vn 0.70129 -0.36395 0.61297
vn 0.70129 -0.36395 0.61297
vn 0.70129 -0.36395 0.61297
vn 0.70129 -0.36395 0.61297
vn 0.70129 -0.36395 0.61297
vn -0.22574 0.84407 -0.48639
vn -0.22574 0.84407 -0.48639
vn -0.22574 0.84407 -0.48639
vn -0.22574 0.84407 -0.48639
vn -0.22574 0.84407 -0.48639
vn -0.22574 0.84407 -0.48639
vn 0.41821 0.74606 0.51816
vn 0.41821 0.74606 0.51816
vn 0.41821 0.74606 0.51816
vn 0.41821 0.74606 0.51816
vn 0.41821 0.74606 0.51816
vn 0.41821 0.74606 0.51816
vn 0.41821 0.74606 0.51816
vn 0.41821 0.74606 0.51816
vn 0.41821 0.74606 0.51816
vn 0.41821 0.74606 0.51816
vn 0.41821 0.74606 0.51816
vn 0.41821 0.74606 0.51816
vn 0.51040 -0.24577 0.82407
vn 0.51040 -0.24577 0.82407
vn 0.51040 -0.24577 0.82407
vn 0.51040 -0.24577 0.82407
vn 0.51040 -0.24577 0.82407
vn 0.51040 -0.24577 0.82407
vn -0.46619 0.78752 -0.40308
vn -0.46619 0.78752 -0.40308
vn -0.46619 0.78752 -0.40308
vn -0.46619 0.78752 -0.40308
vn -0.46619 0.78752 -0.40308
vn -0.46619 0.78752 -0.40308
vn -0.28647 0.58033 0.76233
vn -0.28647 0.58033 0.76233
vn -0.28647 0.58033 0.76233
vn -0.28647 0.58033 0.76233
vn -0.28647 0.58033 0.76233
vn -0.28647 0.58033 0.76233
vn -0.28647 0.58033 0.76233
vn -0.28647 0.58033 0.76233
vn -0.28647 0.58033 0.76233
vn -0.28647 0.58033 0.76233
vn -0.28647 0.58033 0.76233
vn -0.28647 0.58033 0.76233
vn 0.22614 -0.31262 0.92256
vn 0.22614 -0.31262 0.92256
vn 0.22614 -0.31262 0.92256
vn 0.22614 -0.31262 0.92256
vn 0.22614 -0.31262 0.92256
vn 0.22614 -0.31262 0.92256
vn -0.64475 0.60759 -0.46382
vn -0.64475 0.60759 -0.46382
vn -0.64475 0.60759 -0.46382
vn -0.64475 0.60759 -0.46382
vn -0.64475 0.60759 -0.46382
vn -0.64475 0.60759 -0.46382
vn -0.80980 0.05299 0.58432
vn -0.80980 0.05299 0.58432
vn -0.80980 0.05299 0.58432
vn -0.80980 0.05299 0.58432
vn -0.80980 0.05299 0.58432
vn -0.80980 0.05299 0.58432
vn -0.80980 0.05299 0.58432
vn -0.80980 0.05299 0.58432
vn -0.80980 0.05299 0.58432
vn -0.80980 0.05299 0.58432
vn -0.80980 0.05299 0.58432
vn -0.80980 0.05299 0.58432
vn 0.01505 -0.52534 0.85076
vn 0.01505 -0.52534 0.85076
vn 0.01505 -0.52534 0.85076
vn 0.01505 -0.52534 0.85076
vn 0.01505 -0.52534 0.85076
vn 0.01505 -0.52534 0.85076
vn -0.65684 0.40967 -0.63304
vn -0.65684 0.40967 -0.63304
vn -0.65684 0.40967 -0.63304
vn -0.65684 0.40967 -0.63304
vn -0.65684 0.40967 -0.63304
vn -0.65684 0.40967 -0.63304
vn -0.84521 -0.52707 0.08839
vn -0.84521 -0.52707 0.08839
vn -0.84521 -0.52707 0.08839
vn -0.84521 -0.52707 0.08839
vn -0.84521 -0.52707 0.08839
vn -0.84521 -0.52707 0.08839
vn -0.84521 -0.52707 0.08839
vn -0.84521 -0.52707 0.08839
vn -0.84521 -0.52707 0.08839
vn -0.84521 -0.52707 0.08839
vn -0.84521 -0.52707 0.08839
vn -0.84521 -0.52707 0.08839
vn 0.00076 -0.75932 0.65071
vn 0.00076 -0.75932 0.65071
vn 0.00076 -0.75932 0.65071
vn 0.00076 -0.75932 0.65071
vn 0.00076 -0.75932 0.65071
vn 0.00076 -0.75932 0.65071
usemtl robe_blueviolet
f 193//193 194//194 195//195
f 196//196 197//197 198//198
f 199//199 200//200 201//201
f 202//202 203//203 204//204
f 205//205 206//206 207//207
f 208//208 209//209 210//210
f 211//211 212//212 213//213
f 214//214 215//215 216//216
f 217//217 218//218 219//219
f 220//220 221//221 222//222
f 223//223 224//224 225//225
f 226//226 227//227 228//228
f 229//229 230//230 231//231
f 232//232 233//233 234//234
f 235//235 236//236 237//237
f 238//238 239//239 240//240
f 241//241 242//242 243//243
f 244//244 245//245 246//246
f 247//247 248//248 249//249
f 250//250 251//251 252//252
f 253//253 254//254 255//255
f 256//256 257//257 258//258
f 259//259 260//260 261//261
f 262//262 263//263 264//264
f 265//265 266//266 267//267
f 268//268 269//269 270//270
f 271//271 272//272 273//273
f 274//274 275//275 276//276
f 277//277 278//278 279//279
f 280//280 281//281 282//282
f 283//283 284//284 285//285
f 286//286 287//287 288//288
f 289//289 290//290 291//291
f 292//292 293//293 294//294
f 295//295 296//296 297//297
f 298//298 299//299 300//300
f 301//301 302//302 303//303
f 304//304 305//305 306//306
f 307//307 308//308 309//309
f 310//310 311//311 312//312
f 313//313 314//314 315//315
f 316//316 317//317 318//318
f 319//319 320//320 321//321
f 322//322 323//323 324//324
f 325//325 326//326 327//327
f 328//328 329//329 330//330
f 331//331 332//332 333//333
f 334//334 335//335 336//336
f 337//337 338//338 339//339
f 340//340 341//341 342//342
f 343//343 344//344 345//345
f 346//346 347//347 348//348
f 349//349 350//350 351//351
f 352//352 353//353 354//354
f 355//355 356//356 357//357
f 358//358 359//359 360//360
f 361//361 362//362 363//363
f 364//364 365//365 366//366
f 367//367 368//368 369//369
f 370//370 371//371 372//372
f 373//373 374//374 375//375
f 376//376 377//377 378//378
f 379//379 380//380 381//381
f 382//382 383//383 384//384
o sleeve_joint_L
v -0.10939 -0.14790 0.12762
v -0.15394 -0.15984 0.12762
v -0.14089 -0.15984 0.15912
v -0.10939 -0.14790 0.12762
v -0.14089 -0.15984 0.15912
v -0.10939 -0.15984 0.17217
v -0.10939 -0.14790 0.12762
v -0.10939 -0.15984 0.17217
v -0.07789 -0.15984 0.15912
v -0.10939 -0.14790 0.12762
v -0.07789 -0.15984 0.15912
v -0.06484 -0.15984 0.12762
v -0.10939 -0.14790 0.12762
v -0.06484 -0.15984 0.12762
v -0.07789 -0.15984 0.09612
v -0.10939 -0.14790 0.12762
v -0.07789 -0.15984 0.09612
v -0.10939 -0.15984 0.08307
v -0.10939 -0.14790 0.12762
v -0.10939 -0.15984 0.08307
v -0.14089 -0.15984 0.09612
v -0.10939 -0.14790 0.12762
v -0.14089 -0.15984 0.09612
v -0.15394 -0.15984 0.12762
v -0.14089 -0.15984 0.15912
v -0.15394 -0.15984 0.12762
v -0.16396 -0.19246 0.18219
v -0.15394 -0.15984 0.12762
v -0.18656 -0.19246 0.12762
v -0.16396 -0.19246 0.18219
v -0.10939 -0.15984 0.17217
v -0.14089 -0.15984 0.15912
v -0.10939 -0.19246 0.20479
v -0.14089 -0.15984 0.15912
v -0.16396 -0.19246 0.18219
v -0.10939 -0.19246 0.20479
v -0.07789 -0.15984 0.15912
v -0.10939 -0.15984 0.17217
v -0.05482 -0.19246 0.18219
v -0.10939 -0.15984 0.17217
v -0.10939 -0.19246 0.20479
v -0.05482 -0.19246 0.18219
v -0.06484 -0.15984 0.12762
v -0.07789 -0.15984 0.15912
v -0.03222 -0.19246 0.12762
v -0.07789 -0.15984 0.15912
v -0.05482 -0.19246 0.18219
v -0.03222 -0.19246 0.12762
v -0.07789 -0.15984 0.09612
v -0.06484 -0.15984 0.12762
v -0.05482 -0.19246 0.07305
v -0.06484 -0.15984 0.12762
v -0.03222 -0.19246 0.12762
v -0.05482 -0.19246 0.07305
v -0.10939 -0.15984 0.08307
v -0.07789 -0.15984 0.09612
v -0.10939 -0.19246 0.05045
v -0.07789 -0.15984 0.09612
v -0.05482 -0.19246 0.07305
v -0.10939 -0.19246 0.05045
v -0.14089 -0.15984 0.09612
v -0.10939 -0.15984 0.08307
v -0.16396 -0.19246 0.07305
v -0.10939 -0.15984 0.08307
v -0.10939 -0.19246 0.05045
v -0.16396 -0.19246 0.07305
v -0.15394 -0.15984 0.12762
v -0.14089 -0.15984 0.09612
v -0.18656 -0.19246 0.12762
v -0.14089 -0.15984 0.09612
v -0.16396 -0.19246 0.07305
v -0.18656 -0.19246 0.12762
v -0.16396 -0.19246 0.18219
v -0.18656 -0.19246 0.12762
v -0.17240 -0.23701 0.19063
v -0.18656 -0.19246 0.12762
v -0.19850 -0.23701 0.12762
v -0.17240 -0.23701 0.19063
v -0.10939 -0.19246 0.20479
v -0.16396 -0.19246 0.18219
v -0.10939 -0.23701 0.21673
v -0.16396 -0.19246 0.18219
v -0.17240 -0.23701 0.19063
v -0.10939 -0.23701 0.21673
v -0.05482 -0.19246 0.18219
v -0.10939 -0.19246 0.20479
v -0.04638 -0.23701 0.19063
v -0.10939 -0.19246 0.20479
v -0.10939 -0.23701 0.21673
v -0.04638 -0.23701 0.19063
v -0.03222 -0.19246 0.12762
v -0.05482 -0.19246 0.18219
v -0.02028 -0.23701 0.12762
v -0.05482 -0.19246 0.18219
v -0.04638 -0.23701 0.19063
v -0.02028 -0.23701 0.12762
v -0.05482 -0.19246 0.07305
v -0.03222 -0.19246 0.12762
v -0.04638 -0.23701 0.06461
v -0.03222 -0.19246 0.12762
v -0.02028 -0.23701 0.12762
v -0.04638 -0.23701 0.06461
v -0.10939 -0.19246 0.05045
v -0.05482 -0.19246 0.07305
v -0.10939 -0.23701 0.03851
v -0.05482 -0.19246 0.07305
v -0.04638 -0.23701 0.06461
v -0.10939 -0.23701 0.03851
v -0.16396 -0.19246 0.07305
v -0.10939 -0.19246 0.05045
v -0.17240 -0.23701 0.06461
v -0.10939 -0.19246 0.05045
v -0.10939 -0.23701 0.03851
v -0.17240 -0.23701 0.06461
v -0.18656 -0.19246 0.12762
v -0.16396 -0.19246 0.07305
v -0.19850 -0.23701 0.12762
v -0.16396 -0.19246 0.07305
v -0.17240 -0.23701 0.06461
v -0.19850 -0.23701 0.12762
v -0.17240 -0.23701 0.19063
v -0.19850 -0.23701 0.12762
v -0.16396 -0.28156 0.18219
v -0.19850 -0.23701 0.12762
v -0.18656 -0.28156 0.12762
v -0.16396 -0.28156 0.18219
v -0.10939 -0.23701 0.21673
v -0.17240 -0.23701 0.19063
v -0.10939 -0.28156 0.20479
v -0.17240 -0.23701 0.19063
v -0.16396 -0.28156 0.18219
v -0.10939 -0.28156 0.20479
v -0.04638 -0.23701 0.19063
v -0.10939 -0.23701 0.21673
v -0.05482 -0.28156 0.18219
v -0.10939 -0.23701 0.21673
v -0.10939 -0.28156 0.20479
v -0.05482 -0.28156 0.18219
v -0.02028 -0.23701 0.12762
v -0.04638 -0.23701 0.19063
v -0.03222 -0.28156 0.12762
v -0.04638 -0.23701 0.19063
v -0.05482 -0.28156 0.18219
v -0.03222 -0.28156 0.12762
v -0.04638 -0.23701 0.06461
v -0.02028 -0.23701 0.12762
v -0.05482 -0.28156 0.07305
v -0.02028 -0.23701 0.12762
v -0.03222 -0.28156 0.12762
v -0.05482 -0.28156 0.07305
v -0.10939 -0.23701 0.03851
v -0.04638 -0.23701 0.06461
v -0.10939 -0.28156 0.05045
v -0.04638 -0.23701 0.06461
v -0.05482 -0.28156 0.07305
v -0.10939 -0.28156 0.05045
v -0.17240 -0.23701 0.06461
v -0.10939 -0.23701 0.03851
v -0.16396 -0.28156 0.07305
v -0.10939 -0.23701 0.03851
v -0.10939 -0.28156 0.05045
v -0.16396 -0.28156 0.07305
v -0.19850 -0.23701 0.12762
v -0.17240 -0.23701 0.06461
v -0.18656 -0.28156 0.12762
v -0.17240 -0.23701 0.06461
v -0.16396 -0.28156 0.07305
v -0.18656 -0.28156 0.12762
v -0.16396 -0.28156 0.18219
v -0.18656 -0.28156 0.12762
v -0.14089 -0.31418 0.15912
v -0.18656 -0.28156 0.12762
v -0.15394 -0.31418 0.12762
v -0.14089 -0.31418 0.15912
v -0.10939 -0.28156 0.20479
v -0.16396 -0.28156 0.18219
v -0.10939 -0.31418 0.17217
v -0.16396 -0.28156 0.18219
v -0.14089 -0.31418 0.15912
v -0.10939 -0.31418 0.17217
v -0.05482 -0.28156 0.18219
v -0.10939 -0.28156 0.20479
v -0.07789 -0.31418 0.15912
v -0.10939 -0.28156 0.20479
v -0.10939 -0.31418 0.17217
v -0.07789 -0.31418 0.15912
v -0.03222 -0.28156 0.12762
v -0.05482 -0.28156 0.18219
v -0.06484 -0.31418 0.12762
v -0.05482 -0.28156 0.18219
v -0.07789 -0.31418 0.15912
v -0.06484 -0.31418 0.12762
v -0.05482 -0.28156 0.07305
v -0.03222 -0.28156 0.12762
v -0.07789 -0.31418 0.09612
v -0.03222 -0.28156 0.12762
v -0.06484 -0.31418 0.12762
v -0.07789 -0.31418 0.09612
v -0.10939 -0.28156 0.05045
v -0.05482 -0.28156 0.07305
v -0.10939 -0.31418 0.08307
v -0.05482 -0.28156 0.07305
v -0.07789 -0.31418 0.09612
v -0.10939 -0.31418 0.08307
v -0.16396 -0.28156 0.07305
v -0.10939 -0.28156 0.05045
v -0.14089 -0.31418 0.09612
v -0.10939 -0.28156 0.05045
v -0.10939 -0.31418 0.08307
v -0.14089 -0.31418 0.09612
v -0.18656 -0.28156 0.12762
v -0.16396 -0.28156 0.07305
v -0.15394 -0.31418 0.12762
v -0.16396 -0.28156 0.07305
v -0.14089 -0.31418 0.09612
v -0.15394 -0.31418 0.12762
v -0.14089 -0.31418 0.15912
v -0.15394 -0.31418 0.12762
v -0.10939 -0.32612 0.12762
v -0.10939 -0.31418 0.17217
v -0.14089 -0.31418 0.15912
v -0.10939 -0.32612 0.12762
v -0.07789 -0.31418 0.15912
v -0.10939 -0.31418 0.17217
v -0.10939 -0.32612 0.12762
v -0.06484 -0.31418 0.12762
v -0.07789 -0.31418 0.15912
v -0.10939 -0.32612 0.12762
v -0.07789 -0.31418 0.09612
v -0.06484 -0.31418 0.12762
v -0.10939 -0.32612 0.12762
v -0.10939 -0.31418 0.08307
v -0.07789 -0.31418 0.09612
v -0.10939 -0.32612 0.12762
v -0.14089 -0.31418 0.09612
v -0.10939 -0.31418 0.08307
v -0.10939 -0.32612 0.12762
v -0.15394 -0.31418 0.12762
v -0.14089 -0.31418 0.09612
v -0.10939 -0.32612 0.12762
vn -0.25734 0.96042 0.10660
vn -0.25734 0.96042 0.10660
vn -0.25734 0.96042 0.10660
vn -0.10660 0.96042 0.25734
vn -0.10660 0.96042 0.25734
vn -0.10660 0.96042 0.25734
vn 0.10660 0.96042 0.25734
vn 0.10660 0.96042 0.25734
vn 0.10660 0.96042 0.25734
vn 0.25734 0.96042 0.10660
vn 0.25734 0.96042 0.10660
vn 0.25734 0.96042 0.10660
vn 0.25734 0.96042 -0.10660
vn 0.25734 0.96042 -0.10660
vn 0.25734 0.96042 -0.10660
vn 0.10660 0.96042 -0.25734
vn 0.10660 0.96042 -0.25734
vn 0.10660 0.96042 -0.25734
vn -0.10660 0.96042 -0.25734
vn -0.10660 0.96042 -0.25734
vn -0.10660 0.96042 -0.25734
vn -0.25734 0.96042 -0.10660
vn -0.25734 0.96042 -0.10660
vn -0.25734 0.96042 -0.10660
vn -0.67860 0.67860 0.28108
vn -0.67860 0.67860 0.28108
vn -0.67860 0.67860 0.28108
vn -0.67860 0.67860 0.28108
vn -0.67860 0.67860 0.28108
vn -0.67860 0.67860 0.28108
vn -0.28108 0.67860 0.67860
vn -0.28108 0.67860 0.67860
vn -0.28108 0.67860 0.67860
vn -0.28108 0.67860 0.67860
vn -0.28108 0.67860 0.67860
vn -0.28108 0.67860 0.67860
vn 0.28108 0.67860 0.67860
vn 0.28108 0.67860 0.67860
vn 0.28108 0.67860 0.67860
vn 0.28108 0.67860 0.67860
vn 0.28108 0.67860 0.67860
vn 0.28108 0.67860 0.67860
vn 0.67860 0.67860 0.28108
vn 0.67860 0.67860 0.28108
vn 0.67860 0.67860 0.28108
vn 0.67860 0.67860 0.28108
vn 0.67860 0.67860 0.28108
vn 0.67860 0.67860 0.28108
vn 0.67860 0.67860 -0.28108
vn 0.67860 0.67860 -0.28108
vn 0.67860 0.67860 -0.28108
vn 0.67860 0.67860 -0.28108
vn 0.67860 0.67860 -0.28108
vn 0.67860 0.67860 -0.28108
vn 0.28108 0.67860 -0.67860
vn 0.28108 0.67860 -0.67860
vn 0.28108 0.67860 -0.67860
vn 0.28108 0.67860 -0.67860
vn 0.28108 0.67860 -0.67860
vn 0.28108 0.67860 -0.67860
vn -0.28108 0.67860 -0.67860
vn -0.28108 0.67860 -0.67860
vn -0.28108 0.67860 -0.67860
vn -0.28108 0.67860 -0.67860
vn -0.28108 0.67860 -0.67860
vn -0.28108 0.67860 -0.67860
vn -0.67860 0.67860 -0.28108
vn -0.67860 0.67860 -0.28108
vn -0.67860 0.67860 -0.28108
vn -0.67860 0.67860 -0.28108
vn -0.67860 0.67860 -0.28108
vn -0.67860 0.67860 -0.28108
vn -0.89681 0.24030 0.37147
vn -0.89681 0.24030 0.37147
vn -0.89681 0.24030 0.37147
vn -0.89681 0.24030 0.37147
vn -0.89681 0.24030 0.37147
vn -0.89681 0.24030 0.37147
vn -0.37147 0.24030 0.89681
vn -0.37147 0.24030 0.89681
vn -0.37147 0.24030 0.89681
vn -0.37147 0.24030 0.89681
vn -0.37147 0.24030 0.89681
vn -0.37147 0.24030 0.89681
vn 0.37147 0.24030 0.89681
vn 0.37147 0.24030 0.89681
vn 0.37147 0.24030 0.89681
vn 0.37147 0.24030 0.89681
vn 0.37147 0.24030 0.89681
vn 0.37147 0.24030 0.89681
vn 0.89681 0.24030 0.37147
vn 0.89681 0.24030 0.37147
vn 0.89681 0.24030 0.37147
vn 0.89681 0.24030 0.37147
vn 0.89681 0.24030 0.37147
vn 0.89681 0.24030 0.37147
vn 0.89681 0.24030 -0.37147
vn 0.89681 0.24030 -0.37147
vn 0.89681 0.24030 -0.37147
vn 0.89681 0.24030 -0.37147
vn 0.89681 0.24030 -0.37147
vn 0.89681 0.24030 -0.37147
vn 0.37147 0.24030 -0.89681
vn 0.37147 0.24030 -0.89681
vn 0.37147 0.24030 -0.89681
vn 0.37147 0.24030 -0.89681
vn 0.37147 0.24030 -0.89681
vn 0.37147 0.24030 -0.89681
vn -0.37147 0.24030 -0.89681
vn -0.37147 0.24030 -0.89681
vn -0.37147 0.24030 -0.89681
vn -0.37147 0.24030 -0.89681
vn -0.37147 0.24030 -0.89681
vn -0.37147 0.24030 -0.89681
vn -0.89681 0.24030 -0.37147
vn -0.89681 0.24030 -0.37147
vn -0.89681 0.24030 -0.37147
vn -0.89681 0.24030 -0.37147
vn -0.89681 0.24030 -0.37147
vn -0.89681 0.24030 -0.37147
vn -0.89681 -0.24030 0.37147
vn -0.89681 -0.24030 0.37147
vn -0.89681 -0.24030 0.37147
vn -0.89681 -0.24030 0.37147
vn -0.89681 -0.24030 0.37147
vn -0.89681 -0.24030 0.37147
vn -0.37147 -0.24030 0.89681
vn -0.37147 -0.24030 0.89681
vn -0.37147 -0.24030 0.89681
vn -0.37147 -0.24030 0.89681
vn -0.37147 -0.24030 0.89681
vn -0.37147 -0.24030 0.89681
vn 0.37147 -0.24030 0.89681
vn 0.37147 -0.24030 0.89681
vn 0.37147 -0.24030 0.89681
vn 0.37147 -0.24030 0.89681
vn 0.37147 -0.24030 0.89681
vn 0.37147 -0.24030 0.89681
vn 0.89681 -0.24030 0.37147
vn 0.89681 -0.24030 0.37147
vn 0.89681 -0.24030 0.37147
vn 0.89681 -0.24030 0.37147
vn 0.89681 -0.24030 0.37147
vn 0.89681 -0.24030 0.37147
vn 0.89681 -0.24030 -0.37147
vn 0.89681 -0.24030 -0.37147
vn 0.89681 -0.24030 -0.37147
vn 0.89681 -0.24030 -0.37147
vn 0.89681 -0.24030 -0.37147
vn 0.89681 -0.24030 -0.37147
vn 0.37147 -0.24030 -0.89681
vn 0.37147 -0.24030 -0.89681
vn 0.37147 -0.24030 -0.89681
vn 0.37147 -0.24030 -0.89681
vn 0.37147 -0.24030 -0.89681
vn 0.37147 -0.24030 -0.89681
vn -0.37147 -0.24030 -0.89681
vn -0.37147 -0.24030 -0.89681
vn -0.37147 -0.24030 -0.89681
vn -0.37147 -0.24030 -0.89681
vn -0.37147 -0.24030 -0.89681
vn -0.37147 -0.24030 -0.89681
vn -0.89681 -0.24030 -0.37147
vn -0.89681 -0.24030 -0.37147
vn -0.89681 -0.24030 -0.37147
vn -0.89681 -0.24030 -0.37147
vn -0.89681 -0.24030 -0.37147
vn -0.89681 -0.24030 -0.37147
vn -0.67860 -0.67860 0.28108
vn -0.67860 -0.67860 0.28108
vn -0.67860 -0.67860 0.28108
vn -0.67860 -0.67860 0.28108
vn -0.67860 -0.67860 0.28108
vn -0.67860 -0.67860 0.28108
vn -0.28108 -0.67860 0.67860
vn -0.28108 -0.67860 0.67860
vn -0.28108 -0.67860 0.67860
vn -0.28108 -0.67860 0.67860
vn -0.28108 -0.67860 0.67860
vn -0.28108 -0.67860 0.67860
vn 0.28108 -0.67860 0.67860
vn 0.28108 -0.67860 0.67860
vn 0.28108 -0.67860 0.67860
vn 0.28108 -0.67860 0.67860
vn 0.28108 -0.67860 0.67860
vn 0.28108 -0.67860 0.67860
vn 0.67860 -0.67860 0.28108
vn 0.67860 -0.67860 0.28108
vn 0.67860 -0.67860 0.28108
vn 0.67860 -0.67860 0.28108
vn 0.67860 -0.67860 0.28108
vn 0.67860 -0.67860 0.28108
vn 0.67860 -0.67860 -0.28108
vn 0.67860 -0.67860 -0.28108
vn 0.67860 -0.67860 -0.28108
vn 0.67860 -0.67860 -0.28108
vn 0.67860 -0.67860 -0.28108
vn 0.67860 -0.67860 -0.28108
vn 0.28108 -0.67860 -0.67860
vn 0.28108 -0.67860 -0.67860
vn 0.28108 -0.67860 -0.67860
vn 0.28108 -0.67860 -0.67860
vn 0.28108 -0.67860 -0.67860
vn 0.28108 -0.67860 -0.67860
vn -0.28108 -0.67860 -0.67860
vn -0.28108 -0.67860 -0.67860
vn -0.28108 -0.67860 -0.67860
vn -0.28108 -0.67860 -0.67860
vn -0.28108 -0.67860 -0.67860
vn -0.28108 -0.67860 -0.67860
vn -0.67860 -0.67860 -0.28108
vn -0.67860 -0.67860 -0.28108
vn -0.67860 -0.67860 -0.28108
vn -0.67860 -0.67860 -0.28108
vn -0.67860 -0.67860 -0.28108
vn -0.67860 -0.67860 -0.28108
vn -0.25734 -0.96042 0.10660
vn -0.25734 -0.96042 0.10660
vn -0.25734 -0.96042 0.10660
vn -0.10660 -0.96042 0.25734
vn -0.10660 -0.96042 0.25734
vn -0.10660 -0.96042 0.25734
vn 0.10660 -0.96042 0.25734
vn 0.10660 -0.96042 0.25734
vn 0.10660 -0.96042 0.25734
vn 0.25734 -0.96042 0.10660
vn 0.25734 -0.96042 0.10660
vn 0.25734 -0.96042 0.10660
vn 0.25734 -0.96042 -0.10660
vn 0.25734 -0.96042 -0.10660
vn 0.25734 -0.96042 -0.10660
vn 0.10660 -0.96042 -0.25734
vn 0.10660 -0.96042 -0.25734
vn 0.10660 -0.96042 -0.25734
vn -0.10660 -0.96042 -0.25734
vn -0.10660 -0.96042 -0.25734
vn -0.10660 -0.96042 -0.25734
vn -0.25734 -0.96042 -0.10660
vn -0.25734 -0.96042 -0.10660
vn -0.25734 -0.96042 -0.10660
usemtl robe_blueviolet
f 385//385 386//386 387//387
f 388//388 389//389 390//390
f 391//391 392//392 393//393
f 394//394 395//395 396//396
f 397//397 398//398 399//399
f 400//400 401//401 402//402
f 403//403 404//404 405//405
f 406//406 407//407 408//408
f 409//409 410//410 411//411
f 412//412 413//413 414//414
f 415//415 416//416 417//417
f 418//418 419//419 420//420
f 421//421 422//422 423//423
f 424//424 425//425 426//426
f 427//427 428//428 429//429
f 430//430 431//431 432//432
f 433//433 434//434 435//435
f 436//436 437//437 438//438
f 439//439 440//440 441//441
f 442//442 443//443 444//444
f 445//445 446//446 447//447
f 448//448 449//449 450//450
f 451//451 452//452 453//453
f 454//454 455//455 456//456
f 457//457 458//458 459//459
f 460//460 461//461 462//462
f 463//463 464//464 465//465
f 466//466 467//467 468//468
f 469//469 470//470 471//471
f 472//472 473//473 474//474
f 475//475 476//476 477//477
f 478//478 479//479 480//480
f 481//481 482//482 483//483
f 484//484 485//485 486//486
f 487//487 488//488 489//489
f 490//490 491//491 492//492
f 493//493 494//494 495//495
f 496//496 497//497 498//498
f 499//499 500//500 501//501
f 502//502 503//503 504//504
f 505//505 506//506 507//507
f 508//508 509//509 510//510
f 511//511 512//512 513//513
f 514//514 515//515 516//516
f 517//517 518//518 519//519
f 520//520 521//521 522//522
f 523//523 524//524 525//525
f 526//526 527//527 528//528
f 529//529 530//530 531//531
f 532//532 533//533 534//534
f 535//535 536//536 537//537
f 538//538 539//539 540//540
f 541//541 542//542 543//543
f 544//544 545//545 546//546
f 547//547 548//548 549//549
f 550//550 551//551 552//552
f 553//553 554//554 555//555
f 556//556 557//557 558//558
f 559//559 560//560 561//561
f 562//562 563//563 564//564
f 565//565 566//566 567//567
f 568//568 569//569 570//570
f 571//571 572//572 573//573
f 574//574 575//575 576//576
f 577//577 578//578 579//579
f 580//580 581//581 582//582
f 583//583 584//584 585//585
f 586//586 587//587 588//588
f 589//589 590//590 591//591
f 592//592 593//593 594//594
f 595//595 596//596 597//597
f 598//598 599//599 600//600
f 601//601 602//602 603//603
f 604//604 605//605 606//606
f 607//607 608//608 609//609
f 610//610 611//611 612//612
f 613//613 614//614 615//615
f 616//616 617//617 618//618
f 619//619 620//620 621//621
f 622//622 623//623 624//624
