mtllib frost_skeleton_arm_R.mtl
o arm_upper_R
v -0.01274 -0.00288 0.01980
v -0.02151 -0.00866 0.00499
v -0.02009 -0.02538 0.04653
v -0.03958 -0.03821 0.01362
v -0.02009 -0.02538 0.04653
v -0.02151 -0.00866 0.00499
v -0.02009 -0.02538 0.04653
v -0.03958 -0.03821 0.01362
v 0.04304 -0.16388 0.06068
v 0.02550 -0.17543 0.03107
v 0.04304 -0.16388 0.06068
v -0.03958 -0.03821 0.01362
v 0.04304 -0.16388 0.06068
v 0.02550 -0.17543 0.03107
v 0.10617 -0.30239 0.07483
v 0.09057 -0.31266 0.04851
v 0.10617 -0.30239 0.07483
v 0.02550 -0.17543 0.03107
v 0.10617 -0.30239 0.07483
v 0.09057 -0.31266 0.04851
v 0.12685 -0.31855 0.05800
v 0.11983 -0.32317 0.04616
v 0.12685 -0.31855 0.05800
v 0.09057 -0.31266 0.04851
v -0.02151 -0.00866 0.00499
v -0.01768 -0.00936 -0.01274
v -0.03958 -0.03821 0.01362
v -0.03107 -0.03978 -0.02578
v -0.03958 -0.03821 0.01362
v -0.01768 -0.00936 -0.01274
v -0.03958 -0.03821 0.01362
v -0.03107 -0.03978 -0.02578
v 0.02550 -0.17543 0.03107
v 0.03315 -0.17684 -0.00439
v 0.02550 -0.17543 0.03107
v -0.03107 -0.03978 -0.02578
v 0.02550 -0.17543 0.03107
v 0.03315 -0.17684 -0.00439
v 0.09057 -0.31266 0.04851
v 0.09738 -0.31391 0.01699
v 0.09057 -0.31266 0.04851
v 0.03315 -0.17684 -0.00439
v 0.09057 -0.31266 0.04851
v 0.09738 -0.31391 0.01699
v 0.11983 -0.32317 0.04616
v 0.12289 -0.32373 0.03197
v 0.11983 -0.32317 0.04616
v 0.09738 -0.31391 0.01699
v -0.01768 -0.00936 -0.01274
v -0.00350 -0.00458 -0.02301
v -0.03107 -0.03978 -0.02578
v 0.00045 -0.02916 -0.04860
v -0.03107 -0.03978 -0.02578
v -0.00350 -0.00458 -0.02301
v -0.03107 -0.03978 -0.02578
v 0.00045 -0.02916 -0.04860
v 0.03315 -0.17684 -0.00439
v 0.06153 -0.16729 -0.02493
v 0.03315 -0.17684 -0.00439
v 0.00045 -0.02916 -0.04860
v 0.03315 -0.17684 -0.00439
v 0.06153 -0.16729 -0.02493
v 0.09738 -0.31391 0.01699
v 0.12260 -0.30541 -0.00127
v 0.09738 -0.31391 0.01699
v 0.06153 -0.16729 -0.02493
v 0.09738 -0.31391 0.01699
v 0.12260 -0.30541 -0.00127
v 0.12289 -0.32373 0.03197
v 0.13424 -0.31991 0.02376
v 0.12289 -0.32373 0.03197
v 0.12260 -0.30541 -0.00127
v -0.00350 -0.00458 -0.02301
v 0.01274 0.00288 -0.01980
v 0.00045 -0.02916 -0.04860
v 0.03653 -0.01257 -0.04147
v 0.00045 -0.02916 -0.04860
v 0.01274 0.00288 -0.01980
v 0.00045 -0.02916 -0.04860
v 0.03653 -0.01257 -0.04147
v 0.06153 -0.16729 -0.02493
v 0.09400 -0.15236 -0.01851
v 0.06153 -0.16729 -0.02493
v 0.03653 -0.01257 -0.04147
v 0.06153 -0.16729 -0.02493
v 0.09400 -0.15236 -0.01851
v 0.12260 -0.30541 -0.00127
v 0.15146 -0.29215 0.00444
v 0.12260 -0.30541 -0.00127
v 0.09400 -0.15236 -0.01851
v 0.12260 -0.30541 -0.00127
v 0.15146 -0.29215 0.00444
v 0.13424 -0.31991 0.02376
v 0.14723 -0.31394 0.02633
v 0.13424 -0.31991 0.02376
v 0.15146 -0.29215 0.00444
v 0.01274 0.00288 -0.01980
v 0.02151 0.00866 -0.00499
v 0.03653 -0.01257 -0.04147
v 0.05602 0.00026 -0.00856
v 0.03653 -0.01257 -0.04147
v 0.02151 0.00866 -0.00499
v 0.03653 -0.01257 -0.04147
v 0.05602 0.00026 -0.00856
v 0.09400 -0.15236 -0.01851
v 0.11154 -0.14081 0.01110
v 0.09400 -0.15236 -0.01851
v 0.05602 0.00026 -0.00856
v 0.09400 -0.15236 -0.01851
v 0.11154 -0.14081 0.01110
v 0.15146 -0.29215 0.00444
v 0.16706 -0.28188 0.03076
v 0.15146 -0.29215 0.00444
v 0.11154 -0.14081 0.01110
v 0.15146 -0.29215 0.00444
v 0.16706 -0.28188 0.03076
v 0.14723 -0.31394 0.02633
v 0.15425 -0.30932 0.03817
v 0.14723 -0.31394 0.02633
v 0.16706 -0.28188 0.03076
v 0.02151 0.00866 -0.00499
v 0.01768 0.00936 0.01274
v 0.05602 0.00026 -0.00856
v 0.04752 0.00183 0.03084
v 0.05602 0.00026 -0.00856
v 0.01768 0.00936 0.01274
v 0.05602 0.00026 -0.00856
v 0.04752 0.00183 0.03084
v 0.11154 -0.14081 0.01110
v 0.10388 -0.13940 0.04656
v 0.11154 -0.14081 0.01110
v 0.04752 0.00183 0.03084
v 0.11154 -0.14081 0.01110
v 0.10388 -0.13940 0.04656
v 0.16706 -0.28188 0.03076
v 0.16025 -0.28063 0.06228
v 0.16706 -0.28188 0.03076
v 0.10388 -0.13940 0.04656
v 0.16706 -0.28188 0.03076
v 0.16025 -0.28063 0.06228
v 0.15425 -0.30932 0.03817
v 0.15118 -0.30875 0.05236
v 0.15425 -0.30932 0.03817
v 0.16025 -0.28063 0.06228
v 0.01768 0.00936 0.01274
v 0.00350 0.00458 0.02301
v 0.04752 0.00183 0.03084
v 0.01599 -0.00879 0.05366
v 0.04752 0.00183 0.03084
v 0.00350 0.00458 0.02301
v 0.04752 0.00183 0.03084
v 0.01599 -0.00879 0.05366
v 0.10388 -0.13940 0.04656
v 0.07551 -0.14896 0.06710
v 0.10388 -0.13940 0.04656
v 0.01599 -0.00879 0.05366
v 0.10388 -0.13940 0.04656
v 0.07551 -0.14896 0.06710
v 0.16025 -0.28063 0.06228
v 0.13503 -0.28912 0.08054
v 0.16025 -0.28063 0.06228
v 0.07551 -0.14896 0.06710
v 0.16025 -0.28063 0.06228
v 0.13503 -0.28912 0.08054
v 0.15118 -0.30875 0.05236
v 0.13983 -0.31258 0.06057
v 0.15118 -0.30875 0.05236
v 0.13503 -0.28912 0.08054
v 0.00350 0.00458 0.02301
v -0.01274 -0.00288 0.01980
v 0.01599 -0.00879 0.05366
v -0.02009 -0.02538 0.04653
v 0.01599 -0.00879 0.05366
v -0.01274 -0.00288 0.01980
v 0.01599 -0.00879 0.05366
v -0.02009 -0.02538 0.04653
v 0.07551 -0.14896 0.06710
v 0.04304 -0.16388 0.06068
v 0.07551 -0.14896 0.06710
v -0.02009 -0.02538 0.04653
v 0.07551 -0.14896 0.06710
v 0.04304 -0.16388 0.06068
v 0.13503 -0.28912 0.08054
v 0.10617 -0.30239 0.07483
v 0.13503 -0.28912 0.08054
v 0.04304 -0.16388 0.06068
v 0.13503 -0.28912 0.08054
v 0.10617 -0.30239 0.07483
v 0.13983 -0.31258 0.06057
v 0.12685 -0.31855 0.05800
v 0.13983 -0.31258 0.06057
v 0.10617 -0.30239 0.07483
vn -0.79135 0.55726 0.25147
vn -0.79135 0.55726 0.25147
vn -0.79135 0.55726 0.25147
vn -0.79135 0.55726 0.25147
vn -0.79135 0.55726 0.25147
vn -0.79135 0.55726 0.25147
vn -0.76852 -0.29210 0.56925
vn -0.76852 -0.29210 0.56925
vn -0.76852 -0.29210 0.56925
vn -0.76852 -0.29210 0.56925
vn -0.76852 -0.29210 0.56925
vn -0.76852 -0.29210 0.56925
vn -0.76852 -0.29210 0.56925
vn -0.76852 -0.29210 0.56925
vn -0.76852 -0.29210 0.56925
vn -0.76852 -0.29210 0.56925
vn -0.76852 -0.29210 0.56925
vn -0.76852 -0.29210 0.56925
vn -0.26185 -0.83647 0.48141
vn -0.26185 -0.83647 0.48141
vn -0.26185 -0.83647 0.48141
vn -0.26185 -0.83647 0.48141
vn -0.26185 -0.83647 0.48141
vn -0.26185 -0.83647 0.48141
vn -0.86060 0.46647 -0.20438
vn -0.86060 0.46647 -0.20438
vn -0.86060 0.46647 -0.20438
vn -0.86060 0.46647 -0.20438
vn -0.86060 0.46647 -0.20438
vn -0.86060 0.46647 -0.20438
vn -0.88127 -0.43990 -0.17280
vn -0.88127 -0.43990 -0.17280
vn -0.88127 -0.43990 -0.17280
vn -0.88127 -0.43990 -0.17280
vn -0.88127 -0.43990 -0.17280
vn -0.88127 -0.43990 -0.17280
vn -0.88127 -0.43990 -0.17280
vn -0.88127 -0.43990 -0.17280
vn -0.88127 -0.43990 -0.17280
vn -0.88127 -0.43990 -0.17280
vn -0.88127 -0.43990 -0.17280
vn -0.88127 -0.43990 -0.17280
vn -0.34049 -0.93955 -0.03616
vn -0.34049 -0.93955 -0.03616
vn -0.34049 -0.93955 -0.03616
vn -0.34049 -0.93955 -0.03616
vn -0.34049 -0.93955 -0.03616
vn -0.34049 -0.93955 -0.03616
vn -0.60821 0.52353 -0.59665
vn -0.60821 0.52353 -0.59665
vn -0.60821 0.52353 -0.59665
vn -0.60821 0.52353 -0.59665
vn -0.60821 0.52353 -0.59665
vn -0.60821 0.52353 -0.59665
vn -0.47041 -0.34700 -0.81136
vn -0.47041 -0.34700 -0.81136
vn -0.47041 -0.34700 -0.81136
vn -0.47041 -0.34700 -0.81136
vn -0.47041 -0.34700 -0.81136
vn -0.47041 -0.34700 -0.81136
vn -0.47041 -0.34700 -0.81136
vn -0.47041 -0.34700 -0.81136
vn -0.47041 -0.34700 -0.81136
vn -0.47041 -0.34700 -0.81136
vn -0.47041 -0.34700 -0.81136
vn -0.47041 -0.34700 -0.81136
vn -0.05392 -0.87476 -0.48155
vn -0.05392 -0.87476 -0.48155
vn -0.05392 -0.87476 -0.48155
vn -0.05392 -0.87476 -0.48155
vn -0.05392 -0.87476 -0.48155
vn -0.05392 -0.87476 -0.48155
vn -0.18202 0.69503 -0.69556
vn -0.18202 0.69503 -0.69556
vn -0.18202 0.69503 -0.69556
vn -0.18202 0.69503 -0.69556
vn -0.18202 0.69503 -0.69556
vn -0.18202 0.69503 -0.69556
vn 0.22337 -0.06783 -0.97237
vn 0.22337 -0.06783 -0.97237
vn 0.22337 -0.06783 -0.97237
vn 0.22337 -0.06783 -0.97237
vn 0.22337 -0.06783 -0.97237
vn 0.22337 -0.06783 -0.97237
vn 0.22337 -0.06783 -0.97237
vn 0.22337 -0.06783 -0.97237
vn 0.22337 -0.06783 -0.97237
vn 0.22337 -0.06783 -0.97237
vn 0.22337 -0.06783 -0.97237
vn 0.22337 -0.06783 -0.97237
vn 0.42998 -0.68004 -0.59385
vn 0.42998 -0.68004 -0.59385
vn 0.42998 -0.68004 -0.59385
vn 0.42998 -0.68004 -0.59385
vn 0.42998 -0.68004 -0.59385
vn 0.42998 -0.68004 -0.59385
vn 0.16832 0.88049 -0.44317
vn 0.16832 0.88049 -0.44317
vn 0.16832 0.88049 -0.44317
vn 0.16832 0.88049 -0.44317
vn 0.16832 0.88049 -0.44317
vn 0.16832 0.88049 -0.44317
vn 0.79367 0.23408 -0.56152
vn 0.79367 0.23408 -0.56152
vn 0.79367 0.23408 -0.56152
vn 0.79367 0.23408 -0.56152
vn 0.79367 0.23408 -0.56152
vn 0.79367 0.23408 -0.56152
vn 0.79367 0.23408 -0.56152
vn 0.79367 0.23408 -0.56152
vn 0.79367 0.23408 -0.56152
vn 0.79367 0.23408 -0.56152
vn 0.79367 0.23408 -0.56152
vn 0.79367 0.23408 -0.56152
vn 0.82775 -0.46947 -0.30728
vn 0.82775 -0.46947 -0.30728
vn 0.82775 -0.46947 -0.30728
vn 0.82775 -0.46947 -0.30728
vn 0.82775 -0.46947 -0.30728
vn 0.82775 -0.46947 -0.30728
vn 0.23758 0.97129 0.01268
vn 0.23758 0.97129 0.01268
vn 0.23758 0.97129 0.01268
vn 0.23758 0.97129 0.01268
vn 0.23758 0.97129 0.01268
vn 0.23758 0.97129 0.01268
vn 0.90641 0.38187 0.18053
vn 0.90641 0.38187 0.18053
vn 0.90641 0.38187 0.18053
vn 0.90641 0.38187 0.18053
vn 0.90641 0.38187 0.18053
vn 0.90641 0.38187 0.18053
vn 0.90641 0.38187 0.18053
vn 0.90641 0.38187 0.18053
vn 0.90641 0.38187 0.18053
vn 0.90641 0.38187 0.18053
vn 0.90641 0.38187 0.18053
vn 0.90641 0.38187 0.18053
vn 0.90639 -0.36638 0.21028
vn 0.90639 -0.36638 0.21028
vn 0.90639 -0.36638 0.21028
vn 0.90639 -0.36638 0.21028
vn 0.90639 -0.36638 0.21028
vn 0.90639 -0.36638 0.21028
vn -0.01481 0.91422 0.40495
vn -0.01481 0.91422 0.40495
vn -0.01481 0.91422 0.40495
vn -0.01481 0.91422 0.40495
vn -0.01481 0.91422 0.40495
vn -0.01481 0.91422 0.40495
vn 0.49556 0.28898 0.81909
vn 0.49556 0.28898 0.81909
vn 0.49556 0.28898 0.81909
vn 0.49556 0.28898 0.81909
vn 0.49556 0.28898 0.81909
vn 0.49556 0.28898 0.81909
vn 0.49556 0.28898 0.81909
vn 0.49556 0.28898 0.81909
vn 0.49556 0.28898 0.81909
vn 0.49556 0.28898 0.81909
vn 0.49556 0.28898 0.81909
vn 0.49556 0.28898 0.81909
vn 0.61983 -0.43117 0.65567
vn 0.61983 -0.43117 0.65567
vn 0.61983 -0.43117 0.65567
vn 0.61983 -0.43117 0.65567
vn 0.61983 -0.43117 0.65567
vn 0.61983 -0.43117 0.65567
vn -0.44101 0.74272 0.50386
vn -0.44101 0.74272 0.50386
vn -0.44101 0.74272 0.50386
vn -0.44101 0.74272 0.50386
vn -0.44101 0.74272 0.50386
vn -0.44101 0.74272 0.50386
vn -0.19822 0.00981 0.98011
vn -0.19822 0.00981 0.98011
vn -0.19822 0.00981 0.98011
vn -0.19822 0.00981 0.98011
vn -0.19822 0.00981 0.98011
vn -0.19822 0.00981 0.98011
vn -0.19822 0.00981 0.98011
vn -0.19822 0.00981 0.98011
vn -0.19822 0.00981 0.98011
vn -0.19822 0.00981 0.98011
vn -0.19822 0.00981 0.98011
vn -0.19822 0.00981 0.98011
vn 0.13593 -0.62589 0.76797
vn 0.13593 -0.62589 0.76797
vn 0.13593 -0.62589 0.76797
vn 0.13593 -0.62589 0.76797
vn 0.13593 -0.62589 0.76797
vn 0.13593 -0.62589 0.76797
usemtl bone_white
f 1//1 2//2 3//3
f 4//4 5//5 6//6
f 7//7 8//8 9//9
f 10//10 11//11 12//12
f 13//13 14//14 15//15
f 16//16 17//17 18//18
f 19//19 20//20 21//21
f 22//22 23//23 24//24
f 25//25 26//26 27//27
f 28//28 29//29 30//30
f 31//31 32//32 33//33
f 34//34 35//35 36//36
f 37//37 38//38 39//39
f 40//40 41//41 42//42
f 43//43 44//44 45//45
f 46//46 47//47 48//48
f 49//49 50//50 51//51
f 52//52 53//53 54//54
f 55//55 56//56 57//57
f 58//58 59//59 60//60
f 61//61 62//62 63//63
f 64//64 65//65 66//66
f 67//67 68//68 69//69
f 70//70 71//71 72//72
f 73//73 74//74 75//75
f 76//76 77//77 78//78
f 79//79 80//80 81//81
f 82//82 83//83 84//84
f 85//85 86//86 87//87
f 88//88 89//89 90//90
f 91//91 92//92 93//93
f 94//94 95//95 96//96
f 97//97 98//98 99//99
f 100//100 101//101 102//102
f 103//103 104//104 105//105
f 106//106 107//107 108//108
f 109//109 110//110 111//111
f 112//112 113//113 114//114
f 115//115 116//116 117//117
f 118//118 119//119 120//120
f 121//121 122//122 123//123
f 124//124 125//125 126//126
f 127//127 128//128 129//129
f 130//130 131//131 132//132
f 133//133 134//134 135//135
f 136//136 137//137 138//138
f 139//139 140//140 141//141
f 142//142 143//143 144//144
f 145//145 146//146 147//147
f 148//148 149//149 150//150
f 151//151 152//152 153//153
f 154//154 155//155 156//156
f 157//157 158//158 159//159
f 160//160 161//161 162//162
f 163//163 164//164 165//165
f 166//166 167//167 168//168
f 169//169 170//170 171//171
f 172//172 173//173 174//174
f 175//175 176//176 177//177
f 178//178 179//179 180//180
f 181//181 182//182 183//183
f 184//184 185//185 186//186
f 187//187 188//188 189//189
f 190//190 191//191 192//192
o arm_lower_R
v 0.14795 -0.32344 0.02841
v 0.15560 -0.31963 0.04015
v 0.15875 -0.35058 0.01919
v 0.17575 -0.34212 0.04528
v 0.15875 -0.35058 0.01919
v 0.15560 -0.31963 0.04015
v 0.15875 -0.35058 0.01919
v 0.17575 -0.34212 0.04528
v 0.13808 -0.48369 0.07752
v 0.15359 -0.47597 0.10133
v 0.13808 -0.48369 0.07752
v 0.17575 -0.34212 0.04528
v 0.13808 -0.48369 0.07752
v 0.15359 -0.47597 0.10133
v 0.11740 -0.61679 0.13585
v 0.13143 -0.60982 0.15738
v 0.11740 -0.61679 0.13585
v 0.15359 -0.47597 0.10133
v 0.11740 -0.61679 0.13585
v 0.13143 -0.60982 0.15738
v 0.10387 -0.62788 0.15731
v 0.11018 -0.62474 0.16700
v 0.10387 -0.62788 0.15731
v 0.13143 -0.60982 0.15738
v 0.15560 -0.31963 0.04015
v 0.15238 -0.31384 0.05308
v 0.17575 -0.34212 0.04528
v 0.16859 -0.32925 0.07400
v 0.17575 -0.34212 0.04528
v 0.15238 -0.31384 0.05308
v 0.17575 -0.34212 0.04528
v 0.16859 -0.32925 0.07400
v 0.15359 -0.47597 0.10133
v 0.14706 -0.46423 0.12754
v 0.15359 -0.47597 0.10133
v 0.16859 -0.32925 0.07400
v 0.15359 -0.47597 0.10133
v 0.14706 -0.46423 0.12754
v 0.13143 -0.60982 0.15738
v 0.12552 -0.59920 0.18107
v 0.13143 -0.60982 0.15738
v 0.14706 -0.46423 0.12754
v 0.13143 -0.60982 0.15738
v 0.12552 -0.59920 0.18107
v 0.11018 -0.62474 0.16700
v 0.10753 -0.61996 0.17766
v 0.11018 -0.62474 0.16700
v 0.12552 -0.59920 0.18107
v 0.15238 -0.31384 0.05308
v 0.14017 -0.30946 0.05961
v 0.16859 -0.32925 0.07400
v 0.14147 -0.31951 0.08851
v 0.16859 -0.32925 0.07400
v 0.14017 -0.30946 0.05961
v 0.16859 -0.32925 0.07400
v 0.14147 -0.31951 0.08851
v 0.14706 -0.46423 0.12754
v 0.12230 -0.45533 0.14078
v 0.14706 -0.46423 0.12754
v 0.14147 -0.31951 0.08851
v 0.14706 -0.46423 0.12754
v 0.12230 -0.45533 0.14078
v 0.12552 -0.59920 0.18107
v 0.10314 -0.59116 0.19305
v 0.12552 -0.59920 0.18107
v 0.12230 -0.45533 0.14078
v 0.12552 -0.59920 0.18107
v 0.10314 -0.59116 0.19305
v 0.10753 -0.61996 0.17766
v 0.09746 -0.61634 0.18305
v 0.10753 -0.61996 0.17766
v 0.10314 -0.59116 0.19305
v 0.14017 -0.30946 0.05961
v 0.12613 -0.30905 0.05592
v 0.14147 -0.31951 0.08851
v 0.11026 -0.31859 0.08032
v 0.14147 -0.31951 0.08851
v 0.12613 -0.30905 0.05592
v 0.14147 -0.31951 0.08851
v 0.11026 -0.31859 0.08032
v 0.12230 -0.45533 0.14078
v 0.09383 -0.45450 0.13331
v 0.12230 -0.45533 0.14078
v 0.11026 -0.31859 0.08032
v 0.12230 -0.45533 0.14078
v 0.09383 -0.45450 0.13331
v 0.10314 -0.59116 0.19305
v 0.07740 -0.59041 0.18629
v 0.10314 -0.59116 0.19305
v 0.09383 -0.45450 0.13331
v 0.10314 -0.59116 0.19305
v 0.07740 -0.59041 0.18629
v 0.09746 -0.61634 0.18305
v 0.08587 -0.61601 0.18001
v 0.09746 -0.61634 0.18305
v 0.07740 -0.59041 0.18629
v 0.12613 -0.30905 0.05592
v 0.11848 -0.31285 0.04418
v 0.11026 -0.31859 0.08032
v 0.09326 -0.32704 0.05423
v 0.11026 -0.31859 0.08032
v 0.11848 -0.31285 0.04418
v 0.11026 -0.31859 0.08032
v 0.09326 -0.32704 0.05423
v 0.09383 -0.45450 0.13331
v 0.07832 -0.46221 0.10949
v 0.09383 -0.45450 0.13331
v 0.09326 -0.32704 0.05423
v 0.09383 -0.45450 0.13331
v 0.07832 -0.46221 0.10949
v 0.07740 -0.59041 0.18629
v 0.06338 -0.59738 0.16476
v 0.07740 -0.59041 0.18629
v 0.07832 -0.46221 0.10949
v 0.07740 -0.59041 0.18629
v 0.06338 -0.59738 0.16476
v 0.08587 -0.61601 0.18001
v 0.07956 -0.61914 0.17032
v 0.08587 -0.61601 0.18001
v 0.06338 -0.59738 0.16476
v 0.11848 -0.31285 0.04418
v 0.12170 -0.31864 0.03126
v 0.09326 -0.32704 0.05423
v 0.10042 -0.33991 0.02551
v 0.09326 -0.32704 0.05423
v 0.12170 -0.31864 0.03126
v 0.09326 -0.32704 0.05423
v 0.10042 -0.33991 0.02551
v 0.07832 -0.46221 0.10949
v 0.08485 -0.47396 0.08329
v 0.07832 -0.46221 0.10949
v 0.10042 -0.33991 0.02551
v 0.07832 -0.46221 0.10949
v 0.08485 -0.47396 0.08329
v 0.06338 -0.59738 0.16476
v 0.06928 -0.60800 0.14107
v 0.06338 -0.59738 0.16476
v 0.08485 -0.47396 0.08329
v 0.06338 -0.59738 0.16476
v 0.06928 -0.60800 0.14107
v 0.07956 -0.61914 0.17032
v 0.08222 -0.62392 0.15966
v 0.07956 -0.61914 0.17032
v 0.06928 -0.60800 0.14107
v 0.12170 -0.31864 0.03126
v 0.13391 -0.32303 0.02472
v 0.10042 -0.33991 0.02551
v 0.12755 -0.34966 0.01100
v 0.10042 -0.33991 0.02551
v 0.13391 -0.32303 0.02472
v 0.10042 -0.33991 0.02551
v 0.12755 -0.34966 0.01100
v 0.08485 -0.47396 0.08329
v 0.10961 -0.48285 0.07005
v 0.08485 -0.47396 0.08329
v 0.12755 -0.34966 0.01100
v 0.08485 -0.47396 0.08329
v 0.10961 -0.48285 0.07005
v 0.06928 -0.60800 0.14107
v 0.09166 -0.61604 0.12910
v 0.06928 -0.60800 0.14107
v 0.10961 -0.48285 0.07005
v 0.06928 -0.60800 0.14107
v 0.09166 -0.61604 0.12910
v 0.08222 -0.62392 0.15966
v 0.09229 -0.62754 0.15427
v 0.08222 -0.62392 0.15966
v 0.09166 -0.61604 0.12910
v 0.13391 -0.32303 0.02472
v 0.14795 -0.32344 0.02841
v 0.12755 -0.34966 0.01100
v 0.15875 -0.35058 0.01919
v 0.12755 -0.34966 0.01100
v 0.14795 -0.32344 0.02841
v 0.12755 -0.34966 0.01100
v 0.15875 -0.35058 0.01919
v 0.10961 -0.48285 0.07005
v 0.13808 -0.48369 0.07752
v 0.10961 -0.48285 0.07005
v 0.15875 -0.35058 0.01919
v 0.10961 -0.48285 0.07005
v 0.13808 -0.48369 0.07752
v 0.09166 -0.61604 0.12910
v 0.11740 -0.61679 0.13585
v 0.09166 -0.61604 0.12910
v 0.13808 -0.48369 0.07752
v 0.09166 -0.61604 0.12910
v 0.11740 -0.61679 0.13585
v 0.09229 -0.62754 0.15427
v 0.10387 -0.62788 0.15731
v 0.09229 -0.62754 0.15427
v 0.11740 -0.61679 0.13585
vn 0.66613 0.46372 -0.58416
vn 0.66613 0.46372 -0.58416
vn 0.66613 0.46372 -0.58416
vn 0.66613 0.46372 -0.58416
vn 0.66613 0.46372 -0.58416
vn 0.66613 0.46372 -0.58416
vn 0.83739 -0.32323 -0.44079
vn 0.83739 -0.32323 -0.44079
vn 0.83739 -0.32323 -0.44079
vn 0.83739 -0.32323 -0.44079
vn 0.83739 -0.32323 -0.44079
vn 0.83739 -0.32323 -0.44079
vn 0.83739 -0.32323 -0.44079
vn 0.83739 -0.32323 -0.44079
vn 0.83739 -0.32323 -0.44079
vn 0.83739 -0.32323 -0.44079
vn 0.83739 -0.32323 -0.44079
vn 0.83739 -0.32323 -0.44079
vn 0.54627 -0.83319 -0.08596
vn 0.54627 -0.83319 -0.08596
vn 0.54627 -0.83319 -0.08596
vn 0.54627 -0.83319 -0.08596
vn 0.54627 -0.83319 -0.08596
vn 0.54627 -0.83319 -0.08596
vn 0.75233 0.65053 -0.10396
vn 0.75233 0.65053 -0.10396
vn 0.75233 0.65053 -0.10396
vn 0.75233 0.65053 -0.10396
vn 0.75233 0.65053 -0.10396
vn 0.75233 0.65053 -0.10396
vn 0.96365 -0.04962 0.26253
vn 0.96365 -0.04962 0.26253
vn 0.96365 -0.04962 0.26253
vn 0.96365 -0.04962 0.26253
vn 0.96365 -0.04962 0.26253
vn 0.96365 -0.04962 0.26253
vn 0.96365 -0.04962 0.26253
vn 0.96365 -0.04962 0.26253
vn 0.96365 -0.04962 0.26253
vn 0.96365 -0.04962 0.26253
vn 0.96365 -0.04962 0.26253
vn 0.96365 -0.04962 0.26253
vn 0.64093 -0.62806 0.44131
vn 0.64093 -0.62806 0.44131
vn 0.64093 -0.62806 0.44131
vn 0.64093 -0.62806 0.44131
vn 0.64093 -0.62806 0.44131
vn 0.64093 -0.62806 0.44131
vn 0.45195 0.84867 0.27476
vn 0.45195 0.84867 0.27476
vn 0.45195 0.84867 0.27476
vn 0.45195 0.84867 0.27476
vn 0.45195 0.84867 0.27476
vn 0.45195 0.84867 0.27476
vn 0.52370 0.24059 0.81723
vn 0.52370 0.24059 0.81723
vn 0.52370 0.24059 0.81723
vn 0.52370 0.24059 0.81723
vn 0.52370 0.24059 0.81723
vn 0.52370 0.24059 0.81723
vn 0.52370 0.24059 0.81723
vn 0.52370 0.24059 0.81723
vn 0.52370 0.24059 0.81723
vn 0.52370 0.24059 0.81723
vn 0.52370 0.24059 0.81723
vn 0.52370 0.24059 0.81723
vn 0.31110 -0.41050 0.85715
vn 0.31110 -0.41050 0.85715
vn 0.31110 -0.41050 0.85715
vn 0.31110 -0.41050 0.85715
vn 0.31110 -0.41050 0.85715
vn 0.31110 -0.41050 0.85715
vn -0.05905 0.94208 0.33015
vn -0.05905 0.94208 0.33015
vn -0.05905 0.94208 0.33015
vn -0.05905 0.94208 0.33015
vn -0.05905 0.94208 0.33015
vn -0.05905 0.94208 0.33015
vn -0.22475 0.37740 0.89836
vn -0.22475 0.37740 0.89836
vn -0.22475 0.37740 0.89836
vn -0.22475 0.37740 0.89836
vn -0.22475 0.37740 0.89836
vn -0.22475 0.37740 0.89836
vn -0.22475 0.37740 0.89836
vn -0.22475 0.37740 0.89836
vn -0.22475 0.37740 0.89836
vn -0.22475 0.37740 0.89836
vn -0.22475 0.37740 0.89836
vn -0.22475 0.37740 0.89836
vn -0.24999 -0.30794 0.91798
vn -0.24999 -0.30794 0.91798
vn -0.24999 -0.30794 0.91798
vn -0.24999 -0.30794 0.91798
vn -0.24999 -0.30794 0.91798
vn -0.24999 -0.30794 0.91798
vn -0.48133 0.87603 0.02978
vn -0.48133 0.87603 0.02978
vn -0.48133 0.87603 0.02978
vn -0.48133 0.87603 0.02978
vn -0.48133 0.87603 0.02978
vn -0.48133 0.87603 0.02978
vn -0.84326 0.28066 0.45841
vn -0.84326 0.28066 0.45841
vn -0.84326 0.28066 0.45841
vn -0.84326 0.28066 0.45841
vn -0.84326 0.28066 0.45841
vn -0.84326 0.28066 0.45841
vn -0.84326 0.28066 0.45841
vn -0.84326 0.28066 0.45841
vn -0.84326 0.28066 0.45841
vn -0.84326 0.28066 0.45841
vn -0.84326 0.28066 0.45841
vn -0.84326 0.28066 0.45841
vn -0.71367 -0.38046 0.58815
vn -0.71367 -0.38046 0.58815
vn -0.71367 -0.38046 0.58815
vn -0.71367 -0.38046 0.58815
vn -0.71367 -0.38046 0.58815
vn -0.71367 -0.38046 0.58815
vn -0.56754 0.68922 -0.45042
vn -0.56754 0.68922 -0.45042
vn -0.56754 0.68922 -0.45042
vn -0.56754 0.68922 -0.45042
vn -0.56754 0.68922 -0.45042
vn -0.56754 0.68922 -0.45042
vn -0.96952 0.00705 -0.24491
vn -0.96952 0.00705 -0.24491
vn -0.96952 0.00705 -0.24491
vn -0.96952 0.00705 -0.24491
vn -0.96952 0.00705 -0.24491
vn -0.96952 0.00705 -0.24491
vn -0.96952 0.00705 -0.24491
vn -0.96952 0.00705 -0.24491
vn -0.96952 0.00705 -0.24491
vn -0.96952 0.00705 -0.24491
vn -0.96952 0.00705 -0.24491
vn -0.96952 0.00705 -0.24491
vn -0.80832 -0.58558 0.06089
vn -0.80832 -0.58558 0.06089
vn -0.80832 -0.58558 0.06089
vn -0.80832 -0.58558 0.06089
vn -0.80832 -0.58558 0.06089
vn -0.80832 -0.58558 0.06089
vn -0.26716 0.49108 -0.82914
vn -0.26716 0.49108 -0.82914
vn -0.26716 0.49108 -0.82914
vn -0.26716 0.49108 -0.82914
vn -0.26716 0.49108 -0.82914
vn -0.26716 0.49108 -0.82914
vn -0.52957 -0.28316 -0.79961
vn -0.52957 -0.28316 -0.79961
vn -0.52957 -0.28316 -0.79961
vn -0.52957 -0.28316 -0.79961
vn -0.52957 -0.28316 -0.79961
vn -0.52957 -0.28316 -0.79961
vn -0.52957 -0.28316 -0.79961
vn -0.52957 -0.28316 -0.79961
vn -0.52957 -0.28316 -0.79961
vn -0.52957 -0.28316 -0.79961
vn -0.52957 -0.28316 -0.79961
vn -0.52957 -0.28316 -0.79961
vn -0.47850 -0.80315 -0.35495
vn -0.47850 -0.80315 -0.35495
vn -0.47850 -0.80315 -0.35495
vn -0.47850 -0.80315 -0.35495
vn -0.47850 -0.80315 -0.35495
vn -0.47850 -0.80315 -0.35495
vn 0.24384 0.39767 -0.88453
vn 0.24384 0.39767 -0.88453
vn 0.24384 0.39767 -0.88453
vn 0.24384 0.39767 -0.88453
vn 0.24384 0.39767 -0.88453
vn 0.24384 0.39767 -0.88453
vn 0.21888 -0.41997 -0.88075
vn 0.21888 -0.41997 -0.88075
vn 0.21888 -0.41997 -0.88075
vn 0.21888 -0.41997 -0.88075
vn 0.21888 -0.41997 -0.88075
vn 0.21888 -0.41997 -0.88075
vn 0.21888 -0.41997 -0.88075
vn 0.21888 -0.41997 -0.88075
vn 0.21888 -0.41997 -0.88075
vn 0.21888 -0.41997 -0.88075
vn 0.21888 -0.41997 -0.88075
vn 0.21888 -0.41997 -0.88075
vn 0.08259 -0.90571 -0.41578
vn 0.08259 -0.90571 -0.41578
vn 0.08259 -0.90571 -0.41578
vn 0.08259 -0.90571 -0.41578
vn 0.08259 -0.90571 -0.41578
vn 0.08259 -0.90571 -0.41578
usemtl bone_white
f 193//193 194//194 195//195
f 196//196 197//197 198//198
f 199//199 200//200 201//201
f 202//202 203//203 204//204
f 205//205 206//206 207//207
f 208//208 209//209 210//210
f 211//211 212//212 213//213
f 214//214 215//215 216//216
f 217//217 218//218 219//219
f 220//220 221//221 222//222
f 223//223 224//224 225//225
f 226//226 227//227 228//228
f 229//229 230//230 231//231
f 232//232 233//233 234//234
f 235//235 236//236 237//237
f 238//238 239//239 240//240
f 241//241 242//242 243//243
f 244//244 245//245 246//246
f 247//247 248//248 249//249
f 250//250 251//251 252//252
f 253//253 254//254 255//255
f 256//256 257//257 258//258
f 259//259 260//260 261//261
f 262//262 263//263 264//264
f 265//265 266//266 267//267
f 268//268 269//269 270//270
f 271//271 272//272 273//273
f 274//274 275//275 276//276
f 277//277 278//278 279//279
f 280//280 281//281 282//282
f 283//283 284//284 285//285
f 286//286 287//287 288//288
f 289//289 290//290 291//291
f 292//292 293//293 294//294
f 295//295 296//296 297//297
f 298//298 299//299 300//300
f 301//301 302//302 303//303
f 304//304 305//305 306//306
f 307//307 308//308 309//309
f 310//310 311//311 312//312
f 313//313 314//314 315//315
f 316//316 317//317 318//318
f 319//319 320//320 321//321
f 322//322 323//323 324//324
f 325//325 326//326 327//327
f 328//328 329//329 330//330
f 331//331 332//332 333//333
f 334//334 335//335 336//336
f 337//337 338//338 339//339
f 340//340 341//341 342//342
f 343//343 344//344 345//345
f 346//346 347//347 348//348
f 349//349 350//350 351//351
f 352//352 353//353 354//354
f 355//355 356//356 357//357
f 358//358 359//359 360//360
f 361//361 362//362 363//363
f 364//364 365//365 366//366
f 367//367 368//368 369//369
f 370//370 371//371 372//372
f 373//373 374//374 375//375
f 376//376 377//377 378//378
f 379//379 380//380 381//381
f 382//382 383//383 384//384
o arm_joint_R
v 0.13704 -0.26775 0.04217
v 0.11279 -0.27425 0.04217
v 0.11989 -0.27425 0.05931
v 0.13704 -0.26775 0.04217
v 0.11989 -0.27425 0.05931
v 0.13704 -0.27425 0.06641
v 0.13704 -0.26775 0.04217
v 0.13704 -0.27425 0.06641
v 0.15418 -0.27425 0.05931
v 0.13704 -0.26775 0.04217
v 0.15418 -0.27425 0.05931
v 0.16128 -0.27425 0.04217
v 0.13704 -0.26775 0.04217
v 0.16128 -0.27425 0.04217
v 0.15418 -0.27425 0.02502
v 0.13704 -0.26775 0.04217
v 0.15418 -0.27425 0.02502
v 0.13704 -0.27425 0.01792
v 0.13704 -0.26775 0.04217
v 0.13704 -0.27425 0.01792
v 0.11989 -0.27425 0.02502
v 0.13704 -0.26775 0.04217
v 0.11989 -0.27425 0.02502
v 0.11279 -0.27425 0.04217
v 0.11989 -0.27425 0.05931
v 0.11279 -0.27425 0.04217
v 0.10734 -0.29200 0.07186
v 0.11279 -0.27425 0.04217
v 0.09504 -0.29200 0.04217
v 0.10734 -0.29200 0.07186
v 0.13704 -0.27425 0.06641
v 0.11989 -0.27425 0.05931
v 0.13704 -0.29200 0.08416
v 0.11989 -0.27425 0.05931
v 0.10734 -0.29200 0.07186
v 0.13704 -0.29200 0.08416
v 0.15418 -0.27425 0.05931
v 0.13704 -0.27425 0.06641
v 0.16673 -0.29200 0.07186
v 0.13704 -0.27425 0.06641
v 0.13704 -0.29200 0.08416
v 0.16673 -0.29200 0.07186
v 0.16128 -0.27425 0.04217
v 0.15418 -0.27425 0.05931
v 0.17903 -0.29200 0.04217
v 0.15418 -0.27425 0.05931
v 0.16673 -0.29200 0.07186
v 0.17903 -0.29200 0.04217
v 0.15418 -0.27425 0.02502
v 0.16128 -0.27425 0.04217
v 0.16673 -0.29200 0.01247
v 0.16128 -0.27425 0.04217
v 0.17903 -0.29200 0.04217
v 0.16673 -0.29200 0.01247
v 0.13704 -0.27425 0.01792
v 0.15418 -0.27425 0.02502
v 0.13704 -0.29200 0.00017
v 0.15418 -0.27425 0.02502
v 0.16673 -0.29200 0.01247
v 0.13704 -0.29200 0.00017
v 0.11989 -0.27425 0.02502
v 0.13704 -0.27425 0.01792
v 0.10734 -0.29200 0.01247
v 0.13704 -0.27425 0.01792
v 0.13704 -0.29200 0.00017
v 0.10734 -0.29200 0.01247
v 0.11279 -0.27425 0.04217
v 0.11989 -0.27425 0.02502
v 0.09504 -0.29200 0.04217
v 0.11989 -0.27425 0.02502
v 0.10734 -0.29200 0.01247
v 0.09504 -0.29200 0.04217
v 0.10734 -0.29200 0.07186
v 0.09504 -0.29200 0.04217
v 0.10275 -0.31624 0.07645
v 0.09504 -0.29200 0.04217
v 0.08855 -0.31624 0.04217
v 0.10275 -0.31624 0.07645
v 0.13704 -0.29200 0.08416
v 0.10734 -0.29200 0.07186
v 0.13704 -0.31624 0.09066
v 0.10734 -0.29200 0.07186
v 0.10275 -0.31624 0.07645
v 0.13704 -0.31624 0.09066
v 0.16673 -0.29200 0.07186
v 0.13704 -0.29200 0.08416
v 0.17133 -0.31624 0.07645
v 0.13704 -0.29200 0.08416
v 0.13704 -0.31624 0.09066
v 0.17133 -0.31624 0.07645
v 0.17903 -0.29200 0.04217
v 0.16673 -0.29200 0.07186
v 0.18553 -0.31624 0.04217
v 0.16673 -0.29200 0.07186
v 0.17133 -0.31624 0.07645
v 0.18553 -0.31624 0.04217
v 0.16673 -0.29200 0.01247
v 0.17903 -0.29200 0.04217
v 0.17133 -0.31624 0.00788
v 0.17903 -0.29200 0.04217
v 0.18553 -0.31624 0.04217
v 0.17133 -0.31624 0.00788
v 0.13704 -0.29200 0.00017
v 0.16673 -0.29200 0.01247
v 0.13704 -0.31624 -0.00632
v 0.16673 -0.29200 0.01247
v 0.17133 -0.31624 0.00788
v 0.13704 -0.31624 -0.00632
v 0.10734 -0.29200 0.01247
v 0.13704 -0.29200 0.00017
v 0.10275 -0.31624 0.00788
v 0.13704 -0.29200 0.00017
v 0.13704 -0.31624 -0.00632
v 0.10275 -0.31624 0.00788
v 0.09504 -0.29200 0.04217
v 0.10734 -0.29200 0.01247
v 0.08855 -0.31624 0.04217
v 0.10734 -0.29200 0.01247
v 0.10275 -0.31624 0.00788
v 0.08855 -0.31624 0.04217
v 0.10275 -0.31624 0.07645
v 0.08855 -0.31624 0.04217
v 0.10734 -0.34049 0.07186
v 0.08855 -0.31624 0.04217
v 0.09504 -0.34049 0.04217
v 0.10734 -0.34049 0.07186
v 0.13704 -0.31624 0.09066
v 0.10275 -0.31624 0.07645
v 0.13704 -0.34049 0.08416
v 0.10275 -0.31624 0.07645
v 0.10734 -0.34049 0.07186
v 0.13704 -0.34049 0.08416
v 0.17133 -0.31624 0.07645
v 0.13704 -0.31624 0.09066
v 0.16673 -0.34049 0.07186
v 0.13704 -0.31624 0.09066
v 0.13704 -0.34049 0.08416
v 0.16673 -0.34049 0.07186
v 0.18553 -0.31624 0.04217
v 0.17133 -0.31624 0.07645
v 0.17903 -0.34049 0.04217
v 0.17133 -0.31624 0.07645
v 0.16673 -0.34049 0.07186
v 0.17903 -0.34049 0.04217
v 0.17133 -0.31624 0.00788
v 0.18553 -0.31624 0.04217
v 0.16673 -0.34049 0.01247
v 0.18553 -0.31624 0.04217
v 0.17903 -0.34049 0.04217
v 0.16673 -0.34049 0.01247
v 0.13704 -0.31624 -0.00632
v 0.17133 -0.31624 0.00788
v 0.13704 -0.34049 0.00017
v 0.17133 -0.31624 0.00788
v 0.16673 -0.34049 0.01247
v 0.13704 -0.34049 0.00017
v 0.10275 -0.31624 0.00788
v 0.13704 -0.31624 -0.00632
v 0.10734 -0.34049 0.01247
v 0.13704 -0.31624 -0.00632
v 0.13704 -0.34049 0.00017
v 0.10734 -0.34049 0.01247
v 0.08855 -0.31624 0.04217
v 0.10275 -0.31624 0.00788
v 0.09504 -0.34049 0.04217
v 0.10275 -0.31624 0.00788
v 0.10734 -0.34049 0.01247
v 0.09504 -0.34049 0.04217
v 0.10734 -0.34049 0.07186
v 0.09504 -0.34049 0.04217
v 0.11989 -0.35824 0.05931
v 0.09504 -0.34049 0.04217
v 0.11279 -0.35824 0.04217
v 0.11989 -0.35824 0.05931
v 0.13704 -0.34049 0.08416
v 0.10734 -0.34049 0.07186
v 0.13704 -0.35824 0.06641
v 0.10734 -0.34049 0.07186
v 0.11989 -0.35824 0.05931
v 0.13704 -0.35824 0.06641
v 0.16673 -0.34049 0.07186
v 0.13704 -0.34049 0.08416
v 0.15418 -0.35824 0.05931
v 0.13704 -0.34049 0.08416
v 0.13704 -0.35824 0.06641
v 0.15418 -0.35824 0.05931
v 0.17903 -0.34049 0.04217
v 0.16673 -0.34049 0.07186
v 0.16128 -0.35824 0.04217
v 0.16673 -0.34049 0.07186
v 0.15418 -0.35824 0.05931
v 0.16128 -0.35824 0.04217
v 0.16673 -0.34049 0.01247
v 0.17903 -0.34049 0.04217
v 0.15418 -0.35824 0.02502
v 0.17903 -0.34049 0.04217
v 0.16128 -0.35824 0.04217
v 0.15418 -0.35824 0.02502
v 0.13704 -0.34049 0.00017
v 0.16673 -0.34049 0.01247
v 0.13704 -0.35824 0.01792
v 0.16673 -0.34049 0.01247
v 0.15418 -0.35824 0.02502
v 0.13704 -0.35824 0.01792
v 0.10734 -0.34049 0.01247
v 0.13704 -0.34049 0.00017
v 0.11989 -0.35824 0.02502
v 0.13704 -0.34049 0.00017
v 0.13704 -0.35824 0.01792
v 0.11989 -0.35824 0.02502
v 0.09504 -0.34049 0.04217
v 0.10734 -0.34049 0.01247
v 0.11279 -0.35824 0.04217
v 0.10734 -0.34049 0.01247
v 0.11989 -0.35824 0.02502
v 0.11279 -0.35824 0.04217
v 0.11989 -0.35824 0.05931
v 0.11279 -0.35824 0.04217
v 0.13704 -0.36473 0.04217
v 0.13704 -0.35824 0.06641
v 0.11989 -0.35824 0.05931
v 0.13704 -0.36473 0.04217
v 0.15418 -0.35824 0.05931
v 0.13704 -0.35824 0.06641
v 0.13704 -0.36473 0.04217
v 0.16128 -0.35824 0.04217
v 0.15418 -0.35824 0.05931
v 0.13704 -0.36473 0.04217
v 0.15418 -0.35824 0.02502
v 0.16128 -0.35824 0.04217
v 0.13704 -0.36473 0.04217
v 0.13704 -0.35824 0.01792
v 0.15418 -0.35824 0.02502
v 0.13704 -0.36473 0.04217
v 0.11989 -0.35824 0.02502
v 0.13704 -0.35824 0.01792
v 0.13704 -0.36473 0.04217
v 0.11279 -0.35824 0.04217
v 0.11989 -0.35824 0.02502
v 0.13704 -0.36473 0.04217
vn -0.25734 0.96042 0.10660
vn -0.25734 0.96042 0.10660
vn -0.25734 0.96042 0.10660
vn -0.10660 0.96042 0.25734
vn -0.10660 0.96042 0.25734
vn -0.10660 0.96042 0.25734
vn 0.10660 0.96042 0.25734
vn 0.10660 0.96042 0.25734
vn 0.10660 0.96042 0.25734
vn 0.25734 0.96042 0.10660
vn 0.25734 0.96042 0.10660
vn 0.25734 0.96042 0.10660
vn 0.25734 0.96042 -0.10660
vn 0.25734 0.96042 -0.10660
vn 0.25734 0.96042 -0.10660
vn 0.10660 0.96042 -0.25734
vn 0.10660 0.96042 -0.25734
vn 0.10660 0.96042 -0.25734
vn -0.10660 0.96042 -0.25734
vn -0.10660 0.96042 -0.25734
vn -0.10660 0.96042 -0.25734
vn -0.25734 0.96042 -0.10660
vn -0.25734 0.96042 -0.10660
vn -0.25734 0.96042 -0.10660
vn -0.67860 0.67860 0.28108
vn -0.67860 0.67860 0.28108
vn -0.67860 0.67860 0.28108
vn -0.67860 0.67860 0.28108
vn -0.67860 0.67860 0.28108
vn -0.67860 0.67860 0.28108
vn -0.28108 0.67860 0.67860
vn -0.28108 0.67860 0.67860
vn -0.28108 0.67860 0.67860
vn -0.28108 0.67860 0.67860
vn -0.28108 0.67860 0.67860
vn -0.28108 0.67860 0.67860
vn 0.28108 0.67860 0.67860
vn 0.28108 0.67860 0.67860
vn 0.28108 0.67860 0.67860
vn 0.28108 0.67860 0.67860
vn 0.28108 0.67860 0.67860
vn 0.28108 0.67860 0.67860
vn 0.67860 0.67860 0.28108
vn 0.67860 0.67860 0.28108
vn 0.67860 0.67860 0.28108
vn 0.67860 0.67860 0.28108
vn 0.67860 0.67860 0.28108
vn 0.67860 0.67860 0.28108
vn 0.67860 0.67860 -0.28108
vn 0.67860 0.67860 -0.28108
vn 0.67860 0.67860 -0.28108
vn 0.67860 0.67860 -0.28108
vn 0.67860 0.67860 -0.28108
vn 0.67860 0.67860 -0.28108
vn 0.28108 0.67860 -0.67860
vn 0.28108 0.67860 -0.67860
vn 0.28108 0.67860 -0.67860
vn 0.28108 0.67860 -0.67860
vn 0.28108 0.67860 -0.67860
vn 0.28108 0.67860 -0.67860
vn -0.28108 0.67860 -0.67860
vn -0.28108 0.67860 -0.67860
vn -0.28108 0.67860 -0.67860
vn -0.28108 0.67860 -0.67860
vn -0.28108 0.67860 -0.67860
vn -0.28108 0.67860 -0.67860
vn -0.67860 0.67860 -0.28108
vn -0.67860 0.67860 -0.28108
vn -0.67860 0.67860 -0.28108
vn -0.67860 0.67860 -0.28108
vn -0.67860 0.67860 -0.28108
vn -0.67860 0.67860 -0.28108
vn -0.89681 0.24030 0.37147
vn -0.89681 0.24030 0.37147
vn -0.89681 0.24030 0.37147
vn -0.89681 0.24030 0.37147
vn -0.89681 0.24030 0.37147
vn -0.89681 0.24030 0.37147
vn -0.37147 0.24030 0.89681
vn -0.37147 0.24030 0.89681
vn -0.37147 0.24030 0.89681
vn -0.37147 0.24030 0.89681
vn -0.37147 0.24030 0.89681
vn -0.37147 0.24030 0.89681
vn 0.37147 0.24030 0.89681
vn 0.37147 0.24030 0.89681
vn 0.37147 0.24030 0.89681
vn 0.37147 0.24030 0.89681
vn 0.37147 0.24030 0.89681
vn 0.37147 0.24030 0.89681
vn 0.89681 0.24030 0.37147
vn 0.89681 0.24030 0.37147
vn 0.89681 0.24030 0.37147
vn 0.89681 0.24030 0.37147
vn 0.89681 0.24030 0.37147
vn 0.89681 0.24030 0.37147
vn 0.89681 0.24030 -0.37147
vn 0.89681 0.24030 -0.37147
vn 0.89681 0.24030 -0.37147
vn 0.89681 0.24030 -0.37147
vn 0.89681 0.24030 -0.37147
vn 0.89681 0.24030 -0.37147
vn 0.37147 0.24030 -0.89681
vn 0.37147 0.24030 -0.89681
vn 0.37147 0.24030 -0.89681
vn 0.37147 0.24030 -0.89681
vn 0.37147 0.24030 -0.89681
vn 0.37147 0.24030 -0.89681
vn -0.37147 0.24030 -0.89681
vn -0.37147 0.24030 -0.89681
vn -0.37147 0.24030 -0.89681
vn -0.37147 0.24030 -0.89681
vn -0.37147 0.24030 -0.89681
vn -0.37147 0.24030 -0.89681
vn -0.89681 0.24030 -0.37147
vn -0.89681 0.24030 -0.37147
vn -0.89681 0.24030 -0.37147
vn -0.89681 0.24030 -0.37147
vn -0.89681 0.24030 -0.37147
vn -0.89681 0.24030 -0.37147
vn -0.89681 -0.24030 0.37147
vn -0.89681 -0.24030 0.37147
vn -0.89681 -0.24030 0.37147
vn -0.89681 -0.24030 0.37147
vn -0.89681 -0.24030 0.37147
vn -0.89681 -0.24030 0.37147
vn -0.37147 -0.24030 0.89681
vn -0.37147 -0.24030 0.89681
vn -0.37147 -0.24030 0.89681
vn -0.37147 -0.24030 0.89681
vn -0.37147 -0.24030 0.89681
vn -0.37147 -0.24030 0.89681
vn 0.37147 -0.24030 0.89681
vn 0.37147 -0.24030 0.89681
vn 0.37147 -0.24030 0.89681
vn 0.37147 -0.24030 0.89681
vn 0.37147 -0.24030 0.89681
vn 0.37147 -0.24030 0.89681
vn 0.89681 -0.24030 0.37147
vn 0.89681 -0.24030 0.37147
vn 0.89681 -0.24030 0.37147
vn 0.89681 -0.24030 0.37147
vn 0.89681 -0.24030 0.37147
vn 0.89681 -0.24030 0.37147
vn 0.89681 -0.24030 -0.37147
vn 0.89681 -0.24030 -0.37147
vn 0.89681 -0.24030 -0.37147
vn 0.89681 -0.24030 -0.37147
vn 0.89681 -0.24030 -0.37147
vn 0.89681 -0.24030 -0.37147
vn 0.37147 -0.24030 -0.89681
vn 0.37147 -0.24030 -0.89681
vn 0.37147 -0.24030 -0.89681
vn 0.37147 -0.24030 -0.89681
vn 0.37147 -0.24030 -0.89681
vn 0.37147 -0.24030 -0.89681
vn -0.37147 -0.24030 -0.89681
vn -0.37147 -0.24030 -0.89681
vn -0.37147 -0.24030 -0.89681
vn -0.37147 -0.24030 -0.89681
vn -0.37147 -0.24030 -0.89681
vn -0.37147 -0.24030 -0.89681
vn -0.89681 -0.24030 -0.37147
vn -0.89681 -0.24030 -0.37147
vn -0.89681 -0.24030 -0.37147
vn -0.89681 -0.24030 -0.37147
vn -0.89681 -0.24030 -0.37147
vn -0.89681 -0.24030 -0.37147
vn -0.67860 -0.67860 0.28108
vn -0.67860 -0.67860 0.28108
vn -0.67860 -0.67860 0.28108
vn -0.67860 -0.67860 0.28108
vn -0.67860 -0.67860 0.28108
vn -0.67860 -0.67860 0.28108
vn -0.28108 -0.67860 0.67860
vn -0.28108 -0.67860 0.67860
vn -0.28108 -0.67860 0.67860
vn -0.28108 -0.67860 0.67860
vn -0.28108 -0.67860 0.67860
vn -0.28108 -0.67860 0.67860
vn 0.28108 -0.67860 0.67860
vn 0.28108 -0.67860 0.67860
vn 0.28108 -0.67860 0.67860
vn 0.28108 -0.67860 0.67860
vn 0.28108 -0.67860 0.67860
vn 0.28108 -0.67860 0.67860
vn 0.67860 -0.67860 0.28108
vn 0.67860 -0.67860 0.28108
vn 0.67860 -0.67860 0.28108
vn 0.67860 -0.67860 0.28108
vn 0.67860 -0.67860 0.28108
vn 0.67860 -0.67860 0.28108
vn 0.67860 -0.67860 -0.28108
vn 0.67860 -0.67860 -0.28108
vn 0.67860 -0.67860 -0.28108
vn 0.67860 -0.67860 -0.28108
vn 0.67860 -0.67860 -0.28108
vn 0.67860 -0.67860 -0.28108
vn 0.28108 -0.67860 -0.67860
vn 0.28108 -0.67860 -0.67860
vn 0.28108 -0.67860 -0.67860
vn 0.28108 -0.67860 -0.67860
vn 0.28108 -0.67860 -0.67860
vn 0.28108 -0.67860 -0.67860
vn -0.28108 -0.67860 -0.67860
vn -0.28108 -0.67860 -0.67860
vn -0.28108 -0.67860 -0.67860
vn -0.28108 -0.67860 -0.67860
vn -0.28108 -0.67860 -0.67860
vn -0.28108 -0.67860 -0.67860
vn -0.67860 -0.67860 -0.28108
vn -0.67860 -0.67860 -0.28108
vn -0.67860 -0.67860 -0.28108
vn -0.67860 -0.67860 -0.28108
vn -0.67860 -0.67860 -0.28108
vn -0.67860 -0.67860 -0.28108
vn -0.25734 -0.96042 0.10660
vn -0.25734 -0.96042 0.10660
vn -0.25734 -0.96042 0.10660
vn -0.10660 -0.96042 0.25734
vn -0.10660 -0.96042 0.25734
vn -0.10660 -0.96042 0.25734
vn 0.10660 -0.96042 0.25734
vn 0.10660 -0.96042 0.25734
vn 0.10660 -0.96042 0.25734
vn 0.25734 -0.96042 0.10660
vn 0.25734 -0.96042 0.10660
vn 0.25734 -0.96042 0.10660
vn 0.25734 -0.96042 -0.10660
vn 0.25734 -0.96042 -0.10660
vn 0.25734 -0.96042 -0.10660
vn 0.10660 -0.96042 -0.25734
vn 0.10660 -0.96042 -0.25734
vn 0.10660 -0.96042 -0.25734
vn -0.10660 -0.96042 -0.25734
vn -0.10660 -0.96042 -0.25734
vn -0.10660 -0.96042 -0.25734
vn -0.25734 -0.96042 -0.10660
vn -0.25734 -0.96042 -0.10660
vn -0.25734 -0.96042 -0.10660
usemtl ice_blue
f 385//385 386//386 387//387
f 388//388 389//389 390//390
f 391//391 392//392 393//393
f 394//394 395//395 396//396
f 397//397 398//398 399//399
f 400//400 401//401 402//402
f 403//403 404//404 405//405
f 406//406 407//407 408//408
f 409//409 410//410 411//411
f 412//412 413//413 414//414
f 415//415 416//416 417//417
f 418//418 419//419 420//420
f 421//421 422//422 423//423
f 424//424 425//425 426//426
f 427//427 428//428 429//429
f 430//430 431//431 432//432
f 433//433 434//434 435//435
f 436//436 437//437 438//438
f 439//439 440//440 441//441
f 442//442 443//443 444//444
f 445//445 446//446 447//447
f 448//448 449//449 450//450
f 451//451 452//452 453//453
f 454//454 455//455 456//456
f 457//457 458//458 459//459
f 460//460 461//461 462//462
f 463//463 464//464 465//465
f 466//466 467//467 468//468
f 469//469 470//470 471//471
f 472//472 473//473 474//474
f 475//475 476//476 477//477
f 478//478 479//479 480//480
f 481//481 482//482 483//483
f 484//484 485//485 486//486
f 487//487 488//488 489//489
f 490//490 491//491 492//492
f 493//493 494//494 495//495
f 496//496 497//497 498//498
f 499//499 500//500 501//501
f 502//502 503//503 504//504
f 505//505 506//506 507//507
f 508//508 509//509 510//510
f 511//511 512//512 513//513
f 514//514 515//515 516//516
f 517//517 518//518 519//519
f 520//520 521//521 522//522
f 523//523 524//524 525//525
f 526//526 527//527 528//528
f 529//529 530//530 531//531
f 532//532 533//533 534//534
f 535//535 536//536 537//537
f 538//538 539//539 540//540
f 541//541 542//542 543//543
f 544//544 545//545 546//546
f 547//547 548//548 549//549
f 550//550 551//551 552//552
f 553//553 554//554 555//555
f 556//556 557//557 558//558
f 559//559 560//560 561//561
f 562//562 563//563 564//564
f 565//565 566//566 567//567
f 568//568 569//569 570//570
f 571//571 572//572 573//573
f 574//574 575//575 576//576
f 577//577 578//578 579//579
f 580//580 581//581 582//582
f 583//583 584//584 585//585
f 586//586 587//587 588//588
f 589//589 590//590 591//591
f 592//592 593//593 594//594
f 595//595 596//596 597//597
f 598//598 599//599 600//600
f 601//601 602//602 603//603
f 604//604 605//605 606//606
f 607//607 608//608 609//609
f 610//610 611//611 612//612
f 613//613 614//614 615//615
f 616//616 617//617 618//618
f 619//619 620//620 621//621
f 622//622 623//623 624//624
o hand_R
v 0.09487 -0.61931 0.18975
v 0.06852 -0.62531 0.18975
v 0.07624 -0.62531 0.21024
v 0.09487 -0.61931 0.18975
v 0.07624 -0.62531 0.21024
v 0.09487 -0.62531 0.21873
v 0.09487 -0.61931 0.18975
v 0.09487 -0.62531 0.21873
v 0.11351 -0.62531 0.21024
v 0.09487 -0.61931 0.18975
v 0.11351 -0.62531 0.21024
v 0.12123 -0.62531 0.18975
v 0.09487 -0.61931 0.18975
v 0.12123 -0.62531 0.18975
v 0.11351 -0.62531 0.16925
v 0.09487 -0.61931 0.18975
v 0.11351 -0.62531 0.16925
v 0.09487 -0.62531 0.16076
v 0.09487 -0.61931 0.18975
v 0.09487 -0.62531 0.16076
v 0.07624 -0.62531 0.16925
v 0.09487 -0.61931 0.18975
v 0.07624 -0.62531 0.16925
v 0.06852 -0.62531 0.18975
v 0.07624 -0.62531 0.21024
v 0.06852 -0.62531 0.18975
v 0.06260 -0.64171 0.22525
v 0.06852 -0.62531 0.18975
v 0.04923 -0.64171 0.18975
v 0.06260 -0.64171 0.22525
v 0.09487 -0.62531 0.21873
v 0.07624 -0.62531 0.21024
v 0.09487 -0.64171 0.23996
v 0.07624 -0.62531 0.21024
v 0.06260 -0.64171 0.22525
v 0.09487 -0.64171 0.23996
v 0.11351 -0.62531 0.21024
v 0.09487 -0.62531 0.21873
v 0.12715 -0.64171 0.22525
v 0.09487 -0.62531 0.21873
v 0.09487 -0.64171 0.23996
v 0.12715 -0.64171 0.22525
v 0.12123 -0.62531 0.18975
v 0.11351 -0.62531 0.21024
v 0.14052 -0.64171 0.18975
v 0.11351 -0.62531 0.21024
v 0.12715 -0.64171 0.22525
v 0.14052 -0.64171 0.18975
v 0.11351 -0.62531 0.16925
v 0.12123 -0.62531 0.18975
v 0.12715 -0.64171 0.15424
v 0.12123 -0.62531 0.18975
v 0.14052 -0.64171 0.18975
v 0.12715 -0.64171 0.15424
v 0.09487 -0.62531 0.16076
v 0.11351 -0.62531 0.16925
v 0.09487 -0.64171 0.13953
v 0.11351 -0.62531 0.16925
v 0.12715 -0.64171 0.15424
v 0.09487 -0.64171 0.13953
v 0.07624 -0.62531 0.16925
v 0.09487 -0.62531 0.16076
v 0.06260 -0.64171 0.15424
v 0.09487 -0.62531 0.16076
v 0.09487 -0.64171 0.13953
v 0.06260 -0.64171 0.15424
v 0.06852 -0.62531 0.18975
v 0.07624 -0.62531 0.16925
v 0.04923 -0.64171 0.18975
v 0.07624 -0.62531 0.16925
v 0.06260 -0.64171 0.15424
v 0.04923 -0.64171 0.18975
v 0.06260 -0.64171 0.22525
v 0.04923 -0.64171 0.18975
v 0.05760 -0.66411 0.23074
v 0.04923 -0.64171 0.18975
v 0.04217 -0.66411 0.18975
v 0.05760 -0.66411 0.23074
v 0.09487 -0.64171 0.23996
v 0.06260 -0.64171 0.22525
v 0.09487 -0.66411 0.24772
v 0.06260 -0.64171 0.22525
v 0.05760 -0.66411 0.23074
v 0.09487 -0.66411 0.24772
v 0.12715 -0.64171 0.22525
v 0.09487 -0.64171 0.23996
v 0.13214 -0.66411 0.23074
v 0.09487 -0.64171 0.23996
v 0.09487 -0.66411 0.24772
v 0.13214 -0.66411 0.23074
v 0.14052 -0.64171 0.18975
v 0.12715 -0.64171 0.22525
v 0.14758 -0.66411 0.18975
v 0.12715 -0.64171 0.22525
v 0.13214 -0.66411 0.23074
v 0.14758 -0.66411 0.18975
v 0.12715 -0.64171 0.15424
v 0.14052 -0.64171 0.18975
v 0.13214 -0.66411 0.14875
v 0.14052 -0.64171 0.18975
v 0.14758 -0.66411 0.18975
v 0.13214 -0.66411 0.14875
v 0.09487 -0.64171 0.13953
v 0.12715 -0.64171 0.15424
v 0.09487 -0.66411 0.13177
v 0.12715 -0.64171 0.15424
v 0.13214 -0.66411 0.14875
v 0.09487 -0.66411 0.13177
v 0.06260 -0.64171 0.15424
v 0.09487 -0.64171 0.13953
v 0.05760 -0.66411 0.14875
v 0.09487 -0.64171 0.13953
v 0.09487 -0.66411 0.13177
v 0.05760 -0.66411 0.14875
v 0.04923 -0.64171 0.18975
v 0.06260 -0.64171 0.15424
v 0.04217 -0.66411 0.18975
v 0.06260 -0.64171 0.15424
v 0.05760 -0.66411 0.14875
v 0.04217 -0.66411 0.18975
v 0.05760 -0.66411 0.23074
v 0.04217 -0.66411 0.18975
v 0.06260 -0.68651 0.22525
v 0.04217 -0.66411 0.18975
v 0.04923 -0.68651 0.18975
v 0.06260 -0.68651 0.22525
v 0.09487 -0.66411 0.24772
v 0.05760 -0.66411 0.23074
v 0.09487 -0.68651 0.23996
v 0.05760 -0.66411 0.23074
v 0.06260 -0.68651 0.22525
v 0.09487 -0.68651 0.23996
v 0.13214 -0.66411 0.23074
v 0.09487 -0.66411 0.24772
v 0.12715 -0.68651 0.22525
v 0.09487 -0.66411 0.24772
v 0.09487 -0.68651 0.23996
v 0.12715 -0.68651 0.22525
v 0.14758 -0.66411 0.18975
v 0.13214 -0.66411 0.23074
v 0.14052 -0.68651 0.18975
v 0.13214 -0.66411 0.23074
v 0.12715 -0.68651 0.22525
v 0.14052 -0.68651 0.18975
v 0.13214 -0.66411 0.14875
v 0.14758 -0.66411 0.18975
v 0.12715 -0.68651 0.15424
v 0.14758 -0.66411 0.18975
v 0.14052 -0.68651 0.18975
v 0.12715 -0.68651 0.15424
v 0.09487 -0.66411 0.13177
v 0.13214 -0.66411 0.14875
v 0.09487 -0.68651 0.13953
v 0.13214 -0.66411 0.14875
v 0.12715 -0.68651 0.15424
v 0.09487 -0.68651 0.13953
v 0.05760 -0.66411 0.14875
v 0.09487 -0.66411 0.13177
v 0.06260 -0.68651 0.15424
v 0.09487 -0.66411 0.13177
v 0.09487 -0.68651 0.13953
v 0.06260 -0.68651 0.15424
v 0.04217 -0.66411 0.18975
v 0.05760 -0.66411 0.14875
v 0.04923 -0.68651 0.18975
v 0.05760 -0.66411 0.14875
v 0.06260 -0.68651 0.15424
v 0.04923 -0.68651 0.18975
v 0.06260 -0.68651 0.22525
v 0.04923 -0.68651 0.18975
v 0.07624 -0.70291 0.21024
v 0.04923 -0.68651 0.18975
v 0.06852 -0.70291 0.18975
v 0.07624 -0.70291 0.21024
v 0.09487 -0.68651 0.23996
v 0.06260 -0.68651 0.22525
v 0.09487 -0.70291 0.21873
v 0.06260 -0.68651 0.22525
v 0.07624 -0.70291 0.21024
v 0.09487 -0.70291 0.21873
v 0.12715 -0.68651 0.22525
v 0.09487 -0.68651 0.23996
v 0.11351 -0.70291 0.21024
v 0.09487 -0.68651 0.23996
v 0.09487 -0.70291 0.21873
v 0.11351 -0.70291 0.21024
v 0.14052 -0.68651 0.18975
v 0.12715 -0.68651 0.22525
v 0.12123 -0.70291 0.18975
v 0.12715 -0.68651 0.22525
v 0.11351 -0.70291 0.21024
v 0.12123 -0.70291 0.18975
v 0.12715 -0.68651 0.15424
v 0.14052 -0.68651 0.18975
v 0.11351 -0.70291 0.16925
v 0.14052 -0.68651 0.18975
v 0.12123 -0.70291 0.18975
v 0.11351 -0.70291 0.16925
v 0.09487 -0.68651 0.13953
v 0.12715 -0.68651 0.15424
v 0.09487 -0.70291 0.16076
v 0.12715 -0.68651 0.15424
v 0.11351 -0.70291 0.16925
v 0.09487 -0.70291 0.16076
v 0.06260 -0.68651 0.15424
v 0.09487 -0.68651 0.13953
v 0.07624 -0.70291 0.16925
v 0.09487 -0.68651 0.13953
v 0.09487 -0.70291 0.16076
v 0.07624 -0.70291 0.16925
v 0.04923 -0.68651 0.18975
v 0.06260 -0.68651 0.15424
v 0.06852 -0.70291 0.18975
v 0.06260 -0.68651 0.15424
v 0.07624 -0.70291 0.16925
v 0.06852 -0.70291 0.18975
v 0.07624 -0.70291 0.21024
v 0.06852 -0.70291 0.18975
v 0.09487 -0.70891 0.18975
v 0.09487 -0.70291 0.21873
v 0.07624 -0.70291 0.21024
v 0.09487 -0.70891 0.18975
v 0.11351 -0.70291 0.21024
v 0.09487 -0.70291 0.21873
v 0.09487 -0.70891 0.18975
v 0.12123 -0.70291 0.18975
v 0.11351 -0.70291 0.21024
v 0.09487 -0.70891 0.18975
v 0.11351 -0.70291 0.16925
v 0.12123 -0.70291 0.18975
v 0.09487 -0.70891 0.18975
v 0.09487 -0.70291 0.16076
v 0.11351 -0.70291 0.16925
v 0.09487 -0.70891 0.18975
v 0.07624 -0.70291 0.16925
v 0.09487 -0.70291 0.16076
v 0.09487 -0.70891 0.18975
v 0.06852 -0.70291 0.18975
v 0.07624 -0.70291 0.16925
v 0.09487 -0.70891 0.18975
vn -0.22130 0.97164 0.08333
vn -0.22130 0.97164 0.08333
vn -0.22130 0.97164 0.08333
vn -0.09199 0.97508 0.20189
vn -0.09199 0.97508 0.20189
vn -0.09199 0.97508 0.20189
vn 0.09199 0.97508 0.20189
vn 0.09199 0.97508 0.20189
vn 0.09199 0.97508 0.20189
vn 0.22130 0.97164 0.08333
vn 0.22130 0.97164 0.08333
vn 0.22130 0.97164 0.08333
vn 0.22130 0.97164 -0.08333
vn 0.22130 0.97164 -0.08333
vn 0.22130 0.97164 -0.08333
vn 0.09199 0.97508 -0.20189
vn 0.09199 0.97508 -0.20189
vn 0.09199 0.97508 -0.20189
vn -0.09199 0.97508 -0.20189
vn -0.09199 0.97508 -0.20189
vn -0.09199 0.97508 -0.20189
vn -0.22130 0.97164 -0.08333
vn -0.22130 0.97164 -0.08333
vn -0.22130 0.97164 -0.08333
vn -0.62921 0.74024 0.23693
vn -0.62921 0.74024 0.23693
vn -0.62921 0.74024 0.23693
vn -0.62921 0.74024 0.23693
vn -0.62921 0.74024 0.23693
vn -0.62921 0.74024 0.23693
vn -0.26838 0.76226 0.58902
vn -0.26838 0.76226 0.58902
vn -0.26838 0.76226 0.58902
vn -0.26838 0.76226 0.58902
vn -0.26838 0.76226 0.58902
vn -0.26838 0.76226 0.58902
vn 0.26838 0.76226 0.58902
vn 0.26838 0.76226 0.58902
vn 0.26838 0.76226 0.58902
vn 0.26838 0.76226 0.58902
vn 0.26838 0.76226 0.58902
vn 0.26838 0.76226 0.58902
vn 0.62921 0.74024 0.23693
vn 0.62921 0.74024 0.23693
vn 0.62921 0.74024 0.23693
vn 0.62921 0.74024 0.23693
vn 0.62921 0.74024 0.23693
vn 0.62921 0.74024 0.23693
vn 0.62921 0.74024 -0.23693
vn 0.62921 0.74024 -0.23693
vn 0.62921 0.74024 -0.23693
vn 0.62921 0.74024 -0.23693
vn 0.62921 0.74024 -0.23693
vn 0.62921 0.74024 -0.23693
vn 0.26838 0.76226 -0.58902
vn 0.26838 0.76226 -0.58902
vn 0.26838 0.76226 -0.58902
vn 0.26838 0.76226 -0.58902
vn 0.26838 0.76226 -0.58902
vn 0.26838 0.76226 -0.58902
vn -0.26838 0.76226 -0.58902
vn -0.26838 0.76226 -0.58902
vn -0.26838 0.76226 -0.58902
vn -0.26838 0.76226 -0.58902
vn -0.26838 0.76226 -0.58902
vn -0.26838 0.76226 -0.58902
vn -0.62921 0.74024 -0.23693
vn -0.62921 0.74024 -0.23693
vn -0.62921 0.74024 -0.23693
vn -0.62921 0.74024 -0.23693
vn -0.62921 0.74024 -0.23693
vn -0.62921 0.74024 -0.23693
vn -0.89760 0.28296 0.33800
vn -0.89760 0.28296 0.33800
vn -0.89760 0.28296 0.33800
vn -0.89760 0.28296 0.33800
vn -0.89760 0.28296 0.33800
vn -0.89760 0.28296 0.33800
vn -0.39541 0.30092 0.86781
vn -0.39541 0.30092 0.86781
vn -0.39541 0.30092 0.86781
vn -0.39541 0.30092 0.86781
vn -0.39541 0.30092 0.86781
vn -0.39541 0.30092 0.86781
vn 0.39541 0.30092 0.86781
vn 0.39541 0.30092 0.86781
vn 0.39541 0.30092 0.86781
vn 0.39541 0.30092 0.86781
vn 0.39541 0.30092 0.86781
vn 0.39541 0.30092 0.86781
vn 0.89760 0.28296 0.33800
vn 0.89760 0.28296 0.33800
vn 0.89760 0.28296 0.33800
vn 0.89760 0.28296 0.33800
vn 0.89760 0.28296 0.33800
vn 0.89760 0.28296 0.33800
vn 0.89760 0.28296 -0.33800
vn 0.89760 0.28296 -0.33800
vn 0.89760 0.28296 -0.33800
vn 0.89760 0.28296 -0.33800
vn 0.89760 0.28296 -0.33800
vn 0.89760 0.28296 -0.33800
vn 0.39541 0.30092 -0.86781
vn 0.39541 0.30092 -0.86781
vn 0.39541 0.30092 -0.86781
vn 0.39541 0.30092 -0.86781
vn 0.39541 0.30092 -0.86781
vn 0.39541 0.30092 -0.86781
vn -0.39541 0.30092 -0.86781
vn -0.39541 0.30092 -0.86781
vn -0.39541 0.30092 -0.86781
vn -0.39541 0.30092 -0.86781
vn -0.39541 0.30092 -0.86781
vn -0.39541 0.30092 -0.86781
vn -0.89760 0.28296 -0.33800
vn -0.89760 0.28296 -0.33800
vn -0.89760 0.28296 -0.33800
vn -0.89760 0.28296 -0.33800
vn -0.89760 0.28296 -0.33800
vn -0.89760 0.28296 -0.33800
vn -0.89760 -0.28296 0.33800
vn -0.89760 -0.28296 0.33800
vn -0.89760 -0.28296 0.33800
vn -0.89760 -0.28296 0.33800
vn -0.89760 -0.28296 0.33800
vn -0.89760 -0.28296 0.33800
vn -0.39541 -0.30092 0.86781
vn -0.39541 -0.30092 0.86781
vn -0.39541 -0.30092 0.86781
vn -0.39541 -0.30092 0.86781
vn -0.39541 -0.30092 0.86781
vn -0.39541 -0.30092 0.86781
vn 0.39541 -0.30092 0.86781
vn 0.39541 -0.30092 0.86781
vn 0.39541 -0.30092 0.86781
vn 0.39541 -0.30092 0.86781
vn 0.39541 -0.30092 0.86781
vn 0.39541 -0.30092 0.86781
vn 0.89760 -0.28296 0.33800
vn 0.89760 -0.28296 0.33800
vn 0.89760 -0.28296 0.33800
vn 0.89760 -0.28296 0.33800
vn 0.89760 -0.28296 0.33800
vn 0.89760 -0.28296 0.33800
vn 0.89760 -0.28296 -0.33800
vn 0.89760 -0.28296 -0.33800
vn 0.89760 -0.28296 -0.33800
vn 0.89760 -0.28296 -0.33800
vn 0.89760 -0.28296 -0.33800
vn 0.89760 -0.28296 -0.33800
vn 0.39541 -0.30092 -0.86781
vn 0.39541 -0.30092 -0.86781
vn 0.39541 -0.30092 -0.86781
vn 0.39541 -0.30092 -0.86781
vn 0.39541 -0.30092 -0.86781
vn 0.39541 -0.30092 -0.86781
vn -0.39541 -0.30092 -0.86781
vn -0.39541 -0.30092 -0.86781
vn -0.39541 -0.30092 -0.86781
vn -0.39541 -0.30092 -0.86781
vn -0.39541 -0.30092 -0.86781
vn -0.39541 -0.30092 -0.86781
vn -0.89760 -0.28296 -0.33800
vn -0.89760 -0.28296 -0.33800
vn -0.89760 -0.28296 -0.33800
vn -0.89760 -0.28296 -0.33800
vn -0.89760 -0.28296 -0.33800
vn -0.89760 -0.28296 -0.33800
vn -0.62921 -0.74024 0.23693
vn -0.62921 -0.74024 0.23693
vn -0.62921 -0.74024 0.23693
vn -0.62921 -0.74024 0.23693
vn -0.62921 -0.74024 0.23693
vn -0.62921 -0.74024 0.23693
vn -0.26838 -0.76226 0.58902
vn -0.26838 -0.76226 0.58902
vn -0.26838 -0.76226 0.58902
vn -0.26838 -0.76226 0.58902
vn -0.26838 -0.76226 0.58902
vn -0.26838 -0.76226 0.58902
vn 0.26838 -0.76226 0.58902
vn 0.26838 -0.76226 0.58902
vn 0.26838 -0.76226 0.58902
vn 0.26838 -0.76226 0.58902
vn 0.26838 -0.76226 0.58902
vn 0.26838 -0.76226 0.58902
vn 0.62921 -0.74024 0.23693
vn 0.62921 -0.74024 0.23693
vn 0.62921 -0.74024 0.23693
vn 0.62921 -0.74024 0.23693
vn 0.62921 -0.74024 0.23693
vn 0.62921 -0.74024 0.23693
vn 0.62921 -0.74024 -0.23693
vn 0.62921 -0.74024 -0.23693
vn 0.62921 -0.74024 -0.23693
vn 0.62921 -0.74024 -0.23693
vn 0.62921 -0.74024 -0.23693
vn 0.62921 -0.74024 -0.23693
vn 0.26838 -0.76226 -0.58902
vn 0.26838 -0.76226 -0.58902
vn 0.26838 -0.76226 -0.58902
vn 0.26838 -0.76226 -0.58902
vn 0.26838 -0.76226 -0.58902
vn 0.26838 -0.76226 -0.58902
vn -0.26838 -0.76226 -0.58902
vn -0.26838 -0.76226 -0.58902
vn -0.26838 -0.76226 -0.58902
vn -0.26838 -0.76226 -0.58902
vn -0.26838 -0.76226 -0.58902
vn -0.26838 -0.76226 -0.58902
vn -0.62921 -0.74024 -0.23693
vn -0.62921 -0.74024 -0.23693
vn -0.62921 -0.74024 -0.23693
vn -0.62921 -0.74024 -0.23693
vn -0.62921 -0.74024 -0.23693
vn -0.62921 -0.74024 -0.23693
vn -0.22130 -0.97164 0.08333
vn -0.22130 -0.97164 0.08333
vn -0.22130 -0.97164 0.08333
vn -0.09199 -0.97508 0.20189
vn -0.09199 -0.97508 0.20189
vn -0.09199 -0.97508 0.20189
vn 0.09199 -0.97508 0.20189
vn 0.09199 -0.97508 0.20189
vn 0.09199 -0.97508 0.20189
vn 0.22130 -0.97164 0.08333
vn 0.22130 -0.97164 0.08333
vn 0.22130 -0.97164 0.08333
vn 0.22130 -0.97164 -0.08333
vn 0.22130 -0.97164 -0.08333
vn 0.22130 -0.97164 -0.08333
vn 0.09199 -0.97508 -0.20189
vn 0.09199 -0.97508 -0.20189
vn 0.09199 -0.97508 -0.20189
vn -0.09199 -0.97508 -0.20189
vn -0.09199 -0.97508 -0.20189
vn -0.09199 -0.97508 -0.20189
vn -0.22130 -0.97164 -0.08333
vn -0.22130 -0.97164 -0.08333
vn -0.22130 -0.97164 -0.08333
usemtl bone_white
f 625//625 626//626 627//627
f 628//628 629//629 630//630
f 631//631 632//632 633//633
f 634//634 635//635 636//636
f 637//637 638//638 639//639
f 640//640 641//641 642//642
f 643//643 644//644 645//645
f 646//646 647//647 648//648
f 649//649 650//650 651//651
f 652//652 653//653 654//654
f 655//655 656//656 657//657
f 658//658 659//659 660//660
f 661//661 662//662 663//663
f 664//664 665//665 666//666
f 667//667 668//668 669//669
f 670//670 671//671 672//672
f 673//673 674//674 675//675
f 676//676 677//677 678//678
f 679//679 680//680 681//681
f 682//682 683//683 684//684
f 685//685 686//686 687//687
f 688//688 689//689 690//690
f 691//691 692//692 693//693
f 694//694 695//695 696//696
f 697//697 698//698 699//699
f 700//700 701//701 702//702
f 703//703 704//704 705//705
f 706//706 707//707 708//708
f 709//709 710//710 711//711
f 712//712 713//713 714//714
f 715//715 716//716 717//717
f 718//718 719//719 720//720
f 721//721 722//722 723//723
f 724//724 725//725 726//726
f 727//727 728//728 729//729
f 730//730 731//731 732//732
f 733//733 734//734 735//735
f 736//736 737//737 738//738
f 739//739 740//740 741//741
f 742//742 743//743 744//744
f 745//745 746//746 747//747
f 748//748 749//749 750//750
f 751//751 752//752 753//753
f 754//754 755//755 756//756
f 757//757 758//758 759//759
f 760//760 761//761 762//762
f 763//763 764//764 765//765
f 766//766 767//767 768//768
f 769//769 770//770 771//771
f 772//772 773//773 774//774
f 775//775 776//776 777//777
f 778//778 779//779 780//780
f 781//781 782//782 783//783
f 784//784 785//785 786//786
f 787//787 788//788 789//789
f 790//790 791//791 792//792
f 793//793 794//794 795//795
f 796//796 797//797 798//798
f 799//799 800//800 801//801
f 802//802 803//803 804//804
f 805//805 806//806 807//807
f 808//808 809//809 810//810
f 811//811 812//812 813//813
f 814//814 815//815 816//816
f 817//817 818//818 819//819
f 820//820 821//821 822//822
f 823//823 824//824 825//825
f 826//826 827//827 828//828
f 829//829 830//830 831//831
f 832//832 833//833 834//834
f 835//835 836//836 837//837
f 838//838 839//839 840//840
f 841//841 842//842 843//843
f 844//844 845//845 846//846
f 847//847 848//848 849//849
f 850//850 851//851 852//852
f 853//853 854//854 855//855
f 856//856 857//857 858//858
f 859//859 860//860 861//861
f 862//862 863//863 864//864
o claw_R_0
v 0.08711 -0.68261 0.20758
v 0.08842 -0.68084 0.21215
v 0.09221 -0.69082 0.20584
v 0.09513 -0.68688 0.21601
v 0.09221 -0.69082 0.20584
v 0.08842 -0.68084 0.21215
v 0.09221 -0.69082 0.20584
v 0.09513 -0.68688 0.21601
v 0.07902 -0.72447 0.22523
v 0.08074 -0.72215 0.23122
v 0.07902 -0.72447 0.22523
v 0.09513 -0.68688 0.21601
v 0.07902 -0.72447 0.22523
v 0.08074 -0.72215 0.23122
v 0.06583 -0.75813 0.24462
v 0.06635 -0.75742 0.24643
v 0.06583 -0.75813 0.24462
v 0.08074 -0.72215 0.23122
v 0.06583 -0.75813 0.24462
v 0.06635 -0.75742 0.24643
v 0.06426 -0.76284 0.24711
v 0.06468 -0.76227 0.24857
v 0.06426 -0.76284 0.24711
v 0.06635 -0.75742 0.24643
v 0.08842 -0.68084 0.21215
v 0.08596 -0.67853 0.21596
v 0.09513 -0.68688 0.21601
v 0.08967 -0.68175 0.22446
v 0.09513 -0.68688 0.21601
v 0.08596 -0.67853 0.21596
v 0.09513 -0.68688 0.21601
v 0.08967 -0.68175 0.22446
v 0.08074 -0.72215 0.23122
v 0.07752 -0.71913 0.23620
v 0.08074 -0.72215 0.23122
v 0.08967 -0.68175 0.22446
v 0.08074 -0.72215 0.23122
v 0.07752 -0.71913 0.23620
v 0.06635 -0.75742 0.24643
v 0.06538 -0.75651 0.24794
v 0.06635 -0.75742 0.24643
v 0.07752 -0.71913 0.23620
v 0.06635 -0.75742 0.24643
v 0.06538 -0.75651 0.24794
v 0.06468 -0.76227 0.24857
v 0.06390 -0.76154 0.24977
v 0.06468 -0.76227 0.24857
v 0.06538 -0.75651 0.24794
v 0.08596 -0.67853 0.21596
v 0.08117 -0.67703 0.21675
v 0.08967 -0.68175 0.22446
v 0.07902 -0.67843 0.22624
v 0.08967 -0.68175 0.22446
v 0.08117 -0.67703 0.21675
v 0.08967 -0.68175 0.22446
v 0.07902 -0.67843 0.22624
v 0.07752 -0.71913 0.23620
v 0.07125 -0.71717 0.23725
v 0.07752 -0.71913 0.23620
v 0.07902 -0.67843 0.22624
v 0.07752 -0.71913 0.23620
v 0.07125 -0.71717 0.23725
v 0.06538 -0.75651 0.24794
v 0.06347 -0.75591 0.24826
v 0.06538 -0.75651 0.24794
v 0.07125 -0.71717 0.23725
v 0.06538 -0.75651 0.24794
v 0.06347 -0.75591 0.24826
v 0.06390 -0.76154 0.24977
v 0.06238 -0.76107 0.25003
v 0.06390 -0.76154 0.24977
v 0.06347 -0.75591 0.24826
v 0.08117 -0.67703 0.21675
v 0.07685 -0.67723 0.21408
v 0.07902 -0.67843 0.22624
v 0.06942 -0.67887 0.22030
v 0.07902 -0.67843 0.22624
v 0.07685 -0.67723 0.21408
v 0.07902 -0.67843 0.22624
v 0.06942 -0.67887 0.22030
v 0.07125 -0.71717 0.23725
v 0.06559 -0.71743 0.23375
v 0.07125 -0.71717 0.23725
v 0.06942 -0.67887 0.22030
v 0.07125 -0.71717 0.23725
v 0.06559 -0.71743 0.23375
v 0.06347 -0.75591 0.24826
v 0.06176 -0.75599 0.24720
v 0.06347 -0.75591 0.24826
v 0.06559 -0.71743 0.23375
v 0.06347 -0.75591 0.24826
v 0.06176 -0.75599 0.24720
v 0.06238 -0.76107 0.25003
v 0.06101 -0.76113 0.24918
v 0.06238 -0.76107 0.25003
v 0.06176 -0.75599 0.24720
v 0.07685 -0.67723 0.21408
v 0.07553 -0.67900 0.20950
v 0.06942 -0.67887 0.22030
v 0.06650 -0.68281 0.21012
v 0.06942 -0.67887 0.22030
v 0.07553 -0.67900 0.20950
v 0.06942 -0.67887 0.22030
v 0.06650 -0.68281 0.21012
v 0.06559 -0.71743 0.23375
v 0.06387 -0.71975 0.22775
v 0.06559 -0.71743 0.23375
v 0.06650 -0.68281 0.21012
v 0.06559 -0.71743 0.23375
v 0.06387 -0.71975 0.22775
v 0.06176 -0.75599 0.24720
v 0.06124 -0.75670 0.24538
v 0.06176 -0.75599 0.24720
v 0.06387 -0.71975 0.22775
v 0.06176 -0.75599 0.24720
v 0.06124 -0.75670 0.24538
v 0.06101 -0.76113 0.24918
v 0.06059 -0.76169 0.24772
v 0.06101 -0.76113 0.24918
v 0.06124 -0.75670 0.24538
v 0.07553 -0.67900 0.20950
v 0.07799 -0.68131 0.20570
v 0.06650 -0.68281 0.21012
v 0.07197 -0.68794 0.20167
v 0.06650 -0.68281 0.21012
v 0.07799 -0.68131 0.20570
v 0.06650 -0.68281 0.21012
v 0.07197 -0.68794 0.20167
v 0.06387 -0.71975 0.22775
v 0.06709 -0.72278 0.22277
v 0.06387 -0.71975 0.22775
v 0.07197 -0.68794 0.20167
v 0.06387 -0.71975 0.22775
v 0.06709 -0.72278 0.22277
v 0.06124 -0.75670 0.24538
v 0.06221 -0.75761 0.24387
v 0.06124 -0.75670 0.24538
v 0.06709 -0.72278 0.22277
v 0.06124 -0.75670 0.24538
v 0.06221 -0.75761 0.24387
v 0.06059 -0.76169 0.24772
v 0.06137 -0.76242 0.24652
v 0.06059 -0.76169 0.24772
v 0.06221 -0.75761 0.24387
v 0.07799 -0.68131 0.20570
v 0.08279 -0.68281 0.20490
v 0.07197 -0.68794 0.20167
v 0.08262 -0.69126 0.19990
v 0.07197 -0.68794 0.20167
v 0.08279 -0.68281 0.20490
v 0.07197 -0.68794 0.20167
v 0.08262 -0.69126 0.19990
v 0.06709 -0.72278 0.22277
v 0.07337 -0.72473 0.22173
v 0.06709 -0.72278 0.22277
v 0.08262 -0.69126 0.19990
v 0.06709 -0.72278 0.22277
v 0.07337 -0.72473 0.22173
v 0.06221 -0.75761 0.24387
v 0.06412 -0.75820 0.24355
v 0.06221 -0.75761 0.24387
v 0.07337 -0.72473 0.22173
v 0.06221 -0.75761 0.24387
v 0.06412 -0.75820 0.24355
v 0.06137 -0.76242 0.24652
v 0.06289 -0.76290 0.24626
v 0.06137 -0.76242 0.24652
v 0.06412 -0.75820 0.24355
v 0.08279 -0.68281 0.20490
v 0.08711 -0.68261 0.20758
v 0.08262 -0.69126 0.19990
v 0.09221 -0.69082 0.20584
v 0.08262 -0.69126 0.19990
v 0.08711 -0.68261 0.20758
v 0.08262 -0.69126 0.19990
v 0.09221 -0.69082 0.20584
v 0.07337 -0.72473 0.22173
v 0.07902 -0.72447 0.22523
v 0.07337 -0.72473 0.22173
v 0.09221 -0.69082 0.20584
v 0.07337 -0.72473 0.22173
v 0.07902 -0.72447 0.22523
v 0.06412 -0.75820 0.24355
v 0.06583 -0.75813 0.24462
v 0.06412 -0.75820 0.24355
v 0.07902 -0.72447 0.22523
v 0.06412 -0.75820 0.24355
v 0.06583 -0.75813 0.24462
v 0.06289 -0.76290 0.24626
v 0.06426 -0.76284 0.24711
v 0.06289 -0.76290 0.24626
v 0.06583 -0.75813 0.24462
vn 0.72859 0.54191 -0.41891
vn 0.72859 0.54191 -0.41891
vn 0.72859 0.54191 -0.41891
vn 0.72859 0.54191 -0.41891
vn 0.72859 0.54191 -0.41891
vn 0.72859 0.54191 -0.41891
vn 0.90539 -0.41260 -0.10018
vn 0.90539 -0.41260 -0.10018
vn 0.90539 -0.41260 -0.10018
vn 0.90539 -0.41260 -0.10018
vn 0.90539 -0.41260 -0.10018
vn 0.90539 -0.41260 -0.10018
vn 0.90539 -0.41260 -0.10018
vn 0.90539 -0.41260 -0.10018
vn 0.90539 -0.41260 -0.10018
vn 0.90539 -0.41260 -0.10018
vn 0.90539 -0.41260 -0.10018
vn 0.90539 -0.41260 -0.10018
vn 0.92091 -0.37056 -0.12090
vn 0.92091 -0.37056 -0.12090
vn 0.92091 -0.37056 -0.12090
vn 0.92091 -0.37056 -0.12090
vn 0.92091 -0.37056 -0.12090
vn 0.92091 -0.37056 -0.12090
vn 0.67319 0.73935 -0.01346
vn 0.67319 0.73935 -0.01346
vn 0.67319 0.73935 -0.01346
vn 0.67319 0.73935 -0.01346
vn 0.67319 0.73935 -0.01346
vn 0.67319 0.73935 -0.01346
vn 0.81294 -0.08314 0.57639
vn 0.81294 -0.08314 0.57639
vn 0.81294 -0.08314 0.57639
vn 0.81294 -0.08314 0.57639
vn 0.81294 -0.08314 0.57639
vn 0.81294 -0.08314 0.57639
vn 0.81294 -0.08314 0.57639
vn 0.81294 -0.08314 0.57639
vn 0.81294 -0.08314 0.57639
vn 0.81294 -0.08314 0.57639
vn 0.81294 -0.08314 0.57639
vn 0.81294 -0.08314 0.57639
vn 0.82794 -0.03926 0.55945
vn 0.82794 -0.03926 0.55945
vn 0.82794 -0.03926 0.55945
vn 0.82794 -0.03926 0.55945
vn 0.82794 -0.03926 0.55945
vn 0.82794 -0.03926 0.55945
vn 0.32233 0.92325 0.20908
vn 0.32233 0.92325 0.20908
vn 0.32233 0.92325 0.20908
vn 0.32233 0.92325 0.20908
vn 0.32233 0.92325 0.20908
vn 0.32233 0.92325 0.20908
vn 0.22747 0.22373 0.94774
vn 0.22747 0.22373 0.94774
vn 0.22747 0.22373 0.94774
vn 0.22747 0.22373 0.94774
vn 0.22747 0.22373 0.94774
vn 0.22747 0.22373 0.94774
vn 0.22747 0.22373 0.94774
vn 0.22747 0.22373 0.94774
vn 0.22747 0.22373 0.94774
vn 0.22747 0.22373 0.94774
vn 0.22747 0.22373 0.94774
vn 0.22747 0.22373 0.94774
vn 0.23920 0.26932 0.93287
vn 0.23920 0.26932 0.93287
vn 0.23920 0.26932 0.93287
vn 0.23920 0.26932 0.93287
vn 0.23920 0.26932 0.93287
vn 0.23920 0.26932 0.93287
vn -0.11845 0.98588 0.11835
vn -0.11845 0.98588 0.11835
vn -0.11845 0.98588 0.11835
vn -0.11845 0.98588 0.11835
vn -0.11845 0.98588 0.11835
vn -0.11845 0.98588 0.11835
vn -0.50805 0.32824 0.79633
vn -0.50805 0.32824 0.79633
vn -0.50805 0.32824 0.79633
vn -0.50805 0.32824 0.79633
vn -0.50805 0.32824 0.79633
vn -0.50805 0.32824 0.79633
vn -0.50805 0.32824 0.79633
vn -0.50805 0.32824 0.79633
vn -0.50805 0.32824 0.79633
vn -0.50805 0.32824 0.79633
vn -0.50805 0.32824 0.79633
vn -0.50805 0.32824 0.79633
vn -0.50044 0.37442 0.78062
vn -0.50044 0.37442 0.78062
vn -0.50044 0.37442 0.78062
vn -0.50044 0.37442 0.78062
vn -0.50044 0.37442 0.78062
vn -0.50044 0.37442 0.78062
vn -0.39095 0.89056 -0.23250
vn -0.39095 0.89056 -0.23250
vn -0.39095 0.89056 -0.23250
vn -0.39095 0.89056 -0.23250
vn -0.39095 0.89056 -0.23250
vn -0.39095 0.89056 -0.23250
vn -0.96276 0.16919 0.21087
vn -0.96276 0.16919 0.21087
vn -0.96276 0.16919 0.21087
vn -0.96276 0.16919 0.21087
vn -0.96276 0.16919 0.21087
vn -0.96276 0.16919 0.21087
vn -0.96276 0.16919 0.21087
vn -0.96276 0.16919 0.21087
vn -0.96276 0.16919 0.21087
vn -0.96276 0.16919 0.21087
vn -0.96276 0.16919 0.21087
vn -0.96276 0.16919 0.21087
vn -0.95770 0.21448 0.19188
vn -0.95770 0.21448 0.19188
vn -0.95770 0.21448 0.19188
vn -0.95770 0.21448 0.19188
vn -0.95770 0.21448 0.19188
vn -0.95770 0.21448 0.19188
vn -0.33554 0.69313 -0.63795
vn -0.33554 0.69313 -0.63795
vn -0.33554 0.69313 -0.63795
vn -0.33554 0.69313 -0.63795
vn -0.33554 0.69313 -0.63795
vn -0.33554 0.69313 -0.63795
vn -0.87031 -0.16027 -0.46570
vn -0.87031 -0.16027 -0.46570
vn -0.87031 -0.16027 -0.46570
vn -0.87031 -0.16027 -0.46570
vn -0.87031 -0.16027 -0.46570
vn -0.87031 -0.16027 -0.46570
vn -0.87031 -0.16027 -0.46570
vn -0.87031 -0.16027 -0.46570
vn -0.87031 -0.16027 -0.46570
vn -0.87031 -0.16027 -0.46570
vn -0.87031 -0.16027 -0.46570
vn -0.87031 -0.16027 -0.46570
vn -0.86473 -0.11682 -0.48847
vn -0.86473 -0.11682 -0.48847
vn -0.86473 -0.11682 -0.48847
vn -0.86473 -0.11682 -0.48847
vn -0.86473 -0.11682 -0.48847
vn -0.86473 -0.11682 -0.48847
vn 0.01531 0.50923 -0.86049
vn 0.01531 0.50923 -0.86049
vn 0.01531 0.50923 -0.86049
vn 0.01531 0.50923 -0.86049
vn 0.01531 0.50923 -0.86049
vn 0.01531 0.50923 -0.86049
vn -0.28485 -0.46714 -0.83705
vn -0.28485 -0.46714 -0.83705
vn -0.28485 -0.46714 -0.83705
vn -0.28485 -0.46714 -0.83705
vn -0.28485 -0.46714 -0.83705
vn -0.28485 -0.46714 -0.83705
vn -0.28485 -0.46714 -0.83705
vn -0.28485 -0.46714 -0.83705
vn -0.28485 -0.46714 -0.83705
vn -0.28485 -0.46714 -0.83705
vn -0.28485 -0.46714 -0.83705
vn -0.28485 -0.46714 -0.83705
vn -0.27599 -0.42541 -0.86189
vn -0.27599 -0.42541 -0.86189
vn -0.27599 -0.42541 -0.86189
vn -0.27599 -0.42541 -0.86189
vn -0.27599 -0.42541 -0.86189
vn -0.27599 -0.42541 -0.86189
vn 0.45609 0.44659 -0.76976
vn 0.45609 0.44659 -0.76976
vn 0.45609 0.44659 -0.76976
vn 0.45609 0.44659 -0.76976
vn 0.45609 0.44659 -0.76976
vn 0.45609 0.44659 -0.76976
vn 0.45067 -0.57165 -0.68564
vn 0.45067 -0.57165 -0.68564
vn 0.45067 -0.57165 -0.68564
vn 0.45067 -0.57165 -0.68564
vn 0.45067 -0.57165 -0.68564
vn 0.45067 -0.57165 -0.68564
vn 0.45067 -0.57165 -0.68564
vn 0.45067 -0.57165 -0.68564
vn 0.45067 -0.57165 -0.68564
vn 0.45067 -0.57165 -0.68564
vn 0.45067 -0.57165 -0.68564
vn 0.45067 -0.57165 -0.68564
vn 0.46365 -0.53051 -0.70964
vn 0.46365 -0.53051 -0.70964
vn 0.46365 -0.53051 -0.70964
vn 0.46365 -0.53051 -0.70964
vn 0.46365 -0.53051 -0.70964
vn 0.46365 -0.53051 -0.70964
usemtl ice_blue
f 865//865 866//866 867//867
f 868//868 869//869 870//870
f 871//871 872//872 873//873
f 874//874 875//875 876//876
f 877//877 878//878 879//879
f 880//880 881//881 882//882
f 883//883 884//884 885//885
f 886//886 887//887 888//888
f 889//889 890//890 891//891
f 892//892 893//893 894//894
f 895//895 896//896 897//897
f 898//898 899//899 900//900
f 901//901 902//902 903//903
f 904//904 905//905 906//906
f 907//907 908//908 909//909
f 910//910 911//911 912//912
f 913//913 914//914 915//915
f 916//916 917//917 918//918
f 919//919 920//920 921//921
f 922//922 923//923 924//924
f 925//925 926//926 927//927
f 928//928 929//929 930//930
f 931//931 932//932 933//933
f 934//934 935//935 936//936
f 937//937 938//938 939//939
f 940//940 941//941 942//942
f 943//943 944//944 945//945
f 946//946 947//947 948//948
f 949//949 950//950 951//951
f 952//952 953//953 954//954
f 955//955 956//956 957//957
f 958//958 959//959 960//960
f 961//961 962//962 963//963
f 964//964 965//965 966//966
f 967//967 968//968 969//969
f 970//970 971//971 972//972
f 973//973 974//974 975//975
f 976//976 977//977 978//978
f 979//979 980//980 981//981
f 982//982 983//983 984//984
f 985//985 986//986 987//987
f 988//988 989//989 990//990
f 991//991 992//992 993//993
f 994//994 995//995 996//996
f 997//997 998//998 999//999
f 1000//1000 1001//1001 1002//1002
f 1003//1003 1004//1004 1005//1005
f 1006//1006 1007//1007 1008//1008
f 1009//1009 1010//1010 1011//1011
f 1012//1012 1013//1013 1014//1014
f 1015//1015 1016//1016 1017//1017
f 1018//1018 1019//1019 1020//1020
f 1021//1021 1022//1022 1023//1023
f 1024//1024 1025//1025 1026//1026
f 1027//1027 1028//1028 1029//1029
f 1030//1030 1031//1031 1032//1032
f 1033//1033 1034//1034 1035//1035
f 1036//1036 1037//1037 1038//1038
f 1039//1039 1040//1040 1041//1041
f 1042//1042 1043//1043 1044//1044
f 1045//1045 1046//1046 1047//1047
f 1048//1048 1049//1049 1050//1050
f 1051//1051 1052//1052 1053//1053
f 1054//1054 1055//1055 1056//1056
o claw_R_1
v 0.09487 -0.68278 0.20483
v 0.09957 -0.68194 0.20659
v 0.09487 -0.69120 0.19986
v 0.10531 -0.68934 0.20376
v 0.09487 -0.69120 0.19986
v 0.09957 -0.68194 0.20659
v 0.09487 -0.69120 0.19986
v 0.10531 -0.68934 0.20376
v 0.09487 -0.72470 0.22255
v 0.10102 -0.72360 0.22485
v 0.09487 -0.72470 0.22255
v 0.10531 -0.68934 0.20376
v 0.09487 -0.72470 0.22255
v 0.10102 -0.72360 0.22485
v 0.09487 -0.75819 0.24525
v 0.09674 -0.75786 0.24595
v 0.09487 -0.75819 0.24525
v 0.10102 -0.72360 0.22485
v 0.09487 -0.75819 0.24525
v 0.09674 -0.75786 0.24595
v 0.09487 -0.76289 0.24807
v 0.09636 -0.76262 0.24863
v 0.09487 -0.76289 0.24807
v 0.09674 -0.75786 0.24595
v 0.09957 -0.68194 0.20659
v 0.10151 -0.67992 0.21083
v 0.10531 -0.68934 0.20376
v 0.10963 -0.68484 0.21318
v 0.10531 -0.68934 0.20376
v 0.10151 -0.67992 0.21083
v 0.10531 -0.68934 0.20376
v 0.10963 -0.68484 0.21318
v 0.10102 -0.72360 0.22485
v 0.10357 -0.72095 0.23040
v 0.10102 -0.72360 0.22485
v 0.10963 -0.68484 0.21318
v 0.10102 -0.72360 0.22485
v 0.10357 -0.72095 0.23040
v 0.09674 -0.75786 0.24595
v 0.09751 -0.75706 0.24763
v 0.09674 -0.75786 0.24595
v 0.10357 -0.72095 0.23040
v 0.09674 -0.75786 0.24595
v 0.09751 -0.75706 0.24763
v 0.09636 -0.76262 0.24863
v 0.09698 -0.76198 0.24998
v 0.09636 -0.76262 0.24863
v 0.09751 -0.75706 0.24763
v 0.10151 -0.67992 0.21083
v 0.09957 -0.67790 0.21507
v 0.10963 -0.68484 0.21318
v 0.10531 -0.68035 0.22260
v 0.10963 -0.68484 0.21318
v 0.09957 -0.67790 0.21507
v 0.10963 -0.68484 0.21318
v 0.10531 -0.68035 0.22260
v 0.10357 -0.72095 0.23040
v 0.10102 -0.71830 0.23595
v 0.10357 -0.72095 0.23040
v 0.10531 -0.68035 0.22260
v 0.10357 -0.72095 0.23040
v 0.10102 -0.71830 0.23595
v 0.09751 -0.75706 0.24763
v 0.09674 -0.75626 0.24931
v 0.09751 -0.75706 0.24763
v 0.10102 -0.71830 0.23595
v 0.09751 -0.75706 0.24763
v 0.09674 -0.75626 0.24931
v 0.09698 -0.76198 0.24998
v 0.09636 -0.76134 0.25132
v 0.09698 -0.76198 0.24998
v 0.09674 -0.75626 0.24931
v 0.09957 -0.67790 0.21507
v 0.09487 -0.67706 0.21682
v 0.10531 -0.68035 0.22260
v 0.09487 -0.67849 0.22650
v 0.10531 -0.68035 0.22260
v 0.09487 -0.67706 0.21682
v 0.10531 -0.68035 0.22260
v 0.09487 -0.67849 0.22650
v 0.10102 -0.71830 0.23595
v 0.09487 -0.71721 0.23825
v 0.10102 -0.71830 0.23595
v 0.09487 -0.67849 0.22650
v 0.10102 -0.71830 0.23595
v 0.09487 -0.71721 0.23825
v 0.09674 -0.75626 0.24931
v 0.09487 -0.75592 0.25001
v 0.09674 -0.75626 0.24931
v 0.09487 -0.71721 0.23825
v 0.09674 -0.75626 0.24931
v 0.09487 -0.75592 0.25001
v 0.09636 -0.76134 0.25132
v 0.09487 -0.76107 0.25188
v 0.09636 -0.76134 0.25132
v 0.09487 -0.75592 0.25001
v 0.09487 -0.67706 0.21682
v 0.09018 -0.67790 0.21507
v 0.09487 -0.67849 0.22650
v 0.08444 -0.68035 0.22260
v 0.09487 -0.67849 0.22650
v 0.09018 -0.67790 0.21507
v 0.09487 -0.67849 0.22650
v 0.08444 -0.68035 0.22260
v 0.09487 -0.71721 0.23825
v 0.08872 -0.71830 0.23595
v 0.09487 -0.71721 0.23825
v 0.08444 -0.68035 0.22260
v 0.09487 -0.71721 0.23825
v 0.08872 -0.71830 0.23595
v 0.09487 -0.75592 0.25001
v 0.09301 -0.75626 0.24931
v 0.09487 -0.75592 0.25001
v 0.08872 -0.71830 0.23595
v 0.09487 -0.75592 0.25001
v 0.09301 -0.75626 0.24931
v 0.09487 -0.76107 0.25188
v 0.09338 -0.76134 0.25132
v 0.09487 -0.76107 0.25188
v 0.09301 -0.75626 0.24931
v 0.09018 -0.67790 0.21507
v 0.08823 -0.67992 0.21083
v 0.08444 -0.68035 0.22260
v 0.08011 -0.68484 0.21318
v 0.08444 -0.68035 0.22260
v 0.08823 -0.67992 0.21083
v 0.08444 -0.68035 0.22260
v 0.08011 -0.68484 0.21318
v 0.08872 -0.71830 0.23595
v 0.08618 -0.72095 0.23040
v 0.08872 -0.71830 0.23595
v 0.08011 -0.68484 0.21318
v 0.08872 -0.71830 0.23595
v 0.08618 -0.72095 0.23040
v 0.09301 -0.75626 0.24931
v 0.09224 -0.75706 0.24763
v 0.09301 -0.75626 0.24931
v 0.08618 -0.72095 0.23040
v 0.09301 -0.75626 0.24931
v 0.09224 -0.75706 0.24763
v 0.09338 -0.76134 0.25132
v 0.09276 -0.76198 0.24998
v 0.09338 -0.76134 0.25132
v 0.09224 -0.75706 0.24763
v 0.08823 -0.67992 0.21083
v 0.09018 -0.68194 0.20659
v 0.08011 -0.68484 0.21318
v 0.08444 -0.68934 0.20376
v 0.08011 -0.68484 0.21318
v 0.09018 -0.68194 0.20659
v 0.08011 -0.68484 0.21318
v 0.08444 -0.68934 0.20376
v 0.08618 -0.72095 0.23040
v 0.08872 -0.72360 0.22485
v 0.08618 -0.72095 0.23040
v 0.08444 -0.68934 0.20376
v 0.08618 -0.72095 0.23040
v 0.08872 -0.72360 0.22485
v 0.09224 -0.75706 0.24763
v 0.09301 -0.75786 0.24595
v 0.09224 -0.75706 0.24763
v 0.08872 -0.72360 0.22485
v 0.09224 -0.75706 0.24763
v 0.09301 -0.75786 0.24595
v 0.09276 -0.76198 0.24998
v 0.09338 -0.76262 0.24863
v 0.09276 -0.76198 0.24998
v 0.09301 -0.75786 0.24595
v 0.09018 -0.68194 0.20659
v 0.09487 -0.68278 0.20483
v 0.08444 -0.68934 0.20376
v 0.09487 -0.69120 0.19986
v 0.08444 -0.68934 0.20376
v 0.09487 -0.68278 0.20483
v 0.08444 -0.68934 0.20376
v 0.09487 -0.69120 0.19986
v 0.08872 -0.72360 0.22485
v 0.09487 -0.72470 0.22255
v 0.08872 -0.72360 0.22485
v 0.09487 -0.69120 0.19986
v 0.08872 -0.72360 0.22485
v 0.09487 -0.72470 0.22255
v 0.09301 -0.75786 0.24595
v 0.09487 -0.75819 0.24525
v 0.09301 -0.75786 0.24595
v 0.09487 -0.72470 0.22255
v 0.09301 -0.75786 0.24595
v 0.09487 -0.75819 0.24525
v 0.09338 -0.76262 0.24863
v 0.09487 -0.76289 0.24807
v 0.09338 -0.76262 0.24863
v 0.09487 -0.75819 0.24525
vn 0.22512 0.49583 -0.83873
vn 0.22512 0.49583 -0.83873
vn 0.22512 0.49583 -0.83873
vn 0.22512 0.49583 -0.83873
vn 0.22512 0.49583 -0.83873
vn 0.22512 0.49583 -0.83873
vn 0.37899 -0.51908 -0.76611
vn 0.37899 -0.51908 -0.76611
vn 0.37899 -0.51908 -0.76611
vn 0.37899 -0.51908 -0.76611
vn 0.37899 -0.51908 -0.76611
vn 0.37899 -0.51908 -0.76611
vn 0.37899 -0.51908 -0.76611
vn 0.37899 -0.51908 -0.76611
vn 0.37899 -0.51908 -0.76611
vn 0.37899 -0.51908 -0.76611
vn 0.37899 -0.51908 -0.76611
vn 0.37899 -0.51908 -0.76611
vn 0.38117 -0.47647 -0.79226
vn 0.38117 -0.47647 -0.79226
vn 0.38117 -0.47647 -0.79226
vn 0.38117 -0.47647 -0.79226
vn 0.38117 -0.47647 -0.79226
vn 0.38117 -0.47647 -0.79226
vn 0.54350 0.63292 -0.55138
vn 0.54350 0.63292 -0.55138
vn 0.54350 0.63292 -0.55138
vn 0.54350 0.63292 -0.55138
vn 0.54350 0.63292 -0.55138
vn 0.54350 0.63292 -0.55138
vn 0.91496 -0.28830 -0.28237
vn 0.91496 -0.28830 -0.28237
vn 0.91496 -0.28830 -0.28237
vn 0.91496 -0.28830 -0.28237
vn 0.91496 -0.28830 -0.28237
vn 0.91496 -0.28830 -0.28237
vn 0.91496 -0.28830 -0.28237
vn 0.91496 -0.28830 -0.28237
vn 0.91496 -0.28830 -0.28237
vn 0.91496 -0.28830 -0.28237
vn 0.91496 -0.28830 -0.28237
vn 0.91496 -0.28830 -0.28237
vn 0.92022 -0.24437 -0.30574
vn 0.92022 -0.24437 -0.30574
vn 0.92022 -0.24437 -0.30574
vn 0.92022 -0.24437 -0.30574
vn 0.92022 -0.24437 -0.30574
vn 0.92022 -0.24437 -0.30574
vn 0.54350 0.82679 -0.14501
vn 0.54350 0.82679 -0.14501
vn 0.54350 0.82679 -0.14501
vn 0.54350 0.82679 -0.14501
vn 0.54350 0.82679 -0.14501
vn 0.54350 0.82679 -0.14501
vn 0.91496 0.03807 0.40175
vn 0.91496 0.03807 0.40175
vn 0.91496 0.03807 0.40175
vn 0.91496 0.03807 0.40175
vn 0.91496 0.03807 0.40175
vn 0.91496 0.03807 0.40175
vn 0.91496 0.03807 0.40175
vn 0.91496 0.03807 0.40175
vn 0.91496 0.03807 0.40175
vn 0.91496 0.03807 0.40175
vn 0.91496 0.03807 0.40175
vn 0.91496 0.03807 0.40175
vn 0.92022 0.08388 0.38231
vn 0.92022 0.08388 0.38231
vn 0.92022 0.08388 0.38231
vn 0.92022 0.08388 0.38231
vn 0.92022 0.08388 0.38231
vn 0.92022 0.08388 0.38231
vn 0.22512 0.96388 0.14234
vn 0.22512 0.96388 0.14234
vn 0.22512 0.96388 0.14234
vn 0.22512 0.96388 0.14234
vn 0.22512 0.96388 0.14234
vn 0.22512 0.96388 0.14234
vn 0.37899 0.26885 0.88549
vn 0.37899 0.26885 0.88549
vn 0.37899 0.26885 0.88549
vn 0.37899 0.26885 0.88549
vn 0.37899 0.26885 0.88549
vn 0.37899 0.26885 0.88549
vn 0.37899 0.26885 0.88549
vn 0.37899 0.26885 0.88549
vn 0.37899 0.26885 0.88549
vn 0.37899 0.26885 0.88549
vn 0.37899 0.26885 0.88549
vn 0.37899 0.26885 0.88549
vn 0.38117 0.31599 0.86883
vn 0.38117 0.31599 0.86883
vn 0.38117 0.31599 0.86883
vn 0.38117 0.31599 0.86883
vn 0.38117 0.31599 0.86883
vn 0.38117 0.31599 0.86883
vn -0.22512 0.96388 0.14234
vn -0.22512 0.96388 0.14234
vn -0.22512 0.96388 0.14234
vn -0.22512 0.96388 0.14234
vn -0.22512 0.96388 0.14234
vn -0.22512 0.96388 0.14234
vn -0.37899 0.26885 0.88549
vn -0.37899 0.26885 0.88549
vn -0.37899 0.26885 0.88549
vn -0.37899 0.26885 0.88549
vn -0.37899 0.26885 0.88549
vn -0.37899 0.26885 0.88549
vn -0.37899 0.26885 0.88549
vn -0.37899 0.26885 0.88549
vn -0.37899 0.26885 0.88549
vn -0.37899 0.26885 0.88549
vn -0.37899 0.26885 0.88549
vn -0.37899 0.26885 0.88549
vn -0.38117 0.31599 0.86883
vn -0.38117 0.31599 0.86883
vn -0.38117 0.31599 0.86883
vn -0.38117 0.31599 0.86883
vn -0.38117 0.31599 0.86883
vn -0.38117 0.31599 0.86883
vn -0.54350 0.82679 -0.14501
vn -0.54350 0.82679 -0.14501
vn -0.54350 0.82679 -0.14501
vn -0.54350 0.82679 -0.14501
vn -0.54350 0.82679 -0.14501
vn -0.54350 0.82679 -0.14501
vn -0.91496 0.03807 0.40175
vn -0.91496 0.03807 0.40175
vn -0.91496 0.03807 0.40175
vn -0.91496 0.03807 0.40175
vn -0.91496 0.03807 0.40175
vn -0.91496 0.03807 0.40175
vn -0.91496 0.03807 0.40175
vn -0.91496 0.03807 0.40175
vn -0.91496 0.03807 0.40175
vn -0.91496 0.03807 0.40175
vn -0.91496 0.03807 0.40175
vn -0.91496 0.03807 0.40175
vn -0.92022 0.08388 0.38231
vn -0.92022 0.08388 0.38231
vn -0.92022 0.08388 0.38231
vn -0.92022 0.08388 0.38231
vn -0.92022 0.08388 0.38231
vn -0.92022 0.08388 0.38231
vn -0.54350 0.63292 -0.55138
vn -0.54350 0.63292 -0.55138
vn -0.54350 0.63292 -0.55138
vn -0.54350 0.63292 -0.55138
vn -0.54350 0.63292 -0.55138
vn -0.54350 0.63292 -0.55138
vn -0.91496 -0.28830 -0.28237
vn -0.91496 -0.28830 -0.28237
vn -0.91496 -0.28830 -0.28237
vn -0.91496 -0.28830 -0.28237
vn -0.91496 -0.28830 -0.28237
vn -0.91496 -0.28830 -0.28237
vn -0.91496 -0.28830 -0.28237
vn -0.91496 -0.28830 -0.28237
vn -0.91496 -0.28830 -0.28237
vn -0.91496 -0.28830 -0.28237
vn -0.91496 -0.28830 -0.28237
vn -0.91496 -0.28830 -0.28237
vn -0.92022 -0.24437 -0.30574
vn -0.92022 -0.24437 -0.30574
vn -0.92022 -0.24437 -0.30574
vn -0.92022 -0.24437 -0.30574
vn -0.92022 -0.24437 -0.30574
vn -0.92022 -0.24437 -0.30574
vn -0.22512 0.49583 -0.83873
vn -0.22512 0.49583 -0.83873
vn -0.22512 0.49583 -0.83873
vn -0.22512 0.49583 -0.83873
vn -0.22512 0.49583 -0.83873
vn -0.22512 0.49583 -0.83873
vn -0.37899 -0.51908 -0.76611
vn -0.37899 -0.51908 -0.76611
vn -0.37899 -0.51908 -0.76611
vn -0.37899 -0.51908 -0.76611
vn -0.37899 -0.51908 -0.76611
vn -0.37899 -0.51908 -0.76611
vn -0.37899 -0.51908 -0.76611
vn -0.37899 -0.51908 -0.76611
vn -0.37899 -0.51908 -0.76611
vn -0.37899 -0.51908 -0.76611
vn -0.37899 -0.51908 -0.76611
vn -0.37899 -0.51908 -0.76611
vn -0.38117 -0.47647 -0.79226
vn -0.38117 -0.47647 -0.79226
vn -0.38117 -0.47647 -0.79226
vn -0.38117 -0.47647 -0.79226
vn -0.38117 -0.47647 -0.79226
vn -0.38117 -0.47647 -0.79226
usemtl ice_blue
f 1057//1057 1058//1058 1059//1059
f 1060//1060 1061//1061 1062//1062
f 1063//1063 1064//1064 1065//1065
f 1066//1066 1067//1067 1068//1068
f 1069//1069 1070//1070 1071//1071
f 1072//1072 1073//1073 1074//1074
f 1075//1075 1076//1076 1077//1077
f 1078//1078 1079//1079 1080//1080
f 1081//1081 1082//1082 1083//1083
f 1084//1084 1085//1085 1086//1086
f 1087//1087 1088//1088 1089//1089
f 1090//1090 1091//1091 1092//1092
f 1093//1093 1094//1094 1095//1095
f 1096//1096 1097//1097 1098//1098
f 1099//1099 1100//1100 1101//1101
f 1102//1102 1103//1103 1104//1104
f 1105//1105 1106//1106 1107//1107
f 1108//1108 1109//1109 1110//1110
f 1111//1111 1112//1112 1113//1113
f 1114//1114 1115//1115 1116//1116
f 1117//1117 1118//1118 1119//1119
f 1120//1120 1121//1121 1122//1122
f 1123//1123 1124//1124 1125//1125
f 1126//1126 1127//1127 1128//1128
f 1129//1129 1130//1130 1131//1131
f 1132//1132 1133//1133 1134//1134
f 1135//1135 1136//1136 1137//1137
f 1138//1138 1139//1139 1140//1140
f 1141//1141 1142//1142 1143//1143
f 1144//1144 1145//1145 1146//1146
f 1147//1147 1148//1148 1149//1149
f 1150//1150 1151//1151 1152//1152
f 1153//1153 1154//1154 1155//1155
f 1156//1156 1157//1157 1158//1158
f 1159//1159 1160//1160 1161//1161
f 1162//1162 1163//1163 1164//1164
f 1165//1165 1166//1166 1167//1167
f 1168//1168 1169//1169 1170//1170
f 1171//1171 1172//1172 1173//1173
f 1174//1174 1175//1175 1176//1176
f 1177//1177 1178//1178 1179//1179
f 1180//1180 1181//1181 1182//1182
f 1183//1183 1184//1184 1185//1185
f 1186//1186 1187//1187 1188//1188
f 1189//1189 1190//1190 1191//1191
f 1192//1192 1193//1193 1194//1194
f 1195//1195 1196//1196 1197//1197
f 1198//1198 1199//1199 1200//1200
f 1201//1201 1202//1202 1203//1203
f 1204//1204 1205//1205 1206//1206
f 1207//1207 1208//1208 1209//1209
f 1210//1210 1211//1211 1212//1212
f 1213//1213 1214//1214 1215//1215
f 1216//1216 1217//1217 1218//1218
f 1219//1219 1220//1220 1221//1221
f 1222//1222 1223//1223 1224//1224
f 1225//1225 1226//1226 1227//1227
f 1228//1228 1229//1229 1230//1230
f 1231//1231 1232//1232 1233//1233
f 1234//1234 1235//1235 1236//1236
f 1237//1237 1238//1238 1239//1239
f 1240//1240 1241//1241 1242//1242
f 1243//1243 1244//1244 1245//1245
f 1246//1246 1247//1247 1248//1248
o claw_R_2
v 0.10264 -0.68261 0.20758
v 0.10696 -0.68281 0.20490
v 0.09753 -0.69082 0.20584
v 0.10713 -0.69126 0.19990
v 0.09753 -0.69082 0.20584
v 0.10696 -0.68281 0.20490
v 0.09753 -0.69082 0.20584
v 0.10713 -0.69126 0.19990
v 0.11072 -0.72447 0.22523
v 0.11638 -0.72473 0.22173
v 0.11072 -0.72447 0.22523
v 0.10713 -0.69126 0.19990
v 0.11072 -0.72447 0.22523
v 0.11638 -0.72473 0.22173
v 0.12391 -0.75813 0.24462
v 0.12563 -0.75820 0.24355
v 0.12391 -0.75813 0.24462
v 0.11638 -0.72473 0.22173
v 0.12391 -0.75813 0.24462
v 0.12563 -0.75820 0.24355
v 0.12548 -0.76284 0.24711
v 0.12685 -0.76290 0.24626
v 0.12548 -0.76284 0.24711
v 0.12563 -0.75820 0.24355
v 0.10696 -0.68281 0.20490
v 0.11175 -0.68131 0.20570
v 0.10713 -0.69126 0.19990
v 0.11778 -0.68794 0.20167
v 0.10713 -0.69126 0.19990
v 0.11175 -0.68131 0.20570
v 0.10713 -0.69126 0.19990
v 0.11778 -0.68794 0.20167
v 0.11638 -0.72473 0.22173
v 0.12265 -0.72278 0.22277
v 0.11638 -0.72473 0.22173
v 0.11778 -0.68794 0.20167
v 0.11638 -0.72473 0.22173
v 0.12265 -0.72278 0.22277
v 0.12563 -0.75820 0.24355
v 0.12753 -0.75761 0.24387
v 0.12563 -0.75820 0.24355
v 0.12265 -0.72278 0.22277
v 0.12563 -0.75820 0.24355
v 0.12753 -0.75761 0.24387
v 0.12685 -0.76290 0.24626
v 0.12837 -0.76242 0.24652
v 0.12685 -0.76290 0.24626
v 0.12753 -0.75761 0.24387
v 0.11175 -0.68131 0.20570
v 0.11421 -0.67900 0.20950
v 0.11778 -0.68794 0.20167
v 0.12325 -0.68281 0.21012
v 0.11778 -0.68794 0.20167
v 0.11421 -0.67900 0.20950
v 0.11778 -0.68794 0.20167
v 0.12325 -0.68281 0.21012
v 0.12265 -0.72278 0.22277
v 0.12588 -0.71975 0.22775
v 0.12265 -0.72278 0.22277
v 0.12325 -0.68281 0.21012
v 0.12265 -0.72278 0.22277
v 0.12588 -0.71975 0.22775
v 0.12753 -0.75761 0.24387
v 0.12851 -0.75670 0.24538
v 0.12753 -0.75761 0.24387
v 0.12588 -0.71975 0.22775
v 0.12753 -0.75761 0.24387
v 0.12851 -0.75670 0.24538
v 0.12837 -0.76242 0.24652
v 0.12916 -0.76169 0.24772
v 0.12837 -0.76242 0.24652
v 0.12851 -0.75670 0.24538
v 0.11421 -0.67900 0.20950
v 0.11290 -0.67723 0.21408
v 0.12325 -0.68281 0.21012
v 0.12032 -0.67887 0.22030
v 0.12325 -0.68281 0.21012
v 0.11290 -0.67723 0.21408
v 0.12325 -0.68281 0.21012
v 0.12032 -0.67887 0.22030
v 0.12588 -0.71975 0.22775
v 0.12415 -0.71743 0.23375
v 0.12588 -0.71975 0.22775
v 0.12032 -0.67887 0.22030
v 0.12588 -0.71975 0.22775
v 0.12415 -0.71743 0.23375
v 0.12851 -0.75670 0.24538
v 0.12798 -0.75599 0.24720
v 0.12851 -0.75670 0.24538
v 0.12415 -0.71743 0.23375
v 0.12851 -0.75670 0.24538
v 0.12798 -0.75599 0.24720
v 0.12916 -0.76169 0.24772
v 0.12874 -0.76113 0.24918
v 0.12916 -0.76169 0.24772
v 0.12798 -0.75599 0.24720
v 0.11290 -0.67723 0.21408
v 0.10858 -0.67703 0.21675
v 0.12032 -0.67887 0.22030
v 0.11073 -0.67843 0.22624
v 0.12032 -0.67887 0.22030
v 0.10858 -0.67703 0.21675
v 0.12032 -0.67887 0.22030
v 0.11073 -0.67843 0.22624
v 0.12415 -0.71743 0.23375
v 0.11850 -0.71717 0.23725
v 0.12415 -0.71743 0.23375
v 0.11073 -0.67843 0.22624
v 0.12415 -0.71743 0.23375
v 0.11850 -0.71717 0.23725
v 0.12798 -0.75599 0.24720
v 0.12627 -0.75591 0.24826
v 0.12798 -0.75599 0.24720
v 0.11850 -0.71717 0.23725
v 0.12798 -0.75599 0.24720
v 0.12627 -0.75591 0.24826
v 0.12874 -0.76113 0.24918
v 0.12737 -0.76107 0.25003
v 0.12874 -0.76113 0.24918
v 0.12627 -0.75591 0.24826
v 0.10858 -0.67703 0.21675
v 0.10378 -0.67853 0.21596
v 0.11073 -0.67843 0.22624
v 0.10008 -0.68175 0.22446
v 0.11073 -0.67843 0.22624
v 0.10378 -0.67853 0.21596
v 0.11073 -0.67843 0.22624
v 0.10008 -0.68175 0.22446
v 0.11850 -0.71717 0.23725
v 0.11222 -0.71913 0.23620
v 0.11850 -0.71717 0.23725
v 0.10008 -0.68175 0.22446
v 0.11850 -0.71717 0.23725
v 0.11222 -0.71913 0.23620
v 0.12627 -0.75591 0.24826
v 0.12437 -0.75651 0.24794
v 0.12627 -0.75591 0.24826
v 0.11222 -0.71913 0.23620
v 0.12627 -0.75591 0.24826
v 0.12437 -0.75651 0.24794
v 0.12737 -0.76107 0.25003
v 0.12585 -0.76154 0.24977
v 0.12737 -0.76107 0.25003
v 0.12437 -0.75651 0.24794
v 0.10378 -0.67853 0.21596
v 0.10133 -0.68084 0.21215
v 0.10008 -0.68175 0.22446
v 0.09461 -0.68688 0.21601
v 0.10008 -0.68175 0.22446
v 0.10133 -0.68084 0.21215
v 0.10008 -0.68175 0.22446
v 0.09461 -0.68688 0.21601
v 0.11222 -0.71913 0.23620
v 0.10900 -0.72215 0.23122
v 0.11222 -0.71913 0.23620
v 0.09461 -0.68688 0.21601
v 0.11222 -0.71913 0.23620
v 0.10900 -0.72215 0.23122
v 0.12437 -0.75651 0.24794
v 0.12339 -0.75742 0.24643
v 0.12437 -0.75651 0.24794
v 0.10900 -0.72215 0.23122
v 0.12437 -0.75651 0.24794
v 0.12339 -0.75742 0.24643
v 0.12585 -0.76154 0.24977
v 0.12507 -0.76227 0.24857
v 0.12585 -0.76154 0.24977
v 0.12339 -0.75742 0.24643
v 0.10133 -0.68084 0.21215
v 0.10264 -0.68261 0.20758
v 0.09461 -0.68688 0.21601
v 0.09753 -0.69082 0.20584
v 0.09461 -0.68688 0.21601
v 0.10264 -0.68261 0.20758
v 0.09461 -0.68688 0.21601
v 0.09753 -0.69082 0.20584
v 0.10900 -0.72215 0.23122
v 0.11072 -0.72447 0.22523
v 0.10900 -0.72215 0.23122
v 0.09753 -0.69082 0.20584
v 0.10900 -0.72215 0.23122
v 0.11072 -0.72447 0.22523
v 0.12339 -0.75742 0.24643
v 0.12391 -0.75813 0.24462
v 0.12339 -0.75742 0.24643
v 0.11072 -0.72447 0.22523
v 0.12339 -0.75742 0.24643
v 0.12391 -0.75813 0.24462
v 0.12507 -0.76227 0.24857
v 0.12548 -0.76284 0.24711
v 0.12507 -0.76227 0.24857
v 0.12391 -0.75813 0.24462
vn -0.45609 0.44659 -0.76976
vn -0.45609 0.44659 -0.76976
vn -0.45609 0.44659 -0.76976
vn -0.45609 0.44659 -0.76976
vn -0.45609 0.44659 -0.76976
vn -0.45609 0.44659 -0.76976
vn -0.45067 -0.57165 -0.68564
vn -0.45067 -0.57165 -0.68564
vn -0.45067 -0.57165 -0.68564
vn -0.45067 -0.57165 -0.68564
vn -0.45067 -0.57165 -0.68564
vn -0.45067 -0.57165 -0.68564
vn -0.45067 -0.57165 -0.68564
vn -0.45067 -0.57165 -0.68564
vn -0.45067 -0.57165 -0.68564
vn -0.45067 -0.57165 -0.68564
vn -0.45067 -0.57165 -0.68564
vn -0.45067 -0.57165 -0.68564
vn -0.46365 -0.53051 -0.70964
vn -0.46365 -0.53051 -0.70964
vn -0.46365 -0.53051 -0.70964
vn -0.46365 -0.53051 -0.70964
vn -0.46365 -0.53051 -0.70964
vn -0.46365 -0.53051 -0.70964
vn -0.01531 0.50923 -0.86049
vn -0.01531 0.50923 -0.86049
vn -0.01531 0.50923 -0.86049
vn -0.01531 0.50923 -0.86049
vn -0.01531 0.50923 -0.86049
vn -0.01531 0.50923 -0.86049
vn 0.28485 -0.46714 -0.83705
vn 0.28485 -0.46714 -0.83705
vn 0.28485 -0.46714 -0.83705
vn 0.28485 -0.46714 -0.83705
vn 0.28485 -0.46714 -0.83705
vn 0.28485 -0.46714 -0.83705
vn 0.28485 -0.46714 -0.83705
vn 0.28485 -0.46714 -0.83705
vn 0.28485 -0.46714 -0.83705
vn 0.28485 -0.46714 -0.83705
vn 0.28485 -0.46714 -0.83705
vn 0.28485 -0.46714 -0.83705
vn 0.27599 -0.42541 -0.86189
vn 0.27599 -0.42541 -0.86189
vn 0.27599 -0.42541 -0.86189
vn 0.27599 -0.42541 -0.86189
vn 0.27599 -0.42541 -0.86189
vn 0.27599 -0.42541 -0.86189
vn 0.33554 0.69313 -0.63795
vn 0.33554 0.69313 -0.63795
vn 0.33554 0.69313 -0.63795
vn 0.33554 0.69313 -0.63795
vn 0.33554 0.69313 -0.63795
vn 0.33554 0.69313 -0.63795
vn 0.87031 -0.16027 -0.46570
vn 0.87031 -0.16027 -0.46570
vn 0.87031 -0.16027 -0.46570
vn 0.87031 -0.16027 -0.46570
vn 0.87031 -0.16027 -0.46570
vn 0.87031 -0.16027 -0.46570
vn 0.87031 -0.16027 -0.46570
vn 0.87031 -0.16027 -0.46570
vn 0.87031 -0.16027 -0.46570
vn 0.87031 -0.16027 -0.46570
vn 0.87031 -0.16027 -0.46570
vn 0.87031 -0.16027 -0.46570
vn 0.86473 -0.11682 -0.48847
vn 0.86473 -0.11682 -0.48847
vn 0.86473 -0.11682 -0.48847
vn 0.86473 -0.11682 -0.48847
vn 0.86473 -0.11682 -0.48847
vn 0.86473 -0.11682 -0.48847
vn 0.39095 0.89056 -0.23250
vn 0.39095 0.89056 -0.23250
vn 0.39095 0.89056 -0.23250
vn 0.39095 0.89056 -0.23250
vn 0.39095 0.89056 -0.23250
vn 0.39095 0.89056 -0.23250
vn 0.96276 0.16919 0.21087
vn 0.96276 0.16919 0.21087
vn 0.96276 0.16919 0.21087
vn 0.96276 0.16919 0.21087
vn 0.96276 0.16919 0.21087
vn 0.96276 0.16919 0.21087
vn 0.96276 0.16919 0.21087
vn 0.96276 0.16919 0.21087
vn 0.96276 0.16919 0.21087
vn 0.96276 0.16919 0.21087
vn 0.96276 0.16919 0.21087
vn 0.96276 0.16919 0.21087
vn 0.95770 0.21448 0.19188
vn 0.95770 0.21448 0.19188
vn 0.95770 0.21448 0.19188
vn 0.95770 0.21448 0.19188
vn 0.95770 0.21448 0.19188
vn 0.95770 0.21448 0.19188
vn 0.11845 0.98588 0.11835
vn 0.11845 0.98588 0.11835
vn 0.11845 0.98588 0.11835
vn 0.11845 0.98588 0.11835
vn 0.11845 0.98588 0.11835
vn 0.11845 0.98588 0.11835
vn 0.50805 0.32824 0.79633
vn 0.50805 0.32824 0.79633
vn 0.50805 0.32824 0.79633
vn 0.50805 0.32824 0.79633
vn 0.50805 0.32824 0.79633
vn 0.50805 0.32824 0.79633
vn 0.50805 0.32824 0.79633
vn 0.50805 0.32824 0.79633
vn 0.50805 0.32824 0.79633
vn 0.50805 0.32824 0.79633
vn 0.50805 0.32824 0.79633
vn 0.50805 0.32824 0.79633
vn 0.50044 0.37442 0.78062
vn 0.50044 0.37442 0.78062
vn 0.50044 0.37442 0.78062
vn 0.50044 0.37442 0.78062
vn 0.50044 0.37442 0.78062
vn 0.50044 0.37442 0.78062
vn -0.32233 0.92325 0.20908
vn -0.32233 0.92325 0.20908
vn -0.32233 0.92325 0.20908
vn -0.32233 0.92325 0.20908
vn -0.32233 0.92325 0.20908
vn -0.32233 0.92325 0.20908
vn -0.22747 0.22373 0.94774
vn -0.22747 0.22373 0.94774
vn -0.22747 0.22373 0.94774
vn -0.22747 0.22373 0.94774
vn -0.22747 0.22373 0.94774
vn -0.22747 0.22373 0.94774
vn -0.22747 0.22373 0.94774
vn -0.22747 0.22373 0.94774
vn -0.22747 0.22373 0.94774
vn -0.22747 0.22373 0.94774
vn -0.22747 0.22373 0.94774
vn -0.22747 0.22373 0.94774
vn -0.23920 0.26932 0.93287
vn -0.23920 0.26932 0.93287
vn -0.23920 0.26932 0.93287
vn -0.23920 0.26932 0.93287
vn -0.23920 0.26932 0.93287
vn -0.23920 0.26932 0.93287
vn -0.67319 0.73935 -0.01346
vn -0.67319 0.73935 -0.01346
vn -0.67319 0.73935 -0.01346
vn -0.67319 0.73935 -0.01346
vn -0.67319 0.73935 -0.01346
vn -0.67319 0.73935 -0.01346
vn -0.81294 -0.08314 0.57639
vn -0.81294 -0.08314 0.57639
vn -0.81294 -0.08314 0.57639
vn -0.81294 -0.08314 0.57639
vn -0.81294 -0.08314 0.57639
vn -0.81294 -0.08314 0.57639
vn -0.81294 -0.08314 0.57639
vn -0.81294 -0.08314 0.57639
vn -0.81294 -0.08314 0.57639
vn -0.81294 -0.08314 0.57639
vn -0.81294 -0.08314 0.57639
vn -0.81294 -0.08314 0.57639
vn -0.82794 -0.03926 0.55945
vn -0.82794 -0.03926 0.55945
vn -0.82794 -0.03926 0.55945
vn -0.82794 -0.03926 0.55945
vn -0.82794 -0.03926 0.55945
vn -0.82794 -0.03926 0.55945
vn -0.72859 0.54191 -0.41891
vn -0.72859 0.54191 -0.41891
vn -0.72859 0.54191 -0.41891
vn -0.72859 0.54191 -0.41891
vn -0.72859 0.54191 -0.41891
vn -0.72859 0.54191 -0.41891
vn -0.90539 -0.41260 -0.10018
vn -0.90539 -0.41260 -0.10018
vn -0.90539 -0.41260 -0.10018
vn -0.90539 -0.41260 -0.10018
vn -0.90539 -0.41260 -0.10018
vn -0.90539 -0.41260 -0.10018
vn -0.90539 -0.41260 -0.10018
vn -0.90539 -0.41260 -0.10018
vn -0.90539 -0.41260 -0.10018
vn -0.90539 -0.41260 -0.10018
vn -0.90539 -0.41260 -0.10018
vn -0.90539 -0.41260 -0.10018
vn -0.92091 -0.37056 -0.12090
vn -0.92091 -0.37056 -0.12090
vn -0.92091 -0.37056 -0.12090
vn -0.92091 -0.37056 -0.12090
vn -0.92091 -0.37056 -0.12090
vn -0.92091 -0.37056 -0.12090
usemtl ice_blue
f 1249//1249 1250//1250 1251//1251
f 1252//1252 1253//1253 1254//1254
f 1255//1255 1256//1256 1257//1257
f 1258//1258 1259//1259 1260//1260
f 1261//1261 1262//1262 1263//1263
f 1264//1264 1265//1265 1266//1266
f 1267//1267 1268//1268 1269//1269
f 1270//1270 1271//1271 1272//1272
f 1273//1273 1274//1274 1275//1275
f 1276//1276 1277//1277 1278//1278
f 1279//1279 1280//1280 1281//1281
f 1282//1282 1283//1283 1284//1284
f 1285//1285 1286//1286 1287//1287
f 1288//1288 1289//1289 1290//1290
f 1291//1291 1292//1292 1293//1293
f 1294//1294 1295//1295 1296//1296
f 1297//1297 1298//1298 1299//1299
f 1300//1300 1301//1301 1302//1302
f 1303//1303 1304//1304 1305//1305
f 1306//1306 1307//1307 1308//1308
f 1309//1309 1310//1310 1311//1311
f 1312//1312 1313//1313 1314//1314
f 1315//1315 1316//1316 1317//1317
f 1318//1318 1319//1319 1320//1320
f 1321//1321 1322//1322 1323//1323
f 1324//1324 1325//1325 1326//1326
f 1327//1327 1328//1328 1329//1329
f 1330//1330 1331//1331 1332//1332
f 1333//1333 1334//1334 1335//1335
f 1336//1336 1337//1337 1338//1338
f 1339//1339 1340//1340 1341//1341
f 1342//1342 1343//1343 1344//1344
f 1345//1345 1346//1346 1347//1347
f 1348//1348 1349//1349 1350//1350
f 1351//1351 1352//1352 1353//1353
f 1354//1354 1355//1355 1356//1356
f 1357//1357 1358//1358 1359//1359
f 1360//1360 1361//1361 1362//1362
f 1363//1363 1364//1364 1365//1365
f 1366//1366 1367//1367 1368//1368
f 1369//1369 1370//1370 1371//1371
f 1372//1372 1373//1373 1374//1374
f 1375//1375 1376//1376 1377//1377
f 1378//1378 1379//1379 1380//1380
f 1381//1381 1382//1382 1383//1383
f 1384//1384 1385//1385 1386//1386
f 1387//1387 1388//1388 1389//1389
f 1390//1390 1391//1391 1392//1392
f 1393//1393 1394//1394 1395//1395
f 1396//1396 1397//1397 1398//1398
f 1399//1399 1400//1400 1401//1401
f 1402//1402 1403//1403 1404//1404
f 1405//1405 1406//1406 1407//1407
f 1408//1408 1409//1409 1410//1410
f 1411//1411 1412//1412 1413//1413
f 1414//1414 1415//1415 1416//1416
f 1417//1417 1418//1418 1419//1419
f 1420//1420 1421//1421 1422//1422
f 1423//1423 1424//1424 1425//1425
f 1426//1426 1427//1427 1428//1428
f 1429//1429 1430//1430 1431//1431
f 1432//1432 1433//1433 1434//1434
f 1435//1435 1436//1436 1437//1437
f 1438//1438 1439//1439 1440//1440
