mtllib frost_skeleton_leg_L.mtl
o leg_upper_L
v 0.02133 -0.00753 -0.01301
v 0.02530 -0.00242 0.00588
v 0.04360 -0.03950 -0.02195
v 0.05243 -0.02815 0.02003
v 0.04360 -0.03950 -0.02195
v 0.02530 -0.00242 0.00588
v 0.04360 -0.03950 -0.02195
v 0.05243 -0.02815 0.02003
v 0.01017 -0.20450 0.03249
v 0.01796 -0.19449 0.06950
v 0.01017 -0.20450 0.03249
v 0.05243 -0.02815 0.02003
v 0.01017 -0.20450 0.03249
v 0.01796 -0.19449 0.06950
v -0.02326 -0.36950 0.08692
v -0.01652 -0.36083 0.11898
v -0.02326 -0.36950 0.08692
v 0.01796 -0.19449 0.06950
v -0.02326 -0.36950 0.08692
v -0.01652 -0.36083 0.11898
v -0.04696 -0.38524 0.10602
v -0.04393 -0.38134 0.12045
v -0.04696 -0.38524 0.10602
v -0.01652 -0.36083 0.11898
v 0.02530 -0.00242 0.00588
v 0.01446 0.00411 0.02133
v 0.05243 -0.02815 0.02003
v 0.02833 -0.01364 0.05435
v 0.05243 -0.02815 0.02003
v 0.01446 0.00411 0.02133
v 0.05243 -0.02815 0.02003
v 0.02833 -0.01364 0.05435
v 0.01796 -0.19449 0.06950
v -0.00329 -0.18170 0.09977
v 0.01796 -0.19449 0.06950
v 0.02833 -0.01364 0.05435
v 0.01796 -0.19449 0.06950
v -0.00329 -0.18170 0.09977
v -0.01652 -0.36083 0.11898
v -0.03492 -0.34975 0.14519
v -0.01652 -0.36083 0.11898
v -0.00329 -0.18170 0.09977
v -0.01652 -0.36083 0.11898
v -0.03492 -0.34975 0.14519
v -0.04393 -0.38134 0.12045
v -0.05221 -0.37635 0.13224
v -0.04393 -0.38134 0.12045
v -0.03492 -0.34975 0.14519
v 0.01446 0.00411 0.02133
v -0.00486 0.00823 0.02428
v 0.02833 -0.01364 0.05435
v -0.01459 -0.00449 0.06091
v 0.02833 -0.01364 0.05435
v -0.00486 0.00823 0.02428
v 0.02833 -0.01364 0.05435
v -0.01459 -0.00449 0.06091
v -0.00329 -0.18170 0.09977
v -0.04114 -0.17362 0.10555
v -0.00329 -0.18170 0.09977
v -0.01459 -0.00449 0.06091
v -0.00329 -0.18170 0.09977
v -0.04114 -0.17362 0.10555
v -0.03492 -0.34975 0.14519
v -0.06770 -0.34276 0.15020
v -0.03492 -0.34975 0.14519
v -0.04114 -0.17362 0.10555
v -0.03492 -0.34975 0.14519
v -0.06770 -0.34276 0.15020
v -0.05221 -0.37635 0.13224
v -0.06696 -0.37321 0.13449
v -0.05221 -0.37635 0.13224
v -0.06770 -0.34276 0.15020
v -0.00486 0.00823 0.02428
v -0.02133 0.00753 0.01301
v -0.01459 -0.00449 0.06091
v -0.05119 -0.00604 0.03586
v -0.01459 -0.00449 0.06091
v -0.02133 0.00753 0.01301
v -0.01459 -0.00449 0.06091
v -0.05119 -0.00604 0.03586
v -0.04114 -0.17362 0.10555
v -0.07341 -0.17499 0.08347
v -0.04114 -0.17362 0.10555
v -0.05119 -0.00604 0.03586
v -0.04114 -0.17362 0.10555
v -0.07341 -0.17499 0.08347
v -0.06770 -0.34276 0.15020
v -0.09564 -0.34394 0.13107
v -0.06770 -0.34276 0.15020
v -0.07341 -0.17499 0.08347
v -0.06770 -0.34276 0.15020
v -0.09564 -0.34394 0.13107
v -0.06696 -0.37321 0.13449
v -0.07953 -0.37374 0.12589
v -0.06696 -0.37321 0.13449
v -0.09564 -0.34394 0.13107
v -0.02133 0.00753 0.01301
v -0.02530 0.00242 -0.00588
v -0.05119 -0.00604 0.03586
v -0.06002 -0.01739 -0.00611
v -0.05119 -0.00604 0.03586
v -0.02530 0.00242 -0.00588
v -0.05119 -0.00604 0.03586
v -0.06002 -0.01739 -0.00611
v -0.07341 -0.17499 0.08347
v -0.08121 -0.18500 0.04645
v -0.07341 -0.17499 0.08347
v -0.06002 -0.01739 -0.00611
v -0.07341 -0.17499 0.08347
v -0.08121 -0.18500 0.04645
v -0.09564 -0.34394 0.13107
v -0.10239 -0.35261 0.09902
v -0.09564 -0.34394 0.13107
v -0.08121 -0.18500 0.04645
v -0.09564 -0.34394 0.13107
v -0.10239 -0.35261 0.09902
v -0.07953 -0.37374 0.12589
v -0.08257 -0.37764 0.11146
v -0.07953 -0.37374 0.12589
v -0.10239 -0.35261 0.09902
v -0.02530 0.00242 -0.00588
v -0.01446 -0.00411 -0.02133
v -0.06002 -0.01739 -0.00611
v -0.03592 -0.03190 -0.04043
v -0.06002 -0.01739 -0.00611
v -0.01446 -0.00411 -0.02133
v -0.06002 -0.01739 -0.00611
v -0.03592 -0.03190 -0.04043
v -0.08121 -0.18500 0.04645
v -0.05996 -0.19779 0.01619
v -0.08121 -0.18500 0.04645
v -0.03592 -0.03190 -0.04043
v -0.08121 -0.18500 0.04645
v -0.05996 -0.19779 0.01619
v -0.10239 -0.35261 0.09902
v -0.08399 -0.36369 0.07281
v -0.10239 -0.35261 0.09902
v -0.05996 -0.19779 0.01619
v -0.10239 -0.35261 0.09902
v -0.08399 -0.36369 0.07281
v -0.08257 -0.37764 0.11146
v -0.07429 -0.38263 0.09967
v -0.08257 -0.37764 0.11146
v -0.08399 -0.36369 0.07281
v -0.01446 -0.00411 -0.02133
v 0.00486 -0.00823 -0.02428
v -0.03592 -0.03190 -0.04043
v 0.00700 -0.04105 -0.04699
v -0.03592 -0.03190 -0.04043
v 0.00486 -0.00823 -0.02428
v -0.03592 -0.03190 -0.04043
v 0.00700 -0.04105 -0.04699
v -0.05996 -0.19779 0.01619
v -0.02211 -0.20587 0.01040
v -0.05996 -0.19779 0.01619
v 0.00700 -0.04105 -0.04699
v -0.05996 -0.19779 0.01619
v -0.02211 -0.20587 0.01040
v -0.08399 -0.36369 0.07281
v -0.05121 -0.37068 0.06780
v -0.08399 -0.36369 0.07281
v -0.02211 -0.20587 0.01040
v -0.08399 -0.36369 0.07281
v -0.05121 -0.37068 0.06780
v -0.07429 -0.38263 0.09967
v -0.05954 -0.38577 0.09742
v -0.07429 -0.38263 0.09967
v -0.05121 -0.37068 0.06780
v 0.00486 -0.00823 -0.02428
v 0.02133 -0.00753 -0.01301
v 0.00700 -0.04105 -0.04699
v 0.04360 -0.03950 -0.02195
v 0.00700 -0.04105 -0.04699
v 0.02133 -0.00753 -0.01301
v 0.00700 -0.04105 -0.04699
v 0.04360 -0.03950 -0.02195
v -0.02211 -0.20587 0.01040
v 0.01017 -0.20450 0.03249
v -0.02211 -0.20587 0.01040
v 0.04360 -0.03950 -0.02195
v -0.02211 -0.20587 0.01040
v 0.01017 -0.20450 0.03249
v -0.05121 -0.37068 0.06780
v -0.02326 -0.36950 0.08692
v -0.05121 -0.37068 0.06780
v 0.01017 -0.20450 0.03249
v -0.05121 -0.37068 0.06780
v -0.02326 -0.36950 0.08692
v -0.05954 -0.38577 0.09742
v -0.04696 -0.38524 0.10602
v -0.05954 -0.38577 0.09742
v -0.02326 -0.36950 0.08692
vn 0.73439 0.60019 -0.31694
vn 0.73439 0.60019 -0.31694
vn 0.73439 0.60019 -0.31694
vn 0.73439 0.60019 -0.31694
vn 0.73439 0.60019 -0.31694
vn 0.73439 0.60019 -0.31694
vn 0.96099 -0.24003 -0.13739
vn 0.96099 -0.24003 -0.13739
vn 0.96099 -0.24003 -0.13739
vn 0.96099 -0.24003 -0.13739
vn 0.96099 -0.24003 -0.13739
vn 0.96099 -0.24003 -0.13739
vn 0.96099 -0.24003 -0.13739
vn 0.96099 -0.24003 -0.13739
vn 0.96099 -0.24003 -0.13739
vn 0.96099 -0.24003 -0.13739
vn 0.96099 -0.24003 -0.13739
vn 0.96099 -0.24003 -0.13739
vn 0.59979 -0.79521 0.08881
vn 0.59979 -0.79521 0.08881
vn 0.59979 -0.79521 0.08881
vn 0.59979 -0.79521 0.08881
vn 0.59979 -0.79521 0.08881
vn 0.59979 -0.79521 0.08881
vn 0.64416 0.75305 0.13411
vn 0.64416 0.75305 0.13411
vn 0.64416 0.75305 0.13411
vn 0.64416 0.75305 0.13411
vn 0.64416 0.75305 0.13411
vn 0.64416 0.75305 0.13411
vn 0.81861 0.00117 0.57435
vn 0.81861 0.00117 0.57435
vn 0.81861 0.00117 0.57435
vn 0.81861 0.00117 0.57435
vn 0.81861 0.00117 0.57435
vn 0.81861 0.00117 0.57435
vn 0.81861 0.00117 0.57435
vn 0.81861 0.00117 0.57435
vn 0.81861 0.00117 0.57435
vn 0.81861 0.00117 0.57435
vn 0.81861 0.00117 0.57435
vn 0.81861 0.00117 0.57435
vn 0.49562 -0.61875 0.60952
vn 0.49562 -0.61875 0.60952
vn 0.49562 -0.61875 0.60952
vn 0.49562 -0.61875 0.60952
vn 0.49562 -0.61875 0.60952
vn 0.49562 -0.61875 0.60952
vn 0.24794 0.89292 0.37578
vn 0.24794 0.89292 0.37578
vn 0.24794 0.89292 0.37578
vn 0.24794 0.89292 0.37578
vn 0.24794 0.89292 0.37578
vn 0.24794 0.89292 0.37578
vn 0.19340 0.22190 0.95570
vn 0.19340 0.22190 0.95570
vn 0.19340 0.22190 0.95570
vn 0.19340 0.22190 0.95570
vn 0.19340 0.22190 0.95570
vn 0.19340 0.22190 0.95570
vn 0.19340 0.22190 0.95570
vn 0.19340 0.22190 0.95570
vn 0.19340 0.22190 0.95570
vn 0.19340 0.22190 0.95570
vn 0.19340 0.22190 0.95570
vn 0.19340 0.22190 0.95570
vn 0.03822 -0.45726 0.88851
vn 0.03822 -0.45726 0.88851
vn 0.03822 -0.45726 0.88851
vn 0.03822 -0.45726 0.88851
vn 0.03822 -0.45726 0.88851
vn 0.03822 -0.45726 0.88851
vn -0.22215 0.93788 0.26650
vn -0.22215 0.93788 0.26650
vn -0.22215 0.93788 0.26650
vn -0.22215 0.93788 0.26650
vn -0.22215 0.93788 0.26650
vn -0.22215 0.93788 0.26650
vn -0.54841 0.29284 0.78326
vn -0.54841 0.29284 0.78326
vn -0.54841 0.29284 0.78326
vn -0.54841 0.29284 0.78326
vn -0.54841 0.29284 0.78326
vn -0.54841 0.29284 0.78326
vn -0.54841 0.29284 0.78326
vn -0.54841 0.29284 0.78326
vn -0.54841 0.29284 0.78326
vn -0.54841 0.29284 0.78326
vn -0.54841 0.29284 0.78326
vn -0.54841 0.29284 0.78326
vn -0.50448 -0.40536 0.76235
vn -0.50448 -0.40536 0.76235
vn -0.50448 -0.40536 0.76235
vn -0.50448 -0.40536 0.76235
vn -0.50448 -0.40536 0.76235
vn -0.50448 -0.40536 0.76235
vn -0.49076 0.86159 -0.12971
vn -0.49076 0.86159 -0.12971
vn -0.49076 0.86159 -0.12971
vn -0.49076 0.86159 -0.12971
vn -0.49076 0.86159 -0.12971
vn -0.49076 0.86159 -0.12971
vn -0.97226 0.17245 0.15805
vn -0.97226 0.17245 0.15805
vn -0.97226 0.17245 0.15805
vn -0.97226 0.17245 0.15805
vn -0.97226 0.17245 0.15805
vn -0.97226 0.17245 0.15805
vn -0.97226 0.17245 0.15805
vn -0.97226 0.17245 0.15805
vn -0.97226 0.17245 0.15805
vn -0.97226 0.17245 0.15805
vn -0.97226 0.17245 0.15805
vn -0.97226 0.17245 0.15805
vn -0.81457 -0.49344 0.30495
vn -0.81457 -0.49344 0.30495
vn -0.81457 -0.49344 0.30495
vn -0.81457 -0.49344 0.30495
vn -0.81457 -0.49344 0.30495
vn -0.81457 -0.49344 0.30495
vn -0.40053 0.70873 -0.58076
vn -0.40053 0.70873 -0.58076
vn -0.40053 0.70873 -0.58076
vn -0.40053 0.70873 -0.58076
vn -0.40053 0.70873 -0.58076
vn -0.40053 0.70873 -0.58076
vn -0.82987 -0.06876 -0.55370
vn -0.82987 -0.06876 -0.55370
vn -0.82987 -0.06876 -0.55370
vn -0.82987 -0.06876 -0.55370
vn -0.82987 -0.06876 -0.55370
vn -0.82987 -0.06876 -0.55370
vn -0.82987 -0.06876 -0.55370
vn -0.82987 -0.06876 -0.55370
vn -0.82987 -0.06876 -0.55370
vn -0.82987 -0.06876 -0.55370
vn -0.82987 -0.06876 -0.55370
vn -0.82987 -0.06876 -0.55370
vn -0.71040 -0.66991 -0.21576
vn -0.71040 -0.66991 -0.21576
vn -0.71040 -0.66991 -0.21576
vn -0.71040 -0.66991 -0.21576
vn -0.71040 -0.66991 -0.21576
vn -0.71040 -0.66991 -0.21576
vn -0.00431 0.56885 -0.82243
vn -0.00431 0.56885 -0.82243
vn -0.00431 0.56885 -0.82243
vn -0.00431 0.56885 -0.82243
vn -0.00431 0.56885 -0.82243
vn -0.00431 0.56885 -0.82243
vn -0.20466 -0.28949 -0.93505
vn -0.20466 -0.28949 -0.93505
vn -0.20466 -0.28949 -0.93505
vn -0.20466 -0.28949 -0.93505
vn -0.20466 -0.28949 -0.93505
vn -0.20466 -0.28949 -0.93505
vn -0.20466 -0.28949 -0.93505
vn -0.20466 -0.28949 -0.93505
vn -0.20466 -0.28949 -0.93505
vn -0.20466 -0.28949 -0.93505
vn -0.20466 -0.28949 -0.93505
vn -0.20466 -0.28949 -0.93505
vn -0.25300 -0.83139 -0.49475
vn -0.25300 -0.83139 -0.49475
vn -0.25300 -0.83139 -0.49475
vn -0.25300 -0.83139 -0.49475
vn -0.25300 -0.83139 -0.49475
vn -0.25300 -0.83139 -0.49475
vn 0.46578 0.52389 -0.71315
vn 0.46578 0.52389 -0.71315
vn 0.46578 0.52389 -0.71315
vn 0.46578 0.52389 -0.71315
vn 0.46578 0.52389 -0.71315
vn 0.46578 0.52389 -0.71315
vn 0.53714 -0.36043 -0.76261
vn 0.53714 -0.36043 -0.76261
vn 0.53714 -0.36043 -0.76261
vn 0.53714 -0.36043 -0.76261
vn 0.53714 -0.36043 -0.76261
vn 0.53714 -0.36043 -0.76261
vn 0.53714 -0.36043 -0.76261
vn 0.53714 -0.36043 -0.76261
vn 0.53714 -0.36043 -0.76261
vn 0.53714 -0.36043 -0.76261
vn 0.53714 -0.36043 -0.76261
vn 0.53714 -0.36043 -0.76261
vn 0.28970 -0.88329 -0.36860
vn 0.28970 -0.88329 -0.36860
vn 0.28970 -0.88329 -0.36860
vn 0.28970 -0.88329 -0.36860
vn 0.28970 -0.88329 -0.36860
vn 0.28970 -0.88329 -0.36860
usemtl bone_white
f 1//1 2//2 3//3
f 4//4 5//5 6//6
f 7//7 8//8 9//9
f 10//10 11//11 12//12
f 13//13 14//14 15//15
f 16//16 17//17 18//18
f 19//19 20//20 21//21
f 22//22 23//23 24//24
f 25//25 26//26 27//27
f 28//28 29//29 30//30
f 31//31 32//32 33//33
f 34//34 35//35 36//36
f 37//37 38//38 39//39
f 40//40 41//41 42//42
f 43//43 44//44 45//45
f 46//46 47//47 48//48
f 49//49 50//50 51//51
f 52//52 53//53 54//54
f 55//55 56//56 57//57
f 58//58 59//59 60//60
f 61//61 62//62 63//63
f 64//64 65//65 66//66
f 67//67 68//68 69//69
f 70//70 71//71 72//72
f 73//73 74//74 75//75
f 76//76 77//77 78//78
f 79//79 80//80 81//81
f 82//82 83//83 84//84
f 85//85 86//86 87//87
f 88//88 89//89 90//90
f 91//91 92//92 93//93
f 94//94 95//95 96//96
f 97//97 98//98 99//99
f 100//100 101//101 102//102
f 103//103 104//104 105//105
f 106//106 107//107 108//108
f 109//109 110//110 111//111
f 112//112 113//113 114//114
f 115//115 116//116 117//117
f 118//118 119//119 120//120
f 121//121 122//122 123//123
f 124//124 125//125 126//126
f 127//127 128//128 129//129
f 130//130 131//131 132//132
f 133//133 134//134 135//135
f 136//136 137//137 138//138
f 139//139 140//140 141//141
f 142//142 143//143 144//144
f 145//145 146//146 147//147
f 148//148 149//149 150//150
f 151//151 152//152 153//153
f 154//154 155//155 156//156
f 157//157 158//158 159//159
f 160//160 161//161 162//162
f 163//163 164//164 165//165
f 166//166 167//167 168//168
f 169//169 170//170 171//171
f 172//172 173//173 174//174
f 175//175 176//176 177//177
f 178//178 179//179 180//180
f 181//181 182//182 183//183
f 184//184 185//185 186//186
f 187//187 188//188 189//189
f 190//190 191//191 192//192
o leg_lower_L
v -0.05576 -0.37372 0.09842
v -0.04492 -0.37623 0.10885
v -0.04533 -0.38754 0.07066
v -0.02126 -0.39311 0.09385
v -0.04533 -0.38754 0.07066
v -0.04492 -0.37623 0.10885
v -0.04533 -0.38754 0.07066
v -0.02126 -0.39311 0.09385
v -0.03725 -0.54152 0.02706
v -0.01489 -0.54669 0.04859
v -0.03725 -0.54152 0.02706
v -0.02126 -0.39311 0.09385
v -0.03725 -0.54152 0.02706
v -0.01489 -0.54669 0.04859
v -0.02916 -0.69550 -0.01654
v -0.00852 -0.70027 0.00334
v -0.02916 -0.69550 -0.01654
v -0.01489 -0.54669 0.04859
v -0.02916 -0.69550 -0.01654
v -0.00852 -0.70027 0.00334
v -0.03574 -0.72241 -0.00449
v -0.02646 -0.72456 0.00445
v -0.03574 -0.72241 -0.00449
v -0.00852 -0.70027 0.00334
v -0.04492 -0.37623 0.10885
v -0.04482 -0.38064 0.12345
v -0.02126 -0.39311 0.09385
v -0.02104 -0.40293 0.12628
v -0.02126 -0.39311 0.09385
v -0.04482 -0.38064 0.12345
v -0.02126 -0.39311 0.09385
v -0.02104 -0.40293 0.12628
v -0.01489 -0.54669 0.04859
v -0.01469 -0.55580 0.07871
v -0.01489 -0.54669 0.04859
v -0.02104 -0.40293 0.12628
v -0.01489 -0.54669 0.04859
v -0.01469 -0.55580 0.07871
v -0.00852 -0.70027 0.00334
v -0.00834 -0.70868 0.03114
v -0.00852 -0.70027 0.00334
v -0.01469 -0.55580 0.07871
v -0.00852 -0.70027 0.00334
v -0.00834 -0.70868 0.03114
v -0.02646 -0.72456 0.00445
v -0.02637 -0.72835 0.01696
v -0.02646 -0.72456 0.00445
v -0.00834 -0.70868 0.03114
v -0.04482 -0.38064 0.12345
v -0.05552 -0.38438 0.13365
v -0.02104 -0.40293 0.12628
v -0.04480 -0.41124 0.14896
v -0.02104 -0.40293 0.12628
v -0.05552 -0.38438 0.13365
v -0.02104 -0.40293 0.12628
v -0.04480 -0.41124 0.14896
v -0.01469 -0.55580 0.07871
v -0.03675 -0.56352 0.09977
v -0.01469 -0.55580 0.07871
v -0.04480 -0.41124 0.14896
v -0.01469 -0.55580 0.07871
v -0.03675 -0.56352 0.09977
v -0.00834 -0.70868 0.03114
v -0.02871 -0.71581 0.05058
v -0.00834 -0.70868 0.03114
v -0.03675 -0.56352 0.09977
v -0.00834 -0.70868 0.03114
v -0.02871 -0.71581 0.05058
v -0.02637 -0.72835 0.01696
v -0.03554 -0.73155 0.02571
v -0.02637 -0.72835 0.01696
v -0.02871 -0.71581 0.05058
v -0.05552 -0.38438 0.13365
v -0.07074 -0.38526 0.13349
v -0.04480 -0.41124 0.14896
v -0.07863 -0.41318 0.14860
v -0.04480 -0.41124 0.14896
v -0.07074 -0.38526 0.13349
v -0.04480 -0.41124 0.14896
v -0.07863 -0.41318 0.14860
v -0.03675 -0.56352 0.09977
v -0.06817 -0.56533 0.09944
v -0.03675 -0.56352 0.09977
v -0.07863 -0.41318 0.14860
v -0.03675 -0.56352 0.09977
v -0.06817 -0.56533 0.09944
v -0.02871 -0.71581 0.05058
v -0.05770 -0.71747 0.05027
v -0.02871 -0.71581 0.05058
v -0.06817 -0.56533 0.09944
v -0.02871 -0.71581 0.05058
v -0.05770 -0.71747 0.05027
v -0.03554 -0.73155 0.02571
v -0.04859 -0.73230 0.02557
v -0.03554 -0.73155 0.02571
v -0.05770 -0.71747 0.05027
v -0.07074 -0.38526 0.13349
v -0.08157 -0.38275 0.12306
v -0.07863 -0.41318 0.14860
v -0.10271 -0.40761 0.12541
v -0.07863 -0.41318 0.14860
v -0.08157 -0.38275 0.12306
v -0.07863 -0.41318 0.14860
v -0.10271 -0.40761 0.12541
v -0.06817 -0.56533 0.09944
v -0.09052 -0.56016 0.07790
v -0.06817 -0.56533 0.09944
v -0.10271 -0.40761 0.12541
v -0.06817 -0.56533 0.09944
v -0.09052 -0.56016 0.07790
v -0.05770 -0.71747 0.05027
v -0.07834 -0.71270 0.03040
v -0.05770 -0.71747 0.05027
v -0.09052 -0.56016 0.07790
v -0.05770 -0.71747 0.05027
v -0.07834 -0.71270 0.03040
v -0.04859 -0.73230 0.02557
v -0.05787 -0.73015 0.01663
v -0.04859 -0.73230 0.02557
v -0.07834 -0.71270 0.03040
v -0.08157 -0.38275 0.12306
v -0.08167 -0.37834 0.10846
v -0.10271 -0.40761 0.12541
v -0.10293 -0.39780 0.09298
v -0.10271 -0.40761 0.12541
v -0.08167 -0.37834 0.10846
v -0.10271 -0.40761 0.12541
v -0.10293 -0.39780 0.09298
v -0.09052 -0.56016 0.07790
v -0.09073 -0.55104 0.04779
v -0.09052 -0.56016 0.07790
v -0.10293 -0.39780 0.09298
v -0.09052 -0.56016 0.07790
v -0.09073 -0.55104 0.04779
v -0.07834 -0.71270 0.03040
v -0.07853 -0.70429 0.00260
v -0.07834 -0.71270 0.03040
v -0.09073 -0.55104 0.04779
v -0.07834 -0.71270 0.03040
v -0.07853 -0.70429 0.00260
v -0.05787 -0.73015 0.01663
v -0.05796 -0.72637 0.00412
v -0.05787 -0.73015 0.01663
v -0.07853 -0.70429 0.00260
v -0.08167 -0.37834 0.10846
v -0.07098 -0.37460 0.09826
v -0.10293 -0.39780 0.09298
v -0.07916 -0.38949 0.07030
v -0.10293 -0.39780 0.09298
v -0.07098 -0.37460 0.09826
v -0.10293 -0.39780 0.09298
v -0.07916 -0.38949 0.07030
v -0.09073 -0.55104 0.04779
v -0.06866 -0.54332 0.02673
v -0.09073 -0.55104 0.04779
v -0.07916 -0.38949 0.07030
v -0.09073 -0.55104 0.04779
v -0.06866 -0.54332 0.02673
v -0.07853 -0.70429 0.00260
v -0.05816 -0.69716 -0.01684
v -0.07853 -0.70429 0.00260
v -0.06866 -0.54332 0.02673
v -0.07853 -0.70429 0.00260
v -0.05816 -0.69716 -0.01684
v -0.05796 -0.72637 0.00412
v -0.04879 -0.72316 -0.00463
v -0.05796 -0.72637 0.00412
v -0.05816 -0.69716 -0.01684
v -0.07098 -0.37460 0.09826
v -0.05576 -0.37372 0.09842
v -0.07916 -0.38949 0.07030
v -0.04533 -0.38754 0.07066
v -0.07916 -0.38949 0.07030
v -0.05576 -0.37372 0.09842
v -0.07916 -0.38949 0.07030
v -0.04533 -0.38754 0.07066
v -0.06866 -0.54332 0.02673
v -0.03725 -0.54152 0.02706
v -0.06866 -0.54332 0.02673
v -0.04533 -0.38754 0.07066
v -0.06866 -0.54332 0.02673
v -0.03725 -0.54152 0.02706
v -0.05816 -0.69716 -0.01684
v -0.02916 -0.69550 -0.01654
v -0.05816 -0.69716 -0.01684
v -0.03725 -0.54152 0.02706
v -0.05816 -0.69716 -0.01684
v -0.02916 -0.69550 -0.01654
v -0.04879 -0.72316 -0.00463
v -0.03574 -0.72241 -0.00449
v -0.04879 -0.72316 -0.00463
v -0.02916 -0.69550 -0.01654
vn 0.44703 0.85633 -0.25856
vn 0.44703 0.85633 -0.25856
vn 0.44703 0.85633 -0.25856
vn 0.44703 0.85633 -0.25856
vn 0.44703 0.85633 -0.25856
vn 0.44703 0.85633 -0.25856
vn 0.70226 0.22786 -0.67447
vn 0.70226 0.22786 -0.67447
vn 0.70226 0.22786 -0.67447
vn 0.70226 0.22786 -0.67447
vn 0.70226 0.22786 -0.67447
vn 0.70226 0.22786 -0.67447
vn 0.70226 0.22786 -0.67447
vn 0.70226 0.22786 -0.67447
vn 0.70226 0.22786 -0.67447
vn 0.70226 0.22786 -0.67447
vn 0.70226 0.22786 -0.67447
vn 0.70226 0.22786 -0.67447
vn 0.56411 -0.44834 -0.69338
vn 0.56411 -0.44834 -0.69338
vn 0.56411 -0.44834 -0.69338
vn 0.56411 -0.44834 -0.69338
vn 0.56411 -0.44834 -0.69338
vn 0.56411 -0.44834 -0.69338
vn 0.65392 0.72535 0.21507
vn 0.65392 0.72535 0.21507
vn 0.65392 0.72535 0.21507
vn 0.65392 0.72535 0.21507
vn 0.65392 0.72535 0.21507
vn 0.65392 0.72535 0.21507
vn 0.99919 0.03987 0.00529
vn 0.99919 0.03987 0.00529
vn 0.99919 0.03987 0.00529
vn 0.99919 0.03987 0.00529
vn 0.99919 0.03987 0.00529
vn 0.99919 0.03987 0.00529
vn 0.99919 0.03987 0.00529
vn 0.99919 0.03987 0.00529
vn 0.99919 0.03987 0.00529
vn 0.99919 0.03987 0.00529
vn 0.99919 0.03987 0.00529
vn 0.99919 0.03987 0.00529
vn 0.78676 -0.58931 -0.18367
vn 0.78676 -0.58931 -0.18367
vn 0.78676 -0.58931 -0.18367
vn 0.78676 -0.58931 -0.18367
vn 0.78676 -0.58931 -0.18367
vn 0.78676 -0.58931 -0.18367
vn 0.45342 0.57098 0.68439
vn 0.45342 0.57098 0.68439
vn 0.45342 0.57098 0.68439
vn 0.45342 0.57098 0.68439
vn 0.45342 0.57098 0.68439
vn 0.45342 0.57098 0.68439
vn 0.71143 -0.18169 0.67887
vn 0.71143 -0.18169 0.67887
vn 0.71143 -0.18169 0.67887
vn 0.71143 -0.18169 0.67887
vn 0.71143 -0.18169 0.67887
vn 0.71143 -0.18169 0.67887
vn 0.71143 -0.18169 0.67887
vn 0.71143 -0.18169 0.67887
vn 0.71143 -0.18169 0.67887
vn 0.71143 -0.18169 0.67887
vn 0.71143 -0.18169 0.67887
vn 0.71143 -0.18169 0.67887
vn 0.57098 -0.75543 0.32140
vn 0.57098 -0.75543 0.32140
vn 0.57098 -0.75543 0.32140
vn 0.57098 -0.75543 0.32140
vn 0.57098 -0.75543 0.32140
vn 0.57098 -0.75543 0.32140
vn -0.03702 0.48365 0.87448
vn -0.03702 0.48365 0.87448
vn -0.03702 0.48365 0.87448
vn -0.03702 0.48365 0.87448
vn -0.03702 0.48365 0.87448
vn -0.03702 0.48365 0.87448
vn 0.00754 -0.30701 0.95167
vn 0.00754 -0.30701 0.95167
vn 0.00754 -0.30701 0.95167
vn 0.00754 -0.30701 0.95167
vn 0.00754 -0.30701 0.95167
vn 0.00754 -0.30701 0.95167
vn 0.00754 -0.30701 0.95167
vn 0.00754 -0.30701 0.95167
vn 0.00754 -0.30701 0.95167
vn 0.00754 -0.30701 0.95167
vn 0.00754 -0.30701 0.95167
vn 0.00754 -0.30701 0.95167
vn 0.04318 -0.84941 0.52596
vn 0.04318 -0.84941 0.52596
vn 0.04318 -0.84941 0.52596
vn 0.04318 -0.84941 0.52596
vn 0.04318 -0.84941 0.52596
vn 0.04318 -0.84941 0.52596
vn -0.53011 0.51453 0.67397
vn -0.53011 0.51453 0.67397
vn -0.53011 0.51453 0.67397
vn -0.53011 0.51453 0.67397
vn -0.53011 0.51453 0.67397
vn -0.53011 0.51453 0.67397
vn -0.70015 -0.26270 0.66391
vn -0.70015 -0.26270 0.66391
vn -0.70015 -0.26270 0.66391
vn -0.70015 -0.26270 0.66391
vn -0.70015 -0.26270 0.66391
vn -0.70015 -0.26270 0.66391
vn -0.70015 -0.26270 0.66391
vn -0.70015 -0.26270 0.66391
vn -0.70015 -0.26270 0.66391
vn -0.70015 -0.26270 0.66391
vn -0.70015 -0.26270 0.66391
vn -0.70015 -0.26270 0.66391
vn -0.48747 -0.81618 0.31019
vn -0.48747 -0.81618 0.31019
vn -0.48747 -0.81618 0.31019
vn -0.48747 -0.81618 0.31019
vn -0.48747 -0.81618 0.31019
vn -0.48747 -0.81618 0.31019
vn -0.73701 0.64551 0.20034
vn -0.73701 0.64551 0.20034
vn -0.73701 0.64551 0.20034
vn -0.73701 0.64551 0.20034
vn -0.73701 0.64551 0.20034
vn -0.73701 0.64551 0.20034
vn -0.99708 -0.07471 -0.01585
vn -0.99708 -0.07471 -0.01585
vn -0.99708 -0.07471 -0.01585
vn -0.99708 -0.07471 -0.01585
vn -0.99708 -0.07471 -0.01585
vn -0.99708 -0.07471 -0.01585
vn -0.99708 -0.07471 -0.01585
vn -0.99708 -0.07471 -0.01585
vn -0.99708 -0.07471 -0.01585
vn -0.99708 -0.07471 -0.01585
vn -0.99708 -0.07471 -0.01585
vn -0.99708 -0.07471 -0.01585
vn -0.71012 -0.67522 -0.19952
vn -0.71012 -0.67522 -0.19952
vn -0.71012 -0.67522 -0.19952
vn -0.71012 -0.67522 -0.19952
vn -0.71012 -0.67522 -0.19952
vn -0.71012 -0.67522 -0.19952
vn -0.53650 0.79988 -0.26898
vn -0.53650 0.79988 -0.26898
vn -0.53650 0.79988 -0.26898
vn -0.53650 0.79988 -0.26898
vn -0.53650 0.79988 -0.26898
vn -0.53650 0.79988 -0.26898
vn -0.70932 0.14684 -0.68942
vn -0.70932 0.14684 -0.68942
vn -0.70932 0.14684 -0.68942
vn -0.70932 0.14684 -0.68942
vn -0.70932 0.14684 -0.68942
vn -0.70932 0.14684 -0.68942
vn -0.70932 0.14684 -0.68942
vn -0.70932 0.14684 -0.68942
vn -0.70932 0.14684 -0.68942
vn -0.70932 0.14684 -0.68942
vn -0.70932 0.14684 -0.68942
vn -0.70932 0.14684 -0.68942
vn -0.49434 -0.50909 -0.70459
vn -0.49434 -0.50909 -0.70459
vn -0.49434 -0.50909 -0.70459
vn -0.49434 -0.50909 -0.70459
vn -0.49434 -0.50909 -0.70459
vn -0.49434 -0.50909 -0.70459
vn -0.04606 0.88721 -0.45907
vn -0.04606 0.88721 -0.45907
vn -0.04606 0.88721 -0.45907
vn -0.04606 0.88721 -0.45907
vn -0.04606 0.88721 -0.45907
vn -0.04606 0.88721 -0.45907
vn -0.00543 0.27217 -0.96223
vn -0.00543 0.27217 -0.96223
vn -0.00543 0.27217 -0.96223
vn -0.00543 0.27217 -0.96223
vn -0.00543 0.27217 -0.96223
vn -0.00543 0.27217 -0.96223
vn -0.00543 0.27217 -0.96223
vn -0.00543 0.27217 -0.96223
vn -0.00543 0.27217 -0.96223
vn -0.00543 0.27217 -0.96223
vn -0.00543 0.27217 -0.96223
vn -0.00543 0.27217 -0.96223
vn 0.03346 -0.41511 -0.90915
vn 0.03346 -0.41511 -0.90915
vn 0.03346 -0.41511 -0.90915
vn 0.03346 -0.41511 -0.90915
vn 0.03346 -0.41511 -0.90915
vn 0.03346 -0.41511 -0.90915
usemtl bone_white
f 193//193 194//194 195//195
f 196//196 197//197 198//198
f 199//199 200//200 201//201
f 202//202 203//203 204//204
f 205//205 206//206 207//207
f 208//208 209//209 210//210
f 211//211 212//212 213//213
f 214//214 215//215 216//216
f 217//217 218//218 219//219
f 220//220 221//221 222//222
f 223//223 224//224 225//225
f 226//226 227//227 228//228
f 229//229 230//230 231//231
f 232//232 233//233 234//234
f 235//235 236//236 237//237
f 238//238 239//239 240//240
f 241//241 242//242 243//243
f 244//244 245//245 246//246
f 247//247 248//248 249//249
f 250//250 251//251 252//252
f 253//253 254//254 255//255
f 256//256 257//257 258//258
f 259//259 260//260 261//261
f 262//262 263//263 264//264
f 265//265 266//266 267//267
f 268//268 269//269 270//270
f 271//271 272//272 273//273
f 274//274 275//275 276//276
f 277//277 278//278 279//279
f 280//280 281//281 282//282
f 283//283 284//284 285//285
f 286//286 287//287 288//288
f 289//289 290//290 291//291
f 292//292 293//293 294//294
f 295//295 296//296 297//297
f 298//298 299//299 300//300
f 301//301 302//302 303//303
f 304//304 305//305 306//306
f 307//307 308//308 309//309
f 310//310 311//311 312//312
f 313//313 314//314 315//315
f 316//316 317//317 318//318
f 319//319 320//320 321//321
f 322//322 323//323 324//324
f 325//325 326//326 327//327
f 328//328 329//329 330//330
f 331//331 332//332 333//333
f 334//334 335//335 336//336
f 337//337 338//338 339//339
f 340//340 341//341 342//342
f 343//343 344//344 345//345
f 346//346 347//347 348//348
f 349//349 350//350 351//351
f 352//352 353//353 354//354
f 355//355 356//356 357//357
f 358//358 359//359 360//360
f 361//361 362//362 363//363
f 364//364 365//365 366//366
f 367//367 368//368 369//369
f 370//370 371//371 372//372
f 373//373 374//374 375//375
f 376//376 377//377 378//378
f 379//379 380//380 381//381
f 382//382 383//383 384//384
o leg_joint_L
v -0.06325 -0.32858 0.11596
v -0.08871 -0.33540 0.11596
v -0.08125 -0.33540 0.13396
v -0.06325 -0.32858 0.11596
v -0.08125 -0.33540 0.13396
v -0.06325 -0.33540 0.14141
v -0.06325 -0.32858 0.11596
v -0.06325 -0.33540 0.14141
v -0.04525 -0.33540 0.13396
v -0.06325 -0.32858 0.11596
v -0.04525 -0.33540 0.13396
v -0.03779 -0.33540 0.11596
v -0.06325 -0.32858 0.11596
v -0.03779 -0.33540 0.11596
v -0.04525 -0.33540 0.09795
v -0.06325 -0.32858 0.11596
v -0.04525 -0.33540 0.09795
v -0.06325 -0.33540 0.09050
v -0.06325 -0.32858 0.11596
v -0.06325 -0.33540 0.09050
v -0.08125 -0.33540 0.09795
v -0.06325 -0.32858 0.11596
v -0.08125 -0.33540 0.09795
v -0.08871 -0.33540 0.11596
v -0.08125 -0.33540 0.13396
v -0.08871 -0.33540 0.11596
v -0.09443 -0.35403 0.14713
v -0.08871 -0.33540 0.11596
v -0.10734 -0.35403 0.11596
v -0.09443 -0.35403 0.14713
v -0.06325 -0.33540 0.14141
v -0.08125 -0.33540 0.13396
v -0.06325 -0.35403 0.16005
v -0.08125 -0.33540 0.13396
v -0.09443 -0.35403 0.14713
v -0.06325 -0.35403 0.16005
v -0.04525 -0.33540 0.13396
v -0.06325 -0.33540 0.14141
v -0.03207 -0.35403 0.14713
v -0.06325 -0.33540 0.14141
v -0.06325 -0.35403 0.16005
v -0.03207 -0.35403 0.14713
v -0.03779 -0.33540 0.11596
v -0.04525 -0.33540 0.13396
v -0.01915 -0.35403 0.11596
v -0.04525 -0.33540 0.13396
v -0.03207 -0.35403 0.14713
v -0.01915 -0.35403 0.11596
v -0.04525 -0.33540 0.09795
v -0.03779 -0.33540 0.11596
v -0.03207 -0.35403 0.08478
v -0.03779 -0.33540 0.11596
v -0.01915 -0.35403 0.11596
v -0.03207 -0.35403 0.08478
v -0.06325 -0.33540 0.09050
v -0.04525 -0.33540 0.09795
v -0.06325 -0.35403 0.07186
v -0.04525 -0.33540 0.09795
v -0.03207 -0.35403 0.08478
v -0.06325 -0.35403 0.07186
v -0.08125 -0.33540 0.09795
v -0.06325 -0.33540 0.09050
v -0.09443 -0.35403 0.08478
v -0.06325 -0.33540 0.09050
v -0.06325 -0.35403 0.07186
v -0.09443 -0.35403 0.08478
v -0.08871 -0.33540 0.11596
v -0.08125 -0.33540 0.09795
v -0.10734 -0.35403 0.11596
v -0.08125 -0.33540 0.09795
v -0.09443 -0.35403 0.08478
v -0.10734 -0.35403 0.11596
v -0.09443 -0.35403 0.14713
v -0.10734 -0.35403 0.11596
v -0.09925 -0.37949 0.15196
v -0.10734 -0.35403 0.11596
v -0.11416 -0.37949 0.11596
v -0.09925 -0.37949 0.15196
v -0.06325 -0.35403 0.16005
v -0.09443 -0.35403 0.14713
v -0.06325 -0.37949 0.16687
v -0.09443 -0.35403 0.14713
v -0.09925 -0.37949 0.15196
v -0.06325 -0.37949 0.16687
v -0.03207 -0.35403 0.14713
v -0.06325 -0.35403 0.16005
v -0.02725 -0.37949 0.15196
v -0.06325 -0.35403 0.16005
v -0.06325 -0.37949 0.16687
v -0.02725 -0.37949 0.15196
v -0.01915 -0.35403 0.11596
v -0.03207 -0.35403 0.14713
v -0.01233 -0.37949 0.11596
v -0.03207 -0.35403 0.14713
v -0.02725 -0.37949 0.15196
v -0.01233 -0.37949 0.11596
v -0.03207 -0.35403 0.08478
v -0.01915 -0.35403 0.11596
v -0.02725 -0.37949 0.07995
v -0.01915 -0.35403 0.11596
v -0.01233 -0.37949 0.11596
v -0.02725 -0.37949 0.07995
v -0.06325 -0.35403 0.07186
v -0.03207 -0.35403 0.08478
v -0.06325 -0.37949 0.06504
v -0.03207 -0.35403 0.08478
v -0.02725 -0.37949 0.07995
v -0.06325 -0.37949 0.06504
v -0.09443 -0.35403 0.08478
v -0.06325 -0.35403 0.07186
v -0.09925 -0.37949 0.07995
v -0.06325 -0.35403 0.07186
v -0.06325 -0.37949 0.06504
v -0.09925 -0.37949 0.07995
v -0.10734 -0.35403 0.11596
v -0.09443 -0.35403 0.08478
v -0.11416 -0.37949 0.11596
v -0.09443 -0.35403 0.08478
v -0.09925 -0.37949 0.07995
v -0.11416 -0.37949 0.11596
v -0.09925 -0.37949 0.15196
v -0.11416 -0.37949 0.11596
v -0.09443 -0.40495 0.14713
v -0.11416 -0.37949 0.11596
v -0.10734 -0.40495 0.11596
v -0.09443 -0.40495 0.14713
v -0.06325 -0.37949 0.16687
v -0.09925 -0.37949 0.15196
v -0.06325 -0.40495 0.16005
v -0.09925 -0.37949 0.15196
v -0.09443 -0.40495 0.14713
v -0.06325 -0.40495 0.16005
v -0.02725 -0.37949 0.15196
v -0.06325 -0.37949 0.16687
v -0.03207 -0.40495 0.14713
v -0.06325 -0.37949 0.16687
v -0.06325 -0.40495 0.16005
v -0.03207 -0.40495 0.14713
v -0.01233 -0.37949 0.11596
v -0.02725 -0.37949 0.15196
v -0.01915 -0.40495 0.11596
v -0.02725 -0.37949 0.15196
v -0.03207 -0.40495 0.14713
v -0.01915 -0.40495 0.11596
v -0.02725 -0.37949 0.07995
v -0.01233 -0.37949 0.11596
v -0.03207 -0.40495 0.08478
v -0.01233 -0.37949 0.11596
v -0.01915 -0.40495 0.11596
v -0.03207 -0.40495 0.08478
v -0.06325 -0.37949 0.06504
v -0.02725 -0.37949 0.07995
v -0.06325 -0.40495 0.07186
v -0.02725 -0.37949 0.07995
v -0.03207 -0.40495 0.08478
v -0.06325 -0.40495 0.07186
v -0.09925 -0.37949 0.07995
v -0.06325 -0.37949 0.06504
v -0.09443 -0.40495 0.08478
v -0.06325 -0.37949 0.06504
v -0.06325 -0.40495 0.07186
v -0.09443 -0.40495 0.08478
v -0.11416 -0.37949 0.11596
v -0.09925 -0.37949 0.07995
v -0.10734 -0.40495 0.11596
v -0.09925 -0.37949 0.07995
v -0.09443 -0.40495 0.08478
v -0.10734 -0.40495 0.11596
v -0.09443 -0.40495 0.14713
v -0.10734 -0.40495 0.11596
v -0.08125 -0.42358 0.13396
v -0.10734 -0.40495 0.11596
v -0.08871 -0.42358 0.11596
v -0.08125 -0.42358 0.13396
v -0.06325 -0.40495 0.16005
v -0.09443 -0.40495 0.14713
v -0.06325 -0.42358 0.14141
v -0.09443 -0.40495 0.14713
v -0.08125 -0.42358 0.13396
v -0.06325 -0.42358 0.14141
v -0.03207 -0.40495 0.14713
v -0.06325 -0.40495 0.16005
v -0.04525 -0.42358 0.13396
v -0.06325 -0.40495 0.16005
v -0.06325 -0.42358 0.14141
v -0.04525 -0.42358 0.13396
v -0.01915 -0.40495 0.11596
v -0.03207 -0.40495 0.14713
v -0.03779 -0.42358 0.11596
v -0.03207 -0.40495 0.14713
v -0.04525 -0.42358 0.13396
v -0.03779 -0.42358 0.11596
v -0.03207 -0.40495 0.08478
v -0.01915 -0.40495 0.11596
v -0.04525 -0.42358 0.09795
v -0.01915 -0.40495 0.11596
v -0.03779 -0.42358 0.11596
v -0.04525 -0.42358 0.09795
v -0.06325 -0.40495 0.07186
v -0.03207 -0.40495 0.08478
v -0.06325 -0.42358 0.09050
v -0.03207 -0.40495 0.08478
v -0.04525 -0.42358 0.09795
v -0.06325 -0.42358 0.09050
v -0.09443 -0.40495 0.08478
v -0.06325 -0.40495 0.07186
v -0.08125 -0.42358 0.09795
v -0.06325 -0.40495 0.07186
v -0.06325 -0.42358 0.09050
v -0.08125 -0.42358 0.09795
v -0.10734 -0.40495 0.11596
v -0.09443 -0.40495 0.08478
v -0.08871 -0.42358 0.11596
v -0.09443 -0.40495 0.08478
v -0.08125 -0.42358 0.09795
v -0.08871 -0.42358 0.11596
v -0.08125 -0.42358 0.13396
v -0.08871 -0.42358 0.11596
v -0.06325 -0.43041 0.11596
v -0.06325 -0.42358 0.14141
v -0.08125 -0.42358 0.13396
v -0.06325 -0.43041 0.11596
v -0.04525 -0.42358 0.13396
v -0.06325 -0.42358 0.14141
v -0.06325 -0.43041 0.11596
v -0.03779 -0.42358 0.11596
v -0.04525 -0.42358 0.13396
v -0.06325 -0.43041 0.11596
v -0.04525 -0.42358 0.09795
v -0.03779 -0.42358 0.11596
v -0.06325 -0.43041 0.11596
v -0.06325 -0.42358 0.09050
v -0.04525 -0.42358 0.09795
v -0.06325 -0.43041 0.11596
v -0.08125 -0.42358 0.09795
v -0.06325 -0.42358 0.09050
v -0.06325 -0.43041 0.11596
v -0.08871 -0.42358 0.11596
v -0.08125 -0.42358 0.09795
v -0.06325 -0.43041 0.11596
vn -0.25734 0.96042 0.10660
vn -0.25734 0.96042 0.10660
vn -0.25734 0.96042 0.10660
vn -0.10660 0.96042 0.25734
vn -0.10660 0.96042 0.25734
vn -0.10660 0.96042 0.25734
vn 0.10660 0.96042 0.25734
vn 0.10660 0.96042 0.25734
vn 0.10660 0.96042 0.25734
vn 0.25734 0.96042 0.10660
vn 0.25734 0.96042 0.10660
vn 0.25734 0.96042 0.10660
vn 0.25734 0.96042 -0.10660
vn 0.25734 0.96042 -0.10660
vn 0.25734 0.96042 -0.10660
vn 0.10660 0.96042 -0.25734
vn 0.10660 0.96042 -0.25734
vn 0.10660 0.96042 -0.25734
vn -0.10660 0.96042 -0.25734
vn -0.10660 0.96042 -0.25734
vn -0.10660 0.96042 -0.25734
vn -0.25734 0.96042 -0.10660
vn -0.25734 0.96042 -0.10660
vn -0.25734 0.96042 -0.10660
vn -0.67860 0.67860 0.28108
vn -0.67860 0.67860 0.28108
vn -0.67860 0.67860 0.28108
vn -0.67860 0.67860 0.28108
vn -0.67860 0.67860 0.28108
vn -0.67860 0.67860 0.28108
vn -0.28108 0.67860 0.67860
vn -0.28108 0.67860 0.67860
vn -0.28108 0.67860 0.67860
vn -0.28108 0.67860 0.67860
vn -0.28108 0.67860 0.67860
vn -0.28108 0.67860 0.67860
vn 0.28108 0.67860 0.67860
vn 0.28108 0.67860 0.67860
vn 0.28108 0.67860 0.67860
vn 0.28108 0.67860 0.67860
vn 0.28108 0.67860 0.67860
vn 0.28108 0.67860 0.67860
vn 0.67860 0.67860 0.28108
vn 0.67860 0.67860 0.28108
vn 0.67860 0.67860 0.28108
vn 0.67860 0.67860 0.28108
vn 0.67860 0.67860 0.28108
vn 0.67860 0.67860 0.28108
vn 0.67860 0.67860 -0.28108
vn 0.67860 0.67860 -0.28108
vn 0.67860 0.67860 -0.28108
vn 0.67860 0.67860 -0.28108
vn 0.67860 0.67860 -0.28108
vn 0.67860 0.67860 -0.28108
vn 0.28108 0.67860 -0.67860
vn 0.28108 0.67860 -0.67860
vn 0.28108 0.67860 -0.67860
vn 0.28108 0.67860 -0.67860
vn 0.28108 0.67860 -0.67860
vn 0.28108 0.67860 -0.67860
vn -0.28108 0.67860 -0.67860
vn -0.28108 0.67860 -0.67860
vn -0.28108 0.67860 -0.67860
vn -0.28108 0.67860 -0.67860
vn -0.28108 0.67860 -0.67860
vn -0.28108 0.67860 -0.67860
vn -0.67860 0.67860 -0.28108
vn -0.67860 0.67860 -0.28108
vn -0.67860 0.67860 -0.28108
vn -0.67860 0.67860 -0.28108
vn -0.67860 0.67860 -0.28108
vn -0.67860 0.67860 -0.28108
vn -0.89681 0.24030 0.37147
vn -0.89681 0.24030 0.37147
vn -0.89681 0.24030 0.37147
vn -0.89681 0.24030 0.37147
vn -0.89681 0.24030 0.37147
vn -0.89681 0.24030 0.37147
vn -0.37147 0.24030 0.89681
vn -0.37147 0.24030 0.89681
vn -0.37147 0.24030 0.89681
vn -0.37147 0.24030 0.89681
vn -0.37147 0.24030 0.89681
vn -0.37147 0.24030 0.89681
vn 0.37147 0.24030 0.89681
vn 0.37147 0.24030 0.89681
vn 0.37147 0.24030 0.89681
vn 0.37147 0.24030 0.89681
vn 0.37147 0.24030 0.89681
vn 0.37147 0.24030 0.89681
vn 0.89681 0.24030 0.37147
vn 0.89681 0.24030 0.37147
vn 0.89681 0.24030 0.37147
vn 0.89681 0.24030 0.37147
vn 0.89681 0.24030 0.37147
vn 0.89681 0.24030 0.37147
vn 0.89681 0.24030 -0.37147
vn 0.89681 0.24030 -0.37147
vn 0.89681 0.24030 -0.37147
vn 0.89681 0.24030 -0.37147
vn 0.89681 0.24030 -0.37147
vn 0.89681 0.24030 -0.37147
vn 0.37147 0.24030 -0.89681
vn 0.37147 0.24030 -0.89681
vn 0.37147 0.24030 -0.89681
vn 0.37147 0.24030 -0.89681
vn 0.37147 0.24030 -0.89681
vn 0.37147 0.24030 -0.89681
vn -0.37147 0.24030 -0.89681
vn -0.37147 0.24030 -0.89681
vn -0.37147 0.24030 -0.89681
vn -0.37147 0.24030 -0.89681
vn -0.37147 0.24030 -0.89681
vn -0.37147 0.24030 -0.89681
vn -0.89681 0.24030 -0.37147
vn -0.89681 0.24030 -0.37147
vn -0.89681 0.24030 -0.37147
vn -0.89681 0.24030 -0.37147
vn -0.89681 0.24030 -0.37147
vn -0.89681 0.24030 -0.37147
vn -0.89681 -0.24030 0.37147
vn -0.89681 -0.24030 0.37147
vn -0.89681 -0.24030 0.37147
vn -0.89681 -0.24030 0.37147
vn -0.89681 -0.24030 0.37147
vn -0.89681 -0.24030 0.37147
vn -0.37147 -0.24030 0.89681
vn -0.37147 -0.24030 0.89681
vn -0.37147 -0.24030 0.89681
vn -0.37147 -0.24030 0.89681
vn -0.37147 -0.24030 0.89681
vn -0.37147 -0.24030 0.89681
vn 0.37147 -0.24030 0.89681
vn 0.37147 -0.24030 0.89681
vn 0.37147 -0.24030 0.89681
vn 0.37147 -0.24030 0.89681
vn 0.37147 -0.24030 0.89681
vn 0.37147 -0.24030 0.89681
vn 0.89681 -0.24030 0.37147
vn 0.89681 -0.24030 0.37147
vn 0.89681 -0.24030 0.37147
vn 0.89681 -0.24030 0.37147
vn 0.89681 -0.24030 0.37147
vn 0.89681 -0.24030 0.37147
vn 0.89681 -0.24030 -0.37147
vn 0.89681 -0.24030 -0.37147
vn 0.89681 -0.24030 -0.37147
vn 0.89681 -0.24030 -0.37147
vn 0.89681 -0.24030 -0.37147
vn 0.89681 -0.24030 -0.37147
vn 0.37147 -0.24030 -0.89681
vn 0.37147 -0.24030 -0.89681
vn 0.37147 -0.24030 -0.89681
vn 0.37147 -0.24030 -0.89681
vn 0.37147 -0.24030 -0.89681
vn 0.37147 -0.24030 -0.89681
vn -0.37147 -0.24030 -0.89681
vn -0.37147 -0.24030 -0.89681
vn -0.37147 -0.24030 -0.89681
vn -0.37147 -0.24030 -0.89681
vn -0.37147 -0.24030 -0.89681
vn -0.37147 -0.24030 -0.89681
vn -0.89681 -0.24030 -0.37147
vn -0.89681 -0.24030 -0.37147
vn -0.89681 -0.24030 -0.37147
vn -0.89681 -0.24030 -0.37147
vn -0.89681 -0.24030 -0.37147
vn -0.89681 -0.24030 -0.37147
vn -0.67860 -0.67860 0.28108
vn -0.67860 -0.67860 0.28108
vn -0.67860 -0.67860 0.28108
vn -0.67860 -0.67860 0.28108
vn -0.67860 -0.67860 0.28108
vn -0.67860 -0.67860 0.28108
vn -0.28108 -0.67860 0.67860
vn -0.28108 -0.67860 0.67860
vn -0.28108 -0.67860 0.67860
vn -0.28108 -0.67860 0.67860
vn -0.28108 -0.67860 0.67860
vn -0.28108 -0.67860 0.67860
vn 0.28108 -0.67860 0.67860
vn 0.28108 -0.67860 0.67860
vn 0.28108 -0.67860 0.67860
vn 0.28108 -0.67860 0.67860
vn 0.28108 -0.67860 0.67860
vn 0.28108 -0.67860 0.67860
vn 0.67860 -0.67860 0.28108
vn 0.67860 -0.67860 0.28108
vn 0.67860 -0.67860 0.28108
vn 0.67860 -0.67860 0.28108
vn 0.67860 -0.67860 0.28108
vn 0.67860 -0.67860 0.28108
vn 0.67860 -0.67860 -0.28108
vn 0.67860 -0.67860 -0.28108
vn 0.67860 -0.67860 -0.28108
vn 0.67860 -0.67860 -0.28108
vn 0.67860 -0.67860 -0.28108
vn 0.67860 -0.67860 -0.28108
vn 0.28108 -0.67860 -0.67860
vn 0.28108 -0.67860 -0.67860
vn 0.28108 -0.67860 -0.67860
vn 0.28108 -0.67860 -0.67860
vn 0.28108 -0.67860 -0.67860
vn 0.28108 -0.67860 -0.67860
vn -0.28108 -0.67860 -0.67860
vn -0.28108 -0.67860 -0.67860
vn -0.28108 -0.67860 -0.67860
vn -0.28108 -0.67860 -0.67860
vn -0.28108 -0.67860 -0.67860
vn -0.28108 -0.67860 -0.67860
vn -0.67860 -0.67860 -0.28108
vn -0.67860 -0.67860 -0.28108
vn -0.67860 -0.67860 -0.28108
vn -0.67860 -0.67860 -0.28108
vn -0.67860 -0.67860 -0.28108
vn -0.67860 -0.67860 -0.28108
vn -0.25734 -0.96042 0.10660
vn -0.25734 -0.96042 0.10660
vn -0.25734 -0.96042 0.10660
vn -0.10660 -0.96042 0.25734
vn -0.10660 -0.96042 0.25734
vn -0.10660 -0.96042 0.25734
vn 0.10660 -0.96042 0.25734
vn 0.10660 -0.96042 0.25734
vn 0.10660 -0.96042 0.25734
vn 0.25734 -0.96042 0.10660
vn 0.25734 -0.96042 0.10660
vn 0.25734 -0.96042 0.10660
vn 0.25734 -0.96042 -0.10660
vn 0.25734 -0.96042 -0.10660
vn 0.25734 -0.96042 -0.10660
vn 0.10660 -0.96042 -0.25734
vn 0.10660 -0.96042 -0.25734
vn 0.10660 -0.96042 -0.25734
vn -0.10660 -0.96042 -0.25734
vn -0.10660 -0.96042 -0.25734
vn -0.10660 -0.96042 -0.25734
vn -0.25734 -0.96042 -0.10660
vn -0.25734 -0.96042 -0.10660
vn -0.25734 -0.96042 -0.10660
usemtl ice_blue
f 385//385 386//386 387//387
f 388//388 389//389 390//390
f 391//391 392//392 393//393
f 394//394 395//395 396//396
f 397//397 398//398 399//399
f 400//400 401//401 402//402
f 403//403 404//404 405//405
f 406//406 407//407 408//408
f 409//409 410//410 411//411
f 412//412 413//413 414//414
f 415//415 416//416 417//417
f 418//418 419//419 420//420
f 421//421 422//422 423//423
f 424//424 425//425 426//426
f 427//427 428//428 429//429
f 430//430 431//431 432//432
f 433//433 434//434 435//435
f 436//436 437//437 438//438
f 439//439 440//440 441//441
f 442//442 443//443 444//444
f 445//445 446//446 447//447
f 448//448 449//449 450//450
f 451//451 452//452 453//453
f 454//454 455//455 456//456
f 457//457 458//458 459//459
f 460//460 461//461 462//462
f 463//463 464//464 465//465
f 466//466 467//467 468//468
f 469//469 470//470 471//471
f 472//472 473//473 474//474
f 475//475 476//476 477//477
f 478//478 479//479 480//480
f 481//481 482//482 483//483
f 484//484 485//485 486//486
f 487//487 488//488 489//489
f 490//490 491//491 492//492
f 493//493 494//494 495//495
f 496//496 497//497 498//498
f 499//499 500//500 501//501
f 502//502 503//503 504//504
f 505//505 506//506 507//507
f 508//508 509//509 510//510
f 511//511 512//512 513//513
f 514//514 515//515 516//516
f 517//517 518//518 519//519
f 520//520 521//521 522//522
f 523//523 524//524 525//525
f 526//526 527//527 528//528
f 529//529 530//530 531//531
f 532//532 533//533 534//534
f 535//535 536//536 537//537
f 538//538 539//539 540//540
f 541//541 542//542 543//543
f 544//544 545//545 546//546
f 547//547 548//548 549//549
f 550//550 551//551 552//552
f 553//553 554//554 555//555
f 556//556 557//557 558//558
f 559//559 560//560 561//561
f 562//562 563//563 564//564
f 565//565 566//566 567//567
f 568//568 569//569 570//570
f 571//571 572//572 573//573
f 574//574 575//575 576//576
f 577//577 578//578 579//579
f 580//580 581//581 582//582
f 583//583 584//584 585//585
f 586//586 587//587 588//588
f 589//589 590//590 591//591
f 592//592 593//593 594//594
f 595//595 596//596 597//597
f 598//598 599//599 600//600
f 601//601 602//602 603//603
f 604//604 605//605 606//606
f 607//607 608//608 609//609
f 610//610 611//611 612//612
f 613//613 614//614 615//615
f 616//616 617//617 618//618
f 619//619 620//620 621//621
f 622//622 623//623 624//624
