mtllib imp_scurrier_leg_L.mtl
o leg_upper_L
v 0.01724 -0.01081 -0.01286
v 0.02352 -0.00408 0.00309
v 0.03381 -0.04265 -0.01895
v 0.04778 -0.02768 0.01650
v 0.03381 -0.04265 -0.01895
v 0.02352 -0.00408 0.00309
v 0.03381 -0.04265 -0.01895
v 0.04778 -0.02768 0.01650
v -0.00374 -0.17628 0.05509
v 0.00855 -0.16310 0.08629
v -0.00374 -0.17628 0.05509
v 0.04778 -0.02768 0.01650
v -0.00374 -0.17628 0.05509
v 0.00855 -0.16310 0.08629
v -0.04129 -0.30991 0.12913
v -0.03067 -0.29853 0.15607
v -0.04129 -0.30991 0.12913
v 0.00855 -0.16310 0.08629
v -0.04129 -0.30991 0.12913
v -0.03067 -0.29853 0.15607
v -0.06179 -0.31848 0.15070
v -0.05701 -0.31336 0.16283
v -0.06179 -0.31848 0.15070
v -0.03067 -0.29853 0.15607
v 0.02352 -0.00408 0.00309
v 0.01603 0.00505 0.01724
v 0.04778 -0.02768 0.01650
v 0.03113 -0.00740 0.04793
v 0.04778 -0.02768 0.01650
v 0.01603 0.00505 0.01724
v 0.04778 -0.02768 0.01650
v 0.03113 -0.00740 0.04793
v 0.00855 -0.16310 0.08629
v -0.00610 -0.14526 0.11394
v 0.00855 -0.16310 0.08629
v 0.03113 -0.00740 0.04793
v 0.00855 -0.16310 0.08629
v -0.00610 -0.14526 0.11394
v -0.03067 -0.29853 0.15607
v -0.04333 -0.28312 0.17996
v -0.03067 -0.29853 0.15607
v -0.00610 -0.14526 0.11394
v -0.03067 -0.29853 0.15607
v -0.04333 -0.28312 0.17996
v -0.05701 -0.31336 0.16283
v -0.06271 -0.30642 0.17358
v -0.05701 -0.31336 0.16283
v -0.04333 -0.28312 0.17996
v 0.01603 0.00505 0.01724
v -0.00085 0.01121 0.02128
v 0.03113 -0.00740 0.04793
v -0.00639 0.00631 0.05692
v 0.03113 -0.00740 0.04793
v -0.00085 0.01121 0.02128
v 0.03113 -0.00740 0.04793
v -0.00639 0.00631 0.05692
v -0.00610 -0.14526 0.11394
v -0.03911 -0.13320 0.12186
v -0.00610 -0.14526 0.11394
v -0.00639 0.00631 0.05692
v -0.00610 -0.14526 0.11394
v -0.03911 -0.13320 0.12186
v -0.04333 -0.28312 0.17996
v -0.07184 -0.27270 0.18679
v -0.04333 -0.28312 0.17996
v -0.03911 -0.13320 0.12186
v -0.04333 -0.28312 0.17996
v -0.07184 -0.27270 0.18679
v -0.06271 -0.30642 0.17358
v -0.07554 -0.30174 0.17665
v -0.06271 -0.30642 0.17358
v -0.07184 -0.27270 0.18679
v -0.00085 0.01121 0.02128
v -0.01724 0.01081 0.01286
v -0.00639 0.00631 0.05692
v -0.04280 0.00541 0.03821
v -0.00639 0.00631 0.05692
v -0.01724 0.01081 0.01286
v -0.00639 0.00631 0.05692
v -0.04280 0.00541 0.03821
v -0.03911 -0.13320 0.12186
v -0.07115 -0.13398 0.10539
v -0.03911 -0.13320 0.12186
v -0.04280 0.00541 0.03821
v -0.03911 -0.13320 0.12186
v -0.07115 -0.13398 0.10539
v -0.07184 -0.27270 0.18679
v -0.09951 -0.27338 0.17257
v -0.07184 -0.27270 0.18679
v -0.07115 -0.13398 0.10539
v -0.07184 -0.27270 0.18679
v -0.09951 -0.27338 0.17257
v -0.07554 -0.30174 0.17665
v -0.08799 -0.30204 0.17025
v -0.07554 -0.30174 0.17665
v -0.09951 -0.27338 0.17257
v -0.01724 0.01081 0.01286
v -0.02352 0.00408 -0.00309
v -0.04280 0.00541 0.03821
v -0.05676 -0.00955 0.00276
v -0.04280 0.00541 0.03821
v -0.02352 0.00408 -0.00309
v -0.04280 0.00541 0.03821
v -0.05676 -0.00955 0.00276
v -0.07115 -0.13398 0.10539
v -0.08344 -0.14715 0.07419
v -0.07115 -0.13398 0.10539
v -0.05676 -0.00955 0.00276
v -0.07115 -0.13398 0.10539
v -0.08344 -0.14715 0.07419
v -0.09951 -0.27338 0.17257
v -0.11012 -0.28476 0.14563
v -0.09951 -0.27338 0.17257
v -0.08344 -0.14715 0.07419
v -0.09951 -0.27338 0.17257
v -0.11012 -0.28476 0.14563
v -0.08799 -0.30204 0.17025
v -0.09277 -0.30716 0.15813
v -0.08799 -0.30204 0.17025
v -0.11012 -0.28476 0.14563
v -0.02352 0.00408 -0.00309
v -0.01603 -0.00505 -0.01724
v -0.05676 -0.00955 0.00276
v -0.04011 -0.02983 -0.02867
v -0.05676 -0.00955 0.00276
v -0.01603 -0.00505 -0.01724
v -0.05676 -0.00955 0.00276
v -0.04011 -0.02983 -0.02867
v -0.08344 -0.14715 0.07419
v -0.06879 -0.16500 0.04653
v -0.08344 -0.14715 0.07419
v -0.04011 -0.02983 -0.02867
v -0.08344 -0.14715 0.07419
v -0.06879 -0.16500 0.04653
v -0.11012 -0.28476 0.14563
v -0.09747 -0.30017 0.12174
v -0.11012 -0.28476 0.14563
v -0.06879 -0.16500 0.04653
v -0.11012 -0.28476 0.14563
v -0.09747 -0.30017 0.12174
v -0.09277 -0.30716 0.15813
v -0.08707 -0.31409 0.14738
v -0.09277 -0.30716 0.15813
v -0.09747 -0.30017 0.12174
v -0.01603 -0.00505 -0.01724
v 0.00085 -0.01121 -0.02128
v -0.04011 -0.02983 -0.02867
v -0.00260 -0.04354 -0.03767
v -0.04011 -0.02983 -0.02867
v 0.00085 -0.01121 -0.02128
v -0.04011 -0.02983 -0.02867
v -0.00260 -0.04354 -0.03767
v -0.06879 -0.16500 0.04653
v -0.03578 -0.17706 0.03862
v -0.06879 -0.16500 0.04653
v -0.00260 -0.04354 -0.03767
v -0.06879 -0.16500 0.04653
v -0.03578 -0.17706 0.03862
v -0.09747 -0.30017 0.12174
v -0.06895 -0.31058 0.11491
v -0.09747 -0.30017 0.12174
v -0.03578 -0.17706 0.03862
v -0.09747 -0.30017 0.12174
v -0.06895 -0.31058 0.11491
v -0.08707 -0.31409 0.14738
v -0.07424 -0.31878 0.14430
v -0.08707 -0.31409 0.14738
v -0.06895 -0.31058 0.11491
v 0.00085 -0.01121 -0.02128
v 0.01724 -0.01081 -0.01286
v -0.00260 -0.04354 -0.03767
v 0.03381 -0.04265 -0.01895
v -0.00260 -0.04354 -0.03767
v 0.01724 -0.01081 -0.01286
v -0.00260 -0.04354 -0.03767
v 0.03381 -0.04265 -0.01895
v -0.03578 -0.17706 0.03862
v -0.00374 -0.17628 0.05509
v -0.03578 -0.17706 0.03862
v 0.03381 -0.04265 -0.01895
v -0.03578 -0.17706 0.03862
v -0.00374 -0.17628 0.05509
v -0.06895 -0.31058 0.11491
v -0.04129 -0.30991 0.12913
v -0.06895 -0.31058 0.11491
v -0.00374 -0.17628 0.05509
v -0.06895 -0.31058 0.11491
v -0.04129 -0.30991 0.12913
v -0.07424 -0.31878 0.14430
v -0.06179 -0.31848 0.15070
v -0.07424 -0.31878 0.14430
v -0.04129 -0.30991 0.12913
vn 0.73201 0.47465 -0.48875
vn 0.73201 0.47465 -0.48875
vn 0.73201 0.47465 -0.48875
vn 0.73201 0.47465 -0.48875
vn 0.73201 0.47465 -0.48875
vn 0.73201 0.47465 -0.48875
vn 0.90778 -0.36730 -0.20256
vn 0.90778 -0.36730 -0.20256
vn 0.90778 -0.36730 -0.20256
vn 0.90778 -0.36730 -0.20256
vn 0.90778 -0.36730 -0.20256
vn 0.90778 -0.36730 -0.20256
vn 0.90778 -0.36730 -0.20256
vn 0.90778 -0.36730 -0.20256
vn 0.90778 -0.36730 -0.20256
vn 0.90778 -0.36730 -0.20256
vn 0.90778 -0.36730 -0.20256
vn 0.90778 -0.36730 -0.20256
vn 0.51431 -0.84374 0.15357
vn 0.51431 -0.84374 0.15357
vn 0.51431 -0.84374 0.15357
vn 0.51431 -0.84374 0.15357
vn 0.51431 -0.84374 0.15357
vn 0.51431 -0.84374 0.15357
vn 0.71520 0.69544 -0.06973
vn 0.71520 0.69544 -0.06973
vn 0.71520 0.69544 -0.06973
vn 0.71520 0.69544 -0.06973
vn 0.71520 0.69544 -0.06973
vn 0.71520 0.69544 -0.06973
vn 0.88064 -0.01099 0.47365
vn 0.88064 -0.01099 0.47365
vn 0.88064 -0.01099 0.47365
vn 0.88064 -0.01099 0.47365
vn 0.88064 -0.01099 0.47365
vn 0.88064 -0.01099 0.47365
vn 0.88064 -0.01099 0.47365
vn 0.88064 -0.01099 0.47365
vn 0.88064 -0.01099 0.47365
vn 0.88064 -0.01099 0.47365
vn 0.88064 -0.01099 0.47365
vn 0.88064 -0.01099 0.47365
vn 0.49476 -0.58700 0.64081
vn 0.49476 -0.58700 0.64081
vn 0.49476 -0.58700 0.64081
vn 0.49476 -0.58700 0.64081
vn 0.49476 -0.58700 0.64081
vn 0.49476 -0.58700 0.64081
vn 0.37586 0.90833 0.18350
vn 0.37586 0.90833 0.18350
vn 0.37586 0.90833 0.18350
vn 0.37586 0.90833 0.18350
vn 0.37586 0.90833 0.18350
vn 0.37586 0.90833 0.18350
vn 0.33301 0.33258 0.88232
vn 0.33301 0.33258 0.88232
vn 0.33301 0.33258 0.88232
vn 0.33301 0.33258 0.88232
vn 0.33301 0.33258 0.88232
vn 0.33301 0.33258 0.88232
vn 0.33301 0.33258 0.88232
vn 0.33301 0.33258 0.88232
vn 0.33301 0.33258 0.88232
vn 0.33301 0.33258 0.88232
vn 0.33301 0.33258 0.88232
vn 0.33301 0.33258 0.88232
vn 0.10017 -0.33945 0.93528
vn 0.10017 -0.33945 0.93528
vn 0.10017 -0.33945 0.93528
vn 0.10017 -0.33945 0.93528
vn 0.10017 -0.33945 0.93528
vn 0.10017 -0.33945 0.93528
vn -0.08723 0.98861 0.12261
vn -0.08723 0.98861 0.12261
vn -0.08723 0.98861 0.12261
vn -0.08723 0.98861 0.12261
vn -0.08723 0.98861 0.12261
vn -0.08723 0.98861 0.12261
vn -0.41432 0.46215 0.78406
vn -0.41432 0.46215 0.78406
vn -0.41432 0.46215 0.78406
vn -0.41432 0.46215 0.78406
vn -0.41432 0.46215 0.78406
vn -0.41432 0.46215 0.78406
vn -0.41432 0.46215 0.78406
vn -0.41432 0.46215 0.78406
vn -0.41432 0.46215 0.78406
vn -0.41432 0.46215 0.78406
vn -0.41432 0.46215 0.78406
vn -0.41432 0.46215 0.78406
vn -0.43832 -0.24609 0.86448
vn -0.43832 -0.24609 0.86448
vn -0.43832 -0.24609 0.86448
vn -0.43832 -0.24609 0.86448
vn -0.43832 -0.24609 0.86448
vn -0.43832 -0.24609 0.86448
vn -0.40279 0.88926 -0.21673
vn -0.40279 0.88926 -0.21673
vn -0.40279 0.88926 -0.21673
vn -0.40279 0.88926 -0.21673
vn -0.40279 0.88926 -0.21673
vn -0.40279 0.88926 -0.21673
vn -0.92358 0.30182 0.23643
vn -0.92358 0.30182 0.23643
vn -0.92358 0.30182 0.23643
vn -0.92358 0.30182 0.23643
vn -0.92358 0.30182 0.23643
vn -0.92358 0.30182 0.23643
vn -0.92358 0.30182 0.23643
vn -0.92358 0.30182 0.23643
vn -0.92358 0.30182 0.23643
vn -0.92358 0.30182 0.23643
vn -0.92358 0.30182 0.23643
vn -0.92358 0.30182 0.23643
vn -0.80526 -0.36161 0.46989
vn -0.80526 -0.36161 0.46989
vn -0.80526 -0.36161 0.46989
vn -0.80526 -0.36161 0.46989
vn -0.80526 -0.36161 0.46989
vn -0.80526 -0.36161 0.46989
vn -0.38598 0.66848 -0.63574
vn -0.38598 0.66848 -0.63574
vn -0.38598 0.66848 -0.63574
vn -0.38598 0.66848 -0.63574
vn -0.38598 0.66848 -0.63574
vn -0.38598 0.66848 -0.63574
vn -0.89645 -0.05450 -0.43978
vn -0.89645 -0.05450 -0.43978
vn -0.89645 -0.05450 -0.43978
vn -0.89645 -0.05450 -0.43978
vn -0.89645 -0.05450 -0.43978
vn -0.89645 -0.05450 -0.43978
vn -0.89645 -0.05450 -0.43978
vn -0.89645 -0.05450 -0.43978
vn -0.89645 -0.05450 -0.43978
vn -0.89645 -0.05450 -0.43978
vn -0.89645 -0.05450 -0.43978
vn -0.89645 -0.05450 -0.43978
vn -0.78571 -0.61835 -0.01735
vn -0.78571 -0.61835 -0.01735
vn -0.78571 -0.61835 -0.01735
vn -0.78571 -0.61835 -0.01735
vn -0.78571 -0.61835 -0.01735
vn -0.78571 -0.61835 -0.01735
vn -0.04664 0.45558 -0.88897
vn -0.04664 0.45558 -0.88897
vn -0.04664 0.45558 -0.88897
vn -0.04664 0.45558 -0.88897
vn -0.04664 0.45558 -0.88897
vn -0.04664 0.45558 -0.88897
vn -0.34882 -0.39807 -0.84845
vn -0.34882 -0.39807 -0.84845
vn -0.34882 -0.39807 -0.84845
vn -0.34882 -0.39807 -0.84845
vn -0.34882 -0.39807 -0.84845
vn -0.34882 -0.39807 -0.84845
vn -0.34882 -0.39807 -0.84845
vn -0.34882 -0.39807 -0.84845
vn -0.34882 -0.39807 -0.84845
vn -0.34882 -0.39807 -0.84845
vn -0.34882 -0.39807 -0.84845
vn -0.34882 -0.39807 -0.84845
vn -0.39112 -0.86591 -0.31182
vn -0.39112 -0.86591 -0.31182
vn -0.39112 -0.86591 -0.31182
vn -0.39112 -0.86591 -0.31182
vn -0.39112 -0.86591 -0.31182
vn -0.39112 -0.86591 -0.31182
vn 0.41645 0.37530 -0.82808
vn 0.41645 0.37530 -0.82808
vn 0.41645 0.37530 -0.82808
vn 0.41645 0.37530 -0.82808
vn 0.41645 0.37530 -0.82808
vn 0.41645 0.37530 -0.82808
vn 0.39852 -0.52764 -0.75019
vn 0.39852 -0.52764 -0.75019
vn 0.39852 -0.52764 -0.75019
vn 0.39852 -0.52764 -0.75019
vn 0.39852 -0.52764 -0.75019
vn 0.39852 -0.52764 -0.75019
vn 0.39852 -0.52764 -0.75019
vn 0.39852 -0.52764 -0.75019
vn 0.39852 -0.52764 -0.75019
vn 0.39852 -0.52764 -0.75019
vn 0.39852 -0.52764 -0.75019
vn 0.39852 -0.52764 -0.75019
vn 0.14737 -0.95927 -0.24102
vn 0.14737 -0.95927 -0.24102
vn 0.14737 -0.95927 -0.24102
vn 0.14737 -0.95927 -0.24102
vn 0.14737 -0.95927 -0.24102
vn 0.14737 -0.95927 -0.24102
usemtl skin_pale_green
f 1//1 2//2 3//3
f 4//4 5//5 6//6
f 7//7 8//8 9//9
f 10//10 11//11 12//12
f 13//13 14//14 15//15
f 16//16 17//17 18//18
f 19//19 20//20 21//21
f 22//22 23//23 24//24
f 25//25 26//26 27//27
f 28//28 29//29 30//30
f 31//31 32//32 33//33
f 34//34 35//35 36//36
f 37//37 38//38 39//39
f 40//40 41//41 42//42
f 43//43 44//44 45//45
f 46//46 47//47 48//48
f 49//49 50//50 51//51
f 52//52 53//53 54//54
f 55//55 56//56 57//57
f 58//58 59//59 60//60
f 61//61 62//62 63//63
f 64//64 65//65 66//66
f 67//67 68//68 69//69
f 70//70 71//71 72//72
f 73//73 74//74 75//75
f 76//76 77//77 78//78
f 79//79 80//80 81//81
f 82//82 83//83 84//84
f 85//85 86//86 87//87
f 88//88 89//89 90//90
f 91//91 92//92 93//93
f 94//94 95//95 96//96
f 97//97 98//98 99//99
f 100//100 101//101 102//102
f 103//103 104//104 105//105
f 106//106 107//107 108//108
f 109//109 110//110 111//111
f 112//112 113//113 114//114
f 115//115 116//116 117//117
f 118//118 119//119 120//120
f 121//121 122//122 123//123
f 124//124 125//125 126//126
f 127//127 128//128 129//129
f 130//130 131//131 132//132
f 133//133 134//134 135//135
f 136//136 137//137 138//138
f 139//139 140//140 141//141
f 142//142 143//143 144//144
f 145//145 146//146 147//147
f 148//148 149//149 150//150
f 151//151 152//152 153//153
f 154//154 155//155 156//156
f 157//157 158//158 159//159
f 160//160 161//161 162//162
f 163//163 164//164 165//165
f 166//166 167//167 168//168
f 169//169 170//170 171//171
f 172//172 173//173 174//174
f 175//175 176//176 177//177
f 178//178 179//179 180//180
f 181//181 182//182 183//183
f 184//184 185//185 186//186
f 187//187 188//188 189//189
f 190//190 191//191 192//192
o leg_lower_L
v -0.07110 -0.29853 0.14696
v -0.05959 -0.30295 0.15360
v -0.06487 -0.30023 0.11696
v -0.03930 -0.31006 0.13171
v -0.06487 -0.30023 0.11696
v -0.05959 -0.30295 0.15360
v -0.06487 -0.30023 0.11696
v -0.03930 -0.31006 0.13171
v -0.05410 -0.42101 0.02166
v -0.03155 -0.42967 0.03467
v -0.05410 -0.42101 0.02166
v -0.03930 -0.31006 0.13171
v -0.05410 -0.42101 0.02166
v -0.03155 -0.42967 0.03467
v -0.04333 -0.54178 -0.07363
v -0.02381 -0.54928 -0.06238
v -0.04333 -0.54178 -0.07363
v -0.03155 -0.42967 0.03467
v -0.04333 -0.54178 -0.07363
v -0.02381 -0.54928 -0.06238
v -0.04525 -0.56877 -0.07451
v -0.03647 -0.57214 -0.06944
v -0.04525 -0.56877 -0.07451
v -0.02381 -0.54928 -0.06238
v -0.05959 -0.30295 0.15360
v -0.05705 -0.31165 0.16427
v -0.03930 -0.31006 0.13171
v -0.03363 -0.32941 0.15541
v -0.03930 -0.31006 0.13171
v -0.05705 -0.31165 0.16427
v -0.03930 -0.31006 0.13171
v -0.03363 -0.32941 0.15541
v -0.03155 -0.42967 0.03467
v -0.02656 -0.44673 0.05556
v -0.03155 -0.42967 0.03467
v -0.03363 -0.32941 0.15541
v -0.03155 -0.42967 0.03467
v -0.02656 -0.44673 0.05556
v -0.02381 -0.54928 -0.06238
v -0.01949 -0.56404 -0.04429
v -0.02381 -0.54928 -0.06238
v -0.02656 -0.44673 0.05556
v -0.02381 -0.54928 -0.06238
v -0.01949 -0.56404 -0.04429
v -0.03647 -0.57214 -0.06944
v -0.03453 -0.57879 -0.06130
v -0.03647 -0.57214 -0.06944
v -0.01949 -0.56404 -0.04429
v -0.05705 -0.31165 0.16427
v -0.06495 -0.31954 0.17271
v -0.03363 -0.32941 0.15541
v -0.05120 -0.34694 0.17419
v -0.03363 -0.32941 0.15541
v -0.06495 -0.31954 0.17271
v -0.03363 -0.32941 0.15541
v -0.05120 -0.34694 0.17419
v -0.02656 -0.44673 0.05556
v -0.04204 -0.46218 0.07211
v -0.02656 -0.44673 0.05556
v -0.05120 -0.34694 0.17419
v -0.02656 -0.44673 0.05556
v -0.04204 -0.46218 0.07211
v -0.01949 -0.56404 -0.04429
v -0.03289 -0.57742 -0.02996
v -0.01949 -0.56404 -0.04429
v -0.04204 -0.46218 0.07211
v -0.01949 -0.56404 -0.04429
v -0.03289 -0.57742 -0.02996
v -0.03453 -0.57879 -0.06130
v -0.04056 -0.58481 -0.05485
v -0.03453 -0.57879 -0.06130
v -0.03289 -0.57742 -0.02996
v -0.06495 -0.31954 0.17271
v -0.07868 -0.32199 0.17399
v -0.05120 -0.34694 0.17419
v -0.08170 -0.35238 0.17703
v -0.05120 -0.34694 0.17419
v -0.07868 -0.32199 0.17399
v -0.05120 -0.34694 0.17419
v -0.08170 -0.35238 0.17703
v -0.04204 -0.46218 0.07211
v -0.06894 -0.46697 0.07462
v -0.04204 -0.46218 0.07211
v -0.08170 -0.35238 0.17703
v -0.04204 -0.46218 0.07211
v -0.06894 -0.46697 0.07462
v -0.03289 -0.57742 -0.02996
v -0.05617 -0.58157 -0.02779
v -0.03289 -0.57742 -0.02996
v -0.06894 -0.46697 0.07462
v -0.03289 -0.57742 -0.02996
v -0.05617 -0.58157 -0.02779
v -0.04056 -0.58481 -0.05485
v -0.05103 -0.58668 -0.05388
v -0.04056 -0.58481 -0.05485
v -0.05617 -0.58157 -0.02779
v -0.07868 -0.32199 0.17399
v -0.09019 -0.31757 0.16736
v -0.08170 -0.35238 0.17703
v -0.10727 -0.34255 0.16229
v -0.08170 -0.35238 0.17703
v -0.09019 -0.31757 0.16736
v -0.08170 -0.35238 0.17703
v -0.10727 -0.34255 0.16229
v -0.06894 -0.46697 0.07462
v -0.09148 -0.45831 0.06162
v -0.06894 -0.46697 0.07462
v -0.10727 -0.34255 0.16229
v -0.06894 -0.46697 0.07462
v -0.09148 -0.45831 0.06162
v -0.05617 -0.58157 -0.02779
v -0.07569 -0.57407 -0.03904
v -0.05617 -0.58157 -0.02779
v -0.09148 -0.45831 0.06162
v -0.05617 -0.58157 -0.02779
v -0.07569 -0.57407 -0.03904
v -0.05103 -0.58668 -0.05388
v -0.05982 -0.58330 -0.05894
v -0.05103 -0.58668 -0.05388
v -0.07569 -0.57407 -0.03904
v -0.09019 -0.31757 0.16736
v -0.09273 -0.30886 0.15669
v -0.10727 -0.34255 0.16229
v -0.11294 -0.32320 0.13858
v -0.10727 -0.34255 0.16229
v -0.09273 -0.30886 0.15669
v -0.10727 -0.34255 0.16229
v -0.11294 -0.32320 0.13858
v -0.09148 -0.45831 0.06162
v -0.09647 -0.44125 0.04072
v -0.09148 -0.45831 0.06162
v -0.11294 -0.32320 0.13858
v -0.09148 -0.45831 0.06162
v -0.09647 -0.44125 0.04072
v -0.07569 -0.57407 -0.03904
v -0.08001 -0.55931 -0.05713
v -0.07569 -0.57407 -0.03904
v -0.09647 -0.44125 0.04072
v -0.07569 -0.57407 -0.03904
v -0.08001 -0.55931 -0.05713
v -0.05982 -0.58330 -0.05894
v -0.06176 -0.57666 -0.06708
v -0.05982 -0.58330 -0.05894
v -0.08001 -0.55931 -0.05713
v -0.09273 -0.30886 0.15669
v -0.08483 -0.30097 0.14824
v -0.11294 -0.32320 0.13858
v -0.09537 -0.30568 0.11981
v -0.11294 -0.32320 0.13858
v -0.08483 -0.30097 0.14824
v -0.11294 -0.32320 0.13858
v -0.09537 -0.30568 0.11981
v -0.09647 -0.44125 0.04072
v -0.08099 -0.42580 0.02417
v -0.09647 -0.44125 0.04072
v -0.09537 -0.30568 0.11981
v -0.09647 -0.44125 0.04072
v -0.08099 -0.42580 0.02417
v -0.08001 -0.55931 -0.05713
v -0.06660 -0.54593 -0.07146
v -0.08001 -0.55931 -0.05713
v -0.08099 -0.42580 0.02417
v -0.08001 -0.55931 -0.05713
v -0.06660 -0.54593 -0.07146
v -0.06176 -0.57666 -0.06708
v -0.05573 -0.57064 -0.07353
v -0.06176 -0.57666 -0.06708
v -0.06660 -0.54593 -0.07146
v -0.08483 -0.30097 0.14824
v -0.07110 -0.29853 0.14696
v -0.09537 -0.30568 0.11981
v -0.06487 -0.30023 0.11696
v -0.09537 -0.30568 0.11981
v -0.07110 -0.29853 0.14696
v -0.09537 -0.30568 0.11981
v -0.06487 -0.30023 0.11696
v -0.08099 -0.42580 0.02417
v -0.05410 -0.42101 0.02166
v -0.08099 -0.42580 0.02417
v -0.06487 -0.30023 0.11696
v -0.08099 -0.42580 0.02417
v -0.05410 -0.42101 0.02166
v -0.06660 -0.54593 -0.07146
v -0.04333 -0.54178 -0.07363
v -0.06660 -0.54593 -0.07146
v -0.05410 -0.42101 0.02166
v -0.06660 -0.54593 -0.07146
v -0.04333 -0.54178 -0.07363
v -0.05573 -0.57064 -0.07353
v -0.04525 -0.56877 -0.07451
v -0.05573 -0.57064 -0.07353
v -0.04333 -0.54178 -0.07363
vn 0.34909 0.93689 0.01919
vn 0.34909 0.93689 0.01919
vn 0.34909 0.93689 0.01919
vn 0.34909 0.93689 0.01919
vn 0.34909 0.93689 0.01919
vn 0.34909 0.93689 0.01919
vn 0.56647 0.54103 -0.62162
vn 0.56647 0.54103 -0.62162
vn 0.56647 0.54103 -0.62162
vn 0.56647 0.54103 -0.62162
vn 0.56647 0.54103 -0.62162
vn 0.56647 0.54103 -0.62162
vn 0.56647 0.54103 -0.62162
vn 0.56647 0.54103 -0.62162
vn 0.56647 0.54103 -0.62162
vn 0.56647 0.54103 -0.62162
vn 0.56647 0.54103 -0.62162
vn 0.56647 0.54103 -0.62162
vn 0.49740 -0.00747 -0.86749
vn 0.49740 -0.00747 -0.86749
vn 0.49740 -0.00747 -0.86749
vn 0.49740 -0.00747 -0.86749
vn 0.49740 -0.00747 -0.86749
vn 0.49740 -0.00747 -0.86749
vn 0.64567 0.65988 0.38427
vn 0.64567 0.65988 0.38427
vn 0.64567 0.65988 0.38427
vn 0.64567 0.65988 0.38427
vn 0.64567 0.65988 0.38427
vn 0.64567 0.65988 0.38427
vn 0.98212 0.15279 -0.10995
vn 0.98212 0.15279 -0.10995
vn 0.98212 0.15279 -0.10995
vn 0.98212 0.15279 -0.10995
vn 0.98212 0.15279 -0.10995
vn 0.98212 0.15279 -0.10995
vn 0.98212 0.15279 -0.10995
vn 0.98212 0.15279 -0.10995
vn 0.98212 0.15279 -0.10995
vn 0.98212 0.15279 -0.10995
vn 0.98212 0.15279 -0.10995
vn 0.98212 0.15279 -0.10995
vn 0.83006 -0.31819 -0.45799
vn 0.83006 -0.31819 -0.45799
vn 0.83006 -0.31819 -0.45799
vn 0.83006 -0.31819 -0.45799
vn 0.83006 -0.31819 -0.45799
vn 0.83006 -0.31819 -0.45799
vn 0.53267 0.30980 0.78758
vn 0.53267 0.30980 0.78758
vn 0.53267 0.30980 0.78758
vn 0.53267 0.30981 0.78758
vn 0.53267 0.30981 0.78758
vn 0.53267 0.30981 0.78758
vn 0.82376 -0.33785 0.45529
vn 0.82376 -0.33785 0.45529
vn 0.82376 -0.33785 0.45529
vn 0.82376 -0.33785 0.45529
vn 0.82376 -0.33785 0.45529
vn 0.82376 -0.33785 0.45529
vn 0.82376 -0.33785 0.45529
vn 0.82376 -0.33785 0.45529
vn 0.82376 -0.33785 0.45529
vn 0.82376 -0.33785 0.45529
vn 0.82376 -0.33785 0.45529
vn 0.82376 -0.33785 0.45529
vn 0.70332 -0.71085 -0.00562
vn 0.70332 -0.71085 -0.00562
vn 0.70332 -0.71085 -0.00562
vn 0.70332 -0.71085 -0.00562
vn 0.70332 -0.71085 -0.00562
vn 0.70332 -0.71085 -0.00562
vn 0.07630 0.09173 0.99286
vn 0.07630 0.09173 0.99286
vn 0.07630 0.09173 0.99286
vn 0.07630 0.09173 0.99286
vn 0.07630 0.09173 0.99286
vn 0.07630 0.09173 0.99286
vn 0.18413 -0.64348 0.74299
vn 0.18413 -0.64348 0.74299
vn 0.18413 -0.64348 0.74299
vn 0.18413 -0.64348 0.74299
vn 0.18413 -0.64348 0.74299
vn 0.18413 -0.64348 0.74299
vn 0.18413 -0.64348 0.74299
vn 0.18413 -0.64348 0.74299
vn 0.18413 -0.64348 0.74299
vn 0.18413 -0.64348 0.74299
vn 0.18413 -0.64348 0.74299
vn 0.18413 -0.64348 0.74299
vn 0.19141 -0.95546 0.22464
vn 0.19141 -0.95546 0.22464
vn 0.19141 -0.95546 0.22464
vn 0.19141 -0.95546 0.22464
vn 0.19141 -0.95546 0.22464
vn 0.19141 -0.95546 0.22464
vn -0.45612 0.13341 0.87986
vn -0.45612 0.13341 0.87986
vn -0.45612 0.13341 0.87986
vn -0.45612 0.13341 0.87986
vn -0.45612 0.13341 0.87986
vn -0.45612 0.13341 0.87986
vn -0.56206 -0.58507 0.58462
vn -0.56206 -0.58507 0.58462
vn -0.56206 -0.58507 0.58462
vn -0.56206 -0.58507 0.58462
vn -0.56206 -0.58507 0.58462
vn -0.56206 -0.58507 0.58462
vn -0.56206 -0.58507 0.58462
vn -0.56206 -0.58507 0.58462
vn -0.56206 -0.58507 0.58462
vn -0.56206 -0.58507 0.58462
vn -0.56206 -0.58507 0.58462
vn -0.56206 -0.58507 0.58462
vn -0.40578 -0.90871 0.09789
vn -0.40578 -0.90871 0.09789
vn -0.40578 -0.90871 0.09789
vn -0.40578 -0.90871 0.09789
vn -0.40578 -0.90871 0.09789
vn -0.40578 -0.90871 0.09789
vn -0.75270 0.41042 0.51478
vn -0.75270 0.41042 0.51478
vn -0.75270 0.41042 0.51478
vn -0.75270 0.41042 0.51478
vn -0.75270 0.41042 0.51478
vn -0.75270 0.41042 0.51478
vn -0.97772 -0.19683 0.07295
vn -0.97772 -0.19683 0.07295
vn -0.97772 -0.19683 0.07295
vn -0.97772 -0.19683 0.07295
vn -0.97772 -0.19683 0.07295
vn -0.97772 -0.19683 0.07295
vn -0.97772 -0.19683 0.07295
vn -0.97772 -0.19683 0.07295
vn -0.97772 -0.19683 0.07295
vn -0.97772 -0.19683 0.07295
vn -0.97772 -0.19683 0.07295
vn -0.97772 -0.19683 0.07295
vn -0.73844 -0.59800 -0.31161
vn -0.73844 -0.59800 -0.31161
vn -0.73844 -0.59800 -0.31161
vn -0.73844 -0.59800 -0.31161
vn -0.73844 -0.59800 -0.31161
vn -0.73844 -0.59800 -0.31161
vn -0.63970 0.76049 0.11147
vn -0.63970 0.76049 0.11147
vn -0.63970 0.76049 0.11147
vn -0.63970 0.76049 0.11147
vn -0.63970 0.76049 0.11147
vn -0.63970 0.76049 0.11147
vn -0.81935 0.29380 -0.49228
vn -0.81935 0.29380 -0.49228
vn -0.81935 0.29380 -0.49228
vn -0.81935 0.29380 -0.49228
vn -0.81935 0.29380 -0.49228
vn -0.81935 0.29380 -0.49228
vn -0.81935 0.29380 -0.49228
vn -0.81935 0.29380 -0.49228
vn -0.81935 0.29380 -0.49228
vn -0.81935 0.29380 -0.49228
vn -0.81935 0.29380 -0.49228
vn -0.81935 0.29380 -0.49228
vn -0.61170 -0.20533 -0.76398
vn -0.61170 -0.20533 -0.76398
vn -0.61170 -0.20533 -0.76398
vn -0.61170 -0.20533 -0.76398
vn -0.61170 -0.20533 -0.76398
vn -0.61170 -0.20533 -0.76398
vn -0.18333 0.97857 -0.09380
vn -0.18333 0.97857 -0.09380
vn -0.18333 0.97857 -0.09380
vn -0.18333 0.97857 -0.09380
vn -0.18333 0.97857 -0.09380
vn -0.18333 0.97857 -0.09380
vn -0.17973 0.59943 -0.77998
vn -0.17973 0.59943 -0.77998
vn -0.17973 0.59943 -0.77998
vn -0.17973 0.59943 -0.77998
vn -0.17973 0.59943 -0.77998
vn -0.17973 0.59943 -0.77998
vn -0.17973 0.59943 -0.77998
vn -0.17973 0.59943 -0.77998
vn -0.17973 0.59943 -0.77998
vn -0.17973 0.59943 -0.77998
vn -0.17973 0.59943 -0.77998
vn -0.17973 0.59943 -0.77998
vn -0.09979 0.03927 -0.99423
vn -0.09979 0.03927 -0.99423
vn -0.09979 0.03927 -0.99423
vn -0.09979 0.03927 -0.99423
vn -0.09979 0.03927 -0.99423
vn -0.09979 0.03927 -0.99423
usemtl skin_pale_green
f 193//193 194//194 195//195
f 196//196 197//197 198//198
f 199//199 200//200 201//201
f 202//202 203//203 204//204
f 205//205 206//206 207//207
f 208//208 209//209 210//210
f 211//211 212//212 213//213
f 214//214 215//215 216//216
f 217//217 218//218 219//219
f 220//220 221//221 222//222
f 223//223 224//224 225//225
f 226//226 227//227 228//228
f 229//229 230//230 231//231
f 232//232 233//233 234//234
f 235//235 236//236 237//237
f 238//238 239//239 240//240
f 241//241 242//242 243//243
f 244//244 245//245 246//246
f 247//247 248//248 249//249
f 250//250 251//251 252//252
f 253//253 254//254 255//255
f 256//256 257//257 258//258
f 259//259 260//260 261//261
f 262//262 263//263 264//264
f 265//265 266//266 267//267
f 268//268 269//269 270//270
f 271//271 272//272 273//273
f 274//274 275//275 276//276
f 277//277 278//278 279//279
f 280//280 281//281 282//282
f 283//283 284//284 285//285
f 286//286 287//287 288//288
f 289//289 290//290 291//291
f 292//292 293//293 294//294
f 295//295 296//296 297//297
f 298//298 299//299 300//300
f 301//301 302//302 303//303
f 304//304 305//305 306//306
f 307//307 308//308 309//309
f 310//310 311//311 312//312
f 313//313 314//314 315//315
f 316//316 317//317 318//318
f 319//319 320//320 321//321
f 322//322 323//323 324//324
f 325//325 326//326 327//327
f 328//328 329//329 330//330
f 331//331 332//332 333//333
f 334//334 335//335 336//336
f 337//337 338//338 339//339
f 340//340 341//341 342//342
f 343//343 344//344 345//345
f 346//346 347//347 348//348
f 349//349 350//350 351//351
f 352//352 353//353 354//354
f 355//355 356//356 357//357
f 358//358 359//359 360//360
f 361//361 362//362 363//363
f 364//364 365//365 366//366
f 367//367 368//368 369//369
f 370//370 371//371 372//372
f 373//373 374//374 375//375
f 376//376 377//377 378//378
f 379//379 380//380 381//381
f 382//382 383//383 384//384
o leg_joint_L
v -0.07489 -0.26351 0.16048
v -0.09827 -0.26977 0.16048
v -0.09142 -0.26977 0.17701
v -0.07489 -0.26351 0.16048
v -0.09142 -0.26977 0.17701
v -0.07489 -0.26977 0.18385
v -0.07489 -0.26351 0.16048
v -0.07489 -0.26977 0.18385
v -0.05836 -0.26977 0.17701
v -0.07489 -0.26351 0.16048
v -0.05836 -0.26977 0.17701
v -0.05151 -0.26977 0.16048
v -0.07489 -0.26351 0.16048
v -0.05151 -0.26977 0.16048
v -0.05836 -0.26977 0.14395
v -0.07489 -0.26351 0.16048
v -0.05836 -0.26977 0.14395
v -0.07489 -0.26977 0.13710
v -0.07489 -0.26351 0.16048
v -0.07489 -0.26977 0.13710
v -0.09142 -0.26977 0.14395
v -0.07489 -0.26351 0.16048
v -0.09142 -0.26977 0.14395
v -0.09827 -0.26977 0.16048
v -0.09142 -0.26977 0.17701
v -0.09827 -0.26977 0.16048
v -0.10352 -0.28688 0.18911
v -0.09827 -0.26977 0.16048
v -0.11538 -0.28688 0.16048
v -0.10352 -0.28688 0.18911
v -0.07489 -0.26977 0.18385
v -0.09142 -0.26977 0.17701
v -0.07489 -0.28688 0.20097
v -0.09142 -0.26977 0.17701
v -0.10352 -0.28688 0.18911
v -0.07489 -0.28688 0.20097
v -0.05836 -0.26977 0.17701
v -0.07489 -0.26977 0.18385
v -0.04626 -0.28688 0.18911
v -0.07489 -0.26977 0.18385
v -0.07489 -0.28688 0.20097
v -0.04626 -0.28688 0.18911
v -0.05151 -0.26977 0.16048
v -0.05836 -0.26977 0.17701
v -0.03440 -0.28688 0.16048
v -0.05836 -0.26977 0.17701
v -0.04626 -0.28688 0.18911
v -0.03440 -0.28688 0.16048
v -0.05836 -0.26977 0.14395
v -0.05151 -0.26977 0.16048
v -0.04626 -0.28688 0.13185
v -0.05151 -0.26977 0.16048
v -0.03440 -0.28688 0.16048
v -0.04626 -0.28688 0.13185
v -0.07489 -0.26977 0.13710
v -0.05836 -0.26977 0.14395
v -0.07489 -0.28688 0.11999
v -0.05836 -0.26977 0.14395
v -0.04626 -0.28688 0.13185
v -0.07489 -0.28688 0.11999
v -0.09142 -0.26977 0.14395
v -0.07489 -0.26977 0.13710
v -0.10352 -0.28688 0.13185
v -0.07489 -0.26977 0.13710
v -0.07489 -0.28688 0.11999
v -0.10352 -0.28688 0.13185
v -0.09827 -0.26977 0.16048
v -0.09142 -0.26977 0.14395
v -0.11538 -0.28688 0.16048
v -0.09142 -0.26977 0.14395
v -0.10352 -0.28688 0.13185
v -0.11538 -0.28688 0.16048
v -0.10352 -0.28688 0.18911
v -0.11538 -0.28688 0.16048
v -0.10795 -0.31026 0.19354
v -0.11538 -0.28688 0.16048
v -0.12164 -0.31026 0.16048
v -0.10795 -0.31026 0.19354
v -0.07489 -0.28688 0.20097
v -0.10352 -0.28688 0.18911
v -0.07489 -0.31026 0.20723
v -0.10352 -0.28688 0.18911
v -0.10795 -0.31026 0.19354
v -0.07489 -0.31026 0.20723
v -0.04626 -0.28688 0.18911
v -0.07489 -0.28688 0.20097
v -0.04183 -0.31026 0.19354
v -0.07489 -0.28688 0.20097
v -0.07489 -0.31026 0.20723
v -0.04183 -0.31026 0.19354
v -0.03440 -0.28688 0.16048
v -0.04626 -0.28688 0.18911
v -0.02814 -0.31026 0.16048
v -0.04626 -0.28688 0.18911
v -0.04183 -0.31026 0.19354
v -0.02814 -0.31026 0.16048
v -0.04626 -0.28688 0.13185
v -0.03440 -0.28688 0.16048
v -0.04183 -0.31026 0.12742
v -0.03440 -0.28688 0.16048
v -0.02814 -0.31026 0.16048
v -0.04183 -0.31026 0.12742
v -0.07489 -0.28688 0.11999
v -0.04626 -0.28688 0.13185
v -0.07489 -0.31026 0.11373
v -0.04626 -0.28688 0.13185
v -0.04183 -0.31026 0.12742
v -0.07489 -0.31026 0.11373
v -0.10352 -0.28688 0.13185
v -0.07489 -0.28688 0.11999
v -0.10795 -0.31026 0.12742
v -0.07489 -0.28688 0.11999
v -0.07489 -0.31026 0.11373
v -0.10795 -0.31026 0.12742
v -0.11538 -0.28688 0.16048
v -0.10352 -0.28688 0.13185
v -0.12164 -0.31026 0.16048
v -0.10352 -0.28688 0.13185
v -0.10795 -0.31026 0.12742
v -0.12164 -0.31026 0.16048
v -0.10795 -0.31026 0.19354
v -0.12164 -0.31026 0.16048
v -0.10352 -0.33363 0.18911
v -0.12164 -0.31026 0.16048
v -0.11538 -0.33363 0.16048
v -0.10352 -0.33363 0.18911
v -0.07489 -0.31026 0.20723
v -0.10795 -0.31026 0.19354
v -0.07489 -0.33363 0.20097
v -0.10795 -0.31026 0.19354
v -0.10352 -0.33363 0.18911
v -0.07489 -0.33363 0.20097
v -0.04183 -0.31026 0.19354
v -0.07489 -0.31026 0.20723
v -0.04626 -0.33363 0.18911
v -0.07489 -0.31026 0.20723
v -0.07489 -0.33363 0.20097
v -0.04626 -0.33363 0.18911
v -0.02814 -0.31026 0.16048
v -0.04183 -0.31026 0.19354
v -0.03440 -0.33363 0.16048
v -0.04183 -0.31026 0.19354
v -0.04626 -0.33363 0.18911
v -0.03440 -0.33363 0.16048
v -0.04183 -0.31026 0.12742
v -0.02814 -0.31026 0.16048
v -0.04626 -0.33363 0.13185
v -0.02814 -0.31026 0.16048
v -0.03440 -0.33363 0.16048
v -0.04626 -0.33363 0.13185
v -0.07489 -0.31026 0.11373
v -0.04183 -0.31026 0.12742
v -0.07489 -0.33363 0.11999
v -0.04183 -0.31026 0.12742
v -0.04626 -0.33363 0.13185
v -0.07489 -0.33363 0.11999
v -0.10795 -0.31026 0.12742
v -0.07489 -0.31026 0.11373
v -0.10352 -0.33363 0.13185
v -0.07489 -0.31026 0.11373
v -0.07489 -0.33363 0.11999
v -0.10352 -0.33363 0.13185
v -0.12164 -0.31026 0.16048
v -0.10795 -0.31026 0.12742
v -0.11538 -0.33363 0.16048
v -0.10795 -0.31026 0.12742
v -0.10352 -0.33363 0.13185
v -0.11538 -0.33363 0.16048
v -0.10352 -0.33363 0.18911
v -0.11538 -0.33363 0.16048
v -0.09142 -0.35075 0.17701
v -0.11538 -0.33363 0.16048
v -0.09827 -0.35075 0.16048
v -0.09142 -0.35075 0.17701
v -0.07489 -0.33363 0.20097
v -0.10352 -0.33363 0.18911
v -0.07489 -0.35075 0.18385
v -0.10352 -0.33363 0.18911
v -0.09142 -0.35075 0.17701
v -0.07489 -0.35075 0.18385
v -0.04626 -0.33363 0.18911
v -0.07489 -0.33363 0.20097
v -0.05836 -0.35075 0.17701
v -0.07489 -0.33363 0.20097
v -0.07489 -0.35075 0.18385
v -0.05836 -0.35075 0.17701
v -0.03440 -0.33363 0.16048
v -0.04626 -0.33363 0.18911
v -0.05151 -0.35075 0.16048
v -0.04626 -0.33363 0.18911
v -0.05836 -0.35075 0.17701
v -0.05151 -0.35075 0.16048
v -0.04626 -0.33363 0.13185
v -0.03440 -0.33363 0.16048
v -0.05836 -0.35075 0.14395
v -0.03440 -0.33363 0.16048
v -0.05151 -0.35075 0.16048
v -0.05836 -0.35075 0.14395
v -0.07489 -0.33363 0.11999
v -0.04626 -0.33363 0.13185
v -0.07489 -0.35075 0.13710
v -0.04626 -0.33363 0.13185
v -0.05836 -0.35075 0.14395
v -0.07489 -0.35075 0.13710
v -0.10352 -0.33363 0.13185
v -0.07489 -0.33363 0.11999
v -0.09142 -0.35075 0.14395
v -0.07489 -0.33363 0.11999
v -0.07489 -0.35075 0.13710
v -0.09142 -0.35075 0.14395
v -0.11538 -0.33363 0.16048
v -0.10352 -0.33363 0.13185
v -0.09827 -0.35075 0.16048
v -0.10352 -0.33363 0.13185
v -0.09142 -0.35075 0.14395
v -0.09827 -0.35075 0.16048
v -0.09142 -0.35075 0.17701
v -0.09827 -0.35075 0.16048
v -0.07489 -0.35701 0.16048
v -0.07489 -0.35075 0.18385
v -0.09142 -0.35075 0.17701
v -0.07489 -0.35701 0.16048
v -0.05836 -0.35075 0.17701
v -0.07489 -0.35075 0.18385
v -0.07489 -0.35701 0.16048
v -0.05151 -0.35075 0.16048
v -0.05836 -0.35075 0.17701
v -0.07489 -0.35701 0.16048
v -0.05836 -0.35075 0.14395
v -0.05151 -0.35075 0.16048
v -0.07489 -0.35701 0.16048
v -0.07489 -0.35075 0.13710
v -0.05836 -0.35075 0.14395
v -0.07489 -0.35701 0.16048
v -0.09142 -0.35075 0.14395
v -0.07489 -0.35075 0.13710
v -0.07489 -0.35701 0.16048
v -0.09827 -0.35075 0.16048
v -0.09142 -0.35075 0.14395
v -0.07489 -0.35701 0.16048
vn -0.25734 0.96042 0.10660
vn -0.25734 0.96042 0.10660
vn -0.25734 0.96042 0.10660
vn -0.10660 0.96042 0.25734
vn -0.10660 0.96042 0.25734
vn -0.10660 0.96042 0.25734
vn 0.10660 0.96042 0.25734
vn 0.10660 0.96042 0.25734
vn 0.10660 0.96042 0.25734
vn 0.25734 0.96042 0.10660
vn 0.25734 0.96042 0.10660
vn 0.25734 0.96042 0.10660
vn 0.25734 0.96042 -0.10660
vn 0.25734 0.96042 -0.10660
vn 0.25734 0.96042 -0.10660
vn 0.10660 0.96042 -0.25734
vn 0.10660 0.96042 -0.25734
vn 0.10660 0.96042 -0.25734
vn -0.10660 0.96042 -0.25734
vn -0.10660 0.96042 -0.25734
vn -0.10660 0.96042 -0.25734
vn -0.25734 0.96042 -0.10660
vn -0.25734 0.96042 -0.10660
vn -0.25734 0.96042 -0.10660
vn -0.67860 0.67860 0.28108
vn -0.67860 0.67860 0.28108
vn -0.67860 0.67860 0.28108
vn -0.67860 0.67860 0.28108
vn -0.67860 0.67860 0.28108
vn -0.67860 0.67860 0.28108
vn -0.28108 0.67860 0.67860
vn -0.28108 0.67860 0.67860
vn -0.28108 0.67860 0.67860
vn -0.28108 0.67860 0.67860
vn -0.28108 0.67860 0.67860
vn -0.28108 0.67860 0.67860
vn 0.28108 0.67860 0.67860
vn 0.28108 0.67860 0.67860
vn 0.28108 0.67860 0.67860
vn 0.28108 0.67860 0.67860
vn 0.28108 0.67860 0.67860
vn 0.28108 0.67860 0.67860
vn 0.67860 0.67860 0.28108
vn 0.67860 0.67860 0.28108
vn 0.67860 0.67860 0.28108
vn 0.67860 0.67860 0.28108
vn 0.67860 0.67860 0.28108
vn 0.67860 0.67860 0.28108
vn 0.67860 0.67860 -0.28108
vn 0.67860 0.67860 -0.28108
vn 0.67860 0.67860 -0.28108
vn 0.67860 0.67860 -0.28108
vn 0.67860 0.67860 -0.28108
vn 0.67860 0.67860 -0.28108
vn 0.28108 0.67860 -0.67860
vn 0.28108 0.67860 -0.67860
vn 0.28108 0.67860 -0.67860
vn 0.28108 0.67860 -0.67860
vn 0.28108 0.67860 -0.67860
vn 0.28108 0.67860 -0.67860
vn -0.28108 0.67860 -0.67860
vn -0.28108 0.67860 -0.67860
vn -0.28108 0.67860 -0.67860
vn -0.28108 0.67860 -0.67860
vn -0.28108 0.67860 -0.67860
vn -0.28108 0.67860 -0.67860
vn -0.67860 0.67860 -0.28108
vn -0.67860 0.67860 -0.28108
vn -0.67860 0.67860 -0.28108
vn -0.67860 0.67860 -0.28108
vn -0.67860 0.67860 -0.28108
vn -0.67860 0.67860 -0.28108
vn -0.89681 0.24030 0.37147
vn -0.89681 0.24030 0.37147
vn -0.89681 0.24030 0.37147
vn -0.89681 0.24030 0.37147
vn -0.89681 0.24030 0.37147
vn -0.89681 0.24030 0.37147
vn -0.37147 0.24030 0.89681
vn -0.37147 0.24030 0.89681
vn -0.37147 0.24030 0.89681
vn -0.37147 0.24030 0.89681
vn -0.37147 0.24030 0.89681
vn -0.37147 0.24030 0.89681
vn 0.37147 0.24030 0.89681
vn 0.37147 0.24030 0.89681
vn 0.37147 0.24030 0.89681
vn 0.37147 0.24030 0.89681
vn 0.37147 0.24030 0.89681
vn 0.37147 0.24030 0.89681
vn 0.89681 0.24030 0.37147
vn 0.89681 0.24030 0.37147
vn 0.89681 0.24030 0.37147
vn 0.89681 0.24030 0.37147
vn 0.89681 0.24030 0.37147
vn 0.89681 0.24030 0.37147
vn 0.89681 0.24030 -0.37147
vn 0.89681 0.24030 -0.37147
vn 0.89681 0.24030 -0.37147
vn 0.89681 0.24030 -0.37147
vn 0.89681 0.24030 -0.37147
vn 0.89681 0.24030 -0.37147
vn 0.37147 0.24030 -0.89681
vn 0.37147 0.24030 -0.89681
vn 0.37147 0.24030 -0.89681
vn 0.37147 0.24030 -0.89681
vn 0.37147 0.24030 -0.89681
vn 0.37147 0.24030 -0.89681
vn -0.37147 0.24030 -0.89681
vn -0.37147 0.24030 -0.89681
vn -0.37147 0.24030 -0.89681
vn -0.37147 0.24030 -0.89681
vn -0.37147 0.24030 -0.89681
vn -0.37147 0.24030 -0.89681
vn -0.89681 0.24030 -0.37147
vn -0.89681 0.24030 -0.37147
vn -0.89681 0.24030 -0.37147
vn -0.89681 0.24030 -0.37147
vn -0.89681 0.24030 -0.37147
vn -0.89681 0.24030 -0.37147
vn -0.89681 -0.24030 0.37147
vn -0.89681 -0.24030 0.37147
vn -0.89681 -0.24030 0.37147
vn -0.89681 -0.24030 0.37147
vn -0.89681 -0.24030 0.37147
vn -0.89681 -0.24030 0.37147
vn -0.37147 -0.24030 0.89681
vn -0.37147 -0.24030 0.89681
vn -0.37147 -0.24030 0.89681
vn -0.37147 -0.24030 0.89681
vn -0.37147 -0.24030 0.89681
vn -0.37147 -0.24030 0.89681
vn 0.37147 -0.24030 0.89681
vn 0.37147 -0.24030 0.89681
vn 0.37147 -0.24030 0.89681
vn 0.37147 -0.24030 0.89681
vn 0.37147 -0.24030 0.89681
vn 0.37147 -0.24030 0.89681
vn 0.89681 -0.24030 0.37147
vn 0.89681 -0.24030 0.37147
vn 0.89681 -0.24030 0.37147
vn 0.89681 -0.24030 0.37147
vn 0.89681 -0.24030 0.37147
vn 0.89681 -0.24030 0.37147
vn 0.89681 -0.24030 -0.37147
vn 0.89681 -0.24030 -0.37147
vn 0.89681 -0.24030 -0.37147
vn 0.89681 -0.24030 -0.37147
vn 0.89681 -0.24030 -0.37147
vn 0.89681 -0.24030 -0.37147
vn 0.37147 -0.24030 -0.89681
vn 0.37147 -0.24030 -0.89681
vn 0.37147 -0.24030 -0.89681
vn 0.37147 -0.24030 -0.89681
vn 0.37147 -0.24030 -0.89681
vn 0.37147 -0.24030 -0.89681
vn -0.37147 -0.24030 -0.89681
vn -0.37147 -0.24030 -0.89681
vn -0.37147 -0.24030 -0.89681
vn -0.37147 -0.24030 -0.89681
vn -0.37147 -0.24030 -0.89681
vn -0.37147 -0.24030 -0.89681
vn -0.89681 -0.24030 -0.37147
vn -0.89681 -0.24030 -0.37147
vn -0.89681 -0.24030 -0.37147
vn -0.89681 -0.24030 -0.37147
vn -0.89681 -0.24030 -0.37147
vn -0.89681 -0.24030 -0.37147
vn -0.67860 -0.67860 0.28108
vn -0.67860 -0.67860 0.28108
vn -0.67860 -0.67860 0.28108
vn -0.67860 -0.67860 0.28108
vn -0.67860 -0.67860 0.28108
vn -0.67860 -0.67860 0.28108
vn -0.28108 -0.67860 0.67860
vn -0.28108 -0.67860 0.67860
vn -0.28108 -0.67860 0.67860
vn -0.28108 -0.67860 0.67860
vn -0.28108 -0.67860 0.67860
vn -0.28108 -0.67860 0.67860
vn 0.28108 -0.67860 0.67860
vn 0.28108 -0.67860 0.67860
vn 0.28108 -0.67860 0.67860
vn 0.28108 -0.67860 0.67860
vn 0.28108 -0.67860 0.67860
vn 0.28108 -0.67860 0.67860
vn 0.67860 -0.67860 0.28108
vn 0.67860 -0.67860 0.28108
vn 0.67860 -0.67860 0.28108
vn 0.67860 -0.67860 0.28108
vn 0.67860 -0.67860 0.28108
vn 0.67860 -0.67860 0.28108
vn 0.67860 -0.67860 -0.28108
vn 0.67860 -0.67860 -0.28108
vn 0.67860 -0.67860 -0.28108
vn 0.67860 -0.67860 -0.28108
vn 0.67860 -0.67860 -0.28108
vn 0.67860 -0.67860 -0.28108
vn 0.28108 -0.67860 -0.67860
vn 0.28108 -0.67860 -0.67860
vn 0.28108 -0.67860 -0.67860
vn 0.28108 -0.67860 -0.67860
vn 0.28108 -0.67860 -0.67860
vn 0.28108 -0.67860 -0.67860
vn -0.28108 -0.67860 -0.67860
vn -0.28108 -0.67860 -0.67860
vn -0.28108 -0.67860 -0.67860
vn -0.28108 -0.67860 -0.67860
vn -0.28108 -0.67860 -0.67860
vn -0.28108 -0.67860 -0.67860
vn -0.67860 -0.67860 -0.28108
vn -0.67860 -0.67860 -0.28108
vn -0.67860 -0.67860 -0.28108
vn -0.67860 -0.67860 -0.28108
vn -0.67860 -0.67860 -0.28108
vn -0.67860 -0.67860 -0.28108
vn -0.25734 -0.96042 0.10660
vn -0.25734 -0.96042 0.10660
vn -0.25734 -0.96042 0.10660
vn -0.10660 -0.96042 0.25734
vn -0.10660 -0.96042 0.25734
vn -0.10660 -0.96042 0.25734
vn 0.10660 -0.96042 0.25734
vn 0.10660 -0.96042 0.25734
vn 0.10660 -0.96042 0.25734
vn 0.25734 -0.96042 0.10660
vn 0.25734 -0.96042 0.10660
vn 0.25734 -0.96042 0.10660
vn 0.25734 -0.96042 -0.10660
vn 0.25734 -0.96042 -0.10660
vn 0.25734 -0.96042 -0.10660
vn 0.10660 -0.96042 -0.25734
vn 0.10660 -0.96042 -0.25734
vn 0.10660 -0.96042 -0.25734
vn -0.10660 -0.96042 -0.25734
vn -0.10660 -0.96042 -0.25734
vn -0.10660 -0.96042 -0.25734
vn -0.25734 -0.96042 -0.10660
vn -0.25734 -0.96042 -0.10660
vn -0.25734 -0.96042 -0.10660
usemtl accent_green
f 385//385 386//386 387//387
f 388//388 389//389 390//390
f 391//391 392//392 393//393
f 394//394 395//395 396//396
f 397//397 398//398 399//399
f 400//400 401//401 402//402
f 403//403 404//404 405//405
f 406//406 407//407 408//408
f 409//409 410//410 411//411
f 412//412 413//413 414//414
f 415//415 416//416 417//417
f 418//418 419//419 420//420
f 421//421 422//422 423//423
f 424//424 425//425 426//426
f 427//427 428//428 429//429
f 430//430 431//431 432//432
f 433//433 434//434 435//435
f 436//436 437//437 438//438
f 439//439 440//440 441//441
f 442//442 443//443 444//444
f 445//445 446//446 447//447
f 448//448 449//449 450//450
f 451//451 452//452 453//453
f 454//454 455//455 456//456
f 457//457 458//458 459//459
f 460//460 461//461 462//462
f 463//463 464//464 465//465
f 466//466 467//467 468//468
f 469//469 470//470 471//471
f 472//472 473//473 474//474
f 475//475 476//476 477//477
f 478//478 479//479 480//480
f 481//481 482//482 483//483
f 484//484 485//485 486//486
f 487//487 488//488 489//489
f 490//490 491//491 492//492
f 493//493 494//494 495//495
f 496//496 497//497 498//498
f 499//499 500//500 501//501
f 502//502 503//503 504//504
f 505//505 506//506 507//507
f 508//508 509//509 510//510
f 511//511 512//512 513//513
f 514//514 515//515 516//516
f 517//517 518//518 519//519
f 520//520 521//521 522//522
f 523//523 524//524 525//525
f 526//526 527//527 528//528
f 529//529 530//530 531//531
f 532//532 533//533 534//534
f 535//535 536//536 537//537
f 538//538 539//539 540//540
f 541//541 542//542 543//543
f 544//544 545//545 546//546
f 547//547 548//548 549//549
f 550//550 551//551 552//552
f 553//553 554//554 555//555
f 556//556 557//557 558//558
f 559//559 560//560 561//561
f 562//562 563//563 564//564
f 565//565 566//566 567//567
f 568//568 569//569 570//570
f 571//571 572//572 573//573
f 574//574 575//575 576//576
f 577//577 578//578 579//579
f 580//580 581//581 582//582
f 583//583 584//584 585//585
f 586//586 587//587 588//588
f 589//589 590//590 591//591
f 592//592 593//593 594//594
f 595//595 596//596 597//597
f 598//598 599//599 600//600
f 601//601 602//602 603//603
f 604//604 605//605 606//606
f 607//607 608//608 609//609
f 610//610 611//611 612//612
f 613//613 614//614 615//615
f 616//616 617//617 618//618
f 619//619 620//620 621//621
f 622//622 623//623 624//624
