mtllib imp_shaman_arm_L.mtl
o arm_upper_L
v 0.02686 -0.00736 0.01270
v 0.01215 0.00260 0.02797
v 0.05315 -0.03267 0.03258
v 0.02046 -0.01054 0.06651
v 0.05315 -0.03267 0.03258
v 0.01215 0.00260 0.02797
v 0.05315 -0.03267 0.03258
v 0.02046 -0.01054 0.06651
v -0.00070 -0.15073 0.06167
v -0.03012 -0.13082 0.09221
v -0.00070 -0.15073 0.06167
v 0.02046 -0.01054 0.06651
v -0.00070 -0.15073 0.06167
v -0.03012 -0.13082 0.09221
v -0.05454 -0.26879 0.09077
v -0.08069 -0.25109 0.11792
v -0.05454 -0.26879 0.09077
v -0.03012 -0.13082 0.09221
v -0.05454 -0.26879 0.09077
v -0.08069 -0.25109 0.11792
v -0.08733 -0.27792 0.08270
v -0.09910 -0.26996 0.09492
v -0.08733 -0.27792 0.08270
v -0.08069 -0.25109 0.11792
v 0.01215 0.00260 0.02797
v -0.00968 0.01103 0.02686
v 0.02046 -0.01054 0.06651
v -0.02804 0.00820 0.06403
v 0.02046 -0.01054 0.06651
v -0.00968 0.01103 0.02686
v 0.02046 -0.01054 0.06651
v -0.02804 0.00820 0.06403
v -0.03012 -0.13082 0.09221
v -0.07377 -0.11395 0.08998
v -0.03012 -0.13082 0.09221
v -0.02804 0.00820 0.06403
v -0.03012 -0.13082 0.09221
v -0.07377 -0.11395 0.08998
v -0.08069 -0.25109 0.11792
v -0.11949 -0.23610 0.11593
v -0.08069 -0.25109 0.11792
v -0.07377 -0.11395 0.08998
v -0.08069 -0.25109 0.11792
v -0.11949 -0.23610 0.11593
v -0.09910 -0.26996 0.09492
v -0.11656 -0.26321 0.09403
v -0.09910 -0.26996 0.09492
v -0.11949 -0.23610 0.11593
v -0.00968 0.01103 0.02686
v -0.02583 0.01300 0.01001
v -0.02804 0.00820 0.06403
v -0.06394 0.01257 0.02659
v -0.02804 0.00820 0.06403
v -0.02583 0.01300 0.01001
v -0.02804 0.00820 0.06403
v -0.06394 0.01257 0.02659
v -0.07377 -0.11395 0.08998
v -0.10608 -0.11001 0.05629
v -0.07377 -0.11395 0.08998
v -0.06394 0.01257 0.02659
v -0.07377 -0.11395 0.08998
v -0.10608 -0.11001 0.05629
v -0.11949 -0.23610 0.11593
v -0.14821 -0.23260 0.08599
v -0.11949 -0.23610 0.11593
v -0.10608 -0.11001 0.05629
v -0.11949 -0.23610 0.11593
v -0.14821 -0.23260 0.08599
v -0.11656 -0.26321 0.09403
v -0.12948 -0.26164 0.08055
v -0.11656 -0.26321 0.09403
v -0.14821 -0.23260 0.08599
v -0.02583 0.01300 0.01001
v -0.02686 0.00736 -0.01270
v -0.06394 0.01257 0.02659
v -0.06621 0.00002 -0.02387
v -0.06394 0.01257 0.02659
v -0.02686 0.00736 -0.01270
v -0.06394 0.01257 0.02659
v -0.06621 0.00002 -0.02387
v -0.10608 -0.11001 0.05629
v -0.10812 -0.12131 0.01087
v -0.10608 -0.11001 0.05629
v -0.06621 0.00002 -0.02387
v -0.10608 -0.11001 0.05629
v -0.10812 -0.12131 0.01087
v -0.14821 -0.23260 0.08599
v -0.15003 -0.24264 0.04561
v -0.14821 -0.23260 0.08599
v -0.10812 -0.12131 0.01087
v -0.14821 -0.23260 0.08599
v -0.15003 -0.24264 0.04561
v -0.12948 -0.26164 0.08055
v -0.13030 -0.26616 0.06238
v -0.12948 -0.26164 0.08055
v -0.15003 -0.24264 0.04561
v -0.02686 0.00736 -0.01270
v -0.01215 -0.00260 -0.02797
v -0.06621 0.00002 -0.02387
v -0.03352 -0.02210 -0.05780
v -0.06621 0.00002 -0.02387
v -0.01215 -0.00260 -0.02797
v -0.06621 0.00002 -0.02387
v -0.03352 -0.02210 -0.05780
v -0.10812 -0.12131 0.01087
v -0.07870 -0.14122 -0.01967
v -0.10812 -0.12131 0.01087
v -0.03352 -0.02210 -0.05780
v -0.10812 -0.12131 0.01087
v -0.07870 -0.14122 -0.01967
v -0.15003 -0.24264 0.04561
v -0.12388 -0.26034 0.01847
v -0.15003 -0.24264 0.04561
v -0.07870 -0.14122 -0.01967
v -0.15003 -0.24264 0.04561
v -0.12388 -0.26034 0.01847
v -0.13030 -0.26616 0.06238
v -0.11853 -0.27412 0.05017
v -0.13030 -0.26616 0.06238
v -0.12388 -0.26034 0.01847
v -0.01215 -0.00260 -0.02797
v 0.00968 -0.01103 -0.02686
v -0.03352 -0.02210 -0.05780
v 0.01498 -0.04084 -0.05533
v -0.03352 -0.02210 -0.05780
v 0.00968 -0.01103 -0.02686
v -0.03352 -0.02210 -0.05780
v 0.01498 -0.04084 -0.05533
v -0.07870 -0.14122 -0.01967
v -0.03505 -0.15809 -0.01744
v -0.07870 -0.14122 -0.01967
v 0.01498 -0.04084 -0.05533
v -0.07870 -0.14122 -0.01967
v -0.03505 -0.15809 -0.01744
v -0.12388 -0.26034 0.01847
v -0.08508 -0.27533 0.02045
v -0.12388 -0.26034 0.01847
v -0.03505 -0.15809 -0.01744
v -0.12388 -0.26034 0.01847
v -0.08508 -0.27533 0.02045
v -0.11853 -0.27412 0.05017
v -0.10107 -0.28087 0.05106
v -0.11853 -0.27412 0.05017
v -0.08508 -0.27533 0.02045
v 0.00968 -0.01103 -0.02686
v 0.02583 -0.01300 -0.01001
v 0.01498 -0.04084 -0.05533
v 0.05088 -0.04522 -0.01789
v 0.01498 -0.04084 -0.05533
v 0.02583 -0.01300 -0.01001
v 0.01498 -0.04084 -0.05533
v 0.05088 -0.04522 -0.01789
v -0.03505 -0.15809 -0.01744
v -0.00274 -0.16203 0.01625
v -0.03505 -0.15809 -0.01744
v 0.05088 -0.04522 -0.01789
v -0.03505 -0.15809 -0.01744
v -0.00274 -0.16203 0.01625
v -0.08508 -0.27533 0.02045
v -0.05636 -0.27883 0.05040
v -0.08508 -0.27533 0.02045
v -0.00274 -0.16203 0.01625
v -0.08508 -0.27533 0.02045
v -0.05636 -0.27883 0.05040
v -0.10107 -0.28087 0.05106
v -0.08815 -0.28244 0.06454
v -0.10107 -0.28087 0.05106
v -0.05636 -0.27883 0.05040
v 0.02583 -0.01300 -0.01001
v 0.02686 -0.00736 0.01270
v 0.05088 -0.04522 -0.01789
v 0.05315 -0.03267 0.03258
v 0.05088 -0.04522 -0.01789
v 0.02686 -0.00736 0.01270
v 0.05088 -0.04522 -0.01789
v 0.05315 -0.03267 0.03258
v -0.00274 -0.16203 0.01625
v -0.00070 -0.15073 0.06167
v -0.00274 -0.16203 0.01625
v 0.05315 -0.03267 0.03258
v -0.00274 -0.16203 0.01625
v -0.00070 -0.15073 0.06167
v -0.05636 -0.27883 0.05040
v -0.05454 -0.26879 0.09077
v -0.05636 -0.27883 0.05040
v -0.00070 -0.15073 0.06167
v -0.05636 -0.27883 0.05040
v -0.05454 -0.26879 0.09077
v -0.08815 -0.28244 0.06454
v -0.08733 -0.27792 0.08270
v -0.08815 -0.28244 0.06454
v -0.05454 -0.26879 0.09077
vn 0.63945 0.75925 0.12097
vn 0.63945 0.75925 0.12097
vn 0.63945 0.75925 0.12097
vn 0.63945 0.75925 0.12097
vn 0.63945 0.75925 0.12097
vn 0.63945 0.75925 0.12097
vn 0.67188 -0.12658 0.72977
vn 0.67188 -0.12658 0.72977
vn 0.67188 -0.12658 0.72977
vn 0.67188 -0.12658 0.72977
vn 0.67188 -0.12658 0.72977
vn 0.67188 -0.12658 0.72977
vn 0.67188 -0.12658 0.72977
vn 0.67188 -0.12658 0.72977
vn 0.67188 -0.12658 0.72977
vn 0.67188 -0.12658 0.72977
vn 0.67188 -0.12658 0.72977
vn 0.67188 -0.12658 0.72977
vn 0.07636 -0.79998 0.59515
vn 0.07636 -0.79998 0.59515
vn 0.07636 -0.79998 0.59515
vn 0.07636 -0.79998 0.59515
vn 0.07636 -0.79998 0.59515
vn 0.07636 -0.79998 0.59515
vn 0.33956 0.91019 0.23716
vn 0.33956 0.91019 0.23716
vn 0.33956 0.91019 0.23716
vn 0.33956 0.91019 0.23716
vn 0.33956 0.91019 0.23716
vn 0.33956 0.91019 0.23716
vn 0.02654 0.19823 0.97980
vn 0.02654 0.19823 0.97980
vn 0.02654 0.19823 0.97980
vn 0.02654 0.19823 0.97980
vn 0.02654 0.19823 0.97980
vn 0.02654 0.19823 0.97980
vn 0.02654 0.19823 0.97980
vn 0.02654 0.19823 0.97980
vn 0.02654 0.19823 0.97980
vn 0.02654 0.19823 0.97980
vn 0.02654 0.19823 0.97980
vn 0.02654 0.19823 0.97980
vn -0.27766 -0.62179 0.73231
vn -0.27766 -0.62179 0.73231
vn -0.27766 -0.62179 0.73231
vn -0.27766 -0.62179 0.73231
vn -0.27766 -0.62179 0.73231
vn -0.27766 -0.62179 0.73231
vn 0.02781 0.99558 0.08972
vn 0.02781 0.99558 0.08972
vn 0.02781 0.99558 0.08972
vn 0.02781 0.99558 0.08972
vn 0.02781 0.99558 0.08972
vn 0.02781 0.99558 0.08972
vn -0.64433 0.38197 0.66253
vn -0.64433 0.38197 0.66253
vn -0.64433 0.38197 0.66253
vn -0.64433 0.38197 0.66253
vn -0.64433 0.38197 0.66253
vn -0.64433 0.38197 0.66253
vn -0.64433 0.38197 0.66253
vn -0.64433 0.38197 0.66253
vn -0.64433 0.38197 0.66253
vn -0.64433 0.38197 0.66253
vn -0.64433 0.38197 0.66253
vn -0.64433 0.38197 0.66253
vn -0.64568 -0.52100 0.55826
vn -0.64568 -0.52100 0.55826
vn -0.64568 -0.52100 0.55826
vn -0.64568 -0.52100 0.55826
vn -0.64568 -0.52100 0.55826
vn -0.64568 -0.52100 0.55826
vn -0.11318 0.96539 -0.23497
vn -0.11318 0.96539 -0.23497
vn -0.11318 0.96539 -0.23497
vn -0.11318 0.96539 -0.23497
vn -0.11318 0.96539 -0.23497
vn -0.11318 0.96539 -0.23497
vn -0.94773 0.31701 -0.03619
vn -0.94773 0.31701 -0.03619
vn -0.94773 0.31701 -0.03619
vn -0.94773 0.31701 -0.03619
vn -0.94773 0.31701 -0.03619
vn -0.94773 0.31701 -0.03619
vn -0.94773 0.31701 -0.03619
vn -0.94773 0.31701 -0.03619
vn -0.94773 0.31701 -0.03619
vn -0.94773 0.31701 -0.03619
vn -0.94773 0.31701 -0.03619
vn -0.94773 0.31701 -0.03619
vn -0.81213 -0.55663 0.17496
vn -0.81213 -0.55663 0.17496
vn -0.81213 -0.55663 0.17496
vn -0.81213 -0.55663 0.17496
vn -0.81213 -0.55663 0.17496
vn -0.81213 -0.55663 0.17496
vn -0.00082 0.83731 -0.54672
vn -0.00082 0.83731 -0.54672
vn -0.00082 0.83731 -0.54672
vn -0.00082 0.83731 -0.54672
vn -0.00082 0.83731 -0.54672
vn -0.00082 0.83731 -0.54672
vn -0.70595 0.04140 -0.70705
vn -0.70595 0.04140 -0.70705
vn -0.70595 0.04140 -0.70705
vn -0.70595 0.04140 -0.70705
vn -0.70595 0.04140 -0.70705
vn -0.70595 0.04140 -0.70705
vn -0.70595 0.04140 -0.70705
vn -0.70595 0.04140 -0.70705
vn -0.70595 0.04140 -0.70705
vn -0.70595 0.04140 -0.70705
vn -0.70595 0.04140 -0.70705
vn -0.70595 0.04140 -0.70705
vn -0.67949 -0.70783 -0.19307
vn -0.67949 -0.70783 -0.19307
vn -0.67949 -0.70783 -0.19307
vn -0.67949 -0.70783 -0.19307
vn -0.67949 -0.70783 -0.19307
vn -0.67949 -0.70783 -0.19307
vn 0.29907 0.68637 -0.66291
vn 0.29907 0.68637 -0.66291
vn 0.29907 0.68637 -0.66291
vn 0.29907 0.68637 -0.66291
vn 0.29907 0.68637 -0.66291
vn 0.29907 0.68637 -0.66291
vn -0.06061 -0.28341 -0.95708
vn -0.06061 -0.28341 -0.95708
vn -0.06061 -0.28341 -0.95708
vn -0.06061 -0.28341 -0.95708
vn -0.06061 -0.28341 -0.95708
vn -0.06061 -0.28341 -0.95708
vn -0.06061 -0.28341 -0.95708
vn -0.06061 -0.28341 -0.95708
vn -0.06061 -0.28341 -0.95708
vn -0.06061 -0.28341 -0.95708
vn -0.06061 -0.28341 -0.95708
vn -0.06061 -0.28341 -0.95708
vn -0.32547 -0.88601 -0.33023
vn -0.32547 -0.88601 -0.33023
vn -0.32547 -0.88601 -0.33023
vn -0.32547 -0.88601 -0.33023
vn -0.32547 -0.88601 -0.33023
vn -0.32547 -0.88601 -0.33023
vn 0.61082 0.60099 -0.51547
vn 0.61082 0.60099 -0.51547
vn 0.61082 0.60099 -0.51547
vn 0.61082 0.60099 -0.51547
vn 0.61082 0.60099 -0.51547
vn 0.61082 0.60099 -0.51547
vn 0.61025 -0.46715 -0.63981
vn 0.61025 -0.46715 -0.63981
vn 0.61025 -0.46715 -0.63981
vn 0.61025 -0.46715 -0.63981
vn 0.61025 -0.46715 -0.63981
vn 0.61025 -0.46715 -0.63981
vn 0.61025 -0.46715 -0.63981
vn 0.61025 -0.46715 -0.63981
vn 0.61025 -0.46715 -0.63981
vn 0.61025 -0.46715 -0.63981
vn 0.61025 -0.46715 -0.63981
vn 0.61025 -0.46715 -0.63981
vn 0.04256 -0.98681 -0.15618
vn 0.04256 -0.98681 -0.15618
vn 0.04256 -0.98681 -0.15618
vn 0.04256 -0.98681 -0.15618
vn 0.04256 -0.98681 -0.15618
vn 0.04256 -0.98681 -0.15618
vn 0.75181 0.63118 -0.19078
vn 0.75181 0.63118 -0.19078
vn 0.75181 0.63118 -0.19078
vn 0.75181 0.63118 -0.19078
vn 0.75181 0.63118 -0.19078
vn 0.75181 0.63118 -0.19078
vn 0.91366 -0.40219 0.05890
vn 0.91366 -0.40219 0.05890
vn 0.91366 -0.40219 0.05890
vn 0.91366 -0.40219 0.05890
vn 0.91366 -0.40219 0.05890
vn 0.91366 -0.40219 0.05890
vn 0.91366 -0.40219 0.05890
vn 0.91366 -0.40219 0.05890
vn 0.91366 -0.40219 0.05890
vn 0.91366 -0.40219 0.05890
vn 0.91366 -0.40219 0.05890
vn 0.91366 -0.40219 0.05890
vn 0.20900 -0.95117 0.22712
vn 0.20900 -0.95117 0.22712
vn 0.20900 -0.95117 0.22712
vn 0.20900 -0.95117 0.22712
vn 0.20900 -0.95117 0.22712
vn 0.20900 -0.95117 0.22712
usemtl skin_purple
f 1//1 2//2 3//3
f 4//4 5//5 6//6
f 7//7 8//8 9//9
f 10//10 11//11 12//12
f 13//13 14//14 15//15
f 16//16 17//17 18//18
f 19//19 20//20 21//21
f 22//22 23//23 24//24
f 25//25 26//26 27//27
f 28//28 29//29 30//30
f 31//31 32//32 33//33
f 34//34 35//35 36//36
f 37//37 38//38 39//39
f 40//40 41//41 42//42
f 43//43 44//44 45//45
f 46//46 47//47 48//48
f 49//49 50//50 51//51
f 52//52 53//53 54//54
f 55//55 56//56 57//57
f 58//58 59//59 60//60
f 61//61 62//62 63//63
f 64//64 65//65 66//66
f 67//67 68//68 69//69
f 70//70 71//71 72//72
f 73//73 74//74 75//75
f 76//76 77//77 78//78
f 79//79 80//80 81//81
f 82//82 83//83 84//84
f 85//85 86//86 87//87
f 88//88 89//89 90//90
f 91//91 92//92 93//93
f 94//94 95//95 96//96
f 97//97 98//98 99//99
f 100//100 101//101 102//102
f 103//103 104//104 105//105
f 106//106 107//107 108//108
f 109//109 110//110 111//111
f 112//112 113//113 114//114
f 115//115 116//116 117//117
f 118//118 119//119 120//120
f 121//121 122//122 123//123
f 124//124 125//125 126//126
f 127//127 128//128 129//129
f 130//130 131//131 132//132
f 133//133 134//134 135//135
f 136//136 137//137 138//138
f 139//139 140//140 141//141
f 142//142 143//143 144//144
f 145//145 146//146 147//147
f 148//148 149//149 150//150
f 151//151 152//152 153//153
f 154//154 155//155 156//156
f 157//157 158//158 159//159
f 160//160 161//161 162//162
f 163//163 164//164 165//165
f 166//166 167//167 168//168
f 169//169 170//170 171//171
f 172//172 173//173 174//174
f 175//175 176//176 177//177
f 178//178 179//179 180//180
f 181//181 182//182 183//183
f 184//184 185//185 186//186
f 187//187 188//188 189//189
f 190//190 191//191 192//192
o arm_lower_L
v -0.11268 -0.28229 0.05065
v -0.09446 -0.27989 0.05433
v -0.11686 -0.30897 0.03042
v -0.07638 -0.30364 0.03860
v -0.11686 -0.30897 0.03042
v -0.09446 -0.27989 0.05433
v -0.11686 -0.30897 0.03042
v -0.07638 -0.30364 0.03860
v -0.11201 -0.41043 0.08316
v -0.07558 -0.40563 0.09052
v -0.11201 -0.41043 0.08316
v -0.07638 -0.30364 0.03860
v -0.11201 -0.41043 0.08316
v -0.07558 -0.40563 0.09052
v -0.10716 -0.51189 0.13591
v -0.07478 -0.50763 0.14245
v -0.10716 -0.51189 0.13591
v -0.07558 -0.40563 0.09052
v -0.10716 -0.51189 0.13591
v -0.07478 -0.50763 0.14245
v -0.10284 -0.51601 0.16384
v -0.08827 -0.51409 0.16679
v -0.10284 -0.51601 0.16384
v -0.07478 -0.50763 0.14245
v -0.09446 -0.27989 0.05433
v -0.08465 -0.27289 0.06868
v -0.07638 -0.30364 0.03860
v -0.05458 -0.28808 0.07048
v -0.07638 -0.30364 0.03860
v -0.08465 -0.27289 0.06868
v -0.07638 -0.30364 0.03860
v -0.05458 -0.28808 0.07048
v -0.07558 -0.40563 0.09052
v -0.05596 -0.39163 0.11922
v -0.07558 -0.40563 0.09052
v -0.05458 -0.28808 0.07048
v -0.07558 -0.40563 0.09052
v -0.05596 -0.39163 0.11922
v -0.07478 -0.50763 0.14245
v -0.05734 -0.49518 0.16796
v -0.07478 -0.50763 0.14245
v -0.05596 -0.39163 0.11922
v -0.07478 -0.50763 0.14245
v -0.05734 -0.49518 0.16796
v -0.08827 -0.51409 0.16679
v -0.08042 -0.50849 0.17827
v -0.08827 -0.51409 0.16679
v -0.05734 -0.49518 0.16796
v -0.08465 -0.27289 0.06868
v -0.08900 -0.26539 0.08529
v -0.05458 -0.28808 0.07048
v -0.06423 -0.27142 0.10740
v -0.05458 -0.28808 0.07048
v -0.08900 -0.26539 0.08529
v -0.05458 -0.28808 0.07048
v -0.06423 -0.27142 0.10740
v -0.05596 -0.39163 0.11922
v -0.06465 -0.37663 0.15245
v -0.05596 -0.39163 0.11922
v -0.06423 -0.27142 0.10740
v -0.05596 -0.39163 0.11922
v -0.06465 -0.37663 0.15245
v -0.05734 -0.49518 0.16796
v -0.06506 -0.48185 0.19750
v -0.05734 -0.49518 0.16796
v -0.06465 -0.37663 0.15245
v -0.05734 -0.49518 0.16796
v -0.06506 -0.48185 0.19750
v -0.08042 -0.50849 0.17827
v -0.08389 -0.50249 0.19156
v -0.08042 -0.50849 0.17827
v -0.06506 -0.48185 0.19750
v -0.08900 -0.26539 0.08529
v -0.10495 -0.26179 0.09444
v -0.06423 -0.27142 0.10740
v -0.09968 -0.26340 0.12773
v -0.06423 -0.27142 0.10740
v -0.10495 -0.26179 0.09444
v -0.06423 -0.27142 0.10740
v -0.09968 -0.26340 0.12773
v -0.06465 -0.37663 0.15245
v -0.09655 -0.36942 0.17074
v -0.06465 -0.37663 0.15245
v -0.09968 -0.26340 0.12773
v -0.06465 -0.37663 0.15245
v -0.09655 -0.36942 0.17074
v -0.06506 -0.48185 0.19750
v -0.09342 -0.47543 0.21375
v -0.06506 -0.48185 0.19750
v -0.09655 -0.36942 0.17074
v -0.06506 -0.48185 0.19750
v -0.09342 -0.47543 0.21375
v -0.08389 -0.50249 0.19156
v -0.09666 -0.49960 0.19888
v -0.08389 -0.50249 0.19156
v -0.09342 -0.47543 0.21375
v -0.10495 -0.26179 0.09444
v -0.12317 -0.26418 0.09076
v -0.09968 -0.26340 0.12773
v -0.14016 -0.26873 0.11955
v -0.09968 -0.26340 0.12773
v -0.12317 -0.26418 0.09076
v -0.09968 -0.26340 0.12773
v -0.14016 -0.26873 0.11955
v -0.09655 -0.36942 0.17074
v -0.13299 -0.37421 0.16338
v -0.09655 -0.36942 0.17074
v -0.14016 -0.26873 0.11955
v -0.09655 -0.36942 0.17074
v -0.13299 -0.37421 0.16338
v -0.09342 -0.47543 0.21375
v -0.12581 -0.47970 0.20721
v -0.09342 -0.47543 0.21375
v -0.13299 -0.37421 0.16338
v -0.09342 -0.47543 0.21375
v -0.12581 -0.47970 0.20721
v -0.09666 -0.49960 0.19888
v -0.11123 -0.50152 0.19593
v -0.09666 -0.49960 0.19888
v -0.12581 -0.47970 0.20721
v -0.12317 -0.26418 0.09076
v -0.13298 -0.27119 0.07641
v -0.14016 -0.26873 0.11955
v -0.16196 -0.28429 0.08766
v -0.14016 -0.26873 0.11955
v -0.13298 -0.27119 0.07641
v -0.14016 -0.26873 0.11955
v -0.16196 -0.28429 0.08766
v -0.13299 -0.37421 0.16338
v -0.15260 -0.38821 0.13468
v -0.13299 -0.37421 0.16338
v -0.16196 -0.28429 0.08766
v -0.13299 -0.37421 0.16338
v -0.15260 -0.38821 0.13468
v -0.12581 -0.47970 0.20721
v -0.14325 -0.49214 0.18170
v -0.12581 -0.47970 0.20721
v -0.15260 -0.38821 0.13468
v -0.12581 -0.47970 0.20721
v -0.14325 -0.49214 0.18170
v -0.11123 -0.50152 0.19593
v -0.11908 -0.50712 0.18445
v -0.11123 -0.50152 0.19593
v -0.14325 -0.49214 0.18170
v -0.13298 -0.27119 0.07641
v -0.12863 -0.27869 0.05980
v -0.16196 -0.28429 0.08766
v -0.15231 -0.30096 0.05074
v -0.16196 -0.28429 0.08766
v -0.12863 -0.27869 0.05980
v -0.16196 -0.28429 0.08766
v -0.15231 -0.30096 0.05074
v -0.15260 -0.38821 0.13468
v -0.14392 -0.40322 0.10145
v -0.15260 -0.38821 0.13468
v -0.15231 -0.30096 0.05074
v -0.15260 -0.38821 0.13468
v -0.14392 -0.40322 0.10145
v -0.14325 -0.49214 0.18170
v -0.13552 -0.50548 0.15217
v -0.14325 -0.49214 0.18170
v -0.14392 -0.40322 0.10145
v -0.14325 -0.49214 0.18170
v -0.13552 -0.50548 0.15217
v -0.11908 -0.50712 0.18445
v -0.11560 -0.51312 0.17116
v -0.11908 -0.50712 0.18445
v -0.13552 -0.50548 0.15217
v -0.12863 -0.27869 0.05980
v -0.11268 -0.28229 0.05065
v -0.15231 -0.30096 0.05074
v -0.11686 -0.30897 0.03042
v -0.15231 -0.30096 0.05074
v -0.11268 -0.28229 0.05065
v -0.15231 -0.30096 0.05074
v -0.11686 -0.30897 0.03042
v -0.14392 -0.40322 0.10145
v -0.11201 -0.41043 0.08316
v -0.14392 -0.40322 0.10145
v -0.11686 -0.30897 0.03042
v -0.14392 -0.40322 0.10145
v -0.11201 -0.41043 0.08316
v -0.13552 -0.50548 0.15217
v -0.10716 -0.51189 0.13591
v -0.13552 -0.50548 0.15217
v -0.11201 -0.41043 0.08316
v -0.13552 -0.50548 0.15217
v -0.10716 -0.51189 0.13591
v -0.11560 -0.51312 0.17116
v -0.10284 -0.51601 0.16384
v -0.11560 -0.51312 0.17116
v -0.10716 -0.51189 0.13591
vn 0.08346 0.59379 -0.80028
vn 0.08346 0.59379 -0.80028
vn 0.08346 0.59379 -0.80028
vn 0.08346 0.59379 -0.80028
vn 0.08346 0.59379 -0.80028
vn 0.08346 0.59379 -0.80028
vn 0.23312 -0.43975 -0.86734
vn 0.23312 -0.43975 -0.86734
vn 0.23312 -0.43975 -0.86734
vn 0.23312 -0.43975 -0.86734
vn 0.23312 -0.43975 -0.86734
vn 0.23312 -0.43975 -0.86734
vn 0.23312 -0.43975 -0.86734
vn 0.23312 -0.43975 -0.86734
vn 0.23312 -0.43975 -0.86734
vn 0.23312 -0.43975 -0.86734
vn 0.23312 -0.43975 -0.86734
vn 0.23312 -0.43975 -0.86734
vn 0.16208 -0.97229 -0.16847
vn 0.16208 -0.97229 -0.16847
vn 0.16208 -0.97229 -0.16847
vn 0.16208 -0.97229 -0.16847
vn 0.16208 -0.97229 -0.16847
vn 0.16208 -0.97229 -0.16847
vn 0.38775 0.69585 -0.60452
vn 0.38775 0.69585 -0.60452
vn 0.38775 0.69585 -0.60452
vn 0.38775 0.69585 -0.60452
vn 0.38775 0.69585 -0.60452
vn 0.38775 0.69585 -0.60452
vn 0.85203 -0.23219 -0.46919
vn 0.85203 -0.23219 -0.46919
vn 0.85203 -0.23219 -0.46919
vn 0.85203 -0.23219 -0.46919
vn 0.85203 -0.23219 -0.46919
vn 0.85203 -0.23219 -0.46919
vn 0.85203 -0.23219 -0.46919
vn 0.85203 -0.23219 -0.46919
vn 0.85203 -0.23219 -0.46919
vn 0.85203 -0.23219 -0.46919
vn 0.85203 -0.23219 -0.46919
vn 0.85203 -0.23219 -0.46919
vn 0.51899 -0.85259 0.06113
vn 0.51899 -0.85259 0.06113
vn 0.51899 -0.85259 0.06113
vn 0.51899 -0.85259 0.06113
vn 0.51899 -0.85259 0.06113
vn 0.51899 -0.85259 0.06113
vn 0.44709 0.85329 -0.26835
vn 0.44709 0.85329 -0.26835
vn 0.44709 0.85329 -0.26835
vn 0.44709 0.85329 -0.26835
vn 0.44709 0.85329 -0.26835
vn 0.44709 0.85329 -0.26835
vn 0.97273 0.08804 0.21458
vn 0.97273 0.08804 0.21458
vn 0.97273 0.08804 0.21458
vn 0.97273 0.08804 0.21458
vn 0.97273 0.08804 0.21458
vn 0.97273 0.08804 0.21458
vn 0.97273 0.08804 0.21458
vn 0.97273 0.08804 0.21458
vn 0.97273 0.08804 0.21458
vn 0.97273 0.08804 0.21458
vn 0.97273 0.08804 0.21458
vn 0.97273 0.08804 0.21458
vn 0.58860 -0.66792 0.45545
vn 0.58860 -0.66792 0.45545
vn 0.58860 -0.66792 0.45545
vn 0.58860 -0.66792 0.45545
vn 0.58860 -0.66792 0.45545
vn 0.58860 -0.66792 0.45545
vn 0.22673 0.97389 0.01133
vn 0.22673 0.97389 0.01133
vn 0.22673 0.97389 0.01133
vn 0.22673 0.97389 0.01133
vn 0.22673 0.97389 0.01133
vn 0.22673 0.97389 0.01133
vn 0.52452 0.33335 0.78343
vn 0.52452 0.33335 0.78343
vn 0.52452 0.33335 0.78343
vn 0.52452 0.33335 0.78343
vn 0.52452 0.33335 0.78343
vn 0.52452 0.33335 0.78343
vn 0.52452 0.33335 0.78343
vn 0.52452 0.33335 0.78343
vn 0.52452 0.33335 0.78343
vn 0.52452 0.33335 0.78343
vn 0.52452 0.33335 0.78343
vn 0.52452 0.33335 0.78343
vn 0.33012 -0.52646 0.78349
vn 0.33012 -0.52646 0.78349
vn 0.33012 -0.52646 0.78349
vn 0.33012 -0.52646 0.78349
vn 0.33012 -0.52646 0.78349
vn 0.33012 -0.52646 0.78349
vn -0.14426 0.98701 0.07067
vn -0.14426 0.98701 0.07067
vn -0.14426 0.98701 0.07067
vn -0.14426 0.98701 0.07067
vn -0.14426 0.98701 0.07067
vn -0.14426 0.98701 0.07067
vn -0.23005 0.36003 0.90413
vn -0.23005 0.36003 0.90413
vn -0.23005 0.36003 0.90413
vn -0.23005 0.36003 0.90413
vn -0.23005 0.36003 0.90413
vn -0.23005 0.36003 0.90413
vn -0.23005 0.36003 0.90413
vn -0.23005 0.36003 0.90413
vn -0.23005 0.36003 0.90413
vn -0.23005 0.36003 0.90413
vn -0.23005 0.36003 0.90413
vn -0.23005 0.36003 0.90413
vn -0.10503 -0.51107 0.85310
vn -0.10503 -0.51107 0.85310
vn -0.10503 -0.51107 0.85310
vn -0.10503 -0.51107 0.85310
vn -0.10503 -0.51107 0.85310
vn -0.10503 -0.51107 0.85310
vn -0.44855 0.88496 -0.12508
vn -0.44855 0.88496 -0.12508
vn -0.44855 0.88496 -0.12508
vn -0.44855 0.88496 -0.12508
vn -0.44855 0.88496 -0.12508
vn -0.44855 0.88496 -0.12508
vn -0.84896 0.15247 0.50598
vn -0.84896 0.15247 0.50598
vn -0.84896 0.15247 0.50598
vn -0.84896 0.15247 0.50598
vn -0.84896 0.15247 0.50598
vn -0.84896 0.15247 0.50598
vn -0.84896 0.15247 0.50598
vn -0.84896 0.15247 0.50598
vn -0.84896 0.15247 0.50598
vn -0.84896 0.15247 0.50598
vn -0.84896 0.15247 0.50598
vn -0.84896 0.15247 0.50598
vn -0.46194 -0.63077 0.62349
vn -0.46194 -0.63077 0.62349
vn -0.46194 -0.63077 0.62349
vn -0.46194 -0.63077 0.62349
vn -0.46194 -0.63077 0.62349
vn -0.46194 -0.63077 0.62349
vn -0.50789 0.72752 -0.46126
vn -0.50789 0.72752 -0.46126
vn -0.50789 0.72752 -0.46126
vn -0.50789 0.72752 -0.46126
vn -0.50789 0.72752 -0.46126
vn -0.50789 0.72752 -0.46126
vn -0.96966 -0.16776 -0.17779
vn -0.96966 -0.16776 -0.17779
vn -0.96966 -0.16776 -0.17779
vn -0.96966 -0.16776 -0.17779
vn -0.96966 -0.16776 -0.17779
vn -0.96966 -0.16776 -0.17779
vn -0.96966 -0.16776 -0.17779
vn -0.96966 -0.16776 -0.17779
vn -0.96966 -0.16776 -0.17779
vn -0.96966 -0.16776 -0.17779
vn -0.96966 -0.16776 -0.17779
vn -0.96966 -0.16776 -0.17779
vn -0.53155 -0.81544 0.22918
vn -0.53155 -0.81544 0.22918
vn -0.53155 -0.81544 0.22918
vn -0.53155 -0.81544 0.22918
vn -0.53155 -0.81544 0.22918
vn -0.53155 -0.81544 0.22918
vn -0.28753 0.60691 -0.74093
vn -0.28753 0.60691 -0.74093
vn -0.28753 0.60691 -0.74093
vn -0.28753 0.60691 -0.74093
vn -0.28753 0.60691 -0.74093
vn -0.28753 0.60691 -0.74093
vn -0.52145 -0.41307 -0.74664
vn -0.52145 -0.41307 -0.74664
vn -0.52145 -0.41307 -0.74664
vn -0.52145 -0.41307 -0.74664
vn -0.52145 -0.41307 -0.74664
vn -0.52145 -0.41307 -0.74664
vn -0.52145 -0.41307 -0.74664
vn -0.52145 -0.41307 -0.74664
vn -0.52145 -0.41307 -0.74664
vn -0.52145 -0.41307 -0.74664
vn -0.52145 -0.41307 -0.74664
vn -0.52145 -0.41307 -0.74664
vn -0.27307 -0.95690 -0.09887
vn -0.27307 -0.95690 -0.09887
vn -0.27307 -0.95690 -0.09887
vn -0.27307 -0.95690 -0.09887
vn -0.27307 -0.95690 -0.09887
vn -0.27307 -0.95690 -0.09887
usemtl skin_purple
f 193//193 194//194 195//195
f 196//196 197//197 198//198
f 199//199 200//200 201//201
f 202//202 203//203 204//204
f 205//205 206//206 207//207
f 208//208 209//209 210//210
f 211//211 212//212 213//213
f 214//214 215//215 216//216
f 217//217 218//218 219//219
f 220//220 221//221 222//222
f 223//223 224//224 225//225
f 226//226 227//227 228//228
f 229//229 230//230 231//231
f 232//232 233//233 234//234
f 235//235 236//236 237//237
f 238//238 239//239 240//240
f 241//241 242//242 243//243
f 244//244 245//245 246//246
f 247//247 248//248 249//249
f 250//250 251//251 252//252
f 253//253 254//254 255//255
f 256//256 257//257 258//258
f 259//259 260//260 261//261
f 262//262 263//263 264//264
f 265//265 266//266 267//267
f 268//268 269//269 270//270
f 271//271 272//272 273//273
f 274//274 275//275 276//276
f 277//277 278//278 279//279
f 280//280 281//281 282//282
f 283//283 284//284 285//285
f 286//286 287//287 288//288
f 289//289 290//290 291//291
f 292//292 293//293 294//294
f 295//295 296//296 297//297
f 298//298 299//299 300//300
f 301//301 302//302 303//303
f 304//304 305//305 306//306
f 307//307 308//308 309//309
f 310//310 311//311 312//312
f 313//313 314//314 315//315
f 316//316 317//317 318//318
f 319//319 320//320 321//321
f 322//322 323//323 324//324
f 325//325 326//326 327//327
f 328//328 329//329 330//330
f 331//331 332//332 333//333
f 334//334 335//335 336//336
f 337//337 338//338 339//339
f 340//340 341//341 342//342
f 343//343 344//344 345//345
f 346//346 347//347 348//348
f 349//349 350//350 351//351
f 352//352 353//353 354//354
f 355//355 356//356 357//357
f 358//358 359//359 360//360
f 361//361 362//362 363//363
f 364//364 365//365 366//366
f 367//367 368//368 369//369
f 370//370 371//371 372//372
f 373//373 374//374 375//375
f 376//376 377//377 378//378
f 379//379 380//380 381//381
f 382//382 383//383 384//384
o arm_joint_L
v -0.10882 -0.20947 0.07254
v -0.14010 -0.21785 0.07254
v -0.13094 -0.21785 0.09467
v -0.10882 -0.20947 0.07254
v -0.13094 -0.21785 0.09467
v -0.10882 -0.21785 0.10383
v -0.10882 -0.20947 0.07254
v -0.10882 -0.21785 0.10383
v -0.08669 -0.21785 0.09467
v -0.10882 -0.20947 0.07254
v -0.08669 -0.21785 0.09467
v -0.07753 -0.21785 0.07254
v -0.10882 -0.20947 0.07254
v -0.07753 -0.21785 0.07254
v -0.08669 -0.21785 0.05042
v -0.10882 -0.20947 0.07254
v -0.08669 -0.21785 0.05042
v -0.10882 -0.21785 0.04126
v -0.10882 -0.20947 0.07254
v -0.10882 -0.21785 0.04126
v -0.13094 -0.21785 0.05042
v -0.10882 -0.20947 0.07254
v -0.13094 -0.21785 0.05042
v -0.14010 -0.21785 0.07254
v -0.13094 -0.21785 0.09467
v -0.14010 -0.21785 0.07254
v -0.14713 -0.24076 0.11086
v -0.14010 -0.21785 0.07254
v -0.16300 -0.24076 0.07254
v -0.14713 -0.24076 0.11086
v -0.10882 -0.21785 0.10383
v -0.13094 -0.21785 0.09467
v -0.10882 -0.24076 0.12673
v -0.13094 -0.21785 0.09467
v -0.14713 -0.24076 0.11086
v -0.10882 -0.24076 0.12673
v -0.08669 -0.21785 0.09467
v -0.10882 -0.21785 0.10383
v -0.07050 -0.24076 0.11086
v -0.10882 -0.21785 0.10383
v -0.10882 -0.24076 0.12673
v -0.07050 -0.24076 0.11086
v -0.07753 -0.21785 0.07254
v -0.08669 -0.21785 0.09467
v -0.05463 -0.24076 0.07254
v -0.08669 -0.21785 0.09467
v -0.07050 -0.24076 0.11086
v -0.05463 -0.24076 0.07254
v -0.08669 -0.21785 0.05042
v -0.07753 -0.21785 0.07254
v -0.07050 -0.24076 0.03423
v -0.07753 -0.21785 0.07254
v -0.05463 -0.24076 0.07254
v -0.07050 -0.24076 0.03423
v -0.10882 -0.21785 0.04126
v -0.08669 -0.21785 0.05042
v -0.10882 -0.24076 0.01836
v -0.08669 -0.21785 0.05042
v -0.07050 -0.24076 0.03423
v -0.10882 -0.24076 0.01836
v -0.13094 -0.21785 0.05042
v -0.10882 -0.21785 0.04126
v -0.14713 -0.24076 0.03423
v -0.10882 -0.21785 0.04126
v -0.10882 -0.24076 0.01836
v -0.14713 -0.24076 0.03423
v -0.14010 -0.21785 0.07254
v -0.13094 -0.21785 0.05042
v -0.16300 -0.24076 0.07254
v -0.13094 -0.21785 0.05042
v -0.14713 -0.24076 0.03423
v -0.16300 -0.24076 0.07254
v -0.14713 -0.24076 0.11086
v -0.16300 -0.24076 0.07254
v -0.15306 -0.27204 0.11679
v -0.16300 -0.24076 0.07254
v -0.17138 -0.27204 0.07254
v -0.15306 -0.27204 0.11679
v -0.10882 -0.24076 0.12673
v -0.14713 -0.24076 0.11086
v -0.10882 -0.27204 0.13511
v -0.14713 -0.24076 0.11086
v -0.15306 -0.27204 0.11679
v -0.10882 -0.27204 0.13511
v -0.07050 -0.24076 0.11086
v -0.10882 -0.24076 0.12673
v -0.06457 -0.27204 0.11679
v -0.10882 -0.24076 0.12673
v -0.10882 -0.27204 0.13511
v -0.06457 -0.27204 0.11679
v -0.05463 -0.24076 0.07254
v -0.07050 -0.24076 0.11086
v -0.04625 -0.27204 0.07254
v -0.07050 -0.24076 0.11086
v -0.06457 -0.27204 0.11679
v -0.04625 -0.27204 0.07254
v -0.07050 -0.24076 0.03423
v -0.05463 -0.24076 0.07254
v -0.06457 -0.27204 0.02830
v -0.05463 -0.24076 0.07254
v -0.04625 -0.27204 0.07254
v -0.06457 -0.27204 0.02830
v -0.10882 -0.24076 0.01836
v -0.07050 -0.24076 0.03423
v -0.10882 -0.27204 0.00997
v -0.07050 -0.24076 0.03423
v -0.06457 -0.27204 0.02830
v -0.10882 -0.27204 0.00997
v -0.14713 -0.24076 0.03423
v -0.10882 -0.24076 0.01836
v -0.15306 -0.27204 0.02830
v -0.10882 -0.24076 0.01836
v -0.10882 -0.27204 0.00997
v -0.15306 -0.27204 0.02830
v -0.16300 -0.24076 0.07254
v -0.14713 -0.24076 0.03423
v -0.17138 -0.27204 0.07254
v -0.14713 -0.24076 0.03423
v -0.15306 -0.27204 0.02830
v -0.17138 -0.27204 0.07254
v -0.15306 -0.27204 0.11679
v -0.17138 -0.27204 0.07254
v -0.14713 -0.30332 0.11086
v -0.17138 -0.27204 0.07254
v -0.16300 -0.30332 0.07254
v -0.14713 -0.30332 0.11086
v -0.10882 -0.27204 0.13511
v -0.15306 -0.27204 0.11679
v -0.10882 -0.30332 0.12673
v -0.15306 -0.27204 0.11679
v -0.14713 -0.30332 0.11086
v -0.10882 -0.30332 0.12673
v -0.06457 -0.27204 0.11679
v -0.10882 -0.27204 0.13511
v -0.07050 -0.30332 0.11086
v -0.10882 -0.27204 0.13511
v -0.10882 -0.30332 0.12673
v -0.07050 -0.30332 0.11086
v -0.04625 -0.27204 0.07254
v -0.06457 -0.27204 0.11679
v -0.05463 -0.30332 0.07254
v -0.06457 -0.27204 0.11679
v -0.07050 -0.30332 0.11086
v -0.05463 -0.30332 0.07254
v -0.06457 -0.27204 0.02830
v -0.04625 -0.27204 0.07254
v -0.07050 -0.30332 0.03423
v -0.04625 -0.27204 0.07254
v -0.05463 -0.30332 0.07254
v -0.07050 -0.30332 0.03423
v -0.10882 -0.27204 0.00997
v -0.06457 -0.27204 0.02830
v -0.10882 -0.30332 0.01836
v -0.06457 -0.27204 0.02830
v -0.07050 -0.30332 0.03423
v -0.10882 -0.30332 0.01836
v -0.15306 -0.27204 0.02830
v -0.10882 -0.27204 0.00997
v -0.14713 -0.30332 0.03423
v -0.10882 -0.27204 0.00997
v -0.10882 -0.30332 0.01836
v -0.14713 -0.30332 0.03423
v -0.17138 -0.27204 0.07254
v -0.15306 -0.27204 0.02830
v -0.16300 -0.30332 0.07254
v -0.15306 -0.27204 0.02830
v -0.14713 -0.30332 0.03423
v -0.16300 -0.30332 0.07254
v -0.14713 -0.30332 0.11086
v -0.16300 -0.30332 0.07254
v -0.13094 -0.32623 0.09467
v -0.16300 -0.30332 0.07254
v -0.14010 -0.32623 0.07254
v -0.13094 -0.32623 0.09467
v -0.10882 -0.30332 0.12673
v -0.14713 -0.30332 0.11086
v -0.10882 -0.32623 0.10383
v -0.14713 -0.30332 0.11086
v -0.13094 -0.32623 0.09467
v -0.10882 -0.32623 0.10383
v -0.07050 -0.30332 0.11086
v -0.10882 -0.30332 0.12673
v -0.08669 -0.32623 0.09467
v -0.10882 -0.30332 0.12673
v -0.10882 -0.32623 0.10383
v -0.08669 -0.32623 0.09467
v -0.05463 -0.30332 0.07254
v -0.07050 -0.30332 0.11086
v -0.07753 -0.32623 0.07254
v -0.07050 -0.30332 0.11086
v -0.08669 -0.32623 0.09467
v -0.07753 -0.32623 0.07254
v -0.07050 -0.30332 0.03423
v -0.05463 -0.30332 0.07254
v -0.08669 -0.32623 0.05042
v -0.05463 -0.30332 0.07254
v -0.07753 -0.32623 0.07254
v -0.08669 -0.32623 0.05042
v -0.10882 -0.30332 0.01836
v -0.07050 -0.30332 0.03423
v -0.10882 -0.32623 0.04126
v -0.07050 -0.30332 0.03423
v -0.08669 -0.32623 0.05042
v -0.10882 -0.32623 0.04126
v -0.14713 -0.30332 0.03423
v -0.10882 -0.30332 0.01836
v -0.13094 -0.32623 0.05042
v -0.10882 -0.30332 0.01836
v -0.10882 -0.32623 0.04126
v -0.13094 -0.32623 0.05042
v -0.16300 -0.30332 0.07254
v -0.14713 -0.30332 0.03423
v -0.14010 -0.32623 0.07254
v -0.14713 -0.30332 0.03423
v -0.13094 -0.32623 0.05042
v -0.14010 -0.32623 0.07254
v -0.13094 -0.32623 0.09467
v -0.14010 -0.32623 0.07254
v -0.10882 -0.33461 0.07254
v -0.10882 -0.32623 0.10383
v -0.13094 -0.32623 0.09467
v -0.10882 -0.33461 0.07254
v -0.08669 -0.32623 0.09467
v -0.10882 -0.32623 0.10383
v -0.10882 -0.33461 0.07254
v -0.07753 -0.32623 0.07254
v -0.08669 -0.32623 0.09467
v -0.10882 -0.33461 0.07254
v -0.08669 -0.32623 0.05042
v -0.07753 -0.32623 0.07254
v -0.10882 -0.33461 0.07254
v -0.10882 -0.32623 0.04126
v -0.08669 -0.32623 0.05042
v -0.10882 -0.33461 0.07254
v -0.13094 -0.32623 0.05042
v -0.10882 -0.32623 0.04126
v -0.10882 -0.33461 0.07254
v -0.14010 -0.32623 0.07254
v -0.13094 -0.32623 0.05042
v -0.10882 -0.33461 0.07254
vn -0.25734 0.96042 0.10660
vn -0.25734 0.96042 0.10660
vn -0.25734 0.96042 0.10660
vn -0.10660 0.96042 0.25734
vn -0.10660 0.96042 0.25734
vn -0.10660 0.96042 0.25734
vn 0.10660 0.96042 0.25734
vn 0.10660 0.96042 0.25734
vn 0.10660 0.96042 0.25734
vn 0.25734 0.96042 0.10660
vn 0.25734 0.96042 0.10660
vn 0.25734 0.96042 0.10660
vn 0.25734 0.96042 -0.10660
vn 0.25734 0.96042 -0.10660
vn 0.25734 0.96042 -0.10660
vn 0.10660 0.96042 -0.25734
vn 0.10660 0.96042 -0.25734
vn 0.10660 0.96042 -0.25734
vn -0.10660 0.96042 -0.25734
vn -0.10660 0.96042 -0.25734
vn -0.10660 0.96042 -0.25734
vn -0.25734 0.96042 -0.10660
vn -0.25734 0.96042 -0.10660
vn -0.25734 0.96042 -0.10660
vn -0.67860 0.67860 0.28108
vn -0.67860 0.67860 0.28108
vn -0.67860 0.67860 0.28108
vn -0.67860 0.67860 0.28108
vn -0.67860 0.67860 0.28108
vn -0.67860 0.67860 0.28108
vn -0.28108 0.67860 0.67860
vn -0.28108 0.67860 0.67860
vn -0.28108 0.67860 0.67860
vn -0.28108 0.67860 0.67860
vn -0.28108 0.67860 0.67860
vn -0.28108 0.67860 0.67860
vn 0.28108 0.67860 0.67860
vn 0.28108 0.67860 0.67860
vn 0.28108 0.67860 0.67860
vn 0.28108 0.67860 0.67860
vn 0.28108 0.67860 0.67860
vn 0.28108 0.67860 0.67860
vn 0.67860 0.67860 0.28108
vn 0.67860 0.67860 0.28108
vn 0.67860 0.67860 0.28108
vn 0.67860 0.67860 0.28108
vn 0.67860 0.67860 0.28108
vn 0.67860 0.67860 0.28108
vn 0.67860 0.67860 -0.28108
vn 0.67860 0.67860 -0.28108
vn 0.67860 0.67860 -0.28108
vn 0.67860 0.67860 -0.28108
vn 0.67860 0.67860 -0.28108
vn 0.67860 0.67860 -0.28108
vn 0.28108 0.67860 -0.67860
vn 0.28108 0.67860 -0.67860
vn 0.28108 0.67860 -0.67860
vn 0.28108 0.67860 -0.67860
vn 0.28108 0.67860 -0.67860
vn 0.28108 0.67860 -0.67860
vn -0.28108 0.67860 -0.67860
vn -0.28108 0.67860 -0.67860
vn -0.28108 0.67860 -0.67860
vn -0.28108 0.67860 -0.67860
vn -0.28108 0.67860 -0.67860
vn -0.28108 0.67860 -0.67860
vn -0.67860 0.67860 -0.28108
vn -0.67860 0.67860 -0.28108
vn -0.67860 0.67860 -0.28108
vn -0.67860 0.67860 -0.28108
vn -0.67860 0.67860 -0.28108
vn -0.67860 0.67860 -0.28108
vn -0.89681 0.24030 0.37147
vn -0.89681 0.24030 0.37147
vn -0.89681 0.24030 0.37147
vn -0.89681 0.24030 0.37147
vn -0.89681 0.24030 0.37147
vn -0.89681 0.24030 0.37147
vn -0.37147 0.24030 0.89681
vn -0.37147 0.24030 0.89681
vn -0.37147 0.24030 0.89681
vn -0.37147 0.24030 0.89681
vn -0.37147 0.24030 0.89681
vn -0.37147 0.24030 0.89681
vn 0.37147 0.24030 0.89681
vn 0.37147 0.24030 0.89681
vn 0.37147 0.24030 0.89681
vn 0.37147 0.24030 0.89681
vn 0.37147 0.24030 0.89681
vn 0.37147 0.24030 0.89681
vn 0.89681 0.24030 0.37147
vn 0.89681 0.24030 0.37147
vn 0.89681 0.24030 0.37147
vn 0.89681 0.24030 0.37147
vn 0.89681 0.24030 0.37147
vn 0.89681 0.24030 0.37147
vn 0.89681 0.24030 -0.37147
vn 0.89681 0.24030 -0.37147
vn 0.89681 0.24030 -0.37147
vn 0.89681 0.24030 -0.37147
vn 0.89681 0.24030 -0.37147
vn 0.89681 0.24030 -0.37147
vn 0.37147 0.24030 -0.89681
vn 0.37147 0.24030 -0.89681
vn 0.37147 0.24030 -0.89681
vn 0.37147 0.24030 -0.89681
vn 0.37147 0.24030 -0.89681
vn 0.37147 0.24030 -0.89681
vn -0.37147 0.24030 -0.89681
vn -0.37147 0.24030 -0.89681
vn -0.37147 0.24030 -0.89681
vn -0.37147 0.24030 -0.89681
vn -0.37147 0.24030 -0.89681
vn -0.37147 0.24030 -0.89681
vn -0.89681 0.24030 -0.37147
vn -0.89681 0.24030 -0.37147
vn -0.89681 0.24030 -0.37147
vn -0.89681 0.24030 -0.37147
vn -0.89681 0.24030 -0.37147
vn -0.89681 0.24030 -0.37147
vn -0.89681 -0.24030 0.37147
vn -0.89681 -0.24030 0.37147
vn -0.89681 -0.24030 0.37147
vn -0.89681 -0.24030 0.37147
vn -0.89681 -0.24030 0.37147
vn -0.89681 -0.24030 0.37147
vn -0.37147 -0.24030 0.89681
vn -0.37147 -0.24030 0.89681
vn -0.37147 -0.24030 0.89681
vn -0.37147 -0.24030 0.89681
vn -0.37147 -0.24030 0.89681
vn -0.37147 -0.24030 0.89681
vn 0.37147 -0.24030 0.89681
vn 0.37147 -0.24030 0.89681
vn 0.37147 -0.24030 0.89681
vn 0.37147 -0.24030 0.89681
vn 0.37147 -0.24030 0.89681
vn 0.37147 -0.24030 0.89681
vn 0.89681 -0.24030 0.37147
vn 0.89681 -0.24030 0.37147
vn 0.89681 -0.24030 0.37147
vn 0.89681 -0.24030 0.37147
vn 0.89681 -0.24030 0.37147
vn 0.89681 -0.24030 0.37147
vn 0.89681 -0.24030 -0.37147
vn 0.89681 -0.24030 -0.37147
vn 0.89681 -0.24030 -0.37147
vn 0.89681 -0.24030 -0.37147
vn 0.89681 -0.24030 -0.37147
vn 0.89681 -0.24030 -0.37147
vn 0.37147 -0.24030 -0.89681
vn 0.37147 -0.24030 -0.89681
vn 0.37147 -0.24030 -0.89681
vn 0.37147 -0.24030 -0.89681
vn 0.37147 -0.24030 -0.89681
vn 0.37147 -0.24030 -0.89681
vn -0.37147 -0.24030 -0.89681
vn -0.37147 -0.24030 -0.89681
vn -0.37147 -0.24030 -0.89681
vn -0.37147 -0.24030 -0.89681
vn -0.37147 -0.24030 -0.89681
vn -0.37147 -0.24030 -0.89681
vn -0.89681 -0.24030 -0.37147
vn -0.89681 -0.24030 -0.37147
vn -0.89681 -0.24030 -0.37147
vn -0.89681 -0.24030 -0.37147
vn -0.89681 -0.24030 -0.37147
vn -0.89681 -0.24030 -0.37147
vn -0.67860 -0.67860 0.28108
vn -0.67860 -0.67860 0.28108
vn -0.67860 -0.67860 0.28108
vn -0.67860 -0.67860 0.28108
vn -0.67860 -0.67860 0.28108
vn -0.67860 -0.67860 0.28108
vn -0.28108 -0.67860 0.67860
vn -0.28108 -0.67860 0.67860
vn -0.28108 -0.67860 0.67860
vn -0.28108 -0.67860 0.67860
vn -0.28108 -0.67860 0.67860
vn -0.28108 -0.67860 0.67860
vn 0.28108 -0.67860 0.67860
vn 0.28108 -0.67860 0.67860
vn 0.28108 -0.67860 0.67860
vn 0.28108 -0.67860 0.67860
vn 0.28108 -0.67860 0.67860
vn 0.28108 -0.67860 0.67860
vn 0.67860 -0.67860 0.28108
vn 0.67860 -0.67860 0.28108
vn 0.67860 -0.67860 0.28108
vn 0.67860 -0.67860 0.28108
vn 0.67860 -0.67860 0.28108
vn 0.67860 -0.67860 0.28108
vn 0.67860 -0.67860 -0.28108
vn 0.67860 -0.67860 -0.28108
vn 0.67860 -0.67860 -0.28108
vn 0.67860 -0.67860 -0.28108
vn 0.67860 -0.67860 -0.28108
vn 0.67860 -0.67860 -0.28108
vn 0.28108 -0.67860 -0.67860
vn 0.28108 -0.67860 -0.67860
vn 0.28108 -0.67860 -0.67860
vn 0.28108 -0.67860 -0.67860
vn 0.28108 -0.67860 -0.67860
vn 0.28108 -0.67860 -0.67860
vn -0.28108 -0.67860 -0.67860
vn -0.28108 -0.67860 -0.67860
vn -0.28108 -0.67860 -0.67860
vn -0.28108 -0.67860 -0.67860
vn -0.28108 -0.67860 -0.67860
vn -0.28108 -0.67860 -0.67860
vn -0.67860 -0.67860 -0.28108
vn -0.67860 -0.67860 -0.28108
vn -0.67860 -0.67860 -0.28108
vn -0.67860 -0.67860 -0.28108
vn -0.67860 -0.67860 -0.28108
vn -0.67860 -0.67860 -0.28108
vn -0.25734 -0.96042 0.10660
vn -0.25734 -0.96042 0.10660
vn -0.25734 -0.96042 0.10660
vn -0.10660 -0.96042 0.25734
vn -0.10660 -0.96042 0.25734
vn -0.10660 -0.96042 0.25734
vn 0.10660 -0.96042 0.25734
vn 0.10660 -0.96042 0.25734
vn 0.10660 -0.96042 0.25734
vn 0.25734 -0.96042 0.10660
vn 0.25734 -0.96042 0.10660
vn 0.25734 -0.96042 0.10660
vn 0.25734 -0.96042 -0.10660
vn 0.25734 -0.96042 -0.10660
vn 0.25734 -0.96042 -0.10660
vn 0.10660 -0.96042 -0.25734
vn 0.10660 -0.96042 -0.25734
vn 0.10660 -0.96042 -0.25734
vn -0.10660 -0.96042 -0.25734
vn -0.10660 -0.96042 -0.25734
vn -0.10660 -0.96042 -0.25734
vn -0.25734 -0.96042 -0.10660
vn -0.25734 -0.96042 -0.10660
vn -0.25734 -0.96042 -0.10660
usemtl accent_magenta
f 385//385 386//386 387//387
f 388//388 389//389 390//390
f 391//391 392//392 393//393
f 394//394 395//395 396//396
f 397//397 398//398 399//399
f 400//400 401//401 402//402
f 403//403 404//404 405//405
f 406//406 407//407 408//408
f 409//409 410//410 411//411
f 412//412 413//413 414//414
f 415//415 416//416 417//417
f 418//418 419//419 420//420
f 421//421 422//422 423//423
f 424//424 425//425 426//426
f 427//427 428//428 429//429
f 430//430 431//431 432//432
f 433//433 434//434 435//435
f 436//436 437//437 438//438
f 439//439 440//440 441//441
f 442//442 443//443 444//444
f 445//445 446//446 447//447
f 448//448 449//449 450//450
f 451//451 452//452 453//453
f 454//454 455//455 456//456
f 457//457 458//458 459//459
f 460//460 461//461 462//462
f 463//463 464//464 465//465
f 466//466 467//467 468//468
f 469//469 470//470 471//471
f 472//472 473//473 474//474
f 475//475 476//476 477//477
f 478//478 479//479 480//480
f 481//481 482//482 483//483
f 484//484 485//485 486//486
f 487//487 488//488 489//489
f 490//490 491//491 492//492
f 493//493 494//494 495//495
f 496//496 497//497 498//498
f 499//499 500//500 501//501
f 502//502 503//503 504//504
f 505//505 506//506 507//507
f 508//508 509//509 510//510
f 511//511 512//512 513//513
f 514//514 515//515 516//516
f 517//517 518//518 519//519
f 520//520 521//521 522//522
f 523//523 524//524 525//525
f 526//526 527//527 528//528
f 529//529 530//530 531//531
f 532//532 533//533 534//534
f 535//535 536//536 537//537
f 538//538 539//539 540//540
f 541//541 542//542 543//543
f 544//544 545//545 546//546
f 547//547 548//548 549//549
f 550//550 551//551 552//552
f 553//553 554//554 555//555
f 556//556 557//557 558//558
f 559//559 560//560 561//561
f 562//562 563//563 564//564
f 565//565 566//566 567//567
f 568//568 569//569 570//570
f 571//571 572//572 573//573
f 574//574 575//575 576//576
f 577//577 578//578 579//579
f 580//580 581//581 582//582
f 583//583 584//584 585//585
f 586//586 587//587 588//588
f 589//589 590//590 591//591
f 592//592 593//593 594//594
f 595//595 596//596 597//597
f 598//598 599//599 600//600
f 601//601 602//602 603//603
f 604//604 605//605 606//606
f 607//607 608//608 609//609
f 610//610 611//611 612//612
f 613//613 614//614 615//615
f 616//616 617//617 618//618
f 619//619 620//620 621//621
f 622//622 623//623 624//624
