mtllib imp_shaman_leg_L.mtl
o leg_upper_L
v 0.03358 -0.00379 0.00782
v 0.01859 0.00067 0.02927
v 0.07190 -0.02802 0.01956
v 0.03859 -0.01810 0.06723
v 0.07190 -0.02802 0.01956
v 0.01859 0.00067 0.02927
v 0.07190 -0.02802 0.01956
v 0.03859 -0.01810 0.06723
v 0.04317 -0.17066 0.03348
v 0.01378 -0.16191 0.07554
v 0.04317 -0.17066 0.03348
v 0.03859 -0.01810 0.06723
v 0.04317 -0.17066 0.03348
v 0.01378 -0.16191 0.07554
v 0.01444 -0.31331 0.04739
v -0.01103 -0.30572 0.08384
v 0.01444 -0.31331 0.04739
v 0.01378 -0.16191 0.07554
v 0.01444 -0.31331 0.04739
v -0.01103 -0.30572 0.08384
v -0.01966 -0.32935 0.04225
v -0.03112 -0.32593 0.05866
v -0.01966 -0.32935 0.04225
v -0.01103 -0.30572 0.08384
v 0.01859 0.00067 0.02927
v -0.00729 0.00474 0.03358
v 0.03859 -0.01810 0.06723
v -0.01891 -0.00905 0.07679
v 0.03859 -0.01810 0.06723
v -0.00729 0.00474 0.03358
v 0.03859 -0.01810 0.06723
v -0.01891 -0.00905 0.07679
v 0.01378 -0.16191 0.07554
v -0.03696 -0.15392 0.08397
v 0.01378 -0.16191 0.07554
v -0.01891 -0.00905 0.07679
v 0.01378 -0.16191 0.07554
v -0.03696 -0.15392 0.08397
v -0.01103 -0.30572 0.08384
v -0.05500 -0.29880 0.09116
v -0.01103 -0.30572 0.08384
v -0.03696 -0.15392 0.08397
v -0.01103 -0.30572 0.08384
v -0.05500 -0.29880 0.09116
v -0.03112 -0.32593 0.05866
v -0.05091 -0.32282 0.06195
v -0.03112 -0.32593 0.05866
v -0.05500 -0.29880 0.09116
v -0.00729 0.00474 0.03358
v -0.02890 0.00604 0.01821
v -0.01891 -0.00905 0.07679
v -0.06693 -0.00617 0.04265
v -0.01891 -0.00905 0.07679
v -0.02890 0.00604 0.01821
v -0.01891 -0.00905 0.07679
v -0.06693 -0.00617 0.04265
v -0.03696 -0.15392 0.08397
v -0.07933 -0.15139 0.05384
v -0.03696 -0.15392 0.08397
v -0.06693 -0.00617 0.04265
v -0.03696 -0.15392 0.08397
v -0.07933 -0.15139 0.05384
v -0.05500 -0.29880 0.09116
v -0.09172 -0.29660 0.06504
v -0.05500 -0.29880 0.09116
v -0.07933 -0.15139 0.05384
v -0.05500 -0.29880 0.09116
v -0.09172 -0.29660 0.06504
v -0.05091 -0.32282 0.06195
v -0.06744 -0.32183 0.05020
v -0.05091 -0.32282 0.06195
v -0.09172 -0.29660 0.06504
v -0.02890 0.00604 0.01821
v -0.03358 0.00379 -0.00782
v -0.06693 -0.00617 0.04265
v -0.07734 -0.01115 -0.01521
v -0.06693 -0.00617 0.04265
v -0.03358 0.00379 -0.00782
v -0.06693 -0.00617 0.04265
v -0.07734 -0.01115 -0.01521
v -0.07933 -0.15139 0.05384
v -0.08851 -0.15578 0.00280
v -0.07933 -0.15139 0.05384
v -0.07734 -0.01115 -0.01521
v -0.07933 -0.15139 0.05384
v -0.08851 -0.15578 0.00280
v -0.09172 -0.29660 0.06504
v -0.09968 -0.30041 0.02080
v -0.09172 -0.29660 0.06504
v -0.08851 -0.15578 0.00280
v -0.09172 -0.29660 0.06504
v -0.09968 -0.30041 0.02080
v -0.06744 -0.32183 0.05020
v -0.07102 -0.32355 0.03029
v -0.06744 -0.32183 0.05020
v -0.09968 -0.30041 0.02080
v -0.03358 0.00379 -0.00782
v -0.01859 -0.00067 -0.02927
v -0.07734 -0.01115 -0.01521
v -0.04403 -0.02108 -0.06288
v -0.07734 -0.01115 -0.01521
v -0.01859 -0.00067 -0.02927
v -0.07734 -0.01115 -0.01521
v -0.04403 -0.02108 -0.06288
v -0.08851 -0.15578 0.00280
v -0.05912 -0.16454 -0.03927
v -0.08851 -0.15578 0.00280
v -0.04403 -0.02108 -0.06288
v -0.08851 -0.15578 0.00280
v -0.05912 -0.16454 -0.03927
v -0.09968 -0.30041 0.02080
v -0.07421 -0.30800 -0.01565
v -0.09968 -0.30041 0.02080
v -0.05912 -0.16454 -0.03927
v -0.09968 -0.30041 0.02080
v -0.07421 -0.30800 -0.01565
v -0.07102 -0.32355 0.03029
v -0.05956 -0.32696 0.01389
v -0.07102 -0.32355 0.03029
v -0.07421 -0.30800 -0.01565
v -0.01859 -0.00067 -0.02927
v 0.00729 -0.00474 -0.03358
v -0.04403 -0.02108 -0.06288
v 0.01347 -0.03013 -0.07244
v -0.04403 -0.02108 -0.06288
v 0.00729 -0.00474 -0.03358
v -0.04403 -0.02108 -0.06288
v 0.01347 -0.03013 -0.07244
v -0.05912 -0.16454 -0.03927
v -0.00838 -0.17252 -0.04770
v -0.05912 -0.16454 -0.03927
v 0.01347 -0.03013 -0.07244
v -0.05912 -0.16454 -0.03927
v -0.00838 -0.17252 -0.04770
v -0.07421 -0.30800 -0.01565
v -0.03024 -0.31492 -0.02296
v -0.07421 -0.30800 -0.01565
v -0.00838 -0.17252 -0.04770
v -0.07421 -0.30800 -0.01565
v -0.03024 -0.31492 -0.02296
v -0.05956 -0.32696 0.01389
v -0.03977 -0.33007 0.01059
v -0.05956 -0.32696 0.01389
v -0.03024 -0.31492 -0.02296
v 0.00729 -0.00474 -0.03358
v 0.02890 -0.00604 -0.01821
v 0.01347 -0.03013 -0.07244
v 0.06149 -0.03300 -0.03829
v 0.01347 -0.03013 -0.07244
v 0.02890 -0.00604 -0.01821
v 0.01347 -0.03013 -0.07244
v 0.06149 -0.03300 -0.03829
v -0.00838 -0.17252 -0.04770
v 0.03399 -0.17506 -0.01757
v -0.00838 -0.17252 -0.04770
v 0.06149 -0.03300 -0.03829
v -0.00838 -0.17252 -0.04770
v 0.03399 -0.17506 -0.01757
v -0.03024 -0.31492 -0.02296
v 0.00648 -0.31712 0.00315
v -0.03024 -0.31492 -0.02296
v 0.03399 -0.17506 -0.01757
v -0.03024 -0.31492 -0.02296
v 0.00648 -0.31712 0.00315
v -0.03977 -0.33007 0.01059
v -0.02324 -0.33106 0.02235
v -0.03977 -0.33007 0.01059
v 0.00648 -0.31712 0.00315
v 0.02890 -0.00604 -0.01821
v 0.03358 -0.00379 0.00782
v 0.06149 -0.03300 -0.03829
v 0.07190 -0.02802 0.01956
v 0.06149 -0.03300 -0.03829
v 0.03358 -0.00379 0.00782
v 0.06149 -0.03300 -0.03829
v 0.07190 -0.02802 0.01956
v 0.03399 -0.17506 -0.01757
v 0.04317 -0.17066 0.03348
v 0.03399 -0.17506 -0.01757
v 0.07190 -0.02802 0.01956
v 0.03399 -0.17506 -0.01757
v 0.04317 -0.17066 0.03348
v 0.00648 -0.31712 0.00315
v 0.01444 -0.31331 0.04739
v 0.00648 -0.31712 0.00315
v 0.04317 -0.17066 0.03348
v 0.00648 -0.31712 0.00315
v 0.01444 -0.31331 0.04739
v -0.02324 -0.33106 0.02235
v -0.01966 -0.32935 0.04225
v -0.02324 -0.33106 0.02235
v 0.01444 -0.31331 0.04739
vn 0.49055 0.85573 0.16461
vn 0.49055 0.85573 0.16461
vn 0.49055 0.85573 0.16461
vn 0.49055 0.85573 0.16461
vn 0.49055 0.85573 0.16461
vn 0.49055 0.85573 0.16461
vn 0.80481 -0.10510 0.58416
vn 0.80481 -0.10510 0.58416
vn 0.80481 -0.10510 0.58416
vn 0.80481 -0.10510 0.58416
vn 0.80481 -0.10510 0.58416
vn 0.80481 -0.10510 0.58416
vn 0.80481 -0.10510 0.58416
vn 0.80481 -0.10510 0.58416
vn 0.80481 -0.10510 0.58416
vn 0.80481 -0.10510 0.58416
vn 0.80481 -0.10510 0.58416
vn 0.80481 -0.10510 0.58416
vn 0.33647 -0.84708 0.41140
vn 0.33647 -0.84708 0.41140
vn 0.33647 -0.84708 0.41140
vn 0.33647 -0.84708 0.41140
vn 0.33647 -0.84708 0.41140
vn 0.33647 -0.84708 0.41140
vn 0.20179 0.91605 0.34660
vn 0.20179 0.91605 0.34660
vn 0.20179 0.91605 0.34660
vn 0.20179 0.91605 0.34660
vn 0.20179 0.91605 0.34660
vn 0.20179 0.91605 0.34660
vn 0.16824 0.02789 0.98535
vn 0.16824 0.02789 0.98535
vn 0.16824 0.02789 0.98535
vn 0.16824 0.02789 0.98535
vn 0.16824 0.02789 0.98535
vn 0.16824 0.02789 0.98535
vn 0.16824 0.02789 0.98535
vn 0.16824 0.02789 0.98535
vn 0.16824 0.02789 0.98535
vn 0.16824 0.02789 0.98535
vn 0.16824 0.02789 0.98535
vn 0.16824 0.02789 0.98535
vn -0.01632 -0.77337 0.63374
vn -0.01632 -0.77337 0.63374
vn -0.01632 -0.77337 0.63374
vn -0.01632 -0.77337 0.63374
vn -0.01632 -0.77337 0.63374
vn -0.01632 -0.77337 0.63374
vn -0.13376 0.95397 0.26842
vn -0.13376 0.95397 0.26842
vn -0.13376 0.95397 0.26842
vn -0.13376 0.95397 0.26842
vn -0.13376 0.95397 0.26842
vn -0.13376 0.95397 0.26842
vn -0.57147 0.11148 0.81301
vn -0.57147 0.11148 0.81301
vn -0.57147 0.11148 0.81301
vn -0.57147 0.11148 0.81301
vn -0.57147 0.11148 0.81301
vn -0.57147 0.11148 0.81301
vn -0.57147 0.11148 0.81301
vn -0.57147 0.11148 0.81301
vn -0.57147 0.11148 0.81301
vn -0.57147 0.11148 0.81301
vn -0.57147 0.11148 0.81301
vn -0.57147 0.11148 0.81301
vn -0.42628 -0.72705 0.53823
vn -0.42628 -0.72705 0.53823
vn -0.42628 -0.72705 0.53823
vn -0.42628 -0.72705 0.53823
vn -0.42628 -0.72705 0.53823
vn -0.42628 -0.72705 0.53823
vn -0.31954 0.94727 -0.02413
vn -0.31954 0.94727 -0.02413
vn -0.31954 0.94727 -0.02413
vn -0.31954 0.94727 -0.02413
vn -0.31954 0.94727 -0.02413
vn -0.31954 0.94727 -0.02413
vn -0.98102 0.09670 0.16810
vn -0.98102 0.09670 0.16810
vn -0.98102 0.09670 0.16810
vn -0.98102 0.09670 0.16810
vn -0.98102 0.09670 0.16810
vn -0.98102 0.09670 0.16810
vn -0.98102 0.09670 0.16810
vn -0.98102 0.09670 0.16810
vn -0.98102 0.09670 0.16810
vn -0.98102 0.09670 0.16810
vn -0.98102 0.09670 0.16810
vn -0.98102 0.09670 0.16810
vn -0.65325 -0.73524 0.18081
vn -0.65325 -0.73524 0.18081
vn -0.65325 -0.73524 0.18081
vn -0.65325 -0.73524 0.18081
vn -0.65325 -0.73524 0.18081
vn -0.65325 -0.73524 0.18081
vn -0.24672 0.89987 -0.35967
vn -0.24672 0.89987 -0.35967
vn -0.24672 0.89987 -0.35967
vn -0.24672 0.89987 -0.35967
vn -0.24672 0.89987 -0.35967
vn -0.24672 0.89987 -0.35967
vn -0.82048 -0.00779 -0.57162
vn -0.82048 -0.00779 -0.57162
vn -0.82048 -0.00779 -0.57162
vn -0.82048 -0.00779 -0.57162
vn -0.82048 -0.00779 -0.57162
vn -0.82048 -0.00779 -0.57162
vn -0.82048 -0.00779 -0.57162
vn -0.82048 -0.00779 -0.57162
vn -0.82048 -0.00779 -0.57162
vn -0.82048 -0.00779 -0.57162
vn -0.82048 -0.00779 -0.57162
vn -0.82048 -0.00779 -0.57162
vn -0.56428 -0.79314 -0.22915
vn -0.56428 -0.79314 -0.22915
vn -0.56428 -0.79314 -0.22915
vn -0.56428 -0.79314 -0.22915
vn -0.56428 -0.79314 -0.22915
vn -0.56428 -0.79314 -0.22915
vn 0.04204 0.83954 -0.54166
vn 0.04204 0.83954 -0.54166
vn 0.04204 0.83954 -0.54166
vn 0.04204 0.83954 -0.54166
vn 0.04204 0.83954 -0.54166
vn 0.04204 0.83954 -0.54166
vn -0.18392 -0.14078 -0.97281
vn -0.18392 -0.14078 -0.97281
vn -0.18392 -0.14078 -0.97281
vn -0.18392 -0.14078 -0.97281
vn -0.18392 -0.14078 -0.97281
vn -0.18392 -0.14078 -0.97281
vn -0.18392 -0.14078 -0.97281
vn -0.18392 -0.14078 -0.97281
vn -0.18392 -0.14078 -0.97281
vn -0.18392 -0.14078 -0.97281
vn -0.18392 -0.14078 -0.97281
vn -0.18392 -0.14078 -0.97281
vn -0.21149 -0.86685 -0.45149
vn -0.21149 -0.86685 -0.45149
vn -0.21149 -0.86685 -0.45149
vn -0.21149 -0.86685 -0.45149
vn -0.21149 -0.86685 -0.45149
vn -0.21149 -0.86685 -0.45149
vn 0.37759 0.80163 -0.46349
vn 0.37759 0.80163 -0.46349
vn 0.37759 0.80163 -0.46349
vn 0.37759 0.80163 -0.46349
vn 0.37759 0.80163 -0.46349
vn 0.37759 0.80163 -0.46349
vn 0.55580 -0.22436 -0.80047
vn 0.55580 -0.22436 -0.80047
vn 0.55580 -0.22436 -0.80047
vn 0.55580 -0.22436 -0.80047
vn 0.55580 -0.22436 -0.80047
vn 0.55580 -0.22436 -0.80047
vn 0.55580 -0.22436 -0.80047
vn 0.55580 -0.22436 -0.80047
vn 0.55580 -0.22436 -0.80047
vn 0.55580 -0.22436 -0.80047
vn 0.55580 -0.22436 -0.80047
vn 0.55580 -0.22436 -0.80047
vn 0.19847 -0.91317 -0.35598
vn 0.19847 -0.91317 -0.35598
vn 0.19847 -0.91317 -0.35598
vn 0.19847 -0.91317 -0.35598
vn 0.19847 -0.91317 -0.35598
vn 0.19847 -0.91317 -0.35598
vn 0.56337 0.80833 -0.17094
vn 0.56337 0.80833 -0.17094
vn 0.56337 0.80833 -0.17094
vn 0.56337 0.80833 -0.17094
vn 0.56337 0.80833 -0.17094
vn 0.56337 0.80833 -0.17094
vn 0.96534 -0.20959 -0.15555
vn 0.96534 -0.20959 -0.15555
vn 0.96534 -0.20959 -0.15555
vn 0.96534 -0.20959 -0.15555
vn 0.96534 -0.20959 -0.15555
vn 0.96534 -0.20959 -0.15555
vn 0.96534 -0.20959 -0.15555
vn 0.96534 -0.20959 -0.15555
vn 0.96534 -0.20959 -0.15555
vn 0.96534 -0.20959 -0.15555
vn 0.96534 -0.20959 -0.15555
vn 0.96534 -0.20959 -0.15555
vn 0.42544 -0.90498 0.00144
vn 0.42544 -0.90498 0.00144
vn 0.42544 -0.90498 0.00144
vn 0.42544 -0.90498 0.00144
vn 0.42544 -0.90498 0.00144
vn 0.42544 -0.90498 0.00144
usemtl skin_purple
f 1//1 2//2 3//3
f 4//4 5//5 6//6
f 7//7 8//8 9//9
f 10//10 11//11 12//12
f 13//13 14//14 15//15
f 16//16 17//17 18//18
f 19//19 20//20 21//21
f 22//22 23//23 24//24
f 25//25 26//26 27//27
f 28//28 29//29 30//30
f 31//31 32//32 33//33
f 34//34 35//35 36//36
f 37//37 38//38 39//39
f 40//40 41//41 42//42
f 43//43 44//44 45//45
f 46//46 47//47 48//48
f 49//49 50//50 51//51
f 52//52 53//53 54//54
f 55//55 56//56 57//57
f 58//58 59//59 60//60
f 61//61 62//62 63//63
f 64//64 65//65 66//66
f 67//67 68//68 69//69
f 70//70 71//71 72//72
f 73//73 74//74 75//75
f 76//76 77//77 78//78
f 79//79 80//80 81//81
f 82//82 83//83 84//84
f 85//85 86//86 87//87
f 88//88 89//89 90//90
f 91//91 92//92 93//93
f 94//94 95//95 96//96
f 97//97 98//98 99//99
f 100//100 101//101 102//102
f 103//103 104//104 105//105
f 106//106 107//107 108//108
f 109//109 110//110 111//111
f 112//112 113//113 114//114
f 115//115 116//116 117//117
f 118//118 119//119 120//120
f 121//121 122//122 123//123
f 124//124 125//125 126//126
f 127//127 128//128 129//129
f 130//130 131//131 132//132
f 133//133 134//134 135//135
f 136//136 137//137 138//138
f 139//139 140//140 141//141
f 142//142 143//143 144//144
f 145//145 146//146 147//147
f 148//148 149//149 150//150
f 151//151 152//152 153//153
f 154//154 155//155 156//156
f 157//157 158//158 159//159
f 160//160 161//161 162//162
f 163//163 164//164 165//165
f 166//166 167//167 168//168
f 169//169 170//170 171//171
f 172//172 173//173 174//174
f 175//175 176//176 177//177
f 178//178 179//179 180//180
f 181//181 182//182 183//183
f 184//184 185//185 186//186
f 187//187 188//188 189//189
f 190//190 191//191 192//192
o leg_lower_L
v -0.03682 -0.32141 0.01166
v -0.02156 -0.32348 0.02490
v -0.02586 -0.33212 -0.02168
v 0.00804 -0.33672 0.00773
v -0.02586 -0.33212 -0.02168
v -0.02156 -0.32348 0.02490
v -0.02586 -0.33212 -0.02168
v 0.00804 -0.33672 0.00773
v -0.02405 -0.45710 -0.03931
v 0.00593 -0.46117 -0.01329
v -0.02405 -0.45710 -0.03931
v 0.00804 -0.33672 0.00773
v -0.02405 -0.45710 -0.03931
v 0.00593 -0.46117 -0.01329
v -0.02225 -0.58208 -0.05694
v 0.00383 -0.58561 -0.03431
v -0.02225 -0.58208 -0.05694
v 0.00593 -0.46117 -0.01329
v -0.02225 -0.58208 -0.05694
v 0.00383 -0.58561 -0.03431
v -0.02972 -0.60368 -0.03706
v -0.01798 -0.60527 -0.02689
v -0.02972 -0.60368 -0.03706
v 0.00383 -0.58561 -0.03431
v -0.02156 -0.32348 0.02490
v -0.02024 -0.32729 0.04479
v 0.00804 -0.33672 0.00773
v 0.01099 -0.34518 0.05194
v 0.00804 -0.33672 0.00773
v -0.02024 -0.32729 0.04479
v 0.00804 -0.33672 0.00773
v 0.01099 -0.34518 0.05194
v 0.00593 -0.46117 -0.01329
v 0.00854 -0.46865 0.02582
v 0.00593 -0.46117 -0.01329
v 0.01099 -0.34518 0.05194
v 0.00593 -0.46117 -0.01329
v 0.00854 -0.46865 0.02582
v 0.00383 -0.58561 -0.03431
v 0.00610 -0.59212 -0.00030
v 0.00383 -0.58561 -0.03431
v 0.00854 -0.46865 0.02582
v 0.00383 -0.58561 -0.03431
v 0.00610 -0.59212 -0.00030
v -0.01798 -0.60527 -0.02689
v -0.01696 -0.60820 -0.01158
v -0.01798 -0.60527 -0.02689
v 0.00610 -0.59212 -0.00030
v -0.02024 -0.32729 0.04479
v -0.03361 -0.33060 0.05970
v 0.01099 -0.34518 0.05194
v -0.01874 -0.35255 0.08506
v 0.01099 -0.34518 0.05194
v -0.03361 -0.33060 0.05970
v 0.01099 -0.34518 0.05194
v -0.01874 -0.35255 0.08506
v 0.00854 -0.46865 0.02582
v -0.01776 -0.47517 0.05512
v 0.00854 -0.46865 0.02582
v -0.01874 -0.35255 0.08506
v 0.00854 -0.46865 0.02582
v -0.01776 -0.47517 0.05512
v 0.00610 -0.59212 -0.00030
v -0.01677 -0.59779 0.02517
v 0.00610 -0.59212 -0.00030
v -0.01776 -0.47517 0.05512
v 0.00610 -0.59212 -0.00030
v -0.01677 -0.59779 0.02517
v -0.01696 -0.60820 -0.01158
v -0.02725 -0.61075 -0.00012
v -0.01696 -0.60820 -0.01158
v -0.01677 -0.59779 0.02517
v -0.03361 -0.33060 0.05970
v -0.05386 -0.33149 0.06088
v -0.01874 -0.35255 0.08506
v -0.06373 -0.35451 0.08769
v -0.01874 -0.35255 0.08506
v -0.05386 -0.33149 0.06088
v -0.01874 -0.35255 0.08506
v -0.06373 -0.35451 0.08769
v -0.01776 -0.47517 0.05512
v -0.05756 -0.47690 0.05744
v -0.01776 -0.47517 0.05512
v -0.06373 -0.35451 0.08769
v -0.01776 -0.47517 0.05512
v -0.05756 -0.47690 0.05744
v -0.01677 -0.59779 0.02517
v -0.05138 -0.59930 0.02719
v -0.01677 -0.59779 0.02517
v -0.05756 -0.47690 0.05744
v -0.01677 -0.59779 0.02517
v -0.05138 -0.59930 0.02719
v -0.02725 -0.61075 -0.00012
v -0.04283 -0.61143 0.00079
v -0.02725 -0.61075 -0.00012
v -0.05138 -0.59930 0.02719
v -0.05386 -0.33149 0.06088
v -0.06912 -0.32942 0.04765
v -0.06373 -0.35451 0.08769
v -0.09763 -0.34991 0.05828
v -0.06373 -0.35451 0.08769
v -0.06912 -0.32942 0.04765
v -0.06373 -0.35451 0.08769
v -0.09763 -0.34991 0.05828
v -0.05756 -0.47690 0.05744
v -0.08755 -0.47284 0.03143
v -0.05756 -0.47690 0.05744
v -0.09763 -0.34991 0.05828
v -0.05756 -0.47690 0.05744
v -0.08755 -0.47284 0.03143
v -0.05138 -0.59930 0.02719
v -0.07746 -0.59576 0.00457
v -0.05138 -0.59930 0.02719
v -0.08755 -0.47284 0.03143
v -0.05138 -0.59930 0.02719
v -0.07746 -0.59576 0.00457
v -0.04283 -0.61143 0.00079
v -0.05456 -0.60984 -0.00939
v -0.04283 -0.61143 0.00079
v -0.07746 -0.59576 0.00457
v -0.06912 -0.32942 0.04765
v -0.07044 -0.32561 0.02775
v -0.09763 -0.34991 0.05828
v -0.10058 -0.34145 0.01407
v -0.09763 -0.34991 0.05828
v -0.07044 -0.32561 0.02775
v -0.09763 -0.34991 0.05828
v -0.10058 -0.34145 0.01407
v -0.08755 -0.47284 0.03143
v -0.09015 -0.46535 -0.00768
v -0.08755 -0.47284 0.03143
v -0.10058 -0.34145 0.01407
v -0.08755 -0.47284 0.03143
v -0.09015 -0.46535 -0.00768
v -0.07746 -0.59576 0.00457
v -0.07973 -0.58925 -0.02944
v -0.07746 -0.59576 0.00457
v -0.09015 -0.46535 -0.00768
v -0.07746 -0.59576 0.00457
v -0.07973 -0.58925 -0.02944
v -0.05456 -0.60984 -0.00939
v -0.05558 -0.60691 -0.02469
v -0.05456 -0.60984 -0.00939
v -0.07973 -0.58925 -0.02944
v -0.07044 -0.32561 0.02775
v -0.05706 -0.32229 0.01285
v -0.10058 -0.34145 0.01407
v -0.07085 -0.33408 -0.01905
v -0.10058 -0.34145 0.01407
v -0.05706 -0.32229 0.01285
v -0.10058 -0.34145 0.01407
v -0.07085 -0.33408 -0.01905
v -0.09015 -0.46535 -0.00768
v -0.06386 -0.45883 -0.03698
v -0.09015 -0.46535 -0.00768
v -0.07085 -0.33408 -0.01905
v -0.09015 -0.46535 -0.00768
v -0.06386 -0.45883 -0.03698
v -0.07973 -0.58925 -0.02944
v -0.05686 -0.58358 -0.05492
v -0.07973 -0.58925 -0.02944
v -0.06386 -0.45883 -0.03698
v -0.07973 -0.58925 -0.02944
v -0.05686 -0.58358 -0.05492
v -0.05558 -0.60691 -0.02469
v -0.04529 -0.60436 -0.03616
v -0.05558 -0.60691 -0.02469
v -0.05686 -0.58358 -0.05492
v -0.05706 -0.32229 0.01285
v -0.03682 -0.32141 0.01166
v -0.07085 -0.33408 -0.01905
v -0.02586 -0.33212 -0.02168
v -0.07085 -0.33408 -0.01905
v -0.03682 -0.32141 0.01166
v -0.07085 -0.33408 -0.01905
v -0.02586 -0.33212 -0.02168
v -0.06386 -0.45883 -0.03698
v -0.02405 -0.45710 -0.03931
v -0.06386 -0.45883 -0.03698
v -0.02586 -0.33212 -0.02168
v -0.06386 -0.45883 -0.03698
v -0.02405 -0.45710 -0.03931
v -0.05686 -0.58358 -0.05492
v -0.02225 -0.58208 -0.05694
v -0.05686 -0.58358 -0.05492
v -0.02405 -0.45710 -0.03931
v -0.05686 -0.58358 -0.05492
v -0.02225 -0.58208 -0.05694
v -0.04529 -0.60436 -0.03616
v -0.02972 -0.60368 -0.03706
v -0.04529 -0.60436 -0.03616
v -0.02225 -0.58208 -0.05694
vn 0.30057 0.93240 -0.20070
vn 0.30057 0.93240 -0.20070
vn 0.30057 0.93240 -0.20070
vn 0.30057 0.93240 -0.20070
vn 0.30057 0.93240 -0.20070
vn 0.30057 0.93240 -0.20070
vn 0.65978 0.11430 -0.74271
vn 0.65978 0.11430 -0.74271
vn 0.65978 0.11430 -0.74271
vn 0.65978 0.11430 -0.74271
vn 0.65978 0.11430 -0.74271
vn 0.65978 0.11430 -0.74271
vn 0.65978 0.11430 -0.74271
vn 0.65978 0.11430 -0.74271
vn 0.65978 0.11430 -0.74271
vn 0.65978 0.11430 -0.74271
vn 0.65978 0.11430 -0.74271
vn 0.65978 0.11430 -0.74271
vn 0.41945 -0.68884 -0.59124
vn 0.41945 -0.68884 -0.59124
vn 0.41945 -0.68884 -0.59124
vn 0.41945 -0.68884 -0.59124
vn 0.41945 -0.68884 -0.59124
vn 0.41945 -0.68884 -0.59124
vn 0.46898 0.87271 0.13576
vn 0.46898 0.87271 0.13576
vn 0.46898 0.87271 0.13576
vn 0.46898 0.87271 0.13576
vn 0.46898 0.87271 0.13576
vn 0.46898 0.87271 0.13576
vn 0.99770 -0.00547 -0.06758
vn 0.99770 -0.00547 -0.06758
vn 0.99770 -0.00547 -0.06758
vn 0.99770 -0.00547 -0.06758
vn 0.99770 -0.00547 -0.06758
vn 0.99770 -0.00547 -0.06758
vn 0.99770 -0.00547 -0.06758
vn 0.99770 -0.00547 -0.06758
vn 0.99770 -0.00547 -0.06758
vn 0.99770 -0.00547 -0.06758
vn 0.99770 -0.00547 -0.06758
vn 0.99770 -0.00547 -0.06758
vn 0.62177 -0.76054 -0.18703
vn 0.62177 -0.76054 -0.18703
vn 0.62177 -0.76054 -0.18703
vn 0.62177 -0.76054 -0.18703
vn 0.62177 -0.76054 -0.18703
vn 0.62177 -0.76054 -0.18703
vn 0.34658 0.80036 0.48919
vn 0.34658 0.80036 0.48919
vn 0.34658 0.80036 0.48919
vn 0.34658 0.80036 0.48919
vn 0.34658 0.80036 0.48919
vn 0.34658 0.80036 0.48919
vn 0.75210 -0.15066 0.64160
vn 0.75210 -0.15066 0.64160
vn 0.75210 -0.15066 0.64160
vn 0.75210 -0.15066 0.64160
vn 0.75210 -0.15066 0.64160
vn 0.75210 -0.15066 0.64160
vn 0.75210 -0.15066 0.64160
vn 0.75210 -0.15066 0.64160
vn 0.75210 -0.15066 0.64160
vn 0.75210 -0.15066 0.64160
vn 0.75210 -0.15066 0.64160
vn 0.75210 -0.15066 0.64160
vn 0.47472 -0.84747 0.23757
vn 0.47472 -0.84747 0.23757
vn 0.47472 -0.84747 0.23757
vn 0.47472 -0.84747 0.23757
vn 0.47472 -0.84747 0.23757
vn 0.47472 -0.84747 0.23757
vn 0.00508 0.75773 0.65255
vn 0.00508 0.75773 0.65255
vn 0.00508 0.75773 0.65255
vn 0.00508 0.75773 0.65255
vn 0.00508 0.75773 0.65255
vn 0.00508 0.75773 0.65255
vn 0.06685 -0.23621 0.96940
vn 0.06685 -0.23621 0.96940
vn 0.06685 -0.23621 0.96940
vn 0.06685 -0.23621 0.96940
vn 0.06685 -0.23621 0.96940
vn 0.06685 -0.23621 0.96940
vn 0.06685 -0.23621 0.96940
vn 0.06685 -0.23621 0.96940
vn 0.06685 -0.23621 0.96940
vn 0.06685 -0.23621 0.96940
vn 0.06685 -0.23621 0.96940
vn 0.06685 -0.23621 0.96940
vn 0.06445 -0.89869 0.43383
vn 0.06445 -0.89869 0.43383
vn 0.06445 -0.89869 0.43383
vn 0.06445 -0.89869 0.43383
vn 0.06445 -0.89869 0.43383
vn 0.06445 -0.89869 0.43383
vn -0.35548 0.76978 0.53016
vn -0.35548 0.76978 0.53016
vn -0.35548 0.76978 0.53016
vn -0.35548 0.76978 0.53016
vn -0.35548 0.76978 0.53016
vn -0.35548 0.76978 0.53016
vn -0.65663 -0.21201 0.72380
vn -0.65663 -0.21201 0.72380
vn -0.65663 -0.21201 0.72380
vn -0.65663 -0.21201 0.72380
vn -0.65663 -0.21201 0.72380
vn -0.65663 -0.21201 0.72380
vn -0.65663 -0.21201 0.72380
vn -0.65663 -0.21201 0.72380
vn -0.65663 -0.21201 0.72380
vn -0.65663 -0.21201 0.72380
vn -0.65663 -0.21201 0.72380
vn -0.65663 -0.21201 0.72380
vn -0.36871 -0.88420 0.28678
vn -0.36871 -0.88420 0.28678
vn -0.36871 -0.88420 0.28678
vn -0.36871 -0.88420 0.28678
vn -0.36871 -0.88420 0.28678
vn -0.36871 -0.88420 0.28678
vn -0.52388 0.82947 0.19370
vn -0.52388 0.82947 0.19370
vn -0.52388 0.82947 0.19370
vn -0.52388 0.82947 0.19370
vn -0.52388 0.82947 0.19370
vn -0.52388 0.82947 0.19370
vn -0.99455 -0.09224 0.04867
vn -0.99455 -0.09224 0.04867
vn -0.99455 -0.09224 0.04867
vn -0.99455 -0.09224 0.04867
vn -0.99455 -0.09224 0.04867
vn -0.99455 -0.09224 0.04867
vn -0.99455 -0.09224 0.04867
vn -0.99455 -0.09224 0.04867
vn -0.99455 -0.09224 0.04867
vn -0.99455 -0.09224 0.04867
vn -0.99455 -0.09224 0.04867
vn -0.99455 -0.09224 0.04867
vn -0.57102 -0.81249 -0.11743
vn -0.57102 -0.81249 -0.11743
vn -0.57102 -0.81249 -0.11743
vn -0.57102 -0.81249 -0.11743
vn -0.57102 -0.81249 -0.11743
vn -0.57102 -0.81249 -0.11743
vn -0.40149 0.90183 -0.15973
vn -0.40149 0.90183 -0.15973
vn -0.40149 0.90183 -0.15973
vn -0.40149 0.90183 -0.15973
vn -0.40149 0.90183 -0.15973
vn -0.40149 0.90183 -0.15973
vn -0.74895 0.05294 -0.66051
vn -0.74895 0.05294 -0.66051
vn -0.74895 0.05294 -0.66051
vn -0.74895 0.05294 -0.66051
vn -0.74895 0.05294 -0.66051
vn -0.74895 0.05294 -0.66051
vn -0.74895 0.05294 -0.66051
vn -0.74895 0.05294 -0.66051
vn -0.74895 0.05294 -0.66051
vn -0.74895 0.05294 -0.66051
vn -0.74895 0.05294 -0.66051
vn -0.74895 0.05294 -0.66051
vn -0.42398 -0.72557 -0.54203
vn -0.42398 -0.72557 -0.54203
vn -0.42398 -0.72557 -0.54203
vn -0.42398 -0.72557 -0.54203
vn -0.42398 -0.72557 -0.54203
vn -0.42398 -0.72557 -0.54203
vn -0.05999 0.94446 -0.32310
vn -0.05999 0.94446 -0.32310
vn -0.05999 0.94446 -0.32310
vn -0.05999 0.94446 -0.32310
vn -0.05999 0.94446 -0.32310
vn -0.05999 0.94446 -0.32310
vn -0.06370 0.13849 -0.98831
vn -0.06370 0.13849 -0.98831
vn -0.06370 0.13849 -0.98831
vn -0.06370 0.13849 -0.98831
vn -0.06370 0.13849 -0.98831
vn -0.06370 0.13849 -0.98831
vn -0.06370 0.13849 -0.98831
vn -0.06370 0.13849 -0.98831
vn -0.06370 0.13849 -0.98831
vn -0.06370 0.13849 -0.98831
vn -0.06370 0.13849 -0.98831
vn -0.06370 0.13849 -0.98831
vn -0.01371 -0.67435 -0.73829
vn -0.01371 -0.67435 -0.73829
vn -0.01371 -0.67435 -0.73829
vn -0.01371 -0.67435 -0.73829
vn -0.01371 -0.67435 -0.73829
vn -0.01371 -0.67435 -0.73829
usemtl skin_purple
f 193//193 194//194 195//195
f 196//196 197//197 198//198
f 199//199 200//200 201//201
f 202//202 203//203 204//204
f 205//205 206//206 207//207
f 208//208 209//209 210//210
f 211//211 212//212 213//213
f 214//214 215//215 216//216
f 217//217 218//218 219//219
f 220//220 221//221 222//222
f 223//223 224//224 225//225
f 226//226 227//227 228//228
f 229//229 230//230 231//231
f 232//232 233//233 234//234
f 235//235 236//236 237//237
f 238//238 239//239 240//240
f 241//241 242//242 243//243
f 244//244 245//245 246//246
f 247//247 248//248 249//249
f 250//250 251//251 252//252
f 253//253 254//254 255//255
f 256//256 257//257 258//258
f 259//259 260//260 261//261
f 262//262 263//263 264//264
f 265//265 266//266 267//267
f 268//268 269//269 270//270
f 271//271 272//272 273//273
f 274//274 275//275 276//276
f 277//277 278//278 279//279
f 280//280 281//281 282//282
f 283//283 284//284 285//285
f 286//286 287//287 288//288
f 289//289 290//290 291//291
f 292//292 293//293 294//294
f 295//295 296//296 297//297
f 298//298 299//299 300//300
f 301//301 302//302 303//303
f 304//304 305//305 306//306
f 307//307 308//308 309//309
f 310//310 311//311 312//312
f 313//313 314//314 315//315
f 316//316 317//317 318//318
f 319//319 320//320 321//321
f 322//322 323//323 324//324
f 325//325 326//326 327//327
f 328//328 329//329 330//330
f 331//331 332//332 333//333
f 334//334 335//335 336//336
f 337//337 338//338 339//339
f 340//340 341//341 342//342
f 343//343 344//344 345//345
f 346//346 347//347 348//348
f 349//349 350//350 351//351
f 352//352 353//353 354//354
f 355//355 356//356 357//357
f 358//358 359//359 360//360
f 361//361 362//362 363//363
f 364//364 365//365 366//366
f 367//367 368//368 369//369
f 370//370 371//371 372//372
f 373//373 374//374 375//375
f 376//376 377//377 378//378
f 379//379 380//380 381//381
f 382//382 383//383 384//384
o leg_joint_L
v -0.04534 -0.25866 0.03627
v -0.07923 -0.26775 0.03627
v -0.06930 -0.26775 0.06024
v -0.04534 -0.25866 0.03627
v -0.06930 -0.26775 0.06024
v -0.04534 -0.26775 0.07016
v -0.04534 -0.25866 0.03627
v -0.04534 -0.26775 0.07016
v -0.02137 -0.26775 0.06024
v -0.04534 -0.25866 0.03627
v -0.02137 -0.26775 0.06024
v -0.01145 -0.26775 0.03627
v -0.04534 -0.25866 0.03627
v -0.01145 -0.26775 0.03627
v -0.02137 -0.26775 0.01231
v -0.04534 -0.25866 0.03627
v -0.02137 -0.26775 0.01231
v -0.04534 -0.26775 0.00238
v -0.04534 -0.25866 0.03627
v -0.04534 -0.26775 0.00238
v -0.06930 -0.26775 0.01231
v -0.04534 -0.25866 0.03627
v -0.06930 -0.26775 0.01231
v -0.07923 -0.26775 0.03627
v -0.06930 -0.26775 0.06024
v -0.07923 -0.26775 0.03627
v -0.08685 -0.29256 0.07778
v -0.07923 -0.26775 0.03627
v -0.10404 -0.29256 0.03627
v -0.08685 -0.29256 0.07778
v -0.04534 -0.26775 0.07016
v -0.06930 -0.26775 0.06024
v -0.04534 -0.29256 0.09497
v -0.06930 -0.26775 0.06024
v -0.08685 -0.29256 0.07778
v -0.04534 -0.29256 0.09497
v -0.02137 -0.26775 0.06024
v -0.04534 -0.26775 0.07016
v -0.00383 -0.29256 0.07778
v -0.04534 -0.26775 0.07016
v -0.04534 -0.29256 0.09497
v -0.00383 -0.29256 0.07778
v -0.01145 -0.26775 0.03627
v -0.02137 -0.26775 0.06024
v 0.01336 -0.29256 0.03627
v -0.02137 -0.26775 0.06024
v -0.00383 -0.29256 0.07778
v 0.01336 -0.29256 0.03627
v -0.02137 -0.26775 0.01231
v -0.01145 -0.26775 0.03627
v -0.00383 -0.29256 -0.00524
v -0.01145 -0.26775 0.03627
v 0.01336 -0.29256 0.03627
v -0.00383 -0.29256 -0.00524
v -0.04534 -0.26775 0.00238
v -0.02137 -0.26775 0.01231
v -0.04534 -0.29256 -0.02243
v -0.02137 -0.26775 0.01231
v -0.00383 -0.29256 -0.00524
v -0.04534 -0.29256 -0.02243
v -0.06930 -0.26775 0.01231
v -0.04534 -0.26775 0.00238
v -0.08685 -0.29256 -0.00524
v -0.04534 -0.26775 0.00238
v -0.04534 -0.29256 -0.02243
v -0.08685 -0.29256 -0.00524
v -0.07923 -0.26775 0.03627
v -0.06930 -0.26775 0.01231
v -0.10404 -0.29256 0.03627
v -0.06930 -0.26775 0.01231
v -0.08685 -0.29256 -0.00524
v -0.10404 -0.29256 0.03627
v -0.08685 -0.29256 0.07778
v -0.10404 -0.29256 0.03627
v -0.09327 -0.32645 0.08420
v -0.10404 -0.29256 0.03627
v -0.11312 -0.32645 0.03627
v -0.09327 -0.32645 0.08420
v -0.04534 -0.29256 0.09497
v -0.08685 -0.29256 0.07778
v -0.04534 -0.32645 0.10406
v -0.08685 -0.29256 0.07778
v -0.09327 -0.32645 0.08420
v -0.04534 -0.32645 0.10406
v -0.00383 -0.29256 0.07778
v -0.04534 -0.29256 0.09497
v 0.00259 -0.32645 0.08420
v -0.04534 -0.29256 0.09497
v -0.04534 -0.32645 0.10406
v 0.00259 -0.32645 0.08420
v 0.01336 -0.29256 0.03627
v -0.00383 -0.29256 0.07778
v 0.02244 -0.32645 0.03627
v -0.00383 -0.29256 0.07778
v 0.00259 -0.32645 0.08420
v 0.02244 -0.32645 0.03627
v -0.00383 -0.29256 -0.00524
v 0.01336 -0.29256 0.03627
v 0.00259 -0.32645 -0.01166
v 0.01336 -0.29256 0.03627
v 0.02244 -0.32645 0.03627
v 0.00259 -0.32645 -0.01166
v -0.04534 -0.29256 -0.02243
v -0.00383 -0.29256 -0.00524
v -0.04534 -0.32645 -0.03151
v -0.00383 -0.29256 -0.00524
v 0.00259 -0.32645 -0.01166
v -0.04534 -0.32645 -0.03151
v -0.08685 -0.29256 -0.00524
v -0.04534 -0.29256 -0.02243
v -0.09327 -0.32645 -0.01166
v -0.04534 -0.29256 -0.02243
v -0.04534 -0.32645 -0.03151
v -0.09327 -0.32645 -0.01166
v -0.10404 -0.29256 0.03627
v -0.08685 -0.29256 -0.00524
v -0.11312 -0.32645 0.03627
v -0.08685 -0.29256 -0.00524
v -0.09327 -0.32645 -0.01166
v -0.11312 -0.32645 0.03627
v -0.09327 -0.32645 0.08420
v -0.11312 -0.32645 0.03627
v -0.08685 -0.36034 0.07778
v -0.11312 -0.32645 0.03627
v -0.10404 -0.36034 0.03627
v -0.08685 -0.36034 0.07778
v -0.04534 -0.32645 0.10406
v -0.09327 -0.32645 0.08420
v -0.04534 -0.36034 0.09497
v -0.09327 -0.32645 0.08420
v -0.08685 -0.36034 0.07778
v -0.04534 -0.36034 0.09497
v 0.00259 -0.32645 0.08420
v -0.04534 -0.32645 0.10406
v -0.00383 -0.36034 0.07778
v -0.04534 -0.32645 0.10406
v -0.04534 -0.36034 0.09497
v -0.00383 -0.36034 0.07778
v 0.02244 -0.32645 0.03627
v 0.00259 -0.32645 0.08420
v 0.01336 -0.36034 0.03627
v 0.00259 -0.32645 0.08420
v -0.00383 -0.36034 0.07778
v 0.01336 -0.36034 0.03627
v 0.00259 -0.32645 -0.01166
v 0.02244 -0.32645 0.03627
v -0.00383 -0.36034 -0.00524
v 0.02244 -0.32645 0.03627
v 0.01336 -0.36034 0.03627
v -0.00383 -0.36034 -0.00524
v -0.04534 -0.32645 -0.03151
v 0.00259 -0.32645 -0.01166
v -0.04534 -0.36034 -0.02243
v 0.00259 -0.32645 -0.01166
v -0.00383 -0.36034 -0.00524
v -0.04534 -0.36034 -0.02243
v -0.09327 -0.32645 -0.01166
v -0.04534 -0.32645 -0.03151
v -0.08685 -0.36034 -0.00524
v -0.04534 -0.32645 -0.03151
v -0.04534 -0.36034 -0.02243
v -0.08685 -0.36034 -0.00524
v -0.11312 -0.32645 0.03627
v -0.09327 -0.32645 -0.01166
v -0.10404 -0.36034 0.03627
v -0.09327 -0.32645 -0.01166
v -0.08685 -0.36034 -0.00524
v -0.10404 -0.36034 0.03627
v -0.08685 -0.36034 0.07778
v -0.10404 -0.36034 0.03627
v -0.06930 -0.38515 0.06024
v -0.10404 -0.36034 0.03627
v -0.07923 -0.38515 0.03627
v -0.06930 -0.38515 0.06024
v -0.04534 -0.36034 0.09497
v -0.08685 -0.36034 0.07778
v -0.04534 -0.38515 0.07016
v -0.08685 -0.36034 0.07778
v -0.06930 -0.38515 0.06024
v -0.04534 -0.38515 0.07016
v -0.00383 -0.36034 0.07778
v -0.04534 -0.36034 0.09497
v -0.02137 -0.38515 0.06024
v -0.04534 -0.36034 0.09497
v -0.04534 -0.38515 0.07016
v -0.02137 -0.38515 0.06024
v 0.01336 -0.36034 0.03627
v -0.00383 -0.36034 0.07778
v -0.01145 -0.38515 0.03627
v -0.00383 -0.36034 0.07778
v -0.02137 -0.38515 0.06024
v -0.01145 -0.38515 0.03627
v -0.00383 -0.36034 -0.00524
v 0.01336 -0.36034 0.03627
v -0.02137 -0.38515 0.01231
v 0.01336 -0.36034 0.03627
v -0.01145 -0.38515 0.03627
v -0.02137 -0.38515 0.01231
v -0.04534 -0.36034 -0.02243
v -0.00383 -0.36034 -0.00524
v -0.04534 -0.38515 0.00238
v -0.00383 -0.36034 -0.00524
v -0.02137 -0.38515 0.01231
v -0.04534 -0.38515 0.00238
v -0.08685 -0.36034 -0.00524
v -0.04534 -0.36034 -0.02243
v -0.06930 -0.38515 0.01231
v -0.04534 -0.36034 -0.02243
v -0.04534 -0.38515 0.00238
v -0.06930 -0.38515 0.01231
v -0.10404 -0.36034 0.03627
v -0.08685 -0.36034 -0.00524
v -0.07923 -0.38515 0.03627
v -0.08685 -0.36034 -0.00524
v -0.06930 -0.38515 0.01231
v -0.07923 -0.38515 0.03627
v -0.06930 -0.38515 0.06024
v -0.07923 -0.38515 0.03627
v -0.04534 -0.39423 0.03627
v -0.04534 -0.38515 0.07016
v -0.06930 -0.38515 0.06024
v -0.04534 -0.39423 0.03627
v -0.02137 -0.38515 0.06024
v -0.04534 -0.38515 0.07016
v -0.04534 -0.39423 0.03627
v -0.01145 -0.38515 0.03627
v -0.02137 -0.38515 0.06024
v -0.04534 -0.39423 0.03627
v -0.02137 -0.38515 0.01231
v -0.01145 -0.38515 0.03627
v -0.04534 -0.39423 0.03627
v -0.04534 -0.38515 0.00238
v -0.02137 -0.38515 0.01231
v -0.04534 -0.39423 0.03627
v -0.06930 -0.38515 0.01231
v -0.04534 -0.38515 0.00238
v -0.04534 -0.39423 0.03627
v -0.07923 -0.38515 0.03627
v -0.06930 -0.38515 0.01231
v -0.04534 -0.39423 0.03627
vn -0.25734 0.96042 0.10660
vn -0.25734 0.96042 0.10660
vn -0.25734 0.96042 0.10660
vn -0.10660 0.96042 0.25734
vn -0.10660 0.96042 0.25734
vn -0.10660 0.96042 0.25734
vn 0.10660 0.96042 0.25734
vn 0.10660 0.96042 0.25734
vn 0.10660 0.96042 0.25734
vn 0.25734 0.96042 0.10660
vn 0.25734 0.96042 0.10660
vn 0.25734 0.96042 0.10660
vn 0.25734 0.96042 -0.10660
vn 0.25734 0.96042 -0.10660
vn 0.25734 0.96042 -0.10660
vn 0.10660 0.96042 -0.25734
vn 0.10660 0.96042 -0.25734
vn 0.10660 0.96042 -0.25734
vn -0.10660 0.96042 -0.25734
vn -0.10660 0.96042 -0.25734
vn -0.10660 0.96042 -0.25734
vn -0.25734 0.96042 -0.10660
vn -0.25734 0.96042 -0.10660
vn -0.25734 0.96042 -0.10660
vn -0.67860 0.67860 0.28108
vn -0.67860 0.67860 0.28108
vn -0.67860 0.67860 0.28108
vn -0.67860 0.67860 0.28108
vn -0.67860 0.67860 0.28108
vn -0.67860 0.67860 0.28108
vn -0.28108 0.67860 0.67860
vn -0.28108 0.67860 0.67860
vn -0.28108 0.67860 0.67860
vn -0.28108 0.67860 0.67860
vn -0.28108 0.67860 0.67860
vn -0.28108 0.67860 0.67860
vn 0.28108 0.67860 0.67860
vn 0.28108 0.67860 0.67860
vn 0.28108 0.67860 0.67860
vn 0.28108 0.67860 0.67860
vn 0.28108 0.67860 0.67860
vn 0.28108 0.67860 0.67860
vn 0.67860 0.67860 0.28108
vn 0.67860 0.67860 0.28108
vn 0.67860 0.67860 0.28108
vn 0.67860 0.67860 0.28108
vn 0.67860 0.67860 0.28108
vn 0.67860 0.67860 0.28108
vn 0.67860 0.67860 -0.28108
vn 0.67860 0.67860 -0.28108
vn 0.67860 0.67860 -0.28108
vn 0.67860 0.67860 -0.28108
vn 0.67860 0.67860 -0.28108
vn 0.67860 0.67860 -0.28108
vn 0.28108 0.67860 -0.67860
vn 0.28108 0.67860 -0.67860
vn 0.28108 0.67860 -0.67860
vn 0.28108 0.67860 -0.67860
vn 0.28108 0.67860 -0.67860
vn 0.28108 0.67860 -0.67860
vn -0.28108 0.67860 -0.67860
vn -0.28108 0.67860 -0.67860
vn -0.28108 0.67860 -0.67860
vn -0.28108 0.67860 -0.67860
vn -0.28108 0.67860 -0.67860
vn -0.28108 0.67860 -0.67860
vn -0.67860 0.67860 -0.28108
vn -0.67860 0.67860 -0.28108
vn -0.67860 0.67860 -0.28108
vn -0.67860 0.67860 -0.28108
vn -0.67860 0.67860 -0.28108
vn -0.67860 0.67860 -0.28108
vn -0.89681 0.24030 0.37147
vn -0.89681 0.24030 0.37147
vn -0.89681 0.24030 0.37147
vn -0.89681 0.24030 0.37147
vn -0.89681 0.24030 0.37147
vn -0.89681 0.24030 0.37147
vn -0.37147 0.24030 0.89681
vn -0.37147 0.24030 0.89681
vn -0.37147 0.24030 0.89681
vn -0.37147 0.24030 0.89681
vn -0.37147 0.24030 0.89681
vn -0.37147 0.24030 0.89681
vn 0.37147 0.24030 0.89681
vn 0.37147 0.24030 0.89681
vn 0.37147 0.24030 0.89681
vn 0.37147 0.24030 0.89681
vn 0.37147 0.24030 0.89681
vn 0.37147 0.24030 0.89681
vn 0.89681 0.24030 0.37147
vn 0.89681 0.24030 0.37147
vn 0.89681 0.24030 0.37147
vn 0.89681 0.24030 0.37147
vn 0.89681 0.24030 0.37147
vn 0.89681 0.24030 0.37147
vn 0.89681 0.24030 -0.37147
vn 0.89681 0.24030 -0.37147
vn 0.89681 0.24030 -0.37147
vn 0.89681 0.24030 -0.37147
vn 0.89681 0.24030 -0.37147
vn 0.89681 0.24030 -0.37147
vn 0.37147 0.24030 -0.89681
vn 0.37147 0.24030 -0.89681
vn 0.37147 0.24030 -0.89681
vn 0.37147 0.24030 -0.89681
vn 0.37147 0.24030 -0.89681
vn 0.37147 0.24030 -0.89681
vn -0.37147 0.24030 -0.89681
vn -0.37147 0.24030 -0.89681
vn -0.37147 0.24030 -0.89681
vn -0.37147 0.24030 -0.89681
vn -0.37147 0.24030 -0.89681
vn -0.37147 0.24030 -0.89681
vn -0.89681 0.24030 -0.37147
vn -0.89681 0.24030 -0.37147
vn -0.89681 0.24030 -0.37147
vn -0.89681 0.24030 -0.37147
vn -0.89681 0.24030 -0.37147
vn -0.89681 0.24030 -0.37147
vn -0.89681 -0.24030 0.37147
vn -0.89681 -0.24030 0.37147
vn -0.89681 -0.24030 0.37147
vn -0.89681 -0.24030 0.37147
vn -0.89681 -0.24030 0.37147
vn -0.89681 -0.24030 0.37147
vn -0.37147 -0.24030 0.89681
vn -0.37147 -0.24030 0.89681
vn -0.37147 -0.24030 0.89681
vn -0.37147 -0.24030 0.89681
vn -0.37147 -0.24030 0.89681
vn -0.37147 -0.24030 0.89681
vn 0.37147 -0.24030 0.89681
vn 0.37147 -0.24030 0.89681
vn 0.37147 -0.24030 0.89681
vn 0.37147 -0.24030 0.89681
vn 0.37147 -0.24030 0.89681
vn 0.37147 -0.24030 0.89681
vn 0.89681 -0.24030 0.37147
vn 0.89681 -0.24030 0.37147
vn 0.89681 -0.24030 0.37147
vn 0.89681 -0.24030 0.37147
vn 0.89681 -0.24030 0.37147
vn 0.89681 -0.24030 0.37147
vn 0.89681 -0.24030 -0.37147
vn 0.89681 -0.24030 -0.37147
vn 0.89681 -0.24030 -0.37147
vn 0.89681 -0.24030 -0.37147
vn 0.89681 -0.24030 -0.37147
vn 0.89681 -0.24030 -0.37147
vn 0.37147 -0.24030 -0.89681
vn 0.37147 -0.24030 -0.89681
vn 0.37147 -0.24030 -0.89681
vn 0.37147 -0.24030 -0.89681
vn 0.37147 -0.24030 -0.89681
vn 0.37147 -0.24030 -0.89681
vn -0.37147 -0.24030 -0.89681
vn -0.37147 -0.24030 -0.89681
vn -0.37147 -0.24030 -0.89681
vn -0.37147 -0.24030 -0.89681
vn -0.37147 -0.24030 -0.89681
vn -0.37147 -0.24030 -0.89681
vn -0.89681 -0.24030 -0.37147
vn -0.89681 -0.24030 -0.37147
vn -0.89681 -0.24030 -0.37147
vn -0.89681 -0.24030 -0.37147
vn -0.89681 -0.24030 -0.37147
vn -0.89681 -0.24030 -0.37147
vn -0.67860 -0.67860 0.28108
vn -0.67860 -0.67860 0.28108
vn -0.67860 -0.67860 0.28108
vn -0.67860 -0.67860 0.28108
vn -0.67860 -0.67860 0.28108
vn -0.67860 -0.67860 0.28108
vn -0.28108 -0.67860 0.67860
vn -0.28108 -0.67860 0.67860
vn -0.28108 -0.67860 0.67860
vn -0.28108 -0.67860 0.67860
vn -0.28108 -0.67860 0.67860
vn -0.28108 -0.67860 0.67860
vn 0.28108 -0.67860 0.67860
vn 0.28108 -0.67860 0.67860
vn 0.28108 -0.67860 0.67860
vn 0.28108 -0.67860 0.67860
vn 0.28108 -0.67860 0.67860
vn 0.28108 -0.67860 0.67860
vn 0.67860 -0.67860 0.28108
vn 0.67860 -0.67860 0.28108
vn 0.67860 -0.67860 0.28108
vn 0.67860 -0.67860 0.28108
vn 0.67860 -0.67860 0.28108
vn 0.67860 -0.67860 0.28108
vn 0.67860 -0.67860 -0.28108
vn 0.67860 -0.67860 -0.28108
vn 0.67860 -0.67860 -0.28108
vn 0.67860 -0.67860 -0.28108
vn 0.67860 -0.67860 -0.28108
vn 0.67860 -0.67860 -0.28108
vn 0.28108 -0.67860 -0.67860
vn 0.28108 -0.67860 -0.67860
vn 0.28108 -0.67860 -0.67860
vn 0.28108 -0.67860 -0.67860
vn 0.28108 -0.67860 -0.67860
vn 0.28108 -0.67860 -0.67860
vn -0.28108 -0.67860 -0.67860
vn -0.28108 -0.67860 -0.67860
vn -0.28108 -0.67860 -0.67860
vn -0.28108 -0.67860 -0.67860
vn -0.28108 -0.67860 -0.67860
vn -0.28108 -0.67860 -0.67860
vn -0.67860 -0.67860 -0.28108
vn -0.67860 -0.67860 -0.28108
vn -0.67860 -0.67860 -0.28108
vn -0.67860 -0.67860 -0.28108
vn -0.67860 -0.67860 -0.28108
vn -0.67860 -0.67860 -0.28108
vn -0.25734 -0.96042 0.10660
vn -0.25734 -0.96042 0.10660
vn -0.25734 -0.96042 0.10660
vn -0.10660 -0.96042 0.25734
vn -0.10660 -0.96042 0.25734
vn -0.10660 -0.96042 0.25734
vn 0.10660 -0.96042 0.25734
vn 0.10660 -0.96042 0.25734
vn 0.10660 -0.96042 0.25734
vn 0.25734 -0.96042 0.10660
vn 0.25734 -0.96042 0.10660
vn 0.25734 -0.96042 0.10660
vn 0.25734 -0.96042 -0.10660
vn 0.25734 -0.96042 -0.10660
vn 0.25734 -0.96042 -0.10660
vn 0.10660 -0.96042 -0.25734
vn 0.10660 -0.96042 -0.25734
vn 0.10660 -0.96042 -0.25734
vn -0.10660 -0.96042 -0.25734
vn -0.10660 -0.96042 -0.25734
vn -0.10660 -0.96042 -0.25734
vn -0.25734 -0.96042 -0.10660
vn -0.25734 -0.96042 -0.10660
vn -0.25734 -0.96042 -0.10660
usemtl accent_magenta
f 385//385 386//386 387//387
f 388//388 389//389 390//390
f 391//391 392//392 393//393
f 394//394 395//395 396//396
f 397//397 398//398 399//399
f 400//400 401//401 402//402
f 403//403 404//404 405//405
f 406//406 407//407 408//408
f 409//409 410//410 411//411
f 412//412 413//413 414//414
f 415//415 416//416 417//417
f 418//418 419//419 420//420
f 421//421 422//422 423//423
f 424//424 425//425 426//426
f 427//427 428//428 429//429
f 430//430 431//431 432//432
f 433//433 434//434 435//435
f 436//436 437//437 438//438
f 439//439 440//440 441//441
f 442//442 443//443 444//444
f 445//445 446//446 447//447
f 448//448 449//449 450//450
f 451//451 452//452 453//453
f 454//454 455//455 456//456
f 457//457 458//458 459//459
f 460//460 461//461 462//462
f 463//463 464//464 465//465
f 466//466 467//467 468//468
f 469//469 470//470 471//471
f 472//472 473//473 474//474
f 475//475 476//476 477//477
f 478//478 479//479 480//480
f 481//481 482//482 483//483
f 484//484 485//485 486//486
f 487//487 488//488 489//489
f 490//490 491//491 492//492
f 493//493 494//494 495//495
f 496//496 497//497 498//498
f 499//499 500//500 501//501
f 502//502 503//503 504//504
f 505//505 506//506 507//507
f 508//508 509//509 510//510
f 511//511 512//512 513//513
f 514//514 515//515 516//516
f 517//517 518//518 519//519
f 520//520 521//521 522//522
f 523//523 524//524 525//525
f 526//526 527//527 528//528
f 529//529 530//530 531//531
f 532//532 533//533 534//534
f 535//535 536//536 537//537
f 538//538 539//539 540//540
f 541//541 542//542 543//543
f 544//544 545//545 546//546
f 547//547 548//548 549//549
f 550//550 551//551 552//552
f 553//553 554//554 555//555
f 556//556 557//557 558//558
f 559//559 560//560 561//561
f 562//562 563//563 564//564
f 565//565 566//566 567//567
f 568//568 569//569 570//570
f 571//571 572//572 573//573
f 574//574 575//575 576//576
f 577//577 578//578 579//579
f 580//580 581//581 582//582
f 583//583 584//584 585//585
f 586//586 587//587 588//588
f 589//589 590//590 591//591
f 592//592 593//593 594//594
f 595//595 596//596 597//597
f 598//598 599//599 600//600
f 601//601 602//602 603//603
f 604//604 605//605 606//606
f 607//607 608//608 609//609
f 610//610 611//611 612//612
f 613//613 614//614 615//615
f 616//616 617//617 618//618
f 619//619 620//620 621//621
f 622//622 623//623 624//624
