mtllib frost_lich_sleeve_L.mtl
o sleeve_upper_L
v 0.06481 -0.03229 -0.00518
v 0.05897 -0.00381 0.04217
v 0.13264 -0.09680 0.00215
v 0.11966 -0.03351 0.10737
v 0.13264 -0.09680 0.00215
v 0.05897 -0.00381 0.04217
v 0.13264 -0.09680 0.00215
v 0.11966 -0.03351 0.10737
v 0.03643 -0.27419 0.10338
v 0.02459 -0.21648 0.19931
v 0.03643 -0.27419 0.10338
v 0.11966 -0.03351 0.10737
v 0.03643 -0.27419 0.10338
v 0.02459 -0.21648 0.19931
v -0.05979 -0.45158 0.20460
v -0.07048 -0.39945 0.29125
v -0.05979 -0.45158 0.20460
v 0.02459 -0.21648 0.19931
v -0.05979 -0.45158 0.20460
v -0.07048 -0.39945 0.29125
v -0.13642 -0.44413 0.22348
v -0.14123 -0.42068 0.26248
v -0.13642 -0.44413 0.22348
v -0.07048 -0.39945 0.29125
v 0.05897 -0.00381 0.04217
v 0.01858 0.02691 0.06481
v 0.11966 -0.03351 0.10737
v 0.02991 0.03474 0.15770
v 0.11966 -0.03351 0.10737
v 0.01858 0.02691 0.06481
v 0.11966 -0.03351 0.10737
v 0.02991 0.03474 0.15770
v 0.02459 -0.21648 0.19931
v -0.05724 -0.15426 0.24520
v 0.02459 -0.21648 0.19931
v 0.02991 0.03474 0.15770
v 0.02459 -0.21648 0.19931
v -0.05724 -0.15426 0.24520
v -0.07048 -0.39945 0.29125
v -0.14439 -0.34325 0.33270
v -0.07048 -0.39945 0.29125
v -0.05724 -0.15426 0.24520
v -0.07048 -0.39945 0.29125
v -0.14439 -0.34325 0.33270
v -0.14123 -0.42068 0.26248
v -0.17449 -0.39538 0.28113
v -0.14123 -0.42068 0.26248
v -0.14439 -0.34325 0.33270
v 0.01858 0.02691 0.06481
v -0.03269 0.04186 0.04949
v 0.02991 0.03474 0.15770
v -0.08403 0.06796 0.12365
v 0.02991 0.03474 0.15770
v -0.03269 0.04186 0.04949
v 0.02991 0.03474 0.15770
v -0.08403 0.06796 0.12365
v -0.05724 -0.15426 0.24520
v -0.16113 -0.12397 0.21416
v -0.05724 -0.15426 0.24520
v -0.08403 0.06796 0.12365
v -0.05724 -0.15426 0.24520
v -0.16113 -0.12397 0.21416
v -0.14439 -0.34325 0.33270
v -0.23823 -0.31589 0.30466
v -0.14439 -0.34325 0.33270
v -0.16113 -0.12397 0.21416
v -0.14439 -0.34325 0.33270
v -0.23823 -0.31589 0.30466
v -0.17449 -0.39538 0.28113
v -0.21671 -0.38307 0.26851
v -0.17449 -0.39538 0.28113
v -0.23823 -0.31589 0.30466
v -0.03269 0.04186 0.04949
v -0.06481 0.03229 0.00518
v -0.08403 0.06796 0.12365
v -0.15542 0.04670 0.02518
v -0.08403 0.06796 0.12365
v -0.06481 0.03229 0.00518
v -0.08403 0.06796 0.12365
v -0.15542 0.04670 0.02518
v -0.16113 -0.12397 0.21416
v -0.22622 -0.14335 0.12437
v -0.16113 -0.12397 0.21416
v -0.15542 0.04670 0.02518
v -0.16113 -0.12397 0.21416
v -0.22622 -0.14335 0.12437
v -0.23823 -0.31589 0.30466
v -0.29702 -0.33340 0.22357
v -0.23823 -0.31589 0.30466
v -0.22622 -0.14335 0.12437
v -0.23823 -0.31589 0.30466
v -0.29702 -0.33340 0.22357
v -0.21671 -0.38307 0.26851
v -0.24317 -0.39095 0.23202
v -0.21671 -0.38307 0.26851
v -0.29702 -0.33340 0.22357
v -0.06481 0.03229 0.00518
v -0.05897 0.00381 -0.04217
v -0.15542 0.04670 0.02518
v -0.14243 -0.01660 -0.08004
v -0.15542 0.04670 0.02518
v -0.05897 0.00381 -0.04217
v -0.15542 0.04670 0.02518
v -0.14243 -0.01660 -0.08004
v -0.22622 -0.14335 0.12437
v -0.21438 -0.20106 0.02844
v -0.22622 -0.14335 0.12437
v -0.14243 -0.01660 -0.08004
v -0.22622 -0.14335 0.12437
v -0.21438 -0.20106 0.02844
v -0.29702 -0.33340 0.22357
v -0.28633 -0.38553 0.13692
v -0.29702 -0.33340 0.22357
v -0.21438 -0.20106 0.02844
v -0.29702 -0.33340 0.22357
v -0.28633 -0.38553 0.13692
v -0.24317 -0.39095 0.23202
v -0.23836 -0.41441 0.19302
v -0.24317 -0.39095 0.23202
v -0.28633 -0.38553 0.13692
v -0.05897 0.00381 -0.04217
v -0.01858 -0.02691 -0.06481
v -0.14243 -0.01660 -0.08004
v -0.05269 -0.08484 -0.13037
v -0.14243 -0.01660 -0.08004
v -0.01858 -0.02691 -0.06481
v -0.14243 -0.01660 -0.08004
v -0.05269 -0.08484 -0.13037
v -0.21438 -0.20106 0.02844
v -0.13255 -0.26329 -0.01745
v -0.21438 -0.20106 0.02844
v -0.05269 -0.08484 -0.13037
v -0.21438 -0.20106 0.02844
v -0.13255 -0.26329 -0.01745
v -0.28633 -0.38553 0.13692
v -0.21241 -0.44173 0.09547
v -0.28633 -0.38553 0.13692
v -0.13255 -0.26329 -0.01745
v -0.28633 -0.38553 0.13692
v -0.21241 -0.44173 0.09547
v -0.23836 -0.41441 0.19302
v -0.20510 -0.43970 0.17437
v -0.23836 -0.41441 0.19302
v -0.21241 -0.44173 0.09547
v -0.01858 -0.02691 -0.06481
v 0.03269 -0.04186 -0.04949
v -0.05269 -0.08484 -0.13037
v 0.06126 -0.11806 -0.09632
v -0.05269 -0.08484 -0.13037
v 0.03269 -0.04186 -0.04949
v -0.05269 -0.08484 -0.13037
v 0.06126 -0.11806 -0.09632
v -0.13255 -0.26329 -0.01745
v -0.02866 -0.29358 0.01359
v -0.13255 -0.26329 -0.01745
v 0.06126 -0.11806 -0.09632
v -0.13255 -0.26329 -0.01745
v -0.02866 -0.29358 0.01359
v -0.21241 -0.44173 0.09547
v -0.11858 -0.46909 0.12351
v -0.21241 -0.44173 0.09547
v -0.02866 -0.29358 0.01359
v -0.21241 -0.44173 0.09547
v -0.11858 -0.46909 0.12351
v -0.20510 -0.43970 0.17437
v -0.16287 -0.45201 0.18699
v -0.20510 -0.43970 0.17437
v -0.11858 -0.46909 0.12351
v 0.03269 -0.04186 -0.04949
v 0.06481 -0.03229 -0.00518
v 0.06126 -0.11806 -0.09632
v 0.13264 -0.09680 0.00215
v 0.06126 -0.11806 -0.09632
v 0.06481 -0.03229 -0.00518
v 0.06126 -0.11806 -0.09632
v 0.13264 -0.09680 0.00215
v -0.02866 -0.29358 0.01359
v 0.03643 -0.27419 0.10338
v -0.02866 -0.29358 0.01359
v 0.13264 -0.09680 0.00215
v -0.02866 -0.29358 0.01359
v 0.03643 -0.27419 0.10338
v -0.11858 -0.46909 0.12351
v -0.05979 -0.45158 0.20460
v -0.11858 -0.46909 0.12351
v 0.03643 -0.27419 0.10338
v -0.11858 -0.46909 0.12351
v -0.05979 -0.45158 0.20460
v -0.16287 -0.45201 0.18699
v -0.13642 -0.44413 0.22348
v -0.16287 -0.45201 0.18699
v -0.05979 -0.45158 0.20460
vn 0.67093 0.66907 -0.31968
vn 0.67093 0.66907 -0.31968
vn 0.67093 0.66907 -0.31968
vn 0.67093 0.66907 -0.31968
vn 0.67093 0.66907 -0.31968
vn 0.67093 0.66907 -0.31968
vn 0.89965 -0.31612 0.30117
vn 0.89965 -0.31612 0.30117
vn 0.89965 -0.31612 0.30117
vn 0.89965 -0.31612 0.30117
vn 0.89965 -0.31612 0.30117
vn 0.89965 -0.31612 0.30117
vn 0.89965 -0.31612 0.30117
vn 0.89965 -0.31612 0.30117
vn 0.89965 -0.31612 0.30117
vn 0.89965 -0.31612 0.30117
vn 0.89965 -0.31612 0.30117
vn 0.89965 -0.31612 0.30117
vn 0.04494 -0.85358 0.51901
vn 0.04494 -0.85358 0.51901
vn 0.04494 -0.85358 0.51901
vn 0.04494 -0.85358 0.51901
vn 0.04494 -0.85358 0.51901
vn 0.04494 -0.85358 0.51901
vn 0.54997 0.82395 -0.13654
vn 0.54997 0.82395 -0.13654
vn 0.54997 0.82395 -0.13654
vn 0.54997 0.82395 -0.13654
vn 0.54997 0.82395 -0.13654
vn 0.54997 0.82395 -0.13654
vn 0.55559 0.12441 0.82209
vn 0.55559 0.12441 0.82209
vn 0.55559 0.12441 0.82209
vn 0.55559 0.12441 0.82209
vn 0.55559 0.12441 0.82209
vn 0.55559 0.12441 0.82209
vn 0.55559 0.12441 0.82209
vn 0.55559 0.12441 0.82209
vn 0.55559 0.12441 0.82209
vn 0.55559 0.12441 0.82209
vn 0.55559 0.12441 0.82209
vn 0.55559 0.12441 0.82209
vn -0.09782 -0.67078 0.73517
vn -0.09782 -0.67078 0.73517
vn -0.09782 -0.67078 0.73517
vn -0.09782 -0.67078 0.73517
vn -0.09782 -0.67078 0.73517
vn -0.09782 -0.67078 0.73517
vn 0.31014 0.94342 -0.11737
vn 0.31014 0.94342 -0.11737
vn 0.31014 0.94342 -0.11737
vn 0.31014 0.94342 -0.11737
vn 0.31014 0.94342 -0.11737
vn 0.31014 0.94342 -0.11737
vn -0.12657 0.46423 0.87662
vn -0.12657 0.46423 0.87662
vn -0.12657 0.46423 0.87662
vn -0.12657 0.46423 0.87662
vn -0.12657 0.46423 0.87662
vn -0.12657 0.46423 0.87662
vn -0.12657 0.46423 0.87662
vn -0.12657 0.46423 0.87662
vn -0.12657 0.46423 0.87662
vn -0.12657 0.46423 0.87662
vn -0.12657 0.46423 0.87662
vn -0.12657 0.46423 0.87662
vn -0.38089 -0.52978 0.75780
vn -0.38089 -0.52978 0.75780
vn -0.38089 -0.52978 0.75780
vn -0.38089 -0.52978 0.75780
vn -0.38089 -0.52978 0.75780
vn -0.38089 -0.52978 0.75780
vn 0.09193 0.95750 -0.27340
vn 0.09193 0.95750 -0.27340
vn 0.09193 0.95750 -0.27340
vn 0.09193 0.95750 -0.27340
vn 0.09193 0.95750 -0.27340
vn 0.09193 0.95750 -0.27340
vn -0.74724 0.50428 0.43282
vn -0.74724 0.50428 0.43282
vn -0.74724 0.50428 0.43282
vn -0.74724 0.50428 0.43282
vn -0.74724 0.50428 0.43282
vn -0.74724 0.50428 0.43282
vn -0.74724 0.50428 0.43282
vn -0.74724 0.50428 0.43282
vn -0.74724 0.50428 0.43282
vn -0.74724 0.50428 0.43282
vn -0.74724 0.50428 0.43282
vn -0.74724 0.50428 0.43282
vn -0.63844 -0.51316 0.57364
vn -0.63844 -0.51316 0.57364
vn -0.63844 -0.51316 0.57364
vn -0.63844 -0.51316 0.57364
vn -0.63844 -0.51316 0.57364
vn -0.63844 -0.51316 0.57364
vn 0.02317 0.85794 -0.51323
vn 0.02317 0.85794 -0.51323
vn 0.02317 0.85794 -0.51323
vn 0.02317 0.85794 -0.51323
vn 0.02317 0.85794 -0.51323
vn 0.02317 0.85794 -0.51323
vn -0.94284 0.22110 -0.24934
vn -0.94284 0.22110 -0.24934
vn -0.94284 0.22110 -0.24934
vn -0.94284 0.22110 -0.24934
vn -0.94284 0.22110 -0.24934
vn -0.94284 0.22110 -0.24934
vn -0.94284 0.22110 -0.24934
vn -0.94284 0.22110 -0.24934
vn -0.94284 0.22110 -0.24934
vn -0.94284 0.22110 -0.24934
vn -0.94284 0.22110 -0.24934
vn -0.94284 0.22110 -0.24934
vn -0.71960 -0.63067 0.29058
vn -0.71960 -0.63067 0.29058
vn -0.71960 -0.63067 0.29058
vn -0.71960 -0.63067 0.29058
vn -0.71960 -0.63067 0.29058
vn -0.71960 -0.63067 0.29058
vn 0.14412 0.70306 -0.69637
vn 0.14412 0.70306 -0.69637
vn 0.14412 0.70306 -0.69637
vn 0.14412 0.70306 -0.69637
vn 0.14412 0.70306 -0.69637
vn 0.14412 0.70306 -0.69637
vn -0.59878 -0.21943 -0.77027
vn -0.59878 -0.21943 -0.77027
vn -0.59878 -0.21943 -0.77027
vn -0.59878 -0.21943 -0.77027
vn -0.59878 -0.21943 -0.77027
vn -0.59878 -0.21943 -0.77027
vn -0.59878 -0.21943 -0.77027
vn -0.59878 -0.21943 -0.77027
vn -0.59878 -0.21943 -0.77027
vn -0.59878 -0.21943 -0.77027
vn -0.59878 -0.21943 -0.77027
vn -0.59878 -0.21943 -0.77027
vn -0.57684 -0.81346 0.07442
vn -0.57684 -0.81346 0.07442
vn -0.57684 -0.81346 0.07442
vn -0.57684 -0.81346 0.07442
vn -0.57684 -0.81346 0.07442
vn -0.57684 -0.81346 0.07442
vn 0.38395 0.58359 -0.71554
vn 0.38395 0.58359 -0.71554
vn 0.38395 0.58359 -0.71554
vn 0.38395 0.58359 -0.71554
vn 0.38395 0.58359 -0.71554
vn 0.38395 0.58359 -0.71554
vn 0.08338 -0.55925 -0.82480
vn 0.08338 -0.55925 -0.82480
vn 0.08338 -0.55925 -0.82480
vn 0.08338 -0.55925 -0.82480
vn 0.08338 -0.55925 -0.82480
vn 0.08338 -0.55925 -0.82480
vn 0.08338 -0.55925 -0.82480
vn 0.08338 -0.55925 -0.82480
vn 0.08338 -0.55925 -0.82480
vn 0.08338 -0.55925 -0.82480
vn 0.08338 -0.55925 -0.82480
vn 0.08338 -0.55925 -0.82480
vn -0.29377 -0.95447 0.05179
vn -0.29377 -0.95447 0.05179
vn -0.29377 -0.95447 0.05179
vn -0.29377 -0.95447 0.05179
vn -0.29377 -0.95447 0.05179
vn -0.29377 -0.95447 0.05179
vn 0.60216 0.56951 -0.55951
vn 0.60216 0.56951 -0.55951
vn 0.60216 0.56951 -0.55951
vn 0.60216 0.56951 -0.55951
vn 0.60216 0.56951 -0.55951
vn 0.60216 0.56951 -0.55951
vn 0.70405 -0.59930 -0.38099
vn 0.70405 -0.59930 -0.38099
vn 0.70405 -0.59930 -0.38099
vn 0.70405 -0.59930 -0.38099
vn 0.70405 -0.59930 -0.38099
vn 0.70405 -0.59930 -0.38099
vn 0.70405 -0.59930 -0.38099
vn 0.70405 -0.59930 -0.38099
vn 0.70405 -0.59930 -0.38099
vn 0.70405 -0.59930 -0.38099
vn 0.70405 -0.59930 -0.38099
vn 0.70405 -0.59930 -0.38099
vn -0.03622 -0.97109 0.23595
vn -0.03622 -0.97109 0.23595
vn -0.03622 -0.97109 0.23595
vn -0.03622 -0.97109 0.23595
vn -0.03622 -0.97109 0.23595
vn -0.03622 -0.97109 0.23595
usemtl robe_ice
f 1//1 2//2 3//3
f 4//4 5//5 6//6
f 7//7 8//8 9//9
f 10//10 11//11 12//12
f 13//13 14//14 15//15
f 16//16 17//17 18//18
f 19//19 20//20 21//21
f 22//22 23//23 24//24
f 25//25 26//26 27//27
f 28//28 29//29 30//30
f 31//31 32//32 33//33
f 34//34 35//35 36//36
f 37//37 38//38 39//39
f 40//40 41//41 42//42
f 43//43 44//44 45//45
f 46//46 47//47 48//48
f 49//49 50//50 51//51
f 52//52 53//53 54//54
f 55//55 56//56 57//57
f 58//58 59//59 60//60
f 61//61 62//62 63//63
f 64//64 65//65 66//66
f 67//67 68//68 69//69
f 70//70 71//71 72//72
f 73//73 74//74 75//75
f 76//76 77//77 78//78
f 79//79 80//80 81//81
f 82//82 83//83 84//84
f 85//85 86//86 87//87
f 88//88 89//89 90//90
f 91//91 92//92 93//93
f 94//94 95//95 96//96
f 97//97 98//98 99//99
f 100//100 101//101 102//102
f 103//103 104//104 105//105
f 106//106 107//107 108//108
f 109//109 110//110 111//111
f 112//112 113//113 114//114
f 115//115 116//116 117//117
f 118//118 119//119 120//120
f 121//121 122//122 123//123
f 124//124 125//125 126//126
f 127//127 128//128 129//129
f 130//130 131//131 132//132
f 133//133 134//134 135//135
f 136//136 137//137 138//138
f 139//139 140//140 141//141
f 142//142 143//143 144//144
f 145//145 146//146 147//147
f 148//148 149//149 150//150
f 151//151 152//152 153//153
f 154//154 155//155 156//156
f 157//157 158//158 159//159
f 160//160 161//161 162//162
f 163//163 164//164 165//165
f 166//166 167//167 168//168
f 169//169 170//170 171//171
f 172//172 173//173 174//174
f 175//175 176//176 177//177
f 178//178 179//179 180//180
f 181//181 182//182 183//183
f 184//184 185//185 186//186
f 187//187 188//188 189//189
f 190//190 191//191 192//192
o sleeve_lower_L
v -0.23642 -0.45272 0.21500
v -0.20168 -0.45841 0.18577
v -0.28316 -0.51508 0.21537
v -0.20597 -0.52772 0.15040
v -0.28316 -0.51508 0.21537
v -0.20168 -0.45841 0.18577
v -0.28316 -0.51508 0.21537
v -0.20597 -0.52772 0.15040
v -0.19320 -0.64588 0.33633
v -0.12703 -0.65671 0.28064
v -0.19320 -0.64588 0.33633
v -0.20597 -0.52772 0.15040
v -0.19320 -0.64588 0.33633
v -0.12703 -0.65671 0.28064
v -0.10324 -0.77667 0.45728
v -0.04810 -0.78570 0.41088
v -0.10324 -0.77667 0.45728
v -0.12703 -0.65671 0.28064
v -0.10324 -0.77667 0.45728
v -0.04810 -0.78570 0.41088
v -0.05228 -0.76532 0.48435
v -0.02747 -0.76938 0.46347
v -0.05228 -0.76532 0.48435
v -0.04810 -0.78570 0.41088
v -0.20168 -0.45841 0.18577
v -0.15998 -0.44016 0.18112
v -0.20597 -0.52772 0.15040
v -0.11330 -0.48716 0.14008
v -0.20597 -0.52772 0.15040
v -0.15998 -0.44016 0.18112
v -0.20597 -0.52772 0.15040
v -0.11330 -0.48716 0.14008
v -0.12703 -0.65671 0.28064
v -0.04760 -0.62194 0.27179
v -0.12703 -0.65671 0.28064
v -0.11330 -0.48716 0.14008
v -0.12703 -0.65671 0.28064
v -0.04760 -0.62194 0.27179
v -0.04810 -0.78570 0.41088
v 0.01809 -0.75673 0.40351
v -0.04810 -0.78570 0.41088
v -0.04760 -0.62194 0.27179
v -0.04810 -0.78570 0.41088
v 0.01809 -0.75673 0.40351
v -0.02747 -0.76938 0.46347
v 0.00231 -0.75634 0.46015
v -0.02747 -0.76938 0.46347
v 0.01809 -0.75673 0.40351
v -0.15998 -0.44016 0.18112
v -0.13574 -0.40866 0.20379
v -0.11330 -0.48716 0.14008
v -0.05943 -0.41716 0.19045
v -0.11330 -0.48716 0.14008
v -0.13574 -0.40866 0.20379
v -0.11330 -0.48716 0.14008
v -0.05943 -0.41716 0.19045
v -0.04760 -0.62194 0.27179
v -0.00144 -0.56194 0.31497
v -0.04760 -0.62194 0.27179
v -0.05943 -0.41716 0.19045
v -0.04760 -0.62194 0.27179
v -0.00144 -0.56194 0.31497
v 0.01809 -0.75673 0.40351
v 0.05656 -0.70673 0.43949
v 0.01809 -0.75673 0.40351
v -0.00144 -0.56194 0.31497
v 0.01809 -0.75673 0.40351
v 0.05656 -0.70673 0.43949
v 0.00231 -0.75634 0.46015
v 0.01963 -0.73384 0.47635
v 0.00231 -0.75634 0.46015
v 0.05656 -0.70673 0.43949
v -0.13574 -0.40866 0.20379
v -0.14317 -0.38236 0.24050
v -0.05943 -0.41716 0.19045
v -0.07593 -0.35872 0.27202
v -0.05943 -0.41716 0.19045
v -0.14317 -0.38236 0.24050
v -0.05943 -0.41716 0.19045
v -0.07593 -0.35872 0.27202
v -0.00144 -0.56194 0.31497
v -0.01557 -0.51185 0.38488
v -0.00144 -0.56194 0.31497
v -0.07593 -0.35872 0.27202
v -0.00144 -0.56194 0.31497
v -0.01557 -0.51185 0.38488
v 0.05656 -0.70673 0.43949
v 0.04478 -0.66499 0.49775
v 0.05656 -0.70673 0.43949
v -0.01557 -0.51185 0.38488
v 0.05656 -0.70673 0.43949
v 0.04478 -0.66499 0.49775
v 0.01963 -0.73384 0.47635
v 0.01433 -0.71506 0.50256
v 0.01963 -0.73384 0.47635
v 0.04478 -0.66499 0.49775
v -0.14317 -0.38236 0.24050
v -0.17790 -0.37667 0.26973
v -0.07593 -0.35872 0.27202
v -0.15312 -0.34608 0.33699
v -0.07593 -0.35872 0.27202
v -0.17790 -0.37667 0.26973
v -0.07593 -0.35872 0.27202
v -0.15312 -0.34608 0.33699
v -0.01557 -0.51185 0.38488
v -0.08174 -0.50102 0.44057
v -0.01557 -0.51185 0.38488
v -0.15312 -0.34608 0.33699
v -0.01557 -0.51185 0.38488
v -0.08174 -0.50102 0.44057
v 0.04478 -0.66499 0.49775
v -0.01035 -0.65596 0.54415
v 0.04478 -0.66499 0.49775
v -0.08174 -0.50102 0.44057
v 0.04478 -0.66499 0.49775
v -0.01035 -0.65596 0.54415
v 0.01433 -0.71506 0.50256
v -0.01049 -0.71100 0.52345
v 0.01433 -0.71506 0.50256
v -0.01035 -0.65596 0.54415
v -0.17790 -0.37667 0.26973
v -0.21960 -0.39493 0.27438
v -0.15312 -0.34608 0.33699
v -0.24579 -0.38664 0.34731
v -0.15312 -0.34608 0.33699
v -0.21960 -0.39493 0.27438
v -0.15312 -0.34608 0.33699
v -0.24579 -0.38664 0.34731
v -0.08174 -0.50102 0.44057
v -0.16117 -0.53579 0.44942
v -0.08174 -0.50102 0.44057
v -0.24579 -0.38664 0.34731
v -0.08174 -0.50102 0.44057
v -0.16117 -0.53579 0.44942
v -0.01035 -0.65596 0.54415
v -0.07655 -0.68493 0.55153
v -0.01035 -0.65596 0.54415
v -0.16117 -0.53579 0.44942
v -0.01035 -0.65596 0.54415
v -0.07655 -0.68493 0.55153
v -0.01049 -0.71100 0.52345
v -0.04027 -0.72403 0.52676
v -0.01049 -0.71100 0.52345
v -0.07655 -0.68493 0.55153
v -0.21960 -0.39493 0.27438
v -0.24384 -0.42643 0.25171
v -0.24579 -0.38664 0.34731
v -0.29965 -0.45664 0.29693
v -0.24579 -0.38664 0.34731
v -0.24384 -0.42643 0.25171
v -0.24579 -0.38664 0.34731
v -0.29965 -0.45664 0.29693
v -0.16117 -0.53579 0.44942
v -0.20734 -0.59579 0.40624
v -0.16117 -0.53579 0.44942
v -0.29965 -0.45664 0.29693
v -0.16117 -0.53579 0.44942
v -0.20734 -0.59579 0.40624
v -0.07655 -0.68493 0.55153
v -0.11502 -0.73493 0.51554
v -0.07655 -0.68493 0.55153
v -0.20734 -0.59579 0.40624
v -0.07655 -0.68493 0.55153
v -0.11502 -0.73493 0.51554
v -0.04027 -0.72403 0.52676
v -0.05759 -0.74653 0.51057
v -0.04027 -0.72403 0.52676
v -0.11502 -0.73493 0.51554
v -0.24384 -0.42643 0.25171
v -0.23642 -0.45272 0.21500
v -0.29965 -0.45664 0.29693
v -0.28316 -0.51508 0.21537
v -0.29965 -0.45664 0.29693
v -0.23642 -0.45272 0.21500
v -0.29965 -0.45664 0.29693
v -0.28316 -0.51508 0.21537
v -0.20734 -0.59579 0.40624
v -0.19320 -0.64588 0.33633
v -0.20734 -0.59579 0.40624
v -0.28316 -0.51508 0.21537
v -0.20734 -0.59579 0.40624
v -0.19320 -0.64588 0.33633
v -0.11502 -0.73493 0.51554
v -0.10324 -0.77667 0.45728
v -0.11502 -0.73493 0.51554
v -0.19320 -0.64588 0.33633
v -0.11502 -0.73493 0.51554
v -0.10324 -0.77667 0.45728
v -0.05759 -0.74653 0.51057
v -0.05228 -0.76532 0.48435
v -0.05759 -0.74653 0.51057
v -0.10324 -0.77667 0.45728
vn -0.54837 0.40675 -0.73064
vn -0.54837 0.40675 -0.73064
vn -0.54837 0.40675 -0.73064
vn -0.54837 0.40675 -0.73064
vn -0.54837 0.40675 -0.73064
vn -0.54837 0.40675 -0.73064
vn -0.49442 -0.74859 -0.44177
vn -0.49442 -0.74859 -0.44177
vn -0.49442 -0.74859 -0.44177
vn -0.49442 -0.74859 -0.44177
vn -0.49442 -0.74859 -0.44177
vn -0.49442 -0.74859 -0.44177
vn -0.49442 -0.74859 -0.44177
vn -0.49442 -0.74859 -0.44177
vn -0.49442 -0.74859 -0.44177
vn -0.49442 -0.74859 -0.44177
vn -0.49442 -0.74859 -0.44177
vn -0.49442 -0.74859 -0.44177
vn 0.07034 -0.96018 0.27037
vn 0.07034 -0.96018 0.27037
vn 0.07034 -0.96018 0.27037
vn 0.07034 -0.96018 0.27037
vn 0.07034 -0.96018 0.27037
vn 0.07034 -0.96018 0.27037
vn -0.29067 0.44911 -0.84487
vn -0.29067 0.44911 -0.84487
vn -0.29067 0.44911 -0.84487
vn -0.29067 0.44911 -0.84487
vn -0.29067 0.44911 -0.84487
vn -0.29067 0.44911 -0.84487
vn 0.19485 -0.63529 -0.74729
vn 0.19485 -0.63529 -0.74729
vn 0.19485 -0.63529 -0.74729
vn 0.19485 -0.63529 -0.74729
vn 0.19485 -0.63529 -0.74729
vn 0.19485 -0.63529 -0.74729
vn 0.19485 -0.63529 -0.74729
vn 0.19485 -0.63529 -0.74729
vn 0.19485 -0.63529 -0.74729
vn 0.19485 -0.63529 -0.74729
vn 0.19485 -0.63529 -0.74729
vn 0.19485 -0.63529 -0.74729
vn 0.40927 -0.90447 0.12014
vn 0.40927 -0.90447 0.12014
vn 0.40927 -0.90447 0.12014
vn 0.40927 -0.90447 0.12014
vn 0.40927 -0.90447 0.12014
vn 0.40927 -0.90447 0.12014
vn -0.06835 0.61686 -0.78410
vn -0.06835 0.61686 -0.78410
vn -0.06835 0.61686 -0.78410
vn -0.06835 0.61686 -0.78410
vn -0.06835 0.61686 -0.78410
vn -0.06835 0.61686 -0.78410
vn 0.78945 -0.18665 -0.58475
vn 0.78945 -0.18665 -0.58475
vn 0.78945 -0.18665 -0.58475
vn 0.78945 -0.18665 -0.58475
vn 0.78945 -0.18665 -0.58475
vn 0.78945 -0.18665 -0.58475
vn 0.78945 -0.18665 -0.58475
vn 0.78945 -0.18665 -0.58475
vn 0.78945 -0.18665 -0.58475
vn 0.78945 -0.18665 -0.58475
vn 0.78945 -0.18665 -0.58475
vn 0.78945 -0.18665 -0.58475
vn 0.70165 -0.68386 0.20006
vn 0.70165 -0.68386 0.20006
vn 0.70165 -0.68386 0.20006
vn 0.70165 -0.68386 0.20006
vn 0.70165 -0.68386 0.20006
vn 0.70165 -0.68386 0.20006
vn -0.01165 0.81172 -0.58393
vn -0.01165 0.81172 -0.58393
vn -0.01165 0.81172 -0.58393
vn -0.01165 0.81172 -0.58393
vn -0.01165 0.81172 -0.58393
vn -0.01165 0.81172 -0.58393
vn 0.94109 0.33453 -0.04937
vn 0.94109 0.33453 -0.04937
vn 0.94109 0.33453 -0.04937
vn 0.94109 0.33453 -0.04937
vn 0.94109 0.33453 -0.04937
vn 0.94109 0.33453 -0.04937
vn 0.94109 0.33453 -0.04937
vn 0.94109 0.33453 -0.04937
vn 0.94109 0.33453 -0.04937
vn 0.94109 0.33453 -0.04937
vn 0.94109 0.33453 -0.04937
vn 0.94109 0.33453 -0.04937
vn 0.77621 -0.42758 0.46332
vn 0.77621 -0.42758 0.46332
vn 0.77621 -0.42758 0.46332
vn 0.77621 -0.42758 0.46332
vn 0.77621 -0.42758 0.46332
vn 0.77621 -0.42758 0.46332
vn -0.15379 0.91956 -0.36161
vn -0.15379 0.91956 -0.36161
vn -0.15379 0.91956 -0.36161
vn -0.15379 0.91956 -0.36161
vn -0.15379 0.91956 -0.36161
vn -0.15379 0.91956 -0.36161
vn 0.56093 0.62295 0.54524
vn 0.56093 0.62295 0.54524
vn 0.56093 0.62295 0.54524
vn 0.56093 0.62295 0.54524
vn 0.56093 0.62295 0.54524
vn 0.56093 0.62295 0.54524
vn 0.56093 0.62295 0.54524
vn 0.56093 0.62295 0.54524
vn 0.56093 0.62295 0.54524
vn 0.56093 0.62295 0.54524
vn 0.56093 0.62295 0.54524
vn 0.56093 0.62295 0.54524
vn 0.58928 -0.28576 0.75571
vn 0.58928 -0.28576 0.75571
vn 0.58928 -0.28576 0.75571
vn 0.58928 -0.28576 0.75571
vn 0.58928 -0.28576 0.75571
vn 0.58928 -0.28576 0.75571
vn -0.41150 0.87720 -0.24738
vn -0.41150 0.87720 -0.24738
vn -0.41150 0.87720 -0.24738
vn -0.41150 0.87720 -0.24738
vn -0.41150 0.87720 -0.24738
vn -0.41150 0.87720 -0.24738
vn -0.12833 0.50965 0.85076
vn -0.12833 0.50965 0.85076
vn -0.12833 0.50965 0.85076
vn -0.12833 0.50965 0.85076
vn -0.12833 0.50965 0.85076
vn -0.12833 0.50965 0.85076
vn -0.12833 0.50965 0.85076
vn -0.12833 0.50965 0.85076
vn -0.12833 0.50965 0.85076
vn -0.12833 0.50965 0.85076
vn -0.12833 0.50965 0.85076
vn -0.12833 0.50965 0.85076
vn 0.25035 -0.34147 0.90594
vn 0.25035 -0.34147 0.90594
vn 0.25035 -0.34147 0.90594
vn 0.25035 -0.34147 0.90594
vn 0.25035 -0.34147 0.90594
vn 0.25035 -0.34147 0.90594
vn -0.63381 0.70945 -0.30815
vn -0.63381 0.70945 -0.30815
vn -0.63381 0.70945 -0.30815
vn -0.63381 0.70945 -0.30815
vn -0.63381 0.70945 -0.30815
vn -0.63381 0.70945 -0.30815
vn -0.72293 0.06100 0.68822
vn -0.72293 0.06100 0.68822
vn -0.72293 0.06100 0.68822
vn -0.72293 0.06100 0.68822
vn -0.72293 0.06100 0.68822
vn -0.72293 0.06100 0.68822
vn -0.72293 0.06100 0.68822
vn -0.72293 0.06100 0.68822
vn -0.72293 0.06100 0.68822
vn -0.72293 0.06100 0.68822
vn -0.72293 0.06100 0.68822
vn -0.72293 0.06100 0.68822
vn -0.04203 -0.56208 0.82601
vn -0.04203 -0.56208 0.82601
vn -0.04203 -0.56208 0.82601
vn -0.04203 -0.56208 0.82601
vn -0.04203 -0.56208 0.82601
vn -0.04203 -0.56208 0.82601
vn -0.69051 0.51459 -0.50833
vn -0.69051 0.51459 -0.50833
vn -0.69051 0.51459 -0.50833
vn -0.69051 0.51459 -0.50833
vn -0.69051 0.51459 -0.50833
vn -0.69051 0.51459 -0.50833
vn -0.87457 -0.46018 0.15284
vn -0.87457 -0.46018 0.15284
vn -0.87457 -0.46018 0.15284
vn -0.87457 -0.46018 0.15284
vn -0.87457 -0.46018 0.15284
vn -0.87457 -0.46018 0.15284
vn -0.87457 -0.46018 0.15284
vn -0.87457 -0.46018 0.15284
vn -0.87457 -0.46018 0.15284
vn -0.87457 -0.46018 0.15284
vn -0.87457 -0.46018 0.15284
vn -0.87457 -0.46018 0.15284
vn -0.11660 -0.81836 0.56275
vn -0.11660 -0.81836 0.56275
vn -0.11660 -0.81836 0.56275
vn -0.11660 -0.81836 0.56275
vn -0.11660 -0.81836 0.56275
vn -0.11660 -0.81836 0.56275
usemtl robe_ice
f 193//193 194//194 195//195
f 196//196 197//197 198//198
f 199//199 200//200 201//201
f 202//202 203//203 204//204
f 205//205 206//206 207//207
f 208//208 209//209 210//210
f 211//211 212//212 213//213
f 214//214 215//215 216//216
f 217//217 218//218 219//219
f 220//220 221//221 222//222
f 223//223 224//224 225//225
f 226//226 227//227 228//228
f 229//229 230//230 231//231
f 232//232 233//233 234//234
f 235//235 236//236 237//237
f 238//238 239//239 240//240
f 241//241 242//242 243//243
f 244//244 245//245 246//246
f 247//247 248//248 249//249
f 250//250 251//251 252//252
f 253//253 254//254 255//255
f 256//256 257//257 258//258
f 259//259 260//260 261//261
f 262//262 263//263 264//264
f 265//265 266//266 267//267
f 268//268 269//269 270//270
f 271//271 272//272 273//273
f 274//274 275//275 276//276
f 277//277 278//278 279//279
f 280//280 281//281 282//282
f 283//283 284//284 285//285
f 286//286 287//287 288//288
f 289//289 290//290 291//291
f 292//292 293//293 294//294
f 295//295 296//296 297//297
f 298//298 299//299 300//300
f 301//301 302//302 303//303
f 304//304 305//305 306//306
f 307//307 308//308 309//309
f 310//310 311//311 312//312
f 313//313 314//314 315//315
f 316//316 317//317 318//318
f 319//319 320//320 321//321
f 322//322 323//323 324//324
f 325//325 326//326 327//327
f 328//328 329//329 330//330
f 331//331 332//332 333//333
f 334//334 335//335 336//336
f 337//337 338//338 339//339
f 340//340 341//341 342//342
f 343//343 344//344 345//345
f 346//346 347//347 348//348
f 349//349 350//350 351//351
f 352//352 353//353 354//354
f 355//355 356//356 357//357
f 358//358 359//359 360//360
f 361//361 362//362 363//363
f 364//364 365//365 366//366
f 367//367 368//368 369//369
f 370//370 371//371 372//372
f 373//373 374//374 375//375
f 376//376 377//377 378//378
f 379//379 380//380 381//381
f 382//382 383//383 384//384
o sleeve_joint_L
v -0.18979 -0.26476 0.22775
v -0.26618 -0.28523 0.22775
v -0.24381 -0.28523 0.28177
v -0.18979 -0.26476 0.22775
v -0.24381 -0.28523 0.28177
v -0.18979 -0.28523 0.30414
v -0.18979 -0.26476 0.22775
v -0.18979 -0.28523 0.30414
v -0.13577 -0.28523 0.28177
v -0.18979 -0.26476 0.22775
v -0.13577 -0.28523 0.28177
v -0.11340 -0.28523 0.22775
v -0.18979 -0.26476 0.22775
v -0.11340 -0.28523 0.22775
v -0.13577 -0.28523 0.17373
v -0.18979 -0.26476 0.22775
v -0.13577 -0.28523 0.17373
v -0.18979 -0.28523 0.15136
v -0.18979 -0.26476 0.22775
v -0.18979 -0.28523 0.15136
v -0.24381 -0.28523 0.17373
v -0.18979 -0.26476 0.22775
v -0.24381 -0.28523 0.17373
v -0.26618 -0.28523 0.22775
v -0.24381 -0.28523 0.28177
v -0.26618 -0.28523 0.22775
v -0.28335 -0.34115 0.32131
v -0.26618 -0.28523 0.22775
v -0.32211 -0.34115 0.22775
v -0.28335 -0.34115 0.32131
v -0.18979 -0.28523 0.30414
v -0.24381 -0.28523 0.28177
v -0.18979 -0.34115 0.36006
v -0.24381 -0.28523 0.28177
v -0.28335 -0.34115 0.32131
v -0.18979 -0.34115 0.36006
v -0.13577 -0.28523 0.28177
v -0.18979 -0.28523 0.30414
v -0.09623 -0.34115 0.32131
v -0.18979 -0.28523 0.30414
v -0.18979 -0.34115 0.36006
v -0.09623 -0.34115 0.32131
v -0.11340 -0.28523 0.22775
v -0.13577 -0.28523 0.28177
v -0.05748 -0.34115 0.22775
v -0.13577 -0.28523 0.28177
v -0.09623 -0.34115 0.32131
v -0.05748 -0.34115 0.22775
v -0.13577 -0.28523 0.17373
v -0.11340 -0.28523 0.22775
v -0.09623 -0.34115 0.13419
v -0.11340 -0.28523 0.22775
v -0.05748 -0.34115 0.22775
v -0.09623 -0.34115 0.13419
v -0.18979 -0.28523 0.15136
v -0.13577 -0.28523 0.17373
v -0.18979 -0.34115 0.09544
v -0.13577 -0.28523 0.17373
v -0.09623 -0.34115 0.13419
v -0.18979 -0.34115 0.09544
v -0.24381 -0.28523 0.17373
v -0.18979 -0.28523 0.15136
v -0.28335 -0.34115 0.13419
v -0.18979 -0.28523 0.15136
v -0.18979 -0.34115 0.09544
v -0.28335 -0.34115 0.13419
v -0.26618 -0.28523 0.22775
v -0.24381 -0.28523 0.17373
v -0.32211 -0.34115 0.22775
v -0.24381 -0.28523 0.17373
v -0.28335 -0.34115 0.13419
v -0.32211 -0.34115 0.22775
v -0.28335 -0.34115 0.32131
v -0.32211 -0.34115 0.22775
v -0.29783 -0.41754 0.33578
v -0.32211 -0.34115 0.22775
v -0.34257 -0.41754 0.22775
v -0.29783 -0.41754 0.33578
v -0.18979 -0.34115 0.36006
v -0.28335 -0.34115 0.32131
v -0.18979 -0.41754 0.38053
v -0.28335 -0.34115 0.32131
v -0.29783 -0.41754 0.33578
v -0.18979 -0.41754 0.38053
v -0.09623 -0.34115 0.32131
v -0.18979 -0.34115 0.36006
v -0.08176 -0.41754 0.33578
v -0.18979 -0.34115 0.36006
v -0.18979 -0.41754 0.38053
v -0.08176 -0.41754 0.33578
v -0.05748 -0.34115 0.22775
v -0.09623 -0.34115 0.32131
v -0.03701 -0.41754 0.22775
v -0.09623 -0.34115 0.32131
v -0.08176 -0.41754 0.33578
v -0.03701 -0.41754 0.22775
v -0.09623 -0.34115 0.13419
v -0.05748 -0.34115 0.22775
v -0.08176 -0.41754 0.11972
v -0.05748 -0.34115 0.22775
v -0.03701 -0.41754 0.22775
v -0.08176 -0.41754 0.11972
v -0.18979 -0.34115 0.09544
v -0.09623 -0.34115 0.13419
v -0.18979 -0.41754 0.07497
v -0.09623 -0.34115 0.13419
v -0.08176 -0.41754 0.11972
v -0.18979 -0.41754 0.07497
v -0.28335 -0.34115 0.13419
v -0.18979 -0.34115 0.09544
v -0.29783 -0.41754 0.11972
v -0.18979 -0.34115 0.09544
v -0.18979 -0.41754 0.07497
v -0.29783 -0.41754 0.11972
v -0.32211 -0.34115 0.22775
v -0.28335 -0.34115 0.13419
v -0.34257 -0.41754 0.22775
v -0.28335 -0.34115 0.13419
v -0.29783 -0.41754 0.11972
v -0.34257 -0.41754 0.22775
v -0.29783 -0.41754 0.33578
v -0.34257 -0.41754 0.22775
v -0.28335 -0.49393 0.32131
v -0.34257 -0.41754 0.22775
v -0.32211 -0.49393 0.22775
v -0.28335 -0.49393 0.32131
v -0.18979 -0.41754 0.38053
v -0.29783 -0.41754 0.33578
v -0.18979 -0.49393 0.36006
v -0.29783 -0.41754 0.33578
v -0.28335 -0.49393 0.32131
v -0.18979 -0.49393 0.36006
v -0.08176 -0.41754 0.33578
v -0.18979 -0.41754 0.38053
v -0.09623 -0.49393 0.32131
v -0.18979 -0.41754 0.38053
v -0.18979 -0.49393 0.36006
v -0.09623 -0.49393 0.32131
v -0.03701 -0.41754 0.22775
v -0.08176 -0.41754 0.33578
v -0.05748 -0.49393 0.22775
v -0.08176 -0.41754 0.33578
v -0.09623 -0.49393 0.32131
v -0.05748 -0.49393 0.22775
v -0.08176 -0.41754 0.11972
v -0.03701 -0.41754 0.22775
v -0.09623 -0.49393 0.13419
v -0.03701 -0.41754 0.22775
v -0.05748 -0.49393 0.22775
v -0.09623 -0.49393 0.13419
v -0.18979 -0.41754 0.07497
v -0.08176 -0.41754 0.11972
v -0.18979 -0.49393 0.09544
v -0.08176 -0.41754 0.11972
v -0.09623 -0.49393 0.13419
v -0.18979 -0.49393 0.09544
v -0.29783 -0.41754 0.11972
v -0.18979 -0.41754 0.07497
v -0.28335 -0.49393 0.13419
v -0.18979 -0.41754 0.07497
v -0.18979 -0.49393 0.09544
v -0.28335 -0.49393 0.13419
v -0.34257 -0.41754 0.22775
v -0.29783 -0.41754 0.11972
v -0.32211 -0.49393 0.22775
v -0.29783 -0.41754 0.11972
v -0.28335 -0.49393 0.13419
v -0.32211 -0.49393 0.22775
v -0.28335 -0.49393 0.32131
v -0.32211 -0.49393 0.22775
v -0.24381 -0.54986 0.28177
v -0.32211 -0.49393 0.22775
v -0.26618 -0.54986 0.22775
v -0.24381 -0.54986 0.28177
v -0.18979 -0.49393 0.36006
v -0.28335 -0.49393 0.32131
v -0.18979 -0.54986 0.30414
v -0.28335 -0.49393 0.32131
v -0.24381 -0.54986 0.28177
v -0.18979 -0.54986 0.30414
v -0.09623 -0.49393 0.32131
v -0.18979 -0.49393 0.36006
v -0.13577 -0.54986 0.28177
v -0.18979 -0.49393 0.36006
v -0.18979 -0.54986 0.30414
v -0.13577 -0.54986 0.28177
v -0.05748 -0.49393 0.22775
v -0.09623 -0.49393 0.32131
v -0.11340 -0.54986 0.22775
v -0.09623 -0.49393 0.32131
v -0.13577 -0.54986 0.28177
v -0.11340 -0.54986 0.22775
v -0.09623 -0.49393 0.13419
v -0.05748 -0.49393 0.22775
v -0.13577 -0.54986 0.17373
v -0.05748 -0.49393 0.22775
v -0.11340 -0.54986 0.22775
v -0.13577 -0.54986 0.17373
v -0.18979 -0.49393 0.09544
v -0.09623 -0.49393 0.13419
v -0.18979 -0.54986 0.15136
v -0.09623 -0.49393 0.13419
v -0.13577 -0.54986 0.17373
v -0.18979 -0.54986 0.15136
v -0.28335 -0.49393 0.13419
v -0.18979 -0.49393 0.09544
v -0.24381 -0.54986 0.17373
v -0.18979 -0.49393 0.09544
v -0.18979 -0.54986 0.15136
v -0.24381 -0.54986 0.17373
v -0.32211 -0.49393 0.22775
v -0.28335 -0.49393 0.13419
v -0.26618 -0.54986 0.22775
v -0.28335 -0.49393 0.13419
v -0.24381 -0.54986 0.17373
v -0.26618 -0.54986 0.22775
v -0.24381 -0.54986 0.28177
v -0.26618 -0.54986 0.22775
v -0.18979 -0.57032 0.22775
v -0.18979 -0.54986 0.30414
v -0.24381 -0.54986 0.28177
v -0.18979 -0.57032 0.22775
v -0.13577 -0.54986 0.28177
v -0.18979 -0.54986 0.30414
v -0.18979 -0.57032 0.22775
v -0.11340 -0.54986 0.22775
v -0.13577 -0.54986 0.28177
v -0.18979 -0.57032 0.22775
v -0.13577 -0.54986 0.17373
v -0.11340 -0.54986 0.22775
v -0.18979 -0.57032 0.22775
v -0.18979 -0.54986 0.15136
v -0.13577 -0.54986 0.17373
v -0.18979 -0.57032 0.22775
v -0.24381 -0.54986 0.17373
v -0.18979 -0.54986 0.15136
v -0.18979 -0.57032 0.22775
v -0.26618 -0.54986 0.22775
v -0.24381 -0.54986 0.17373
v -0.18979 -0.57032 0.22775
vn -0.25734 0.96042 0.10660
vn -0.25734 0.96042 0.10660
vn -0.25734 0.96042 0.10660
vn -0.10660 0.96042 0.25734
vn -0.10660 0.96042 0.25734
vn -0.10660 0.96042 0.25734
vn 0.10660 0.96042 0.25734
vn 0.10660 0.96042 0.25734
vn 0.10660 0.96042 0.25734
vn 0.25734 0.96042 0.10660
vn 0.25734 0.96042 0.10660
vn 0.25734 0.96042 0.10660
vn 0.25734 0.96042 -0.10660
vn 0.25734 0.96042 -0.10660
vn 0.25734 0.96042 -0.10660
vn 0.10660 0.96042 -0.25734
vn 0.10660 0.96042 -0.25734
vn 0.10660 0.96042 -0.25734
vn -0.10660 0.96042 -0.25734
vn -0.10660 0.96042 -0.25734
vn -0.10660 0.96042 -0.25734
vn -0.25734 0.96042 -0.10660
vn -0.25734 0.96042 -0.10660
vn -0.25734 0.96042 -0.10660
vn -0.67860 0.67860 0.28108
vn -0.67860 0.67860 0.28108
vn -0.67860 0.67860 0.28108
vn -0.67860 0.67860 0.28108
vn -0.67860 0.67860 0.28108
vn -0.67860 0.67860 0.28108
vn -0.28108 0.67860 0.67860
vn -0.28108 0.67860 0.67860
vn -0.28108 0.67860 0.67860
vn -0.28108 0.67860 0.67860
vn -0.28108 0.67860 0.67860
vn -0.28108 0.67860 0.67860
vn 0.28108 0.67860 0.67860
vn 0.28108 0.67860 0.67860
vn 0.28108 0.67860 0.67860
vn 0.28108 0.67860 0.67860
vn 0.28108 0.67860 0.67860
vn 0.28108 0.67860 0.67860
vn 0.67860 0.67860 0.28108
vn 0.67860 0.67860 0.28108
vn 0.67860 0.67860 0.28108
vn 0.67860 0.67860 0.28108
vn 0.67860 0.67860 0.28108
vn 0.67860 0.67860 0.28108
vn 0.67860 0.67860 -0.28108
vn 0.67860 0.67860 -0.28108
vn 0.67860 0.67860 -0.28108
vn 0.67860 0.67860 -0.28108
vn 0.67860 0.67860 -0.28108
vn 0.67860 0.67860 -0.28108
vn 0.28108 0.67860 -0.67860
vn 0.28108 0.67860 -0.67860
vn 0.28108 0.67860 -0.67860
vn 0.28108 0.67860 -0.67860
vn 0.28108 0.67860 -0.67860
vn 0.28108 0.67860 -0.67860
vn -0.28108 0.67860 -0.67860
vn -0.28108 0.67860 -0.67860
vn -0.28108 0.67860 -0.67860
vn -0.28108 0.67860 -0.67860
vn -0.28108 0.67860 -0.67860
vn -0.28108 0.67860 -0.67860
vn -0.67860 0.67860 -0.28108
vn -0.67860 0.67860 -0.28108
vn -0.67860 0.67860 -0.28108
vn -0.67860 0.67860 -0.28108
vn -0.67860 0.67860 -0.28108
vn -0.67860 0.67860 -0.28108
vn -0.89681 0.24030 0.37147
vn -0.89681 0.24030 0.37147
vn -0.89681 0.24030 0.37147
vn -0.89681 0.24030 0.37147
vn -0.89681 0.24030 0.37147
vn -0.89681 0.24030 0.37147
vn -0.37147 0.24030 0.89681
vn -0.37147 0.24030 0.89681
vn -0.37147 0.24030 0.89681
vn -0.37147 0.24030 0.89681
vn -0.37147 0.24030 0.89681
vn -0.37147 0.24030 0.89681
vn 0.37147 0.24030 0.89681
vn 0.37147 0.24030 0.89681
vn 0.37147 0.24030 0.89681
vn 0.37147 0.24030 0.89681
vn 0.37147 0.24030 0.89681
vn 0.37147 0.24030 0.89681
vn 0.89681 0.24030 0.37147
vn 0.89681 0.24030 0.37147
vn 0.89681 0.24030 0.37147
vn 0.89681 0.24030 0.37147
vn 0.89681 0.24030 0.37147
vn 0.89681 0.24030 0.37147
vn 0.89681 0.24030 -0.37147
vn 0.89681 0.24030 -0.37147
vn 0.89681 0.24030 -0.37147
vn 0.89681 0.24030 -0.37147
vn 0.89681 0.24030 -0.37147
vn 0.89681 0.24030 -0.37147
vn 0.37147 0.24030 -0.89681
vn 0.37147 0.24030 -0.89681
vn 0.37147 0.24030 -0.89681
vn 0.37147 0.24030 -0.89681
vn 0.37147 0.24030 -0.89681
vn 0.37147 0.24030 -0.89681
vn -0.37147 0.24030 -0.89681
vn -0.37147 0.24030 -0.89681
vn -0.37147 0.24030 -0.89681
vn -0.37147 0.24030 -0.89681
vn -0.37147 0.24030 -0.89681
vn -0.37147 0.24030 -0.89681
vn -0.89681 0.24030 -0.37147
vn -0.89681 0.24030 -0.37147
vn -0.89681 0.24030 -0.37147
vn -0.89681 0.24030 -0.37147
vn -0.89681 0.24030 -0.37147
vn -0.89681 0.24030 -0.37147
vn -0.89681 -0.24030 0.37147
vn -0.89681 -0.24030 0.37147
vn -0.89681 -0.24030 0.37147
vn -0.89681 -0.24030 0.37147
vn -0.89681 -0.24030 0.37147
vn -0.89681 -0.24030 0.37147
vn -0.37147 -0.24030 0.89681
vn -0.37147 -0.24030 0.89681
vn -0.37147 -0.24030 0.89681
vn -0.37147 -0.24030 0.89681
vn -0.37147 -0.24030 0.89681
vn -0.37147 -0.24030 0.89681
vn 0.37147 -0.24030 0.89681
vn 0.37147 -0.24030 0.89681
vn 0.37147 -0.24030 0.89681
vn 0.37147 -0.24030 0.89681
vn 0.37147 -0.24030 0.89681
vn 0.37147 -0.24030 0.89681
vn 0.89681 -0.24030 0.37147
vn 0.89681 -0.24030 0.37147
vn 0.89681 -0.24030 0.37147
vn 0.89681 -0.24030 0.37147
vn 0.89681 -0.24030 0.37147
vn 0.89681 -0.24030 0.37147
vn 0.89681 -0.24030 -0.37147
vn 0.89681 -0.24030 -0.37147
vn 0.89681 -0.24030 -0.37147
vn 0.89681 -0.24030 -0.37147
vn 0.89681 -0.24030 -0.37147
vn 0.89681 -0.24030 -0.37147
vn 0.37147 -0.24030 -0.89681
vn 0.37147 -0.24030 -0.89681
vn 0.37147 -0.24030 -0.89681
vn 0.37147 -0.24030 -0.89681
vn 0.37147 -0.24030 -0.89681
vn 0.37147 -0.24030 -0.89681
vn -0.37147 -0.24030 -0.89681
vn -0.37147 -0.24030 -0.89681
vn -0.37147 -0.24030 -0.89681
vn -0.37147 -0.24030 -0.89681
vn -0.37147 -0.24030 -0.89681
vn -0.37147 -0.24030 -0.89681
vn -0.89681 -0.24030 -0.37147
vn -0.89681 -0.24030 -0.37147
vn -0.89681 -0.24030 -0.37147
vn -0.89681 -0.24030 -0.37147
vn -0.89681 -0.24030 -0.37147
vn -0.89681 -0.24030 -0.37147
vn -0.67860 -0.67860 0.28108
vn -0.67860 -0.67860 0.28108
vn -0.67860 -0.67860 0.28108
vn -0.67860 -0.67860 0.28108
vn -0.67860 -0.67860 0.28108
vn -0.67860 -0.67860 0.28108
vn -0.28108 -0.67860 0.67860
vn -0.28108 -0.67860 0.67860
vn -0.28108 -0.67860 0.67860
vn -0.28108 -0.67860 0.67860
vn -0.28108 -0.67860 0.67860
vn -0.28108 -0.67860 0.67860
vn 0.28108 -0.67860 0.67860
vn 0.28108 -0.67860 0.67860
vn 0.28108 -0.67860 0.67860
vn 0.28108 -0.67860 0.67860
vn 0.28108 -0.67860 0.67860
vn 0.28108 -0.67860 0.67860
vn 0.67860 -0.67860 0.28108
vn 0.67860 -0.67860 0.28108
vn 0.67860 -0.67860 0.28108
vn 0.67860 -0.67860 0.28108
vn 0.67860 -0.67860 0.28108
vn 0.67860 -0.67860 0.28108
vn 0.67860 -0.67860 -0.28108
vn 0.67860 -0.67860 -0.28108
vn 0.67860 -0.67860 -0.28108
vn 0.67860 -0.67860 -0.28108
vn 0.67860 -0.67860 -0.28108
vn 0.67860 -0.67860 -0.28108
vn 0.28108 -0.67860 -0.67860
vn 0.28108 -0.67860 -0.67860
vn 0.28108 -0.67860 -0.67860
vn 0.28108 -0.67860 -0.67860
vn 0.28108 -0.67860 -0.67860
vn 0.28108 -0.67860 -0.67860
vn -0.28108 -0.67860 -0.67860
vn -0.28108 -0.67860 -0.67860
vn -0.28108 -0.67860 -0.67860
vn -0.28108 -0.67860 -0.67860
vn -0.28108 -0.67860 -0.67860
vn -0.28108 -0.67860 -0.67860
vn -0.67860 -0.67860 -0.28108
vn -0.67860 -0.67860 -0.28108
vn -0.67860 -0.67860 -0.28108
vn -0.67860 -0.67860 -0.28108
vn -0.67860 -0.67860 -0.28108
vn -0.67860 -0.67860 -0.28108
vn -0.25734 -0.96042 0.10660
vn -0.25734 -0.96042 0.10660
vn -0.25734 -0.96042 0.10660
vn -0.10660 -0.96042 0.25734
vn -0.10660 -0.96042 0.25734
vn -0.10660 -0.96042 0.25734
vn 0.10660 -0.96042 0.25734
vn 0.10660 -0.96042 0.25734
vn 0.10660 -0.96042 0.25734
vn 0.25734 -0.96042 0.10660
vn 0.25734 -0.96042 0.10660
vn 0.25734 -0.96042 0.10660
vn 0.25734 -0.96042 -0.10660
vn 0.25734 -0.96042 -0.10660
vn 0.25734 -0.96042 -0.10660
vn 0.10660 -0.96042 -0.25734
vn 0.10660 -0.96042 -0.25734
vn 0.10660 -0.96042 -0.25734
vn -0.10660 -0.96042 -0.25734
vn -0.10660 -0.96042 -0.25734
vn -0.10660 -0.96042 -0.25734
vn -0.25734 -0.96042 -0.10660
vn -0.25734 -0.96042 -0.10660
vn -0.25734 -0.96042 -0.10660
usemtl robe_ice
f 385//385 386//386 387//387
f 388//388 389//389 390//390
f 391//391 392//392 393//393
f 394//394 395//395 396//396
f 397//397 398//398 399//399
f 400//400 401//401 402//402
f 403//403 404//404 405//405
f 406//406 407//407 408//408
f 409//409 410//410 411//411
f 412//412 413//413 414//414
f 415//415 416//416 417//417
f 418//418 419//419 420//420
f 421//421 422//422 423//423
f 424//424 425//425 426//426
f 427//427 428//428 429//429
f 430//430 431//431 432//432
f 433//433 434//434 435//435
f 436//436 437//437 438//438
f 439//439 440//440 441//441
f 442//442 443//443 444//444
f 445//445 446//446 447//447
f 448//448 449//449 450//450
f 451//451 452//452 453//453
f 454//454 455//455 456//456
f 457//457 458//458 459//459
f 460//460 461//461 462//462
f 463//463 464//464 465//465
f 466//466 467//467 468//468
f 469//469 470//470 471//471
f 472//472 473//473 474//474
f 475//475 476//476 477//477
f 478//478 479//479 480//480
f 481//481 482//482 483//483
f 484//484 485//485 486//486
f 487//487 488//488 489//489
f 490//490 491//491 492//492
f 493//493 494//494 495//495
f 496//496 497//497 498//498
f 499//499 500//500 501//501
f 502//502 503//503 504//504
f 505//505 506//506 507//507
f 508//508 509//509 510//510
f 511//511 512//512 513//513
f 514//514 515//515 516//516
f 517//517 518//518 519//519
f 520//520 521//521 522//522
f 523//523 524//524 525//525
f 526//526 527//527 528//528
f 529//529 530//530 531//531
f 532//532 533//533 534//534
f 535//535 536//536 537//537
f 538//538 539//539 540//540
f 541//541 542//542 543//543
f 544//544 545//545 546//546
f 547//547 548//548 549//549
f 550//550 551//551 552//552
f 553//553 554//554 555//555
f 556//556 557//557 558//558
f 559//559 560//560 561//561
f 562//562 563//563 564//564
f 565//565 566//566 567//567
f 568//568 569//569 570//570
f 571//571 572//572 573//573
f 574//574 575//575 576//576
f 577//577 578//578 579//579
f 580//580 581//581 582//582
f 583//583 584//584 585//585
f 586//586 587//587 588//588
f 589//589 590//590 591//591
f 592//592 593//593 594//594
f 595//595 596//596 597//597
f 598//598 599//599 600//600
f 601//601 602//602 603//603
f 604//604 605//605 606//606
f 607//607 608//608 609//609
f 610//610 611//611 612//612
f 613//613 614//614 615//615
f 616//616 617//617 618//618
f 619//619 620//620 621//621
f 622//622 623//623 624//624
