mtllib swamp_warden_leg_R.mtl
o leg_upper_R
v -0.14388 -0.01905 0.02789
v -0.11932 -0.02963 -0.08202
v -0.31278 -0.08638 0.06778
v -0.25821 -0.10990 -0.17647
v -0.31278 -0.08638 0.06778
v -0.11932 -0.02963 -0.08202
v -0.31278 -0.08638 0.06778
v -0.25821 -0.10990 -0.17647
v -0.24297 -0.40691 0.10663
v -0.19160 -0.42904 -0.12324
v -0.24297 -0.40691 0.10663
v -0.25821 -0.10990 -0.17647
v -0.24297 -0.40691 0.10663
v -0.19160 -0.42904 -0.12324
v -0.17316 -0.72744 0.14549
v -0.12500 -0.74819 -0.07002
v -0.17316 -0.72744 0.14549
v -0.19160 -0.42904 -0.12324
v -0.17316 -0.72744 0.14549
v -0.12500 -0.74819 -0.07002
v -0.01104 -0.75094 0.12121
v 0.01063 -0.76028 0.02423
v -0.01104 -0.75094 0.12121
v -0.12500 -0.74819 -0.07002
v -0.11932 -0.02963 -0.08202
v -0.02487 -0.02286 -0.14388
v -0.25821 -0.10990 -0.17647
v -0.04830 -0.09484 -0.31394
v -0.25821 -0.10990 -0.17647
v -0.02487 -0.02286 -0.14388
v -0.25821 -0.10990 -0.17647
v -0.04830 -0.09484 -0.31394
v -0.19160 -0.42904 -0.12324
v 0.00595 -0.41487 -0.25263
v -0.19160 -0.42904 -0.12324
v -0.04830 -0.09484 -0.31394
v -0.19160 -0.42904 -0.12324
v 0.00595 -0.41487 -0.25263
v -0.12500 -0.74819 -0.07002
v 0.06021 -0.73491 -0.19132
v -0.12500 -0.74819 -0.07002
v 0.00595 -0.41487 -0.25263
v -0.12500 -0.74819 -0.07002
v 0.06021 -0.73491 -0.19132
v 0.01063 -0.76028 0.02423
v 0.09398 -0.75430 -0.03036
v 0.01063 -0.76028 0.02423
v 0.06021 -0.73491 -0.19132
v -0.02487 -0.02286 -0.14388
v 0.08416 -0.00269 -0.12146
v -0.04830 -0.09484 -0.31394
v 0.19397 -0.05003 -0.26412
v -0.04830 -0.09484 -0.31394
v 0.08416 -0.00269 -0.12146
v -0.04830 -0.09484 -0.31394
v 0.19397 -0.05003 -0.26412
v 0.00595 -0.41487 -0.25263
v 0.23397 -0.37270 -0.20574
v 0.00595 -0.41487 -0.25263
v 0.19397 -0.05003 -0.26412
v 0.00595 -0.41487 -0.25263
v 0.23397 -0.37270 -0.20574
v 0.06021 -0.73491 -0.19132
v 0.27398 -0.69537 -0.14736
v 0.06021 -0.73491 -0.19132
v 0.23397 -0.37270 -0.20574
v 0.06021 -0.73491 -0.19132
v 0.27398 -0.69537 -0.14736
v 0.09398 -0.75430 -0.03036
v 0.19017 -0.73651 -0.01058
v 0.09398 -0.75430 -0.03036
v 0.27398 -0.69537 -0.14736
v 0.08416 -0.00269 -0.12146
v 0.14388 0.01905 -0.02789
v 0.19397 -0.05003 -0.26412
v 0.32669 -0.00172 -0.05619
v 0.19397 -0.05003 -0.26412
v 0.14388 0.01905 -0.02789
v 0.19397 -0.05003 -0.26412
v 0.32669 -0.00172 -0.05619
v 0.23397 -0.37270 -0.20574
v 0.35889 -0.32723 -0.01004
v 0.23397 -0.37270 -0.20574
v 0.32669 -0.00172 -0.05619
v 0.23397 -0.37270 -0.20574
v 0.35889 -0.32723 -0.01004
v 0.27398 -0.69537 -0.14736
v 0.39108 -0.65274 0.03611
v 0.27398 -0.69537 -0.14736
v 0.35889 -0.32723 -0.01004
v 0.27398 -0.69537 -0.14736
v 0.39108 -0.65274 0.03611
v 0.19017 -0.73651 -0.01058
v 0.24287 -0.71733 0.07199
v 0.19017 -0.73651 -0.01058
v 0.39108 -0.65274 0.03611
v 0.14388 0.01905 -0.02789
v 0.11932 0.02963 0.08202
v 0.32669 -0.00172 -0.05619
v 0.27212 0.02180 0.18806
v 0.32669 -0.00172 -0.05619
v 0.11932 0.02963 0.08202
v 0.32669 -0.00172 -0.05619
v 0.27212 0.02180 0.18806
v 0.35889 -0.32723 -0.01004
v 0.30752 -0.30509 0.21984
v 0.35889 -0.32723 -0.01004
v 0.27212 0.02180 0.18806
v 0.35889 -0.32723 -0.01004
v 0.30752 -0.30509 0.21984
v 0.39108 -0.65274 0.03611
v 0.34293 -0.63198 0.25162
v 0.39108 -0.65274 0.03611
v 0.30752 -0.30509 0.21984
v 0.39108 -0.65274 0.03611
v 0.34293 -0.63198 0.25162
v 0.24287 -0.71733 0.07199
v 0.22120 -0.70799 0.16896
v 0.24287 -0.71733 0.07199
v 0.34293 -0.63198 0.25162
v 0.11932 0.02963 0.08202
v 0.02487 0.02286 0.14388
v 0.27212 0.02180 0.18806
v 0.06221 0.00675 0.32553
v 0.27212 0.02180 0.18806
v 0.02487 0.02286 0.14388
v 0.27212 0.02180 0.18806
v 0.06221 0.00675 0.32553
v 0.30752 -0.30509 0.21984
v 0.10996 -0.31926 0.34923
v 0.30752 -0.30509 0.21984
v 0.06221 0.00675 0.32553
v 0.30752 -0.30509 0.21984
v 0.10996 -0.31926 0.34923
v 0.34293 -0.63198 0.25162
v 0.15772 -0.64527 0.37292
v 0.34293 -0.63198 0.25162
v 0.10996 -0.31926 0.34923
v 0.34293 -0.63198 0.25162
v 0.15772 -0.64527 0.37292
v 0.22120 -0.70799 0.16896
v 0.13786 -0.71397 0.22355
v 0.22120 -0.70799 0.16896
v 0.15772 -0.64527 0.37292
v 0.02487 0.02286 0.14388
v -0.08416 0.00269 0.12146
v 0.06221 0.00675 0.32553
v -0.18006 -0.03806 0.27571
v 0.06221 0.00675 0.32553
v -0.08416 0.00269 0.12146
v 0.06221 0.00675 0.32553
v -0.18006 -0.03806 0.27571
v 0.10996 -0.31926 0.34923
v -0.11806 -0.36143 0.30234
v 0.10996 -0.31926 0.34923
v -0.18006 -0.03806 0.27571
v 0.10996 -0.31926 0.34923
v -0.11806 -0.36143 0.30234
v 0.15772 -0.64527 0.37292
v -0.05605 -0.68480 0.32896
v 0.15772 -0.64527 0.37292
v -0.11806 -0.36143 0.30234
v 0.15772 -0.64527 0.37292
v -0.05605 -0.68480 0.32896
v 0.13786 -0.71397 0.22355
v 0.04166 -0.73176 0.20377
v 0.13786 -0.71397 0.22355
v -0.05605 -0.68480 0.32896
v -0.08416 0.00269 0.12146
v -0.14388 -0.01905 0.02789
v -0.18006 -0.03806 0.27571
v -0.31278 -0.08638 0.06778
v -0.18006 -0.03806 0.27571
v -0.14388 -0.01905 0.02789
v -0.18006 -0.03806 0.27571
v -0.31278 -0.08638 0.06778
v -0.11806 -0.36143 0.30234
v -0.24297 -0.40691 0.10663
v -0.11806 -0.36143 0.30234
v -0.31278 -0.08638 0.06778
v -0.11806 -0.36143 0.30234
v -0.24297 -0.40691 0.10663
v -0.05605 -0.68480 0.32896
v -0.17316 -0.72744 0.14549
v -0.05605 -0.68480 0.32896
v -0.24297 -0.40691 0.10663
v -0.05605 -0.68480 0.32896
v -0.17316 -0.72744 0.14549
v 0.04166 -0.73176 0.20377
v -0.01104 -0.75094 0.12121
v 0.04166 -0.73176 0.20377
v -0.17316 -0.72744 0.14549
vn -0.40010 0.89941 -0.17601
vn -0.40010 0.89941 -0.17601
vn -0.40010 0.89941 -0.17601
vn -0.40010 0.89941 -0.17601
vn -0.40010 0.89941 -0.17601
vn -0.40010 0.89941 -0.17601
vn -0.95405 -0.23094 -0.19095
vn -0.95405 -0.23094 -0.19095
vn -0.95405 -0.23094 -0.19095
vn -0.95405 -0.23094 -0.19095
vn -0.95405 -0.23094 -0.19095
vn -0.95405 -0.23094 -0.19095
vn -0.95405 -0.23094 -0.19095
vn -0.95405 -0.23094 -0.19095
vn -0.95405 -0.23094 -0.19095
vn -0.95405 -0.23094 -0.19095
vn -0.95405 -0.23094 -0.19095
vn -0.95405 -0.23094 -0.19095
vn -0.13358 -0.98888 0.06538
vn -0.13358 -0.98888 0.06538
vn -0.13358 -0.98888 0.06538
vn -0.13358 -0.98888 0.06538
vn -0.13358 -0.98888 0.06538
vn -0.13358 -0.98888 0.06538
vn -0.28671 0.89578 -0.33967
vn -0.28671 0.89578 -0.33967
vn -0.28671 0.89578 -0.33967
vn -0.28671 0.89578 -0.33967
vn -0.28671 0.89578 -0.33967
vn -0.28671 0.89578 -0.33967
vn -0.51886 -0.24487 -0.81904
vn -0.51886 -0.24487 -0.81904
vn -0.51886 -0.24487 -0.81904
vn -0.51886 -0.24487 -0.81904
vn -0.51886 -0.24487 -0.81904
vn -0.51886 -0.24487 -0.81904
vn -0.51886 -0.24487 -0.81904
vn -0.51886 -0.24487 -0.81904
vn -0.51886 -0.24487 -0.81904
vn -0.51886 -0.24487 -0.81904
vn -0.51886 -0.24487 -0.81904
vn -0.51886 -0.24487 -0.81904
vn -0.00629 -0.99295 -0.11834
vn -0.00629 -0.99295 -0.11834
vn -0.00629 -0.99295 -0.11834
vn -0.00629 -0.99295 -0.11834
vn -0.00629 -0.99295 -0.11834
vn -0.00629 -0.99295 -0.11834
vn -0.09285 0.92145 -0.37725
vn -0.09285 0.92145 -0.37725
vn -0.09285 0.92145 -0.37725
vn -0.09285 0.92145 -0.37725
vn -0.09285 0.92145 -0.37725
vn -0.09285 0.92145 -0.37725
vn 0.22516 -0.14637 -0.96326
vn 0.22516 -0.14637 -0.96326
vn 0.22516 -0.14637 -0.96326
vn 0.22516 -0.14637 -0.96326
vn 0.22516 -0.14637 -0.96326
vn 0.22516 -0.14637 -0.96326
vn 0.22516 -0.14637 -0.96326
vn 0.22516 -0.14637 -0.96326
vn 0.22516 -0.14637 -0.96326
vn 0.22516 -0.14637 -0.96326
vn 0.22516 -0.14637 -0.96326
vn 0.22516 -0.14637 -0.96326
vn 0.21133 -0.96414 -0.16053
vn 0.21133 -0.96414 -0.16053
vn 0.21133 -0.96414 -0.16053
vn 0.21133 -0.96414 -0.16053
vn 0.21133 -0.96414 -0.16053
vn 0.21133 -0.96414 -0.16053
vn 0.06793 0.96137 -0.26674
vn 0.06793 0.96137 -0.26674
vn 0.06793 0.96137 -0.26674
vn 0.06793 0.96137 -0.26674
vn 0.06793 0.96137 -0.26674
vn 0.06793 0.96137 -0.26674
vn 0.84218 0.00686 -0.53915
vn 0.84218 0.00686 -0.53915
vn 0.84218 0.00686 -0.53915
vn 0.84218 0.00686 -0.53915
vn 0.84218 0.00686 -0.53915
vn 0.84218 0.00686 -0.53915
vn 0.84218 0.00686 -0.53915
vn 0.84218 0.00686 -0.53915
vn 0.84218 0.00686 -0.53915
vn 0.84218 0.00686 -0.53915
vn 0.84218 0.00686 -0.53915
vn 0.84218 0.00686 -0.53915
vn 0.39181 -0.91932 -0.03647
vn 0.39181 -0.91932 -0.03647
vn 0.39181 -0.91932 -0.03647
vn 0.39181 -0.91932 -0.03647
vn 0.39181 -0.91932 -0.03647
vn 0.39181 -0.91932 -0.03647
vn 0.10143 0.99217 -0.07288
vn 0.10143 0.99217 -0.07288
vn 0.10143 0.99217 -0.07288
vn 0.10143 0.99217 -0.07288
vn 0.10143 0.99217 -0.07288
vn 0.10143 0.99217 -0.07288
vn 0.97076 0.12506 0.20488
vn 0.97076 0.12506 0.20488
vn 0.97076 0.12506 0.20488
vn 0.97076 0.12506 0.20488
vn 0.97076 0.12506 0.20488
vn 0.97076 0.12506 0.20488
vn 0.97076 0.12506 0.20488
vn 0.97076 0.12506 0.20488
vn 0.97076 0.12506 0.20488
vn 0.97076 0.12506 0.20488
vn 0.97076 0.12506 0.20488
vn 0.97076 0.12506 0.20488
vn 0.42942 -0.88475 0.18115
vn 0.42942 -0.88475 0.18115
vn 0.42942 -0.88475 0.18115
vn 0.42942 -0.88475 0.18115
vn 0.42942 -0.88475 0.18115
vn 0.42942 -0.88475 0.18115
vn -0.01196 0.99580 0.09078
vn -0.01196 0.99580 0.09078
vn -0.01196 0.99580 0.09078
vn -0.01196 0.99580 0.09078
vn -0.01196 0.99580 0.09078
vn -0.01196 0.99580 0.09078
vn 0.53558 0.13899 0.83297
vn 0.53558 0.13899 0.83297
vn 0.53558 0.13899 0.83297
vn 0.53558 0.13899 0.83297
vn 0.53558 0.13899 0.83297
vn 0.53558 0.13899 0.83297
vn 0.53558 0.13899 0.83297
vn 0.53558 0.13899 0.83297
vn 0.53558 0.13899 0.83297
vn 0.53558 0.13899 0.83297
vn 0.53558 0.13899 0.83297
vn 0.53558 0.13899 0.83297
vn 0.30213 -0.88067 0.36487
vn 0.30213 -0.88067 0.36487
vn 0.30213 -0.88067 0.36487
vn 0.30213 -0.88067 0.36487
vn 0.30213 -0.88067 0.36487
vn 0.30213 -0.88067 0.36487
vn -0.20583 0.97013 0.12836
vn -0.20583 0.97013 0.12836
vn -0.20583 0.97013 0.12836
vn -0.20583 0.97013 0.12836
vn -0.20583 0.97013 0.12836
vn -0.20583 0.97013 0.12836
vn -0.20844 0.04049 0.97720
vn -0.20844 0.04049 0.97720
vn -0.20844 0.04049 0.97720
vn -0.20844 0.04049 0.97720
vn -0.20844 0.04049 0.97720
vn -0.20844 0.04049 0.97720
vn -0.20844 0.04049 0.97720
vn -0.20844 0.04049 0.97720
vn -0.20844 0.04049 0.97720
vn -0.20844 0.04049 0.97720
vn -0.20844 0.04049 0.97720
vn -0.20844 0.04049 0.97720
vn 0.08450 -0.90949 0.40706
vn 0.08450 -0.90949 0.40706
vn 0.08450 -0.90949 0.40706
vn 0.08450 -0.90949 0.40706
vn 0.08450 -0.90949 0.40706
vn 0.08450 -0.90949 0.40706
vn -0.36660 0.93021 0.01785
vn -0.36660 0.93021 0.01785
vn -0.36660 0.93021 0.01785
vn -0.36660 0.93021 0.01785
vn -0.36660 0.93021 0.01785
vn -0.36660 0.93021 0.01785
vn -0.82547 -0.11274 0.55308
vn -0.82547 -0.11274 0.55308
vn -0.82547 -0.11274 0.55308
vn -0.82547 -0.11274 0.55308
vn -0.82547 -0.11274 0.55308
vn -0.82547 -0.11274 0.55308
vn -0.82547 -0.11274 0.55308
vn -0.82547 -0.11274 0.55308
vn -0.82547 -0.11274 0.55308
vn -0.82547 -0.11274 0.55308
vn -0.82547 -0.11274 0.55308
vn -0.82547 -0.11274 0.55308
vn -0.09597 -0.95431 0.28300
vn -0.09597 -0.95431 0.28300
vn -0.09597 -0.95431 0.28300
vn -0.09597 -0.95431 0.28300
vn -0.09597 -0.95431 0.28300
vn -0.09597 -0.95431 0.28300
usemtl hide_swamp_green
f 1//1 2//2 3//3
f 4//4 5//5 6//6
f 7//7 8//8 9//9
f 10//10 11//11 12//12
f 13//13 14//14 15//15
f 16//16 17//17 18//18
f 19//19 20//20 21//21
f 22//22 23//23 24//24
f 25//25 26//26 27//27
f 28//28 29//29 30//30
f 31//31 32//32 33//33
f 34//34 35//35 36//36
f 37//37 38//38 39//39
f 40//40 41//41 42//42
f 43//43 44//44 45//45
f 46//46 47//47 48//48
f 49//49 50//50 51//51
f 52//52 53//53 54//54
f 55//55 56//56 57//57
f 58//58 59//59 60//60
f 61//61 62//62 63//63
f 64//64 65//65 66//66
f 67//67 68//68 69//69
f 70//70 71//71 72//72
f 73//73 74//74 75//75
f 76//76 77//77 78//78
f 79//79 80//80 81//81
f 82//82 83//83 84//84
f 85//85 86//86 87//87
f 88//88 89//89 90//90
f 91//91 92//92 93//93
f 94//94 95//95 96//96
f 97//97 98//98 99//99
f 100//100 101//101 102//102
f 103//103 104//104 105//105
f 106//106 107//107 108//108
f 109//109 110//110 111//111
f 112//112 113//113 114//114
f 115//115 116//116 117//117
f 118//118 119//119 120//120
f 121//121 122//122 123//123
f 124//124 125//125 126//126
f 127//127 128//128 129//129
f 130//130 131//131 132//132
f 133//133 134//134 135//135
f 136//136 137//137 138//138
f 139//139 140//140 141//141
f 142//142 143//143 144//144
f 145//145 146//146 147//147
f 148//148 149//149 150//150
f 151//151 152//152 153//153
f 154//154 155//155 156//156
f 157//157 158//158 159//159
f 160//160 161//161 162//162
f 163//163 164//164 165//165
f 166//166 167//167 168//168
f 169//169 170//170 171//171
f 172//172 173//173 174//174
f 175//175 176//176 177//177
f 178//178 179//179 180//180
f 181//181 182//182 183//183
f 184//184 185//185 186//186
f 187//187 188//188 189//189
f 190//190 191//191 192//192
o leg_lower_R
v 0.02277 -0.70638 0.00966
v 0.11403 -0.70610 -0.03075
v -0.09456 -0.70956 -0.10472
v 0.10825 -0.70893 -0.19450
v -0.09456 -0.70956 -0.10472
v 0.11403 -0.70610 -0.03075
v -0.09456 -0.70956 -0.10472
v 0.10825 -0.70893 -0.19450
v -0.09936 -0.98774 -0.14490
v 0.08317 -0.98718 -0.22571
v -0.09936 -0.98774 -0.14490
v 0.10825 -0.70893 -0.19450
v -0.09936 -0.98774 -0.14490
v 0.08317 -0.98718 -0.22571
v -0.10416 -1.26592 -0.18509
v 0.05809 -1.26542 -0.25691
v -0.10416 -1.26592 -0.18509
v 0.08317 -0.98718 -0.22571
v -0.10416 -1.26592 -0.18509
v 0.05809 -1.26542 -0.25691
v -0.01656 -1.33015 -0.10819
v 0.05645 -1.32993 -0.14051
v -0.01656 -1.33015 -0.10819
v 0.05809 -1.26542 -0.25691
v 0.11403 -0.70610 -0.03075
v 0.20640 -0.72224 0.00345
v 0.10825 -0.70893 -0.19450
v 0.31352 -0.74480 -0.11851
v 0.10825 -0.70893 -0.19450
v 0.20640 -0.72224 0.00345
v 0.10825 -0.70893 -0.19450
v 0.31352 -0.74480 -0.11851
v 0.08317 -0.98718 -0.22571
v 0.26791 -1.01946 -0.15732
v 0.08317 -0.98718 -0.22571
v 0.31352 -0.74480 -0.11851
v 0.08317 -0.98718 -0.22571
v 0.26791 -1.01946 -0.15732
v 0.05809 -1.26542 -0.25691
v 0.22230 -1.29412 -0.19612
v 0.05809 -1.26542 -0.25691
v 0.26791 -1.01946 -0.15732
v 0.05809 -1.26542 -0.25691
v 0.22230 -1.29412 -0.19612
v 0.05645 -1.32993 -0.14051
v 0.13035 -1.34284 -0.11316
v 0.05645 -1.32993 -0.14051
v 0.22230 -1.29412 -0.19612
v 0.20640 -0.72224 0.00345
v 0.24576 -0.74535 0.09221
v 0.31352 -0.74480 -0.11851
v 0.40099 -0.79615 0.07873
v 0.31352 -0.74480 -0.11851
v 0.24576 -0.74535 0.09221
v 0.31352 -0.74480 -0.11851
v 0.40099 -0.79615 0.07873
v 0.26791 -1.01946 -0.15732
v 0.34663 -1.06567 0.02020
v 0.26791 -1.01946 -0.15732
v 0.40099 -0.79615 0.07873
v 0.26791 -1.01946 -0.15732
v 0.34663 -1.06567 0.02020
v 0.22230 -1.29412 -0.19612
v 0.29228 -1.33519 -0.03833
v 0.22230 -1.29412 -0.19612
v 0.34663 -1.06567 0.02020
v 0.22230 -1.29412 -0.19612
v 0.29228 -1.33519 -0.03833
v 0.13035 -1.34284 -0.11316
v 0.16184 -1.36132 -0.04215
v 0.13035 -1.34284 -0.11316
v 0.29228 -1.33519 -0.03833
v 0.24576 -0.74535 0.09221
v 0.20906 -0.76188 0.18354
v 0.40099 -0.79615 0.07873
v 0.31944 -0.83290 0.28169
v 0.40099 -0.79615 0.07873
v 0.20906 -0.76188 0.18354
v 0.40099 -0.79615 0.07873
v 0.31944 -0.83290 0.28169
v 0.34663 -1.06567 0.02020
v 0.27323 -1.09875 0.20286
v 0.34663 -1.06567 0.02020
v 0.31944 -0.83290 0.28169
v 0.34663 -1.06567 0.02020
v 0.27323 -1.09875 0.20286
v 0.29228 -1.33519 -0.03833
v 0.22703 -1.36459 0.12404
v 0.29228 -1.33519 -0.03833
v 0.27323 -1.09875 0.20286
v 0.29228 -1.33519 -0.03833
v 0.22703 -1.36459 0.12404
v 0.16184 -1.36132 -0.04215
v 0.13248 -1.37455 0.03091
v 0.16184 -1.36132 -0.04215
v 0.22703 -1.36459 0.12404
v 0.20906 -0.76188 0.18354
v 0.11780 -0.76217 0.22394
v 0.31944 -0.83290 0.28169
v 0.11662 -0.83352 0.37147
v 0.31944 -0.83290 0.28169
v 0.11780 -0.76217 0.22394
v 0.31944 -0.83290 0.28169
v 0.11662 -0.83352 0.37147
v 0.27323 -1.09875 0.20286
v 0.09070 -1.09931 0.28366
v 0.27323 -1.09875 0.20286
v 0.11662 -0.83352 0.37147
v 0.27323 -1.09875 0.20286
v 0.09070 -1.09931 0.28366
v 0.22703 -1.36459 0.12404
v 0.06478 -1.36509 0.19586
v 0.22703 -1.36459 0.12404
v 0.09070 -1.09931 0.28366
v 0.22703 -1.36459 0.12404
v 0.06478 -1.36509 0.19586
v 0.13248 -1.37455 0.03091
v 0.05946 -1.37478 0.06324
v 0.13248 -1.37455 0.03091
v 0.06478 -1.36509 0.19586
v 0.11780 -0.76217 0.22394
v 0.02543 -0.74603 0.18975
v 0.11662 -0.83352 0.37147
v -0.08864 -0.79766 0.29548
v 0.11662 -0.83352 0.37147
v 0.02543 -0.74603 0.18975
v 0.11662 -0.83352 0.37147
v -0.08864 -0.79766 0.29548
v 0.09070 -1.09931 0.28366
v -0.09403 -1.06703 0.21528
v 0.09070 -1.09931 0.28366
v -0.08864 -0.79766 0.29548
v 0.09070 -1.09931 0.28366
v -0.09403 -1.06703 0.21528
v 0.06478 -1.36509 0.19586
v -0.09943 -1.33640 0.13507
v 0.06478 -1.36509 0.19586
v -0.09403 -1.06703 0.21528
v 0.06478 -1.36509 0.19586
v -0.09943 -1.33640 0.13507
v 0.05946 -1.37478 0.06324
v -0.01443 -1.36187 0.03588
v 0.05946 -1.37478 0.06324
v -0.09943 -1.33640 0.13507
v 0.02543 -0.74603 0.18975
v -0.01393 -0.72292 0.10099
v -0.08864 -0.79766 0.29548
v -0.17611 -0.74631 0.09824
v -0.08864 -0.79766 0.29548
v -0.01393 -0.72292 0.10099
v -0.08864 -0.79766 0.29548
v -0.17611 -0.74631 0.09824
v -0.09403 -1.06703 0.21528
v -0.17276 -1.02082 0.03776
v -0.09403 -1.06703 0.21528
v -0.17611 -0.74631 0.09824
v -0.09403 -1.06703 0.21528
v -0.17276 -1.02082 0.03776
v -0.09943 -1.33640 0.13507
v -0.16941 -1.29532 -0.02272
v -0.09943 -1.33640 0.13507
v -0.17276 -1.02082 0.03776
v -0.09943 -1.33640 0.13507
v -0.16941 -1.29532 -0.02272
v -0.01443 -1.36187 0.03588
v -0.04592 -1.34338 -0.03513
v -0.01443 -1.36187 0.03588
v -0.16941 -1.29532 -0.02272
v -0.01393 -0.72292 0.10099
v 0.02277 -0.70638 0.00966
v -0.17611 -0.74631 0.09824
v -0.09456 -0.70956 -0.10472
v -0.17611 -0.74631 0.09824
v 0.02277 -0.70638 0.00966
v -0.17611 -0.74631 0.09824
v -0.09456 -0.70956 -0.10472
v -0.17276 -1.02082 0.03776
v -0.09936 -0.98774 -0.14490
v -0.17276 -1.02082 0.03776
v -0.09456 -0.70956 -0.10472
v -0.17276 -1.02082 0.03776
v -0.09936 -0.98774 -0.14490
v -0.16941 -1.29532 -0.02272
v -0.10416 -1.26592 -0.18509
v -0.16941 -1.29532 -0.02272
v -0.09936 -0.98774 -0.14490
v -0.16941 -1.29532 -0.02272
v -0.10416 -1.26592 -0.18509
v -0.04592 -1.34338 -0.03513
v -0.01656 -1.33015 -0.10819
v -0.04592 -1.34338 -0.03513
v -0.10416 -1.26592 -0.18509
vn -0.01057 0.99980 -0.01691
vn -0.01057 0.99980 -0.01691
vn -0.01057 0.99980 -0.01691
vn -0.01057 0.99980 -0.01691
vn -0.01057 0.99980 -0.01691
vn -0.01057 0.99980 -0.01691
vn -0.40129 0.13773 -0.90554
vn -0.40129 0.13773 -0.90554
vn -0.40129 0.13773 -0.90554
vn -0.40129 0.13773 -0.90554
vn -0.40129 0.13773 -0.90554
vn -0.40129 0.13773 -0.90554
vn -0.40129 0.13773 -0.90554
vn -0.40129 0.13773 -0.90554
vn -0.40129 0.13773 -0.90554
vn -0.40129 0.13773 -0.90554
vn -0.40129 0.13773 -0.90554
vn -0.40129 0.13773 -0.90554
vn -0.20822 -0.85426 -0.47632
vn -0.20822 -0.85426 -0.47632
vn -0.20822 -0.85426 -0.47632
vn -0.20822 -0.85426 -0.47632
vn -0.20822 -0.85426 -0.47632
vn -0.20822 -0.85426 -0.47632
vn 0.18046 0.98330 -0.02337
vn 0.18046 0.98330 -0.02337
vn 0.18046 0.98330 -0.02337
vn 0.18046 0.98330 -0.02337
vn 0.18046 0.98330 -0.02337
vn 0.18046 0.98330 -0.02337
vn 0.35734 0.07222 -0.93118
vn 0.35734 0.07222 -0.93118
vn 0.35734 0.07222 -0.93118
vn 0.35734 0.07222 -0.93118
vn 0.35734 0.07222 -0.93118
vn 0.35734 0.07222 -0.93118
vn 0.35734 0.07222 -0.93118
vn 0.35734 0.07222 -0.93118
vn 0.35734 0.07222 -0.93118
vn 0.35734 0.07222 -0.93118
vn 0.35734 0.07222 -0.93118
vn 0.35734 0.07222 -0.93118
vn 0.02646 -0.87453 -0.48425
vn 0.02646 -0.87453 -0.48425
vn 0.02646 -0.87453 -0.48425
vn 0.02646 -0.87453 -0.48425
vn 0.02646 -0.87453 -0.48425
vn 0.02646 -0.87453 -0.48425
vn 0.31751 0.94248 0.10454
vn 0.31751 0.94248 0.10454
vn 0.31751 0.94248 0.10454
vn 0.31751 0.94248 0.10454
vn 0.31751 0.94248 0.10454
vn 0.31751 0.94248 0.10454
vn 0.90155 -0.08991 -0.42323
vn 0.90155 -0.08991 -0.42323
vn 0.90155 -0.08991 -0.42323
vn 0.90155 -0.08991 -0.42323
vn 0.90155 -0.08991 -0.42323
vn 0.90155 -0.08991 -0.42323
vn 0.90155 -0.08991 -0.42323
vn 0.90155 -0.08991 -0.42323
vn 0.90155 -0.08991 -0.42323
vn 0.90155 -0.08991 -0.42323
vn 0.90155 -0.08991 -0.42323
vn 0.90155 -0.08991 -0.42323
vn 0.19481 -0.92468 -0.32712
vn 0.19481 -0.92468 -0.32712
vn 0.19481 -0.92468 -0.32712
vn 0.19481 -0.92468 -0.32712
vn 0.19481 -0.92468 -0.32712
vn 0.19481 -0.92468 -0.32712
vn 0.32028 0.90123 0.29189
vn 0.32028 0.90123 0.29189
vn 0.32028 0.90123 0.29189
vn 0.32028 0.90123 0.29189
vn 0.32028 0.90123 0.29189
vn 0.32028 0.90123 0.29189
vn 0.91255 -0.25369 0.32076
vn 0.91255 -0.25369 0.32076
vn 0.91255 -0.25369 0.32076
vn 0.91255 -0.25369 0.32076
vn 0.91255 -0.25369 0.32076
vn 0.91255 -0.25369 0.32076
vn 0.91255 -0.25369 0.32076
vn 0.91255 -0.25369 0.32076
vn 0.91255 -0.25369 0.32076
vn 0.91255 -0.25369 0.32076
vn 0.91255 -0.25369 0.32076
vn 0.91255 -0.25369 0.32076
vn 0.19822 -0.97535 -0.09696
vn 0.19822 -0.97535 -0.09696
vn 0.19822 -0.97535 -0.09696
vn 0.19822 -0.97535 -0.09696
vn 0.19822 -0.97535 -0.09696
vn 0.19822 -0.97535 -0.09696
vn 0.18715 0.88374 0.42893
vn 0.18715 0.88374 0.42893
vn 0.18715 0.88374 0.42893
vn 0.18715 0.88374 0.42893
vn 0.18715 0.88374 0.42893
vn 0.18715 0.88374 0.42893
vn 0.38391 -0.32318 0.86497
vn 0.38391 -0.32318 0.86497
vn 0.38391 -0.32318 0.86497
vn 0.38391 -0.32318 0.86497
vn 0.38391 -0.32318 0.86497
vn 0.38391 -0.32318 0.86497
vn 0.38391 -0.32318 0.86497
vn 0.38391 -0.32318 0.86497
vn 0.38391 -0.32318 0.86497
vn 0.38391 -0.32318 0.86497
vn 0.38391 -0.32318 0.86497
vn 0.38391 -0.32318 0.86497
vn 0.03468 -0.99685 0.07139
vn 0.03468 -0.99685 0.07139
vn 0.03468 -0.99685 0.07139
vn 0.03468 -0.99685 0.07139
vn 0.03468 -0.99685 0.07139
vn 0.03468 -0.99685 0.07139
vn -0.00388 0.90023 0.43539
vn -0.00388 0.90023 0.43539
vn -0.00388 0.90023 0.43539
vn -0.00388 0.90023 0.43539
vn -0.00388 0.90023 0.43539
vn -0.00388 0.90023 0.43539
vn -0.37472 -0.25767 0.89061
vn -0.37472 -0.25767 0.89061
vn -0.37472 -0.25767 0.89061
vn -0.37472 -0.25767 0.89061
vn -0.37472 -0.25767 0.89061
vn -0.37472 -0.25767 0.89061
vn -0.37472 -0.25767 0.89061
vn -0.37472 -0.25767 0.89061
vn -0.37472 -0.25767 0.89061
vn -0.37472 -0.25767 0.89061
vn -0.37472 -0.25767 0.89061
vn -0.37472 -0.25767 0.89061
vn -0.20000 -0.97658 0.07932
vn -0.20000 -0.97658 0.07932
vn -0.20000 -0.97658 0.07932
vn -0.20000 -0.97658 0.07932
vn -0.20000 -0.97658 0.07932
vn -0.20000 -0.97658 0.07932
vn -0.14092 0.94106 0.30748
vn -0.14092 0.94106 0.30748
vn -0.14092 0.94106 0.30748
vn -0.14092 0.94106 0.30748
vn -0.14092 0.94106 0.30748
vn -0.14092 0.94106 0.30748
vn -0.91893 -0.09553 0.38267
vn -0.91893 -0.09553 0.38267
vn -0.91893 -0.09553 0.38267
vn -0.91893 -0.09553 0.38267
vn -0.91893 -0.09553 0.38267
vn -0.91893 -0.09553 0.38267
vn -0.91893 -0.09553 0.38267
vn -0.91893 -0.09553 0.38267
vn -0.91893 -0.09553 0.38267
vn -0.91893 -0.09553 0.38267
vn -0.91893 -0.09553 0.38267
vn -0.91893 -0.09553 0.38267
vn -0.36836 -0.92642 -0.07781
vn -0.36836 -0.92642 -0.07781
vn -0.36836 -0.92642 -0.07781
vn -0.36836 -0.92642 -0.07781
vn -0.36836 -0.92642 -0.07781
vn -0.36836 -0.92642 -0.07781
vn -0.14369 0.98230 0.12013
vn -0.14369 0.98230 0.12013
vn -0.14369 0.98230 0.12013
vn -0.14369 0.98230 0.12013
vn -0.14369 0.98230 0.12013
vn -0.14369 0.98230 0.12013
vn -0.92994 0.06824 -0.36132
vn -0.92994 0.06824 -0.36132
vn -0.92994 0.06824 -0.36132
vn -0.92994 0.06824 -0.36132
vn -0.92994 0.06824 -0.36132
vn -0.92994 0.06824 -0.36132
vn -0.92994 0.06824 -0.36132
vn -0.92994 0.06824 -0.36132
vn -0.92994 0.06824 -0.36132
vn -0.92994 0.06824 -0.36132
vn -0.92994 0.06824 -0.36132
vn -0.92994 0.06824 -0.36132
vn -0.37176 -0.87576 -0.30797
vn -0.37176 -0.87576 -0.30797
vn -0.37176 -0.87576 -0.30797
vn -0.37176 -0.87576 -0.30797
vn -0.37176 -0.87576 -0.30797
vn -0.37176 -0.87576 -0.30797
usemtl hide_swamp_green
f 193//193 194//194 195//195
f 196//196 197//197 198//198
f 199//199 200//200 201//201
f 202//202 203//203 204//204
f 205//205 206//206 207//207
f 208//208 209//209 210//210
f 211//211 212//212 213//213
f 214//214 215//215 216//216
f 217//217 218//218 219//219
f 220//220 221//221 222//222
f 223//223 224//224 225//225
f 226//226 227//227 228//228
f 229//229 230//230 231//231
f 232//232 233//233 234//234
f 235//235 236//236 237//237
f 238//238 239//239 240//240
f 241//241 242//242 243//243
f 244//244 245//245 246//246
f 247//247 248//248 249//249
f 250//250 251//251 252//252
f 253//253 254//254 255//255
f 256//256 257//257 258//258
f 259//259 260//260 261//261
f 262//262 263//263 264//264
f 265//265 266//266 267//267
f 268//268 269//269 270//270
f 271//271 272//272 273//273
f 274//274 275//275 276//276
f 277//277 278//278 279//279
f 280//280 281//281 282//282
f 283//283 284//284 285//285
f 286//286 287//287 288//288
f 289//289 290//290 291//291
f 292//292 293//293 294//294
f 295//295 296//296 297//297
f 298//298 299//299 300//300
f 301//301 302//302 303//303
f 304//304 305//305 306//306
f 307//307 308//308 309//309
f 310//310 311//311 312//312
f 313//313 314//314 315//315
f 316//316 317//317 318//318
f 319//319 320//320 321//321
f 322//322 323//323 324//324
f 325//325 326//326 327//327
f 328//328 329//329 330//330
f 331//331 332//332 333//333
f 334//334 335//335 336//336
f 337//337 338//338 339//339
f 340//340 341//341 342//342
f 343//343 344//344 345//345
f 346//346 347//347 348//348
f 349//349 350//350 351//351
f 352//352 353//353 354//354
f 355//355 356//356 357//357
f 358//358 359//359 360//360
f 361//361 362//362 363//363
f 364//364 365//365 366//366
f 367//367 368//368 369//369
f 370//370 371//371 372//372
f 373//373 374//374 375//375
f 376//376 377//377 378//378
f 379//379 380//380 381//381
f 382//382 383//383 384//384
o leg_joint_R
v 0.11592 -0.40088 0.09660
v -0.05071 -0.44552 0.09660
v -0.00191 -0.44552 0.21442
v 0.11592 -0.40088 0.09660
v -0.00191 -0.44552 0.21442
v 0.11592 -0.44552 0.26323
v 0.11592 -0.40088 0.09660
v 0.11592 -0.44552 0.26323
v 0.23374 -0.44552 0.21442
v 0.11592 -0.40088 0.09660
v 0.23374 -0.44552 0.21442
v 0.28254 -0.44552 0.09660
v 0.11592 -0.40088 0.09660
v 0.28254 -0.44552 0.09660
v 0.23374 -0.44552 -0.02123
v 0.11592 -0.40088 0.09660
v 0.23374 -0.44552 -0.02123
v 0.11592 -0.44552 -0.07003
v 0.11592 -0.40088 0.09660
v 0.11592 -0.44552 -0.07003
v -0.00191 -0.44552 -0.02123
v 0.11592 -0.40088 0.09660
v -0.00191 -0.44552 -0.02123
v -0.05071 -0.44552 0.09660
v -0.00191 -0.44552 0.21442
v -0.05071 -0.44552 0.09660
v -0.08816 -0.56750 0.30067
v -0.05071 -0.44552 0.09660
v -0.17269 -0.56750 0.09660
v -0.08816 -0.56750 0.30067
v 0.11592 -0.44552 0.26323
v -0.00191 -0.44552 0.21442
v 0.11592 -0.56750 0.38521
v -0.00191 -0.44552 0.21442
v -0.08816 -0.56750 0.30067
v 0.11592 -0.56750 0.38521
v 0.23374 -0.44552 0.21442
v 0.11592 -0.44552 0.26323
v 0.31999 -0.56750 0.30067
v 0.11592 -0.44552 0.26323
v 0.11592 -0.56750 0.38521
v 0.31999 -0.56750 0.30067
v 0.28254 -0.44552 0.09660
v 0.23374 -0.44552 0.21442
v 0.40453 -0.56750 0.09660
v 0.23374 -0.44552 0.21442
v 0.31999 -0.56750 0.30067
v 0.40453 -0.56750 0.09660
v 0.23374 -0.44552 -0.02123
v 0.28254 -0.44552 0.09660
v 0.31999 -0.56750 -0.10748
v 0.28254 -0.44552 0.09660
v 0.40453 -0.56750 0.09660
v 0.31999 -0.56750 -0.10748
v 0.11592 -0.44552 -0.07003
v 0.23374 -0.44552 -0.02123
v 0.11592 -0.56750 -0.19201
v 0.23374 -0.44552 -0.02123
v 0.31999 -0.56750 -0.10748
v 0.11592 -0.56750 -0.19201
v -0.00191 -0.44552 -0.02123
v 0.11592 -0.44552 -0.07003
v -0.08816 -0.56750 -0.10748
v 0.11592 -0.44552 -0.07003
v 0.11592 -0.56750 -0.19201
v -0.08816 -0.56750 -0.10748
v -0.05071 -0.44552 0.09660
v -0.00191 -0.44552 -0.02123
v -0.17269 -0.56750 0.09660
v -0.00191 -0.44552 -0.02123
v -0.08816 -0.56750 -0.10748
v -0.17269 -0.56750 0.09660
v -0.08816 -0.56750 0.30067
v -0.17269 -0.56750 0.09660
v -0.11973 -0.73413 0.33225
v -0.17269 -0.56750 0.09660
v -0.21734 -0.73413 0.09660
v -0.11973 -0.73413 0.33225
v 0.11592 -0.56750 0.38521
v -0.08816 -0.56750 0.30067
v 0.11592 -0.73413 0.42985
v -0.08816 -0.56750 0.30067
v -0.11973 -0.73413 0.33225
v 0.11592 -0.73413 0.42985
v 0.31999 -0.56750 0.30067
v 0.11592 -0.56750 0.38521
v 0.35156 -0.73413 0.33225
v 0.11592 -0.56750 0.38521
v 0.11592 -0.73413 0.42985
v 0.35156 -0.73413 0.33225
v 0.40453 -0.56750 0.09660
v 0.31999 -0.56750 0.30067
v 0.44917 -0.73413 0.09660
v 0.31999 -0.56750 0.30067
v 0.35156 -0.73413 0.33225
v 0.44917 -0.73413 0.09660
v 0.31999 -0.56750 -0.10748
v 0.40453 -0.56750 0.09660
v 0.35156 -0.73413 -0.13905
v 0.40453 -0.56750 0.09660
v 0.44917 -0.73413 0.09660
v 0.35156 -0.73413 -0.13905
v 0.11592 -0.56750 -0.19201
v 0.31999 -0.56750 -0.10748
v 0.11592 -0.73413 -0.23666
v 0.31999 -0.56750 -0.10748
v 0.35156 -0.73413 -0.13905
v 0.11592 -0.73413 -0.23666
v -0.08816 -0.56750 -0.10748
v 0.11592 -0.56750 -0.19201
v -0.11973 -0.73413 -0.13905
v 0.11592 -0.56750 -0.19201
v 0.11592 -0.73413 -0.23666
v -0.11973 -0.73413 -0.13905
v -0.17269 -0.56750 0.09660
v -0.08816 -0.56750 -0.10748
v -0.21734 -0.73413 0.09660
v -0.08816 -0.56750 -0.10748
v -0.11973 -0.73413 -0.13905
v -0.21734 -0.73413 0.09660
v -0.11973 -0.73413 0.33225
v -0.21734 -0.73413 0.09660
v -0.08816 -0.90076 0.30067
v -0.21734 -0.73413 0.09660
v -0.17269 -0.90076 0.09660
v -0.08816 -0.90076 0.30067
v 0.11592 -0.73413 0.42985
v -0.11973 -0.73413 0.33225
v 0.11592 -0.90076 0.38521
v -0.11973 -0.73413 0.33225
v -0.08816 -0.90076 0.30067
v 0.11592 -0.90076 0.38521
v 0.35156 -0.73413 0.33225
v 0.11592 -0.73413 0.42985
v 0.31999 -0.90076 0.30067
v 0.11592 -0.73413 0.42985
v 0.11592 -0.90076 0.38521
v 0.31999 -0.90076 0.30067
v 0.44917 -0.73413 0.09660
v 0.35156 -0.73413 0.33225
v 0.40453 -0.90076 0.09660
v 0.35156 -0.73413 0.33225
v 0.31999 -0.90076 0.30067
v 0.40453 -0.90076 0.09660
v 0.35156 -0.73413 -0.13905
v 0.44917 -0.73413 0.09660
v 0.31999 -0.90076 -0.10748
v 0.44917 -0.73413 0.09660
v 0.40453 -0.90076 0.09660
v 0.31999 -0.90076 -0.10748
v 0.11592 -0.73413 -0.23666
v 0.35156 -0.73413 -0.13905
v 0.11592 -0.90076 -0.19201
v 0.35156 -0.73413 -0.13905
v 0.31999 -0.90076 -0.10748
v 0.11592 -0.90076 -0.19201
v -0.11973 -0.73413 -0.13905
v 0.11592 -0.73413 -0.23666
v -0.08816 -0.90076 -0.10748
v 0.11592 -0.73413 -0.23666
v 0.11592 -0.90076 -0.19201
v -0.08816 -0.90076 -0.10748
v -0.21734 -0.73413 0.09660
v -0.11973 -0.73413 -0.13905
v -0.17269 -0.90076 0.09660
v -0.11973 -0.73413 -0.13905
v -0.08816 -0.90076 -0.10748
v -0.17269 -0.90076 0.09660
v -0.08816 -0.90076 0.30067
v -0.17269 -0.90076 0.09660
v -0.00191 -1.02274 0.21442
v -0.17269 -0.90076 0.09660
v -0.05071 -1.02274 0.09660
v -0.00191 -1.02274 0.21442
v 0.11592 -0.90076 0.38521
v -0.08816 -0.90076 0.30067
v 0.11592 -1.02274 0.26323
v -0.08816 -0.90076 0.30067
v -0.00191 -1.02274 0.21442
v 0.11592 -1.02274 0.26323
v 0.31999 -0.90076 0.30067
v 0.11592 -0.90076 0.38521
v 0.23374 -1.02274 0.21442
v 0.11592 -0.90076 0.38521
v 0.11592 -1.02274 0.26323
v 0.23374 -1.02274 0.21442
v 0.40453 -0.90076 0.09660
v 0.31999 -0.90076 0.30067
v 0.28254 -1.02274 0.09660
v 0.31999 -0.90076 0.30067
v 0.23374 -1.02274 0.21442
v 0.28254 -1.02274 0.09660
v 0.31999 -0.90076 -0.10748
v 0.40453 -0.90076 0.09660
v 0.23374 -1.02274 -0.02123
v 0.40453 -0.90076 0.09660
v 0.28254 -1.02274 0.09660
v 0.23374 -1.02274 -0.02123
v 0.11592 -0.90076 -0.19201
v 0.31999 -0.90076 -0.10748
v 0.11592 -1.02274 -0.07003
v 0.31999 -0.90076 -0.10748
v 0.23374 -1.02274 -0.02123
v 0.11592 -1.02274 -0.07003
v -0.08816 -0.90076 -0.10748
v 0.11592 -0.90076 -0.19201
v -0.00191 -1.02274 -0.02123
v 0.11592 -0.90076 -0.19201
v 0.11592 -1.02274 -0.07003
v -0.00191 -1.02274 -0.02123
v -0.17269 -0.90076 0.09660
v -0.08816 -0.90076 -0.10748
v -0.05071 -1.02274 0.09660
v -0.08816 -0.90076 -0.10748
v -0.00191 -1.02274 -0.02123
v -0.05071 -1.02274 0.09660
v -0.00191 -1.02274 0.21442
v -0.05071 -1.02274 0.09660
v 0.11592 -1.06739 0.09660
v 0.11592 -1.02274 0.26323
v -0.00191 -1.02274 0.21442
v 0.11592 -1.06739 0.09660
v 0.23374 -1.02274 0.21442
v 0.11592 -1.02274 0.26323
v 0.11592 -1.06739 0.09660
v 0.28254 -1.02274 0.09660
v 0.23374 -1.02274 0.21442
v 0.11592 -1.06739 0.09660
v 0.23374 -1.02274 -0.02123
v 0.28254 -1.02274 0.09660
v 0.11592 -1.06739 0.09660
v 0.11592 -1.02274 -0.07003
v 0.23374 -1.02274 -0.02123
v 0.11592 -1.06739 0.09660
v -0.00191 -1.02274 -0.02123
v 0.11592 -1.02274 -0.07003
v 0.11592 -1.06739 0.09660
v -0.05071 -1.02274 0.09660
v -0.00191 -1.02274 -0.02123
v 0.11592 -1.06739 0.09660
vn -0.25734 0.96042 0.10660
vn -0.25734 0.96042 0.10660
vn -0.25734 0.96042 0.10660
vn -0.10660 0.96042 0.25734
vn -0.10660 0.96042 0.25734
vn -0.10660 0.96042 0.25734
vn 0.10660 0.96042 0.25734
vn 0.10660 0.96042 0.25734
vn 0.10660 0.96042 0.25734
vn 0.25734 0.96042 0.10660
vn 0.25734 0.96042 0.10660
vn 0.25734 0.96042 0.10660
vn 0.25734 0.96042 -0.10660
vn 0.25734 0.96042 -0.10660
vn 0.25734 0.96042 -0.10660
vn 0.10660 0.96042 -0.25734
vn 0.10660 0.96042 -0.25734
vn 0.10660 0.96042 -0.25734
vn -0.10660 0.96042 -0.25734
vn -0.10660 0.96042 -0.25734
vn -0.10660 0.96042 -0.25734
vn -0.25734 0.96042 -0.10660
vn -0.25734 0.96042 -0.10660
vn -0.25734 0.96042 -0.10660
vn -0.67860 0.67860 0.28108
vn -0.67860 0.67860 0.28108
vn -0.67860 0.67860 0.28108
vn -0.67860 0.67860 0.28108
vn -0.67860 0.67860 0.28108
vn -0.67860 0.67860 0.28108
vn -0.28108 0.67860 0.67860
vn -0.28108 0.67860 0.67860
vn -0.28108 0.67860 0.67860
vn -0.28108 0.67860 0.67860
vn -0.28108 0.67860 0.67860
vn -0.28108 0.67860 0.67860
vn 0.28108 0.67860 0.67860
vn 0.28108 0.67860 0.67860
vn 0.28108 0.67860 0.67860
vn 0.28108 0.67860 0.67860
vn 0.28108 0.67860 0.67860
vn 0.28108 0.67860 0.67860
vn 0.67860 0.67860 0.28108
vn 0.67860 0.67860 0.28108
vn 0.67860 0.67860 0.28108
vn 0.67860 0.67860 0.28108
vn 0.67860 0.67860 0.28108
vn 0.67860 0.67860 0.28108
vn 0.67860 0.67860 -0.28108
vn 0.67860 0.67860 -0.28108
vn 0.67860 0.67860 -0.28108
vn 0.67860 0.67860 -0.28108
vn 0.67860 0.67860 -0.28108
vn 0.67860 0.67860 -0.28108
vn 0.28108 0.67860 -0.67860
vn 0.28108 0.67860 -0.67860
vn 0.28108 0.67860 -0.67860
vn 0.28108 0.67860 -0.67860
vn 0.28108 0.67860 -0.67860
vn 0.28108 0.67860 -0.67860
vn -0.28108 0.67860 -0.67860
vn -0.28108 0.67860 -0.67860
vn -0.28108 0.67860 -0.67860
vn -0.28108 0.67860 -0.67860
vn -0.28108 0.67860 -0.67860
vn -0.28108 0.67860 -0.67860
vn -0.67860 0.67860 -0.28108
vn -0.67860 0.67860 -0.28108
vn -0.67860 0.67860 -0.28108
vn -0.67860 0.67860 -0.28108
vn -0.67860 0.67860 -0.28108
vn -0.67860 0.67860 -0.28108
vn -0.89681 0.24030 0.37147
vn -0.89681 0.24030 0.37147
vn -0.89681 0.24030 0.37147
vn -0.89681 0.24030 0.37147
vn -0.89681 0.24030 0.37147
vn -0.89681 0.24030 0.37147
vn -0.37147 0.24030 0.89681
vn -0.37147 0.24030 0.89681
vn -0.37147 0.24030 0.89681
vn -0.37147 0.24030 0.89681
vn -0.37147 0.24030 0.89681
vn -0.37147 0.24030 0.89681
vn 0.37147 0.24030 0.89681
vn 0.37147 0.24030 0.89681
vn 0.37147 0.24030 0.89681
vn 0.37147 0.24030 0.89681
vn 0.37147 0.24030 0.89681
vn 0.37147 0.24030 0.89681
vn 0.89681 0.24030 0.37147
vn 0.89681 0.24030 0.37147
vn 0.89681 0.24030 0.37147
vn 0.89681 0.24030 0.37147
vn 0.89681 0.24030 0.37147
vn 0.89681 0.24030 0.37147
vn 0.89681 0.24030 -0.37147
vn 0.89681 0.24030 -0.37147
vn 0.89681 0.24030 -0.37147
vn 0.89681 0.24030 -0.37147
vn 0.89681 0.24030 -0.37147
vn 0.89681 0.24030 -0.37147
vn 0.37147 0.24030 -0.89681
vn 0.37147 0.24030 -0.89681
vn 0.37147 0.24030 -0.89681
vn 0.37147 0.24030 -0.89681
vn 0.37147 0.24030 -0.89681
vn 0.37147 0.24030 -0.89681
vn -0.37147 0.24030 -0.89681
vn -0.37147 0.24030 -0.89681
vn -0.37147 0.24030 -0.89681
vn -0.37147 0.24030 -0.89681
vn -0.37147 0.24030 -0.89681
vn -0.37147 0.24030 -0.89681
vn -0.89681 0.24030 -0.37147
vn -0.89681 0.24030 -0.37147
vn -0.89681 0.24030 -0.37147
vn -0.89681 0.24030 -0.37147
vn -0.89681 0.24030 -0.37147
vn -0.89681 0.24030 -0.37147
vn -0.89681 -0.24030 0.37147
vn -0.89681 -0.24030 0.37147
vn -0.89681 -0.24030 0.37147
vn -0.89681 -0.24030 0.37147
vn -0.89681 -0.24030 0.37147
vn -0.89681 -0.24030 0.37147
vn -0.37147 -0.24030 0.89681
vn -0.37147 -0.24030 0.89681
vn -0.37147 -0.24030 0.89681
vn -0.37147 -0.24030 0.89681
vn -0.37147 -0.24030 0.89681
vn -0.37147 -0.24030 0.89681
vn 0.37147 -0.24030 0.89681
vn 0.37147 -0.24030 0.89681
vn 0.37147 -0.24030 0.89681
vn 0.37147 -0.24030 0.89681
vn 0.37147 -0.24030 0.89681
vn 0.37147 -0.24030 0.89681
vn 0.89681 -0.24030 0.37147
vn 0.89681 -0.24030 0.37147
vn 0.89681 -0.24030 0.37147
vn 0.89681 -0.24030 0.37147
vn 0.89681 -0.24030 0.37147
vn 0.89681 -0.24030 0.37147
vn 0.89681 -0.24030 -0.37147
vn 0.89681 -0.24030 -0.37147
vn 0.89681 -0.24030 -0.37147
vn 0.89681 -0.24030 -0.37147
vn 0.89681 -0.24030 -0.37147
vn 0.89681 -0.24030 -0.37147
vn 0.37147 -0.24030 -0.89681
vn 0.37147 -0.24030 -0.89681
vn 0.37147 -0.24030 -0.89681
vn 0.37147 -0.24030 -0.89681
vn 0.37147 -0.24030 -0.89681
vn 0.37147 -0.24030 -0.89681
vn -0.37147 -0.24030 -0.89681
vn -0.37147 -0.24030 -0.89681
vn -0.37147 -0.24030 -0.89681
vn -0.37147 -0.24030 -0.89681
vn -0.37147 -0.24030 -0.89681
vn -0.37147 -0.24030 -0.89681
vn -0.89681 -0.24030 -0.37147
vn -0.89681 -0.24030 -0.37147
vn -0.89681 -0.24030 -0.37147
vn -0.89681 -0.24030 -0.37147
vn -0.89681 -0.24030 -0.37147
vn -0.89681 -0.24030 -0.37147
vn -0.67860 -0.67860 0.28108
vn -0.67860 -0.67860 0.28108
vn -0.67860 -0.67860 0.28108
vn -0.67860 -0.67860 0.28108
vn -0.67860 -0.67860 0.28108
vn -0.67860 -0.67860 0.28108
vn -0.28108 -0.67860 0.67860
vn -0.28108 -0.67860 0.67860
vn -0.28108 -0.67860 0.67860
vn -0.28108 -0.67860 0.67860
vn -0.28108 -0.67860 0.67860
vn -0.28108 -0.67860 0.67860
vn 0.28108 -0.67860 0.67860
vn 0.28108 -0.67860 0.67860
vn 0.28108 -0.67860 0.67860
vn 0.28108 -0.67860 0.67860
vn 0.28108 -0.67860 0.67860
vn 0.28108 -0.67860 0.67860
vn 0.67860 -0.67860 0.28108
vn 0.67860 -0.67860 0.28108
vn 0.67860 -0.67860 0.28108
vn 0.67860 -0.67860 0.28108
vn 0.67860 -0.67860 0.28108
vn 0.67860 -0.67860 0.28108
vn 0.67860 -0.67860 -0.28108
vn 0.67860 -0.67860 -0.28108
vn 0.67860 -0.67860 -0.28108
vn 0.67860 -0.67860 -0.28108
vn 0.67860 -0.67860 -0.28108
vn 0.67860 -0.67860 -0.28108
vn 0.28108 -0.67860 -0.67860
vn 0.28108 -0.67860 -0.67860
vn 0.28108 -0.67860 -0.67860
vn 0.28108 -0.67860 -0.67860
vn 0.28108 -0.67860 -0.67860
vn 0.28108 -0.67860 -0.67860
vn -0.28108 -0.67860 -0.67860
vn -0.28108 -0.67860 -0.67860
vn -0.28108 -0.67860 -0.67860
vn -0.28108 -0.67860 -0.67860
vn -0.28108 -0.67860 -0.67860
vn -0.28108 -0.67860 -0.67860
vn -0.67860 -0.67860 -0.28108
vn -0.67860 -0.67860 -0.28108
vn -0.67860 -0.67860 -0.28108
vn -0.67860 -0.67860 -0.28108
vn -0.67860 -0.67860 -0.28108
vn -0.67860 -0.67860 -0.28108
vn -0.25734 -0.96042 0.10660
vn -0.25734 -0.96042 0.10660
vn -0.25734 -0.96042 0.10660
vn -0.10660 -0.96042 0.25734
vn -0.10660 -0.96042 0.25734
vn -0.10660 -0.96042 0.25734
vn 0.10660 -0.96042 0.25734
vn 0.10660 -0.96042 0.25734
vn 0.10660 -0.96042 0.25734
vn 0.25734 -0.96042 0.10660
vn 0.25734 -0.96042 0.10660
vn 0.25734 -0.96042 0.10660
vn 0.25734 -0.96042 -0.10660
vn 0.25734 -0.96042 -0.10660
vn 0.25734 -0.96042 -0.10660
vn 0.10660 -0.96042 -0.25734
vn 0.10660 -0.96042 -0.25734
vn 0.10660 -0.96042 -0.25734
vn -0.10660 -0.96042 -0.25734
vn -0.10660 -0.96042 -0.25734
vn -0.10660 -0.96042 -0.25734
vn -0.25734 -0.96042 -0.10660
vn -0.25734 -0.96042 -0.10660
vn -0.25734 -0.96042 -0.10660
usemtl accent_mud_gold
f 385//385 386//386 387//387
f 388//388 389//389 390//390
f 391//391 392//392 393//393
f 394//394 395//395 396//396
f 397//397 398//398 399//399
f 400//400 401//401 402//402
f 403//403 404//404 405//405
f 406//406 407//407 408//408
f 409//409 410//410 411//411
f 412//412 413//413 414//414
f 415//415 416//416 417//417
f 418//418 419//419 420//420
f 421//421 422//422 423//423
f 424//424 425//425 426//426
f 427//427 428//428 429//429
f 430//430 431//431 432//432
f 433//433 434//434 435//435
f 436//436 437//437 438//438
f 439//439 440//440 441//441
f 442//442 443//443 444//444
f 445//445 446//446 447//447
f 448//448 449//449 450//450
f 451//451 452//452 453//453
f 454//454 455//455 456//456
f 457//457 458//458 459//459
f 460//460 461//461 462//462
f 463//463 464//464 465//465
f 466//466 467//467 468//468
f 469//469 470//470 471//471
f 472//472 473//473 474//474
f 475//475 476//476 477//477
f 478//478 479//479 480//480
f 481//481 482//482 483//483
f 484//484 485//485 486//486
f 487//487 488//488 489//489
f 490//490 491//491 492//492
f 493//493 494//494 495//495
f 496//496 497//497 498//498
f 499//499 500//500 501//501
f 502//502 503//503 504//504
f 505//505 506//506 507//507
f 508//508 509//509 510//510
f 511//511 512//512 513//513
f 514//514 515//515 516//516
f 517//517 518//518 519//519
f 520//520 521//521 522//522
f 523//523 524//524 525//525
f 526//526 527//527 528//528
f 529//529 530//530 531//531
f 532//532 533//533 534//534
f 535//535 536//536 537//537
f 538//538 539//539 540//540
f 541//541 542//542 543//543
f 544//544 545//545 546//546
f 547//547 548//548 549//549
f 550//550 551//551 552//552
f 553//553 554//554 555//555
f 556//556 557//557 558//558
f 559//559 560//560 561//561
f 562//562 563//563 564//564
f 565//565 566//566 567//567
f 568//568 569//569 570//570
f 571//571 572//572 573//573
f 574//574 575//575 576//576
f 577//577 578//578 579//579
f 580//580 581//581 582//582
f 583//583 584//584 585//585
f 586//586 587//587 588//588
f 589//589 590//590 591//591
f 592//592 593//593 594//594
f 595//595 596//596 597//597
f 598//598 599//599 600//600
f 601//601 602//602 603//603
f 604//604 605//605 606//606
f 607//607 608//608 609//609
f 610//610 611//611 612//612
f 613//613 614//614 615//615
f 616//616 617//617 618//618
f 619//619 620//620 621//621
f 622//622 623//623 624//624
